<svg width="128" height="20" viewBox="0 0 128 20" fill="none" xmlns="http://www.w3.org/2000/svg">
<path d="M20.6084 8.9085L16.3802 12.3617C16.1262 12.5684 16.0142 12.9042 16.0917 13.2228L17.3705 18.4456C17.56 19.2939 16.9141 19.9957 16.1907 19.9957C15.9755 19.9957 15.7473 19.9311 15.5363 19.7933L10.9119 16.9516C10.6364 16.7836 10.2919 16.7836 10.0164 16.9559L5.44801 19.7976C5.23703 19.9397 5.00883 20 4.78923 20C4.04865 20 3.38127 19.2982 3.61378 18.4499L4.89257 13.2228C4.97007 12.9042 4.85813 12.5727 4.60839 12.366L0.436167 8.91712C-0.420668 8.18515 0.070182 6.77718 1.16814 6.7169L6.5718 6.32508C6.89472 6.30355 7.17459 6.09688 7.29515 5.79978L9.36189 0.779333C9.57718 0.258342 10.0508 0 10.5244 0C10.9981 0 11.4717 0.258342 11.687 0.779333L13.7494 5.79548C13.87 6.09257 14.1541 6.29494 14.4728 6.32078L19.8764 6.71259C20.9787 6.77287 21.4652 8.17653 20.6084 8.9085Z" fill="#FFE066"/>
<path d="M47.2749 8.9085L43.0467 12.3617C42.7927 12.5684 42.6807 12.9042 42.7582 13.2228L44.037 18.4456C44.2265 19.2939 43.5806 19.9957 42.8572 19.9957C42.642 19.9957 42.4138 19.9311 42.2028 19.7933L37.5785 16.9516C37.3029 16.7836 36.9584 16.7836 36.6829 16.9559L32.1145 19.7976C31.9035 19.9397 31.6753 20 31.4557 20C30.7152 20 30.0478 19.2982 30.2803 18.4499L31.5591 13.2228C31.6366 12.9042 31.5246 12.5727 31.2749 12.366L27.1027 8.91712C26.2458 8.18515 26.7367 6.77718 27.8346 6.7169L33.2383 6.32508C33.5612 6.30355 33.8411 6.09688 33.9617 5.79978L36.0284 0.779333C36.2437 0.258342 36.7173 0 37.1909 0C37.6646 0 38.1382 0.258342 38.3535 0.779333L40.4159 5.79548C40.5365 6.09257 40.8206 6.29494 41.1393 6.32078L46.5429 6.71259C47.6452 6.77287 48.1317 8.17653 47.2749 8.9085Z" fill="#FFE066"/>
<path d="M73.9415 8.9085L69.7133 12.3617C69.4593 12.5684 69.3473 12.9042 69.4248 13.2228L70.7036 18.4456C70.8931 19.2939 70.2472 19.9957 69.5239 19.9957C69.3086 19.9957 69.0804 19.9311 68.8694 19.7933L64.2451 16.9516C63.9695 16.7836 63.6251 16.7836 63.3495 16.9559L58.7811 19.7976C58.5702 19.9397 58.342 20 58.1224 20C57.3818 20 56.7144 19.2982 56.9469 18.4499L58.2257 13.2228C58.3032 12.9042 58.1913 12.5727 57.9415 12.366L53.7693 8.91712C52.9125 8.18515 53.4033 6.77718 54.5013 6.7169L59.9049 6.32508C60.2279 6.30355 60.5077 6.09688 60.6283 5.79978L62.695 0.779333C62.9103 0.258342 63.3839 0 63.8576 0C64.3312 0 64.8048 0.258342 65.0201 0.779333L67.0825 5.79548C67.2031 6.09257 67.4873 6.29494 67.8059 6.32078L73.2096 6.71259C74.3118 6.77287 74.7984 8.17653 73.9415 8.9085Z" fill="#FFE066"/>
<path d="M100.609 8.9085L96.3803 12.3617C96.1263 12.5684 96.0143 12.9042 96.0918 13.2228L97.3706 18.4456C97.5601 19.2939 96.9142 19.9957 96.1909 19.9957C95.9756 19.9957 95.7474 19.9311 95.5364 19.7933L90.9121 16.9516C90.6365 16.7836 90.292 16.7836 90.0165 16.9559L85.4481 19.7976C85.2371 19.9397 85.0089 20 84.7894 20C84.0488 20 83.3814 19.2982 83.6139 18.4499L84.8927 13.2228C84.9702 12.9042 84.8582 12.5727 84.6085 12.366L80.4363 8.91712C79.5795 8.18515 80.0703 6.77718 81.1683 6.7169L86.5719 6.32508C86.8948 6.30355 87.1747 6.09688 87.2953 5.79978L89.362 0.779333C89.5773 0.258342 90.0509 0 90.5246 0C90.9982 0 91.4718 0.258342 91.6871 0.779333L93.7495 5.79548C93.8701 6.09257 94.1543 6.29494 94.4729 6.32078L99.8765 6.71259C100.979 6.77287 101.465 8.17653 100.609 8.9085Z" fill="#BDBDBD"/>
<path d="M127.275 8.9085L123.047 12.3617C122.793 12.5684 122.681 12.9042 122.758 13.2228L124.037 18.4456C124.227 19.2939 123.581 19.9957 122.857 19.9957C122.642 19.9957 122.414 19.9311 122.203 19.7933L117.579 16.9516C117.303 16.7836 116.959 16.7836 116.683 16.9559L112.115 19.7976C111.904 19.9397 111.676 20 111.456 20C110.715 20 110.048 19.2982 110.281 18.4499L111.559 13.2228C111.637 12.9042 111.525 12.5727 111.275 12.366L107.103 8.91712C106.246 8.18515 106.737 6.77718 107.835 6.7169L113.239 6.32508C113.561 6.30355 113.841 6.09688 113.962 5.79978L116.029 0.779333C116.244 0.258342 116.718 0 117.191 0C117.665 0 118.138 0.258342 118.354 0.779333L120.416 5.79548C120.537 6.09257 120.821 6.29494 121.14 6.32078L126.543 6.71259C127.645 6.77287 128.132 8.17653 127.275 8.9085Z" fill="#BDBDBD"/>
</svg>
