<svg width="105" height="122" viewBox="0 0 105 122" fill="none" xmlns="http://www.w3.org/2000/svg">
<path d="M2.07704 117.066C1.53701 117.066 0.996977 117.294 0.602341 117.668C0.207704 118.063 0 118.582 0 119.143C0 119.683 0.228474 120.223 0.602341 120.617C0.996977 121.012 1.51624 121.22 2.07704 121.22C2.63784 121.22 3.1571 120.991 3.55173 120.617C3.94637 120.244 4.15407 119.704 4.15407 119.143C4.15407 118.603 3.9256 118.063 3.55173 117.668C3.17787 117.273 2.61707 117.066 2.07704 117.066Z" fill="#020203"/>
<path d="M67.7435 53.1852L61.8455 83.4848C61.264 86.496 63.5692 89.2996 66.6428 89.2996C68.9895 89.2996 71.0039 87.6382 71.44 85.3331L77.0472 55.5527L67.7435 53.1852Z" fill="#14455A"/>
<path d="M78.542 20.5182L91.9992 33.9754C93.6191 35.5953 93.6191 38.2327 91.9992 39.8526C91.1893 40.6625 90.1302 41.0779 89.071 41.0779C88.0119 41.0779 86.9528 40.6625 86.1428 39.8526L80.9095 34.6192L78.542 20.5182Z" fill="#CCE6F4"/>
<path d="M83.5472 43.6114H80.6398V25.9591C80.6398 21.4942 77.0055 17.8599 72.5405 17.8599C70.3392 17.8599 68.3455 18.7321 66.8918 20.165L48.5958 38.4403C46.9759 40.0602 46.9759 42.6976 48.5958 44.3175C49.4057 45.1274 50.4648 45.5428 51.5239 45.5428C52.5831 45.5428 53.6422 45.1274 54.4521 44.3175L64.4205 34.3491V46.1865C64.4205 51.2122 68.4909 55.2827 73.5166 55.2827H83.5265V69.3629C83.5265 72.125 85.7486 74.3471 88.5106 74.3471C91.2727 74.3471 93.4948 72.125 93.4948 69.3629V53.5797C93.5156 48.0764 89.0506 43.6114 83.5472 43.6114Z" fill="#CCE6F4"/>
<path d="M64.4414 43.6115V46.1866C64.4414 51.2123 68.5118 55.2827 73.5375 55.2827H83.5474V69.363C83.5474 72.125 85.7695 74.3472 88.5315 74.3472C91.2936 74.3472 93.5157 72.125 93.5157 69.363V53.5798C93.5157 48.0764 89.0507 43.6115 83.5474 43.6115H64.4414Z" fill="#14455A"/>
<path d="M73.1842 15.7832C76.1539 15.7832 78.5837 13.3534 78.5837 10.3837V9.55296C78.5837 6.58322 76.1539 4.15344 73.1842 4.15344C70.2144 4.15344 67.7847 6.58322 67.7847 9.55296V10.3837C67.7847 13.3534 70.2144 15.7832 73.1842 15.7832Z" fill="#FCD4AB"/>
<path d="M94.9689 72.2704C95.3635 71.3774 95.5919 70.4014 95.5919 69.363V53.5798C95.5919 49.1148 93.1414 45.2106 89.5279 43.1338C91.0231 43.03 92.4145 42.3862 93.4737 41.3271C95.9034 38.8973 95.9034 34.9515 93.4737 32.5217L80.0164 19.0644C79.9956 19.0437 79.9956 19.0437 79.9749 19.0229C79.6426 18.6699 79.2896 18.3376 78.9157 18.0261C81.2417 16.2816 82.7577 13.4988 82.7577 10.3837V9.55299C82.7577 4.27808 78.4796 0 73.2047 0C67.9298 0 63.6517 4.27808 63.6517 9.55299V10.3837C63.6517 13.2288 64.8978 15.7624 66.8707 17.5277C66.4138 17.8392 65.9777 18.1922 65.5623 18.566C65.5208 18.6076 65.4793 18.6491 65.4377 18.6906L47.1417 36.9659C44.7119 39.3957 44.7119 43.3415 47.1417 45.7713C48.3254 46.955 49.883 47.5988 51.5444 47.5988C53.2057 47.5988 54.7633 46.955 55.947 45.7713L62.3641 39.3542V46.1866C62.3641 49.1771 63.5479 51.8976 65.4793 53.9121L59.789 83.0902C59.519 84.5024 59.6852 85.9353 60.2459 87.2229H66.6215C65.7908 87.2229 65.0016 86.8491 64.4617 86.2053C63.9217 85.5615 63.714 84.7101 63.8802 83.8794L69.2174 56.4872C70.5465 57.0479 72.0002 57.3595 73.537 57.3595H74.6169L69.3835 84.9385C69.1343 86.2676 67.9713 87.2229 66.6215 87.2229H72.997C73.2047 86.7453 73.3708 86.2469 73.4747 85.7069L78.8327 57.3387H81.4701V69.363C81.4701 70.4014 81.6986 71.3774 82.0931 72.2704H94.9689ZM82.7162 27.6414L90.5455 35.4707C91.3554 36.2806 91.3554 37.5889 90.5455 38.3989C90.1509 38.7934 89.6317 39.0011 89.071 39.0011C88.5103 39.0011 87.9911 38.7934 87.5965 38.3989L82.6954 33.4978V27.6414H82.7162ZM82.7162 39.3749L84.6683 41.3271C84.7721 41.4309 84.876 41.5347 84.9798 41.6178C84.5022 41.5555 84.0245 41.5347 83.5261 41.5347H82.6954V39.3749H82.7162ZM67.7844 9.55299C67.7844 6.58325 70.2142 4.15347 73.1839 4.15347C76.1537 4.15347 78.5835 6.58325 78.5835 9.55299V10.3837C78.5835 13.3534 76.1537 15.7832 73.1839 15.7832C70.2142 15.7832 67.7844 13.3534 67.7844 10.3837V9.55299ZM65.23 32.4386C64.9808 32.3348 64.7109 32.2725 64.4409 32.2725C63.9009 32.2725 63.361 32.4802 62.9664 32.8747L52.9981 42.8431C52.6035 43.2377 52.0843 43.4453 51.5236 43.4453C50.9629 43.4453 50.4437 43.2377 50.0491 42.8431C49.6545 42.4485 49.4469 41.9293 49.4469 41.3686C49.4469 40.8079 49.6545 40.2887 50.0491 39.8941L68.2413 21.7019C68.2621 21.6811 68.2828 21.6604 68.3244 21.6396C69.4458 20.5389 70.9411 19.9367 72.5194 19.9367C75.8422 19.9367 78.5419 22.6364 78.5419 25.9592V41.5347H66.4969V34.3492C66.5176 33.5185 66.0192 32.7501 65.23 32.4386ZM91.4385 69.363C91.4385 70.9621 90.1301 72.2704 88.531 72.2704C86.9319 72.2704 85.6236 70.9621 85.6236 69.363V55.2827C85.6236 54.1405 84.6891 53.206 83.5469 53.206H73.537C69.6743 53.206 66.5176 50.0701 66.5176 46.1866V45.6882H83.5469C87.908 45.6882 91.4385 49.2187 91.4385 53.5798V69.363Z" fill="#020203"/>
<path d="M102.923 74.2849H77.3792V89.2374H51.8354V104.19H26.2915V119.142H102.923V74.2849Z" fill="#FFE066"/>
<path d="M102.923 80.5151C102.383 80.5151 101.843 80.7436 101.449 81.1175C101.054 81.5121 100.846 82.0314 100.846 82.5922C100.846 83.1322 101.075 83.6722 101.449 84.0669C101.822 84.4615 102.362 84.6692 102.923 84.6692C103.484 84.6692 104.003 84.4407 104.398 84.0669C104.793 83.693 105 83.153 105 82.5922C105 82.0521 104.772 81.5121 104.398 81.1175C104.024 80.7228 103.463 80.5151 102.923 80.5151Z" fill="#020203"/>
<path d="M102.923 72.2081H77.3789C76.2367 72.2081 75.3022 73.1427 75.3022 74.2849V87.1606H70.9618V87.1814H51.5858C50.5682 87.306 49.7583 88.1782 49.7583 89.2374V102.113H26.2912C25.149 102.113 24.2144 103.048 24.2144 104.19V117.066H9.05428C7.91207 117.066 6.97754 118 6.97754 119.142C6.97754 120.285 7.91207 121.219 9.05428 121.219H26.2912C27.4334 121.219 28.3679 120.285 28.3679 119.142V106.267H51.835C52.9772 106.267 53.9118 105.332 53.9118 104.19V91.3141H77.3789C78.5211 91.3141 79.4556 90.3796 79.4556 89.2374V84.6685H94.6158C95.758 84.6685 96.6925 83.734 96.6925 82.5918C96.6925 81.4496 95.758 80.5151 94.6158 80.5151H79.4556V76.3616H102.923C104.065 76.3616 104.999 75.4271 104.999 74.2849C104.999 73.1427 104.065 72.2081 102.923 72.2081Z" fill="#020203"/>
</svg>
