<svg width="40" height="40" viewBox="0 0 40 40" fill="none" xmlns="http://www.w3.org/2000/svg">
<path d="M8.90509 27.8898L5.78041 37.8498H7.08069C7.63023 37.8498 8.07564 38.3309 8.07564 38.9246C8.07564 39.5182 7.63023 39.9994 7.08069 39.9994H4.42386C4.41346 39.9998 4.40307 40 4.39279 40C4.31541 40 4.23692 39.9901 4.15898 39.9697C4.0858 39.9507 4.01582 39.9229 3.94982 39.8875C3.80843 39.8118 3.68959 39.7029 3.59871 39.5728C3.48805 39.4149 3.41675 39.2229 3.40083 39.014C3.39718 38.9654 3.39641 38.9163 3.39884 38.867C3.40437 38.7546 3.42582 38.6467 3.46097 38.546L7.02055 27.1999C7.19688 26.6376 7.76212 26.3361 8.28214 26.5269C8.80261 26.7174 9.08153 27.3277 8.90509 27.8898ZM5.69694 4.48178C5.69694 2.01052 7.55815 0 9.84575 0C12.1335 0 13.9947 2.01052 13.9947 4.48178C13.9947 6.95305 12.1335 8.96369 9.84575 8.96369C7.55815 8.96381 5.69694 6.95317 5.69694 4.48178ZM7.68683 4.48178C7.68683 5.76787 8.65536 6.81404 9.84575 6.81404C11.0362 6.81404 12.0048 5.76775 12.0048 4.48178C12.0048 3.19582 11.0362 2.14965 9.84575 2.14965C8.65536 2.14965 7.68683 3.19593 7.68683 4.48178ZM39.0051 17.3922H32.7663C32.2168 17.3922 31.7714 17.8734 31.7714 18.4671V24.3711H26.5278C25.9782 24.3711 25.5328 24.8522 25.5328 25.4459V31.1107H20.2893C19.7397 31.1107 19.2943 31.5919 19.2943 32.1855V38.9251C19.2943 39.5187 19.7397 39.9999 20.2893 39.9999C20.8388 39.9999 21.2842 39.5187 21.2842 38.9251V33.2604H26.5278C27.0773 33.2604 27.5227 32.7792 27.5227 32.1855V26.5207H32.7663C33.3158 26.5207 33.7613 26.0396 33.7613 25.4459C33.7613 25.4054 33.7592 25.3655 33.7552 25.3262C33.7592 25.2869 33.7613 25.2471 33.7613 25.2066V19.5419H39.0051C39.5546 19.5419 40 19.0607 40 18.4671C40 17.8734 39.5546 17.3922 39.0051 17.3922ZM15.8948 16.8314C14.9435 14.2754 13.7005 11.5076 10.9778 11.0223C10.3459 10.91 6.70538 10.9027 5.99465 11.046C3.36092 11.5778 1.7312 14.2391 0.410247 16.692L0.134869 17.2038C-0.0170263 17.4859 -0.0420105 17.8272 0.0669913 18.1316L2.26903 24.2851C2.46713 24.8387 3.04343 25.1139 3.55582 24.9C4.06833 24.686 4.32315 24.0636 4.12504 23.5099L2.09535 17.8378L2.1304 17.7726C3.27978 15.6382 4.5532 13.5238 6.35847 13.1592C6.83151 13.0722 10.164 13.0598 10.6541 13.1431C12.1911 13.4171 13.0925 15.0642 14.0484 17.633L17.1862 26.0657C17.3423 26.4851 17.7154 26.74 18.1098 26.74C18.2333 26.74 18.3589 26.715 18.4806 26.6622C18.9904 26.4408 19.2376 25.8148 19.0326 25.2641L15.8948 16.8314ZM15.2992 37.8498H13.4877L11.1166 17.695C11.0474 17.1059 10.548 16.6892 10.0042 16.7642C9.45905 16.8391 9.07335 17.3772 9.14266 17.966L11.6207 39.0312C11.6575 39.4348 11.901 39.7729 12.2353 39.9201C12.3518 39.9716 12.4786 39.9996 12.6099 39.9996C12.6184 39.9996 12.627 39.9995 12.6355 39.9993H15.2992C15.8487 39.9993 16.2941 39.5181 16.2941 38.9245C16.2941 38.3308 15.8486 37.8498 15.2992 37.8498Z" fill="#50514F"/>
</svg>
