<svg width="105" height="88" viewBox="0 0 105 88" fill="none" xmlns="http://www.w3.org/2000/svg">
<path d="M21.4119 50.787L15.7799 79.7203C15.2247 82.5958 17.4259 85.273 20.3609 85.273C22.6018 85.273 24.5254 83.6865 24.9418 81.4853L30.316 53.0477L21.4119 50.787Z" fill="#14455A"/>
<path d="M31.7441 19.593L44.5946 32.4434C46.1414 33.9902 46.1414 36.5087 44.5946 38.0556C43.8212 38.829 42.8098 39.2256 41.7984 39.2256C40.787 39.2256 39.7757 38.829 39.0023 38.0556L34.0049 33.0582L31.7441 19.593Z" fill="#CCE6F4"/>
<path d="M36.5038 41.645H33.7275V24.7887C33.7275 20.525 30.2571 17.0546 25.9934 17.0546C23.8914 17.0546 21.9876 17.8875 20.5994 19.2558L3.12837 36.7269C1.58156 38.2737 1.58156 40.7922 3.12837 42.339C3.90178 43.1124 4.91316 43.5091 5.92453 43.5091C6.93591 43.5091 7.94729 43.1124 8.7207 42.339L18.2395 32.8202V44.1238C18.2395 48.9229 22.1264 52.8098 26.9255 52.8098H36.484V66.2353C36.484 68.8728 38.6059 70.9947 41.2434 70.9947C43.881 70.9947 46.0029 68.8728 46.0029 66.2353V51.1638C46.0227 45.9086 41.759 41.645 36.5038 41.645Z" fill="#CCE6F4"/>
<path d="M18.2593 41.645V44.104C18.2593 48.9031 22.1461 52.7899 26.9452 52.7899H36.5037V66.2353C36.5037 68.8728 38.6257 70.9947 41.2632 70.9947C43.9007 70.9947 46.0226 68.8728 46.0226 66.2353V51.1638C46.0226 45.9086 41.7589 41.645 36.5037 41.645H18.2593Z" fill="#14455A"/>
<path d="M26.6277 15.0715C29.4635 15.0715 31.7838 12.7513 31.7838 9.9155V9.12226C31.7838 6.28644 29.4635 3.96622 26.6277 3.96622C23.7919 3.96622 21.4717 6.28644 21.4717 9.12226V9.9155C21.4717 12.7513 23.7721 15.0715 26.6277 15.0715Z" fill="#FCD4AB"/>
<path d="M47.4108 69.0117C47.7876 68.1589 48.0057 67.2269 48.0057 66.2353V51.1638C48.0057 46.9002 45.6657 43.172 42.2151 41.1889C43.6429 41.0897 44.9716 40.4749 45.983 39.4636C48.3032 37.1433 48.3032 33.3755 45.983 31.0553L33.1325 18.2048C33.1127 18.185 33.1127 18.185 33.0929 18.1651C32.7756 17.828 32.4385 17.5107 32.0815 17.2133C34.3026 15.5475 35.7502 12.8901 35.7502 9.91547V9.12223C35.7502 4.08517 31.6651 0 26.628 0C21.5909 0 17.5058 4.08517 17.5058 9.12223V9.91547C17.5058 12.6323 18.6956 15.0517 20.5796 16.7373C20.1433 17.0348 19.7268 17.3719 19.3302 17.7289C19.2905 17.7685 19.2509 17.8082 19.2112 17.8478L1.74016 35.2991C-0.580055 37.6193 -0.580055 41.3872 1.74016 43.7074C2.87053 44.8377 4.35785 45.4525 5.94432 45.4525C7.5308 45.4525 9.01812 44.8377 10.1485 43.7074L16.2762 37.5796V44.104C16.2762 46.9597 17.4066 49.5575 19.2509 51.4811L13.837 79.3436C13.5792 80.6921 13.7379 82.0604 14.2733 83.2899H20.3614C19.5682 83.2899 18.8146 82.933 18.299 82.3182C17.7834 81.7035 17.5851 80.8904 17.7437 80.0972L22.8205 53.9402C24.0896 54.4756 25.4778 54.7731 26.9453 54.7731H27.9765L22.9791 81.1085C22.7411 82.3777 21.6306 83.2899 20.3416 83.2899H26.4297C26.628 82.8338 26.7866 82.3579 26.8858 81.8423L32.0022 54.7532H34.5207V66.2353C34.5207 67.2269 34.7388 68.1589 35.1156 69.0117H47.4108ZM35.7106 26.395L43.1868 33.8712C43.9602 34.6446 43.9602 35.894 43.1868 36.6674C42.81 37.0442 42.3143 37.2425 41.7788 37.2425C41.2434 37.2425 40.7476 37.0442 40.3708 36.6674L35.6907 31.9873V26.395H35.7106ZM35.7106 37.5995L37.5747 39.4636C37.6738 39.5627 37.773 39.6619 37.8721 39.7412C37.416 39.6817 36.9599 39.6619 36.484 39.6619H35.6907V37.5995H35.7106ZM21.4719 9.12223C21.4719 6.28641 23.7922 3.96619 26.628 3.96619C29.4638 3.96619 31.784 6.28641 31.784 9.12223V9.91547C31.784 12.7513 29.4638 15.0715 26.628 15.0715C23.7922 15.0715 21.4719 12.7513 21.4719 9.91547V9.12223ZM19.0327 30.9759C18.7948 30.8768 18.537 30.8173 18.2792 30.8173C17.7636 30.8173 17.248 31.0156 16.8712 31.3924L7.35232 40.9112C6.97553 41.288 6.47976 41.4863 5.94432 41.4863C5.40889 41.4863 4.91311 41.288 4.53633 40.9112C4.15954 40.5344 3.96123 40.0387 3.96123 39.5032C3.96123 38.9678 4.15954 38.472 4.53633 38.0952L21.9082 20.7233C21.9281 20.7035 21.9479 20.6837 21.9876 20.6638C23.0584 19.6128 24.4863 19.0377 25.9934 19.0377C29.1664 19.0377 31.7444 21.6157 31.7444 24.7887V39.6619H20.2424V32.8004C20.2424 32.0071 19.7665 31.2734 19.0327 30.9759ZM44.0396 66.2353C44.0396 67.7623 42.7902 69.0117 41.2632 69.0117C39.7362 69.0117 38.4869 67.7623 38.4869 66.2353V52.79C38.4869 51.6993 37.5945 50.8069 36.5038 50.8069H26.9453C23.2567 50.8069 20.2424 47.8124 20.2424 44.104V43.6281H36.5038C40.6683 43.6281 44.0396 46.9993 44.0396 51.1638V66.2353Z" fill="#020203"/>
<path d="M103.017 42.4382H78.6249V56.7165H54.2329V70.9947H29.8408V85.273H103.017V42.4382Z" fill="#FFE066"/>
<path d="M5.07147 83.29C4.55587 83.29 4.04026 83.5081 3.66348 83.8651C3.28669 84.2418 3.08838 84.7376 3.08838 85.2731C3.08838 85.7887 3.30652 86.3043 3.66348 86.6811C4.02043 87.0578 4.53604 87.2562 5.07147 87.2562C5.60691 87.2562 6.10268 87.038 6.47947 86.6811C6.85626 86.3241 7.05457 85.8085 7.05457 85.2731C7.05457 84.7575 6.83643 84.2418 6.47947 83.8651C6.10268 83.4883 5.58708 83.29 5.07147 83.29Z" fill="#020203"/>
<path d="M103.017 48.3875C102.501 48.3875 101.986 48.6056 101.609 48.9626C101.232 49.3394 101.034 49.8352 101.034 50.3706C101.034 50.8862 101.252 51.4018 101.609 51.7786C101.986 52.1554 102.481 52.3537 103.017 52.3537C103.552 52.3537 104.048 52.1355 104.425 51.7786C104.802 51.4216 105 50.906 105 50.3706C105 49.855 104.782 49.3394 104.425 48.9626C104.068 48.5858 103.532 48.3875 103.017 48.3875Z" fill="#020203"/>
<path d="M103.017 40.4551H78.6248C77.5341 40.4551 76.6417 41.3475 76.6417 42.4382V54.7334H72.4971V54.7532H53.9948C53.0231 54.8722 52.2497 55.7051 52.2497 56.7165V69.0117H29.8407C28.75 69.0117 27.8576 69.9041 27.8576 70.9948V83.2899H13.381C12.2903 83.2899 11.3979 84.1823 11.3979 85.273C11.3979 86.3637 12.2903 87.2561 13.381 87.2561H29.8407C30.9314 87.2561 31.8238 86.3637 31.8238 85.273V72.9779H54.2328C55.3235 72.9779 56.2159 72.0855 56.2159 70.9948V58.6996H78.6248C79.7155 58.6996 80.6079 57.8072 80.6079 56.7165V52.3537H95.0845C96.1752 52.3537 97.0676 51.4613 97.0676 50.3706C97.0676 49.2799 96.1752 48.3875 95.0845 48.3875H80.6079V44.4213H103.017C104.108 44.4213 105 43.5289 105 42.4382C105 41.3277 104.108 40.4551 103.017 40.4551Z" fill="#020203"/>
</svg>
