<svg width="193" height="193" viewBox="0 0 193 193" fill="none" xmlns="http://www.w3.org/2000/svg">
<circle cx="96.0553" cy="96.9447" r="94.2765" fill="#C9E41E"/>
<path d="M96.5023 0C43.291 0 0 43.2888 0 96.5C0 149.709 43.291 193 96.5023 193C149.714 193 193 149.709 193 96.4977C192.998 43.2888 149.711 0 96.5023 0ZM12.3545 59.5509C12.462 59.8895 12.5375 60.2396 12.51 60.6514C12.3682 62.7242 13.1529 63.7263 15.7268 64.0123C18.3006 64.2982 19.1586 60.7955 20.8036 60.6514C22.4485 60.5073 24.3773 60.5095 23.5216 62.0104C22.6682 63.5112 19.5887 67.4441 21.4511 67.9451C23.3088 68.4462 26.5278 66.3001 27.4567 68.874C28.3833 71.4478 26.9534 73.6648 27.9578 74.3077C28.9598 74.9506 29.8155 77.0257 30.6391 77.3094C31.4628 77.5931 32.426 75.8794 32.9979 76.4514C33.5699 77.0234 34.7138 77.632 35.0685 77.5244C35.4254 77.4169 36.7066 76.2135 36.7066 76.2135C36.7066 76.2135 40.7103 72.5895 42.806 73.3536C44.8994 74.1178 46.6153 74.5799 50.4338 74.7309C54.2454 74.8796 54.8173 75.8337 57.2974 78.1216C59.7706 80.4094 57.2974 80.2172 62.2529 80.7892C67.2061 81.3612 64.5408 87.845 69.8807 88.417C75.2137 88.9889 77.5084 90.1329 80.5558 91.2768C83.6078 92.4207 88.7555 94.1343 87.9914 97.3763C87.225 100.618 83.0359 104.05 82.8437 106.338C82.6492 108.626 83.4157 115.681 81.1278 117.018C78.8399 118.349 73.3125 120.065 72.7405 122.353C72.1685 124.641 71.7819 130.884 68.7367 133.197C65.6847 135.508 63.2779 138.56 62.3879 139.704C61.4865 140.848 58.4413 140.656 56.9107 142.944C55.3893 145.232 52.1497 152.1 53.1014 153.052C54.0509 154.003 57.1052 154.003 55.0095 156.099C52.907 158.199 53.6734 161.439 54.0509 163.535C54.4375 165.635 60.3425 165.255 59.0133 167.351C57.6772 169.446 48.5257 174.402 46.43 159.531C44.3275 144.66 44.1421 140.656 44.7141 133.984C45.2861 127.313 46.6222 113.201 45.0939 112.058C43.5701 110.914 36.7066 113.206 32.1308 97.7583C27.5551 82.3152 32.7028 85.747 33.6545 84.6031C34.604 83.4591 34.9907 79.6453 34.9907 79.6453C34.9907 79.6453 31.3186 81.3131 27.8868 77.7372C24.455 74.1613 22.1671 71.3037 19.3073 70.4435C16.4475 69.5832 17.4496 67.1535 14.4456 67.7255C13.3451 67.9382 11.4188 67.8124 9.35053 67.332C10.2382 64.6872 11.238 62.0882 12.3545 59.5509ZM113.222 6.12691C113.668 6.51585 114.009 6.88648 114.009 6.88648C114.009 6.88648 113.963 8.17227 114.464 9.53126C114.968 10.8903 116.398 12.8921 117.61 15.3219C118.825 17.7516 115.54 19.0396 112.604 19.3256C109.669 19.6116 112.604 15.3928 113.105 14.5348C113.606 13.6769 112.819 11.675 112.604 10.9612C112.389 10.2474 110.458 9.24527 110.175 7.95949C109.992 7.14044 110.593 6.26876 111.051 5.73797C111.778 5.85465 112.499 5.99422 113.222 6.12691ZM183.334 66.3871C182.785 66.7737 182.213 67.181 181.6 67.6362C174.928 72.5941 172.162 71.64 172.162 71.64C172.162 65.6344 163.109 54.481 159.293 52.4791C155.481 50.4772 166.255 66.9682 169.973 71.926C173.69 76.8838 176.452 74.5937 179.982 73.7357C183.508 72.8778 177.408 81.7432 173.404 85.8431C169.401 89.943 164.441 89.9407 166.921 99.4742C169.401 109.01 165.205 110.06 161.965 112.062C158.725 114.064 160.249 119.305 157.675 120.449C155.101 121.593 159.865 126.075 150.526 130.839C141.182 135.607 139.18 132.269 138.416 128.551C137.656 124.833 133.367 124.261 133.939 119.305C134.511 114.345 130.694 109.39 132.41 107.102C134.126 104.814 132.41 96.2346 129.363 92.8028C126.311 89.371 129.363 85.9392 128.979 84.2233C128.599 82.5074 126.119 84.2233 124.787 82.3564C123.451 80.4895 131.651 76.9799 118.111 80.7915C104.576 84.6031 104.576 80.7915 99.8083 76.4079C95.0449 72.0244 96.9484 71.2602 96.5687 63.0628C96.1889 54.8654 103.052 53.3394 105.912 48.8963C108.772 44.4533 111.82 42.2821 122.879 40.5662C133.939 38.8503 129.935 43.426 129.935 45.1099C129.935 46.7938 140.61 49.5255 140.61 48.7636C140.61 48.0018 139.274 44.7599 141.754 45.1419C143.09 45.524 156.053 47.6197 156.053 47.6197C160.295 46.9997 159.865 41.7101 159.437 40.8979C159.007 40.0857 157.819 39.8501 154.102 40.8979C150.384 41.9458 148.19 38.3241 147.998 35.9401C147.81 33.5562 154.337 32.8904 156.197 32.5083C158.057 32.1262 159.723 33.2725 161.251 33.8902C162.038 34.2105 162.722 34.0206 163.432 33.5836C172.199 42.909 179.044 54.0532 183.334 66.3871ZM105.743 15.4683C105.743 14.7545 108.818 11.2494 108.818 11.2494C111.749 10.4624 110.392 14.5394 109.532 15.4683C108.669 16.3972 105.743 16.1821 105.743 15.4683ZM155.909 27.9326C154.813 27.8845 154.051 26.5507 153.335 25.4548C152.621 24.3589 151.333 26.9808 150.954 27.7907C150.569 28.6006 150.141 30.3646 150.283 31.7945C150.425 33.2244 149.425 33.7026 148.666 34.1785C147.902 34.6543 147.808 33.9886 147.137 33.6065C146.472 33.2244 144.85 33.8444 144.136 35.3224C143.422 36.8004 144.376 40.1841 144.236 40.2322C144.095 40.2802 142.52 39.7563 141.377 38.3264C140.233 36.8965 138.896 33.3686 138.755 32.3207C138.613 31.2729 135.753 28.5549 133.801 27.8868C131.845 27.2188 133.561 30.0786 133.893 30.6048C134.227 31.131 136.801 32.9888 136.947 34.2746C137.089 35.5603 134.419 40.088 135.089 38.4682C135.755 36.8484 133.753 36.0843 133.181 34.8465C132.609 33.6088 130.415 32.2727 128.512 30.1747C126.604 28.0767 125.84 30.0786 124.602 29.5066C123.364 28.9347 122.314 30.2708 121.17 29.9848C120.026 29.6988 120.406 31.3186 120.312 32.8446C120.218 34.3706 119.646 33.6065 117.832 35.4185C116.022 37.2305 116.308 38.5643 115.258 39.2255C114.213 39.8867 112.112 40.4701 108.967 40.5662C105.821 40.6623 106.013 39.1363 106.107 37.5142C106.205 35.8921 106.679 33.7026 107.635 31.7007C108.587 29.6988 113.641 30.6506 114.686 30.3646C115.736 30.0786 115.071 28.4565 115.071 26.5027C115.071 24.5488 112.684 23.5467 111.685 22.8787C110.685 22.2106 112.687 22.1168 114.975 21.5449C117.262 20.9729 118.692 19.829 119.264 18.637C119.836 17.445 122.602 15.0633 123.888 14.155C125.174 13.2468 126.368 12.9173 127.32 12.2492C128.276 11.5812 130.058 13.3932 130.058 13.3932L134.254 12.716C142.605 16.491 150.288 21.4739 157.087 27.4476C156.678 27.6558 156.442 27.9577 155.909 27.9326ZM65.7396 9.88588C66.4901 10.6935 67.1375 11.5217 67.348 12.2881C67.92 14.3953 65.9181 17.6829 67.7781 18.685C69.6358 19.6871 71.4959 22.9748 70.066 22.9748C68.636 22.9748 62.7723 22.261 63.3442 21.5449C63.9162 20.8288 65.4925 18.5432 65.5863 17.5891C65.6801 16.6351 65.3942 17.0149 63.3923 17.493C61.3904 17.9712 56.627 16.8273 55.5769 17.5891C54.5267 18.351 55.3847 18.7811 56.1946 19.829C57.0068 20.8768 56.0528 21.2108 56.4348 22.1168C56.8146 23.0228 57.5307 23.7847 58.3887 23.9746C59.2466 24.1645 59.6264 22.8284 60.4386 23.4964C61.2485 24.1645 57.0526 26.6171 55.9087 27.5116C54.7647 28.4062 53.2982 28.6189 53.7626 27.5116C54.227 26.4043 53.5133 25.8666 53.0488 26.2258C52.5844 26.585 49.1869 27.2622 48.4731 29.4083C47.7593 31.5543 45.0413 31.838 43.8974 33.698C42.7534 35.558 41.3235 39.9897 39.0356 41.9915C36.7478 43.9934 31.7419 44.4212 32.0302 47.5694C32.3184 50.7175 31.3163 55.8629 31.1722 54.7189C31.0281 53.575 31.6023 50.4292 28.5984 49.5712C25.5944 48.7133 23.3088 48.5692 21.8766 49.2853C21.1926 49.6261 19.4423 49.3059 17.5823 49.4271C28.4771 31.2317 45.4806 17.1041 65.7396 9.88588Z" fill="#237CA1"/>
</svg>
