<svg width="308" height="310" viewBox="0 0 308 310" fill="none" xmlns="http://www.w3.org/2000/svg">
<path d="M227.462 35.154C214.027 11.8932 205.185 0 180.627 0H116.948C140.595 0.420925 149.4 12.2793 162.627 35.154L191.453 85.101L157.855 104.499L237.602 108.882L273.68 37.6274L240.08 57.0266L227.462 35.154Z" fill="#77BD43"/>
<path d="M53.3843 204.559L82.2268 154.621L115.826 174.02L79.747 102.765L0 107.147L33.5998 126.547L20.9666 148.41C7.54028 171.677 1.66111 185.28 13.9403 206.548L45.7791 261.695C34.3203 241.006 40.1875 227.451 53.3843 204.559Z" fill="#77BD43"/>
<path d="M254.716 214.466L197.047 214.457V175.66L153.378 242.532L197.047 309.404V270.606L222.298 270.615C249.16 270.609 263.881 268.899 276.16 247.63L308 192.484C295.811 212.752 281.139 214.449 254.716 214.466Z" fill="#77BD43"/>
<path d="M258.011 200.406C296.698 201.109 313.295 183.872 299.899 160.622L274.403 116.475L225.762 144.558L258.011 200.406Z" fill="#77BD43"/>
<path d="M93.4063 22.9448L67.9777 67.0049L116.619 95.0883L148.804 39.3288C130.07 5.47295 106.844 -0.281005 93.4063 22.9448Z" fill="#77BD43"/>
<path d="M77.4216 270.61L128.29 270.602V214.436L63.9104 214.441C43.9575 247.594 50.5881 270.585 77.4216 270.61Z" fill="#77BD43"/>
</svg>
