<svg width="204" height="155" viewBox="0 0 204 155" fill="none" xmlns="http://www.w3.org/2000/svg">
<path d="M29.1906 56.1587L32.418 57.0728L29.6614 64.7516L26.4341 63.8375L29.1906 56.1587Z" fill="#388E3C"/>
<path d="M50.1648 62.0967L63.0743 65.7459L60.3253 73.432L47.4082 69.7755L50.1648 62.0967Z" fill="#388E3C"/>
<path d="M35.6452 57.9873L46.9372 61.1832L44.1807 68.862L32.8887 65.6661L35.6452 57.9873Z" fill="#388E3C"/>
<path d="M46.7248 112.433H46.7931L59.6646 76.5984L24.7331 66.7842L8.42154 87.0416L0 146.805L33.2913 152.041C33.1478 151.027 33.2571 149.994 33.6102 149.028L46.7248 112.433Z" fill="#388E3C"/>
<path d="M86.7063 137.416L45.1757 123.521L35.8277 149.043C35.6813 149.381 35.6083 149.743 35.613 150.109C35.6178 150.475 35.7002 150.835 35.8554 151.169C36.0105 151.503 36.2349 151.802 36.5149 152.049C36.7949 152.296 37.1244 152.485 37.4832 152.605C38.2511 152.884 39.0836 152.955 39.8904 152.81L82.6436 154.609L86.7063 137.416Z" fill="#388E3C"/>
<path d="M195.279 120.888L173.872 60.2256L142.791 69.7327L165.982 126.132C165.982 126.132 137.885 135.288 131.408 137.306C131.119 137.387 130.891 137.467 130.724 137.526C126.753 138.988 120.017 148.591 129.167 152.152C131.499 153.066 135.569 153.425 140.444 153.439C154.675 153.439 183.6 146.47 183.623 146.455C189.637 145.153 198.423 146.221 201.787 139.8C207.034 129.81 195.279 120.888 195.279 120.888ZM160.682 101.143L150.096 73.6818L151.683 73.1991L162.269 100.675L160.682 101.143ZM165.238 99.7606L154.652 72.2777L156.232 71.8023L166.833 99.2779L165.238 99.7606ZM170.273 98.2321L159.702 70.7566L161.282 70.2812L171.867 97.7568L170.273 98.2321ZM175.307 96.7037L164.722 69.2281L166.301 68.7454L176.887 96.2283L175.307 96.7037ZM180.342 95.1752L169.772 67.6777L171.351 67.195L181.937 94.6779L180.342 95.1752Z" fill="#388E3C"/>
<path d="M152.524 5.00952L144.975 13.895C144.057 11.84 135.863 0.358345 134.344 0.0950712L71.9457 0C71.847 0.219395 77.0943 2.23052 79.9648 3.35675C83.7486 4.96636 87.3774 6.89478 90.8088 9.11952C99.3746 14.3923 108.275 27.2196 113.788 35.2641C111.98 35.8784 105.434 37.4581 105.434 37.4581L108.1 51.5578L117.478 51.7846C117.478 51.7846 127.859 51.141 132.795 48.9763C133.553 48.6462 134.287 48.265 134.99 47.8354C132.089 45.3197 132.833 37.9554 134.792 35.4469C139.348 29.6403 147.018 32.3608 153.07 34.6717C153.791 34.4571 154.477 34.1443 155.106 33.743C158.508 31.6295 161.006 27.1611 162.305 23.8702C163.914 19.7894 166.534 13.4197 166.534 13.4197L152.524 5.00952Z" fill="#388E3C"/>
<path d="M91.9027 13.1635C86.7085 8.89265 69.1213 1.50635 69.1213 1.50635C63.5018 5.6456 41.252 30.759 41.252 30.759C41.252 30.759 57.0243 42.7746 61.9755 46.731C65.7724 49.7586 78.1807 56.6769 78.1807 56.6769C78.1807 56.6769 79.6615 52.8375 79.8285 52.289C80.9524 48.6324 96.8766 26.7368 100.962 21.8443C98.1076 18.795 95.0834 15.8971 91.9027 13.1635Z" fill="#388E3C"/>
</svg>
