<svg width="90" height="101" viewBox="0 0 90 101" fill="none" xmlns="http://www.w3.org/2000/svg">
<path d="M88.5077 80.5754C88.5077 80.5754 84.3261 83.9898 77.1604 87.5367H12.8391C5.67335 83.9898 1.4917 80.5754 1.4917 80.5754C18.0253 64.0456 30.9723 40.37 30.9723 40.37C30.9723 40.37 30.9723 38.291 30.9723 33.411C30.9723 28.5333 27.5166 15.5182 27.5166 15.5182C28.8719 11.7049 32.1362 10.8955 35.4802 11.2454C40.1595 11.737 44.9997 14.5036 44.9997 14.5036C44.9997 14.5036 59.2316 6.37157 62.4844 15.5182C62.4844 15.5182 59.0271 28.5333 59.0271 33.411V40.37C59.0271 40.37 71.9741 64.0456 88.5077 80.5754Z" fill="#FFE066"/>
<path d="M39.7499 33.411C38.7789 37.4633 36.2505 46.018 36.2505 46.018L34.2711 49.9554L30.5205 87.5367H12.8391C5.67335 83.9898 1.4917 80.5754 1.4917 80.5754C18.0253 64.0456 30.9723 40.37 30.9723 40.37C30.9723 40.37 30.9723 38.291 30.9723 33.411C30.9723 28.5333 27.5166 15.5182 27.5166 15.5182C28.8719 11.7049 32.1362 10.8955 35.4802 11.2454L35.4886 11.2493C28.2785 22.4917 41.1481 27.58 39.7499 33.411Z" fill="#EABE32"/>
<path d="M59.0278 40.37H30.9722V33.411H59.0278" fill="#FB6572"/>
<path d="M39.4909 40.37H30.9722V33.411H39.4909" fill="#EE5D5D"/>
<path d="M34.27 49.9562C34.27 49.9562 24.3683 72.9327 11.7246 88.977C11.7246 88.977 25.5629 98.8741 44.9986 98.8741C64.4344 98.8741 78.2727 88.977 78.2727 88.977C65.6289 72.9327 55.7273 49.9562 55.7273 49.9562" fill="#FFE066"/>
<path d="M89.5626 79.521C74.4234 64.3856 62.1487 42.8938 60.5193 39.9833V33.4103C60.5193 32.1016 60.798 29.9767 61.347 27.0945C61.5017 26.2844 60.971 25.5026 60.1609 25.3494C59.3515 25.1947 58.5712 25.7254 58.4166 26.5355C57.9923 28.7516 57.7259 30.5296 57.6064 31.9186H32.3894C31.9476 26.8434 29.6534 17.8055 29.083 15.6093C29.6297 14.3344 30.4835 13.4967 31.6811 13.051C35.5327 11.6229 42.0675 14.5511 44.2597 15.8008C44.7176 16.0611 45.2805 16.0611 45.7376 15.8008C47.9322 14.5511 54.4677 11.6206 58.3208 13.051C59.5161 13.4967 60.3699 14.3359 60.919 15.6093C60.6961 16.4608 60.2068 18.379 59.6739 20.6685C59.487 21.4725 59.9863 22.2743 60.788 22.4611C61.5913 22.6479 62.393 22.1487 62.5798 21.347C63.2904 18.2993 63.9191 15.9256 63.9268 15.9018C64.0026 15.6093 63.9903 15.303 63.8892 15.019C63.2384 13.1881 62.1725 11.8159 60.7122 10.9146C60.5751 8.84181 59.811 3.85002 55.7288 0.359057C55.3927 0.0726738 54.9486 -0.0529059 54.5129 0.0206042C54.0795 0.0925827 53.6997 0.352931 53.4745 0.732733C53.3451 0.949435 50.5104 5.78808 50.1069 10.6933C49.8802 10.7676 49.6512 10.8411 49.4185 10.9223C47.4965 11.5847 45.8869 12.355 45.0002 12.8121C44.1104 12.355 42.5032 11.5847 40.5796 10.9223C40.3484 10.8411 40.1202 10.7676 39.8912 10.6933C39.4869 5.78808 36.6545 0.949435 36.5251 0.732733C36.3 0.352931 35.9202 0.0925827 35.4845 0.0206042C35.0511 -0.0529059 34.6054 0.0726738 34.2708 0.359057C30.1872 3.85002 29.423 8.84335 29.2874 10.9146C27.8272 11.8159 26.7613 13.1881 26.1104 15.019C26.0093 15.303 25.9971 15.6093 26.0744 15.9018C26.1089 16.029 29.4804 28.783 29.4804 33.4103V39.9833C27.8494 42.8938 15.5747 64.3856 0.435476 79.521C0.136842 79.8189 -0.0201331 80.2293 0.00207304 80.6504C0.0219819 81.0724 0.220306 81.4644 0.546507 81.7309C0.710373 81.8641 4.31696 84.7846 10.5577 88.0497C10.5554 88.0497 10.5538 88.0512 10.5538 88.0535C10.3011 88.3736 10.1893 88.7833 10.2475 89.1876C10.305 89.5911 10.5255 89.9533 10.8563 90.1899C10.9712 90.2734 13.7263 92.2313 18.4914 94.4213C18.6943 94.5132 18.9049 94.5584 19.1139 94.5584C19.679 94.5584 20.2196 94.2345 20.4708 93.6893C20.8146 92.9396 20.4869 92.0537 19.7388 91.7099C17.0985 90.4962 15.1015 89.3507 13.8978 88.6102C26.043 72.6754 35.5442 50.7701 35.6399 50.545C35.9661 49.7892 35.6177 48.9117 34.8619 48.5855C34.1039 48.2593 33.2263 48.6077 32.9001 49.3658C32.8067 49.5802 23.8921 70.1247 12.3954 85.6399C8.32709 83.5434 5.34304 81.5502 3.75185 80.4077C18.0136 65.7026 29.5102 45.9858 31.8457 41.8616H58.1516C60.4894 45.9858 71.9861 65.7026 86.2478 80.4077C84.6604 81.5479 81.6825 83.5395 77.6042 85.6399C66.1053 70.1247 57.1906 49.5802 57.0972 49.3658C56.7733 48.6077 55.8935 48.2593 55.1377 48.5855C54.3796 48.9117 54.032 49.7892 54.3582 50.545C54.4554 50.7701 63.9566 72.6731 76.1003 88.6087C72.2763 90.9556 60.396 97.3816 45.0002 97.3816C38.3789 97.3816 31.6987 96.2101 25.1456 93.8983C24.3676 93.6234 23.5161 94.0316 23.242 94.8096C22.9694 95.5852 23.3775 96.4383 24.1532 96.7132C31.0264 99.1359 38.0412 100.366 45.0002 100.366C64.6871 100.366 78.5606 90.6057 79.1418 90.1899C79.4741 89.9533 79.6931 89.5911 79.7506 89.1876C79.808 88.7833 79.6993 88.3736 79.4466 88.0535C79.4443 88.0512 79.442 88.0497 79.442 88.0497C85.6811 84.7846 89.2877 81.8641 89.4508 81.7309C89.777 81.4644 89.9761 81.0724 89.9983 80.6504C90.0182 80.2293 89.8605 79.8189 89.5626 79.521ZM55.1316 4.02308C56.6776 5.97722 57.3139 8.23076 57.575 9.80434C56.2717 9.60754 54.8115 9.64736 53.2065 9.92379C53.5626 7.68786 54.4432 5.48945 55.1316 4.02308ZM34.8681 4.02308C35.5564 5.48945 36.4355 7.68786 36.7939 9.92379C35.1881 9.64736 33.7279 9.60754 32.4246 9.80434C32.6857 8.23076 33.3205 5.97722 34.8681 4.02308ZM57.5352 38.8776H32.4644V34.9027H57.5352V38.8776Z" fill="black"/>
</svg>
