<svg width="44" height="35" viewBox="0 0 44 35" fill="none" xmlns="http://www.w3.org/2000/svg">
<path d="M22.6779 15.1881C21.2851 15.1881 19.9236 15.6038 18.7655 16.3826C17.6074 17.1615 16.7048 18.2684 16.1718 19.5636C15.6388 20.8587 15.4993 22.2839 15.7711 23.6588C16.0428 25.0337 16.7135 26.2966 17.6983 27.2879C18.6832 28.2792 19.938 28.9542 21.304 29.2277C22.6701 29.5012 24.086 29.3608 25.3728 28.8244C26.6596 28.2879 27.7594 27.3794 28.5332 26.2138C29.307 25.0482 29.72 23.6779 29.72 22.276C29.7176 20.3969 28.9749 18.5955 27.6547 17.2668C26.3346 15.9381 24.5448 15.1906 22.6779 15.1881Z" fill="#77BD43"/>
<path d="M22.6779 15.1881C21.2851 15.1881 19.9236 15.6038 18.7655 16.3826C17.6074 17.1615 16.7048 18.2684 16.1718 19.5636C15.6388 20.8587 15.4993 22.2839 15.7711 23.6588C16.0428 25.0337 16.7135 26.2966 17.6983 27.2879C18.6832 28.2792 19.938 28.9542 21.304 29.2277C22.6701 29.5012 24.086 29.3608 25.3728 28.8244C26.6596 28.2879 27.7594 27.3794 28.5332 26.2138C29.307 25.0482 29.72 23.6779 29.72 22.276C29.7176 20.3969 28.9749 18.5955 27.6547 17.2668C26.3346 15.9381 24.5448 15.1906 22.6779 15.1881ZM16.5374 19.5609C16.5458 19.5872 16.5495 19.6147 16.5484 19.6424C16.5484 19.7942 16.5963 19.8683 16.784 19.8887C16.9717 19.9091 17.0342 19.6535 17.152 19.6424C17.2698 19.6312 17.4133 19.6424 17.3507 19.7424C17.2882 19.8424 17.0637 20.1406 17.1998 20.1776C17.336 20.2146 17.5679 20.0572 17.6378 20.2461C17.7077 20.435 17.601 20.598 17.6746 20.6462C17.7482 20.6943 17.8108 20.8444 17.8696 20.8666C17.9285 20.8888 18.0003 20.761 18.0426 20.8036C18.0849 20.8462 18.1677 20.8907 18.1935 20.8814C18.2366 20.8535 18.2766 20.8212 18.3131 20.7851C18.3131 20.7851 18.6057 20.5202 18.7584 20.5758C18.9351 20.6417 19.122 20.6755 19.3105 20.6758C19.5883 20.6869 19.6306 20.7573 19.811 20.9258C19.9913 21.0944 19.811 21.0796 20.179 21.1222C20.547 21.1648 20.3464 21.6407 20.731 21.6778C21.0006 21.7059 21.264 21.7772 21.5112 21.8889C21.7339 21.9723 22.1093 22.0982 22.0633 22.3353C22.0173 22.5723 21.6953 22.8261 21.6953 22.9946C21.6953 23.1632 21.7357 23.6799 21.5683 23.778C21.4008 23.8762 20.9997 24.0021 20.9574 24.1707C20.915 24.3392 20.8874 24.7967 20.6648 24.9671C20.4917 25.107 20.336 25.2674 20.2011 25.4449C20.1367 25.5283 19.914 25.5153 19.8018 25.682C19.6895 25.8487 19.454 26.3561 19.5239 26.4228C19.5938 26.4895 19.8165 26.4932 19.6638 26.6469C19.511 26.8006 19.5662 27.0395 19.5938 27.2025C19.6214 27.3655 20.052 27.3285 19.9619 27.4822C19.8717 27.6359 19.1964 28.0008 19.0418 26.9081C18.8872 25.8153 18.8744 25.5227 18.9148 25.0319C18.9553 24.5411 19.0547 23.5058 18.9443 23.4224C18.8339 23.3391 18.3315 23.5058 17.9966 22.3723C17.6617 21.2388 18.0389 21.4889 18.1089 21.4055C18.1648 21.2896 18.198 21.1638 18.2064 21.0351C18.1162 21.0682 18.018 21.0726 17.9252 21.0478C17.8324 21.0229 17.7495 20.97 17.6875 20.8962C17.4372 20.6332 17.2698 20.4239 17.0618 20.3591C16.8539 20.2943 16.9257 20.1183 16.7067 20.1609C16.5832 20.1732 16.4586 20.1632 16.3387 20.1313C16.3828 19.9387 16.4564 19.7479 16.5374 19.5609ZM23.8979 15.6382C23.9182 15.6553 23.9373 15.6739 23.9549 15.6937C23.9565 15.7568 23.9677 15.8193 23.988 15.8789C24.0248 15.9789 24.1297 16.1253 24.2181 16.3049C24.3064 16.4846 24.0672 16.5772 23.85 16.5975C23.6329 16.6179 23.85 16.3086 23.8868 16.2456C23.9236 16.1827 23.8648 16.0364 23.85 15.9845C23.8353 15.9326 23.6936 15.8586 23.666 15.7641C23.6646 15.7336 23.6696 15.7032 23.6807 15.6748C23.6918 15.6464 23.7088 15.6206 23.7304 15.5993L23.8979 15.6382ZM29.0152 20.0646L28.8883 20.1554C28.4006 20.5258 28.2001 20.4499 28.2001 20.4499C28.2001 20.0091 27.5376 19.1886 27.2598 19.0423C26.9819 18.896 27.7676 20.1072 28.04 20.4702C28.3123 20.8332 28.5129 20.6666 28.776 20.6036C29.0392 20.5406 28.592 21.1925 28.2958 21.4926C27.9995 21.7926 27.6407 21.7945 27.8229 22.4946C28.005 23.1946 27.6977 23.2706 27.4548 23.4206C27.2119 23.5706 27.3297 23.9521 27.142 24.0355C26.9543 24.1188 27.3021 24.4503 26.6213 24.7985C25.9404 25.1467 25.7932 24.9041 25.7362 24.6319C25.6791 24.3596 25.3681 24.317 25.4105 23.9521C25.4528 23.5873 25.1731 23.2243 25.2982 23.0557C25.4233 22.8872 25.2982 22.2575 25.0756 22.0056C24.8529 21.7537 25.0756 21.5018 25.048 21.3759C25.0203 21.25 24.84 21.3759 24.7425 21.2388C24.645 21.1018 25.243 20.8444 24.2549 21.124C23.2667 21.4037 23.2667 21.124 22.9189 20.8018C22.5712 20.4795 22.711 20.4313 22.6834 19.822C22.6558 19.2127 23.1563 19.1071 23.3642 18.7811C23.5722 18.4552 23.7967 18.2959 24.6026 18.17C25.4086 18.044 25.1179 18.3792 25.1179 18.5033C25.1179 18.6274 25.8962 18.8274 25.8962 18.7719C25.8962 18.7163 25.7987 18.4774 25.9809 18.5052C26.0784 18.533 27.0242 18.6904 27.0242 18.6904C27.3334 18.6459 27.3021 18.257 27.2708 18.1977C27.2395 18.1385 27.153 18.1199 26.8807 18.1977C26.6084 18.2755 26.4501 18.0125 26.4354 17.8273C26.4207 17.6421 26.8991 17.6032 27.0334 17.5754C27.1635 17.5714 27.2917 17.6069 27.4015 17.6773C27.4275 17.6875 27.4558 17.6908 27.4835 17.6869C27.5112 17.683 27.5374 17.6721 27.5597 17.6551C28.2075 18.3465 28.7035 19.1675 29.0152 20.0646ZM23.3532 16.3197C23.4154 16.2079 23.4908 16.1041 23.5777 16.0104C23.7911 15.953 23.6918 16.2531 23.6292 16.3197C23.5667 16.3864 23.3532 16.3771 23.3532 16.3197ZM27.0132 17.2458C26.9341 17.2458 26.877 17.1439 26.8292 17.0606C26.7813 16.9772 26.6838 17.1735 26.6544 17.2328C26.616 17.3259 26.5996 17.4267 26.6065 17.5273C26.6176 17.631 26.544 17.6662 26.4888 17.7014C26.4336 17.7366 26.4262 17.6884 26.3765 17.6606C26.3268 17.6329 26.2091 17.6773 26.1575 17.7866C26.106 17.8958 26.1759 18.1422 26.1575 18.1459C26.0743 18.1254 26.0007 18.0762 25.9496 18.007C25.8625 17.8724 25.8001 17.723 25.7656 17.5662C25.6842 17.4178 25.5541 17.3026 25.3976 17.2402C25.2559 17.1902 25.381 17.4013 25.3976 17.4402C25.4141 17.4791 25.6092 17.6143 25.6202 17.7088C25.6313 17.8032 25.4362 18.1366 25.4841 18.0162C25.5319 17.8958 25.3865 17.8421 25.346 17.7514C25.3056 17.6606 25.1436 17.5662 25.0056 17.4087C24.8676 17.2513 24.8106 17.4088 24.7186 17.3587C24.6266 17.3087 24.553 17.4143 24.4683 17.3939C24.3837 17.3736 24.4131 17.4921 24.4057 17.6032C24.3984 17.7143 24.3579 17.6606 24.2217 17.7884C24.0856 17.9162 24.1113 18.0199 24.0377 18.0681C23.8949 18.139 23.7369 18.1734 23.5777 18.1681C23.3495 18.1681 23.3624 18.0625 23.3698 17.944C23.3807 17.7956 23.4187 17.6506 23.482 17.5162C23.5501 17.3699 23.92 17.4384 23.9954 17.418C24.0708 17.3976 24.0248 17.2773 24.0248 17.1346C24.0248 16.992 23.8408 16.9179 23.7764 16.8679C23.712 16.8179 23.85 16.8124 24.0175 16.7698C24.0817 16.7589 24.1429 16.7343 24.1969 16.6975C24.2509 16.6608 24.2964 16.6128 24.3303 16.5568C24.4237 16.429 24.5375 16.3176 24.667 16.2271C24.7609 16.1605 24.8511 16.1364 24.9173 16.0882C24.9835 16.0401 25.1179 16.1716 25.1179 16.1716L25.4233 16.1216C26.0285 16.3983 26.5902 16.7627 27.0905 17.2032C27.0684 17.2198 27.0518 17.2458 27.0132 17.2458ZM20.4329 15.9197C20.4861 15.9713 20.5264 16.0347 20.5507 16.1049C20.593 16.2605 20.4458 16.5012 20.582 16.5753C20.7182 16.6494 20.8543 16.8902 20.7494 16.8902C20.6445 16.8902 20.2176 16.8383 20.2581 16.7846C20.3295 16.6982 20.3849 16.5998 20.4219 16.4938C20.4219 16.4253 20.409 16.4531 20.2618 16.4938C20.1146 16.5346 19.7687 16.4438 19.6914 16.4938C19.6141 16.5438 19.6785 16.5827 19.7374 16.6587C19.7963 16.7346 19.7263 16.7605 19.7539 16.8272C19.7659 16.8596 19.785 16.8887 19.8099 16.9125C19.8348 16.9363 19.8647 16.954 19.8975 16.9643C19.96 16.9772 19.9876 16.8791 20.0465 16.9291C20.1054 16.9791 19.7999 17.1569 19.7153 17.2235C19.6306 17.2902 19.5313 17.305 19.5589 17.2235C19.5865 17.1421 19.5405 17.1032 19.5074 17.1291C19.4742 17.155 19.2258 17.205 19.1743 17.3624C19.1228 17.5199 18.9222 17.5477 18.8394 17.6773C18.7566 17.8069 18.6554 18.1403 18.4842 18.2866C18.3131 18.4329 17.9525 18.4718 17.9727 18.6959C17.9929 18.92 17.9212 19.3053 17.9101 19.2219C17.8991 19.1386 17.9433 18.9071 17.7261 18.8515C17.5703 18.7881 17.3975 18.7802 17.2366 18.8293C17.133 18.8432 17.0282 18.8469 16.9238 18.8404C17.7203 17.4843 18.961 16.4496 20.4329 15.9141V15.9197Z" fill="#247BA0"/>
<path d="M6.32267 12.713L7.02173 12.92L6.42465 14.6583L5.72559 14.4513L6.32267 12.713Z" fill="#388E3C"/>
<path d="M10.8656 14.0574L13.6619 14.8835L13.0664 16.6235L10.2686 15.7957L10.8656 14.0574Z" fill="#388E3C"/>
<path d="M7.7211 13.1271L10.167 13.8505L9.56992 15.5889L7.12402 14.8654L7.7211 13.1271Z" fill="#388E3C"/>
<path d="M10.1208 25.4524H10.1356L12.9236 17.3403L5.35728 15.1185L1.82414 19.7044L0 33.2335L7.21103 34.4188C7.17995 34.1892 7.20363 33.9554 7.28011 33.7367L10.1208 25.4524Z" fill="#388E3C"/>
<path d="M18.7809 31.1078L9.78523 27.9623L7.76042 33.7401C7.72871 33.8165 7.71288 33.8986 7.71391 33.9813C7.71494 34.0641 7.73281 34.1458 7.76641 34.2213C7.80001 34.2969 7.84863 34.3647 7.90927 34.4206C7.96991 34.4765 8.04129 34.5193 8.119 34.5464C8.28532 34.6095 8.46567 34.6256 8.64042 34.5927L17.9009 35L18.7809 31.1078Z" fill="#388E3C"/>
<path d="M42.2984 27.3665L37.6616 13.6338L30.9292 15.786L35.9526 28.5535C35.9526 28.5535 29.8666 30.6263 28.4636 31.0832C28.4011 31.1014 28.3517 31.1196 28.3155 31.1329C27.4553 31.464 25.9963 33.6377 27.9783 34.444C28.4833 34.6509 29.3649 34.732 30.4209 34.7353C33.5034 34.7353 39.7686 33.1576 39.7736 33.1543C41.0763 32.8596 42.9794 33.1013 43.708 31.6477C44.8446 29.3863 42.2984 27.3665 42.2984 27.3665ZM34.8045 22.8965L32.5115 16.68L32.8553 16.5707L35.1482 22.7906L34.8045 22.8965ZM35.7914 22.5837L33.4985 16.3621L33.8406 16.2545L36.1368 22.4744L35.7914 22.5837ZM36.8819 22.2376L34.5923 16.0178L34.9344 15.9102L37.2273 22.13L36.8819 22.2376ZM37.9724 21.8916L35.6795 15.6718L36.0217 15.5625L38.3146 21.784L37.9724 21.8916ZM39.063 21.5456L36.7733 15.3208L37.1155 15.2115L39.4084 21.433L39.063 21.5456Z" fill="#388E3C"/>
<path d="M33.0373 1.13405L31.4023 3.14553C31.2033 2.68032 29.4285 0.0811216 29.0995 0.0215221L15.5838 0C15.5624 0.0496663 16.699 0.50494 17.3208 0.759894C18.1404 1.12428 18.9264 1.56083 19.6696 2.06446C21.525 3.25811 23.4528 6.16193 24.6469 7.98303C24.2555 8.12209 22.8376 8.47969 22.8376 8.47969L23.4149 11.6716L25.4463 11.7229C25.4463 11.7229 27.6948 11.5772 28.764 11.0872C28.9283 11.0124 29.0871 10.9261 29.2394 10.8289C28.611 10.2594 28.7722 8.59227 29.1966 8.02441C30.1835 6.70991 31.8448 7.32578 33.1557 7.84893C33.3119 7.80033 33.4603 7.72953 33.5966 7.63867C34.3335 7.16022 34.8746 6.14868 35.1559 5.40369C35.5046 4.4799 36.0721 3.03792 36.0721 3.03792L33.0373 1.13405Z" fill="#388E3C"/>
<path d="M19.9062 2.97988C18.7811 2.01304 14.9717 0.340942 14.9717 0.340942C13.7545 1.27798 8.93506 6.96311 8.93506 6.96311C8.93506 6.96311 12.3514 9.68317 13.4239 10.5788C14.2463 11.2642 16.934 12.8304 16.934 12.8304C16.934 12.8304 17.2547 11.9612 17.2909 11.837C17.5343 11.0093 20.9836 6.05256 21.8685 4.945C21.2502 4.25471 20.5952 3.5987 19.9062 2.97988Z" fill="#388E3C"/>
</svg>
