<svg width="234" height="57" viewBox="0 0 234 57" fill="none" xmlns="http://www.w3.org/2000/svg">
<path d="M25.3542 27.4551C24.8328 27.1791 24.1888 26.9491 23.4222 26.7651C22.6862 26.5811 21.9655 26.4891 21.2602 26.4891C19.8188 26.4891 18.5002 26.8264 17.3042 27.5011C16.1388 28.1451 15.2188 29.0038 14.5442 30.0771C13.8695 31.1504 13.5322 32.3158 13.5322 33.5731V46.1311H8.74816V21.9811H13.5322V26.9951C14.4522 25.3698 15.6942 24.0511 17.2582 23.0391C18.8222 21.9964 20.4628 21.4751 22.1802 21.4751C23.0388 21.4751 23.8668 21.5671 24.6642 21.7511C25.4922 21.9044 26.1362 22.1344 26.5962 22.4411L25.3542 27.4551ZM59.1077 42.9571H59.0617C58.2644 43.5704 57.2524 44.1684 56.0257 44.7511C54.8297 45.3031 53.4957 45.7478 52.0237 46.0851C50.5824 46.4224 49.1104 46.5911 47.6077 46.5911C44.6637 46.5911 42.0724 46.0698 39.8337 45.0271C37.6257 43.9538 35.8931 42.4971 34.6357 40.6571C33.4091 38.7864 32.7957 36.6704 32.7957 34.3091C32.7957 31.6104 33.4551 29.3104 34.7737 27.4091C36.0924 25.4771 37.8404 24.0051 40.0177 22.9931C42.1951 21.9504 44.5871 21.4291 47.1937 21.4291C49.5857 21.4291 51.7631 21.9351 53.7257 22.9471C55.6884 23.9284 57.2524 25.2931 58.4177 27.0411C59.5831 28.7891 60.1657 30.8284 60.1657 33.1591L60.1197 35.4591H37.6257C37.9937 37.5444 39.1437 39.2004 41.0757 40.4271C43.0077 41.6231 45.4151 42.2211 48.2977 42.2211C50.4444 42.2211 52.1924 41.8991 53.5417 41.2551C54.9217 40.6111 56.0411 39.9978 56.8997 39.4151L59.1077 42.9571ZM47.1937 25.7991C44.8324 25.7991 42.7777 26.2438 41.0297 27.1331C39.3124 28.0224 38.2084 29.5404 37.7177 31.6871H55.3357V31.0891C55.2131 30.0464 54.7531 29.1264 53.9557 28.3291C53.1584 27.5318 52.1617 26.9184 50.9657 26.4891C49.7697 26.0291 48.5124 25.7991 47.1937 25.7991ZM99.991 13.9311L86.145 46.1311H80.671L66.687 13.9311H72.345L80.533 33.2971C80.993 34.4318 81.499 35.6431 82.051 36.9311C82.6336 38.2191 83.1703 39.4611 83.661 40.6571C84.0903 39.4611 84.5656 38.2344 85.087 36.9771C85.6083 35.6891 86.099 34.4778 86.559 33.3431L94.149 13.9311H99.991ZM131.643 21.9811V46.1311H126.859V42.1291C126.307 42.8651 125.525 43.5704 124.513 44.2451C123.501 44.9198 122.336 45.4871 121.017 45.9471C119.698 46.3764 118.303 46.5911 116.831 46.5911C114.286 46.5911 112.047 46.0544 110.115 44.9811C108.183 43.9078 106.665 42.4204 105.561 40.5191C104.488 38.6178 103.951 36.4558 103.951 34.0331C103.951 31.5798 104.518 29.4178 105.653 27.5471C106.788 25.6458 108.352 24.1584 110.345 23.0851C112.369 22.0118 114.7 21.4751 117.337 21.4751C119.453 21.4751 121.339 21.8738 122.995 22.6711C124.682 23.4378 125.97 24.3271 126.859 25.3391V21.9811H131.643ZM117.889 42.2211C119.729 42.2211 121.324 41.8684 122.673 41.1631C124.053 40.4271 125.126 39.4458 125.893 38.2191C126.66 36.9924 127.043 35.5971 127.043 34.0331C127.043 32.4691 126.66 31.0738 125.893 29.8471C125.126 28.6204 124.053 27.6544 122.673 26.9491C121.324 26.2438 119.729 25.8911 117.889 25.8911C116.11 25.8911 114.531 26.2438 113.151 26.9491C111.802 27.6544 110.728 28.6204 109.931 29.8471C109.164 31.0738 108.781 32.4691 108.781 34.0331C108.781 35.5971 109.164 36.9924 109.931 38.2191C110.728 39.4458 111.802 40.4271 113.151 41.1631C114.531 41.8684 116.11 42.2211 117.889 42.2211ZM159.201 21.5671C161.286 21.5671 163.049 22.0118 164.491 22.9011C165.963 23.7598 166.99 25.0324 167.573 26.7191C168.155 25.9831 168.953 25.2164 169.965 24.4191C170.977 23.6218 172.142 22.9471 173.461 22.3951C174.779 21.8431 176.205 21.5671 177.739 21.5671C180.131 21.5671 182.001 22.0424 183.351 22.9931C184.731 23.9131 185.697 25.1551 186.249 26.7191C186.831 28.2831 187.123 30.0158 187.123 31.9171V46.1311H182.339V32.4231C182.339 30.4911 181.909 28.9271 181.051 27.7311C180.192 26.5351 178.72 25.9371 176.635 25.9371C175.04 25.9371 173.614 26.2744 172.357 26.9491C171.099 27.5931 170.103 28.4671 169.367 29.5711C168.661 30.6751 168.309 31.9018 168.309 33.2511V46.1311H163.525V32.3311C163.525 30.4604 163.034 28.9271 162.053 27.7311C161.071 26.5351 159.461 25.9371 157.223 25.9371C155.751 25.9371 154.432 26.2898 153.267 26.9951C152.132 27.6698 151.243 28.5284 150.599 29.5711C149.955 30.5831 149.633 31.5951 149.633 32.6071V46.1311H144.849V21.9811H149.633V25.8911C150.553 24.7871 151.841 23.7904 153.497 22.9011C155.153 22.0118 157.054 21.5671 159.201 21.5671ZM215.142 21.5671C217.718 21.5671 219.988 22.1038 221.95 23.1771C223.913 24.2198 225.446 25.6764 226.55 27.5471C227.654 29.4178 228.206 31.5798 228.206 34.0331C228.206 36.4558 227.654 38.6178 226.55 40.5191C225.446 42.3898 223.913 43.8618 221.95 44.9351C220.018 46.0084 217.795 46.5451 215.28 46.5451C213.134 46.5451 211.202 46.1464 209.484 45.3491C207.767 44.5518 206.448 43.6624 205.528 42.6811V56.2511H200.744V21.9351H205.528V25.6611C206.05 24.9864 206.801 24.3424 207.782 23.7291C208.764 23.0851 209.883 22.5638 211.14 22.1651C212.398 21.7664 213.732 21.5671 215.142 21.5671ZM214.498 25.9371C212.689 25.9371 211.094 26.2898 209.714 26.9951C208.334 27.7004 207.246 28.6664 206.448 29.8931C205.682 31.0891 205.298 32.4691 205.298 34.0331C205.298 35.5664 205.682 36.9464 206.448 38.1731C207.246 39.3998 208.334 40.3811 209.714 41.1171C211.094 41.8224 212.689 42.1751 214.498 42.1751C216.308 42.1751 217.887 41.8224 219.236 41.1171C220.616 40.3811 221.69 39.3998 222.456 38.1731C223.254 36.9464 223.652 35.5664 223.652 34.0331C223.652 32.4691 223.254 31.0891 222.456 29.8931C221.69 28.6664 220.616 27.7004 219.236 26.9951C217.887 26.2898 216.308 25.9371 214.498 25.9371Z" fill="#237CA1"/>
</svg>
