<svg width="204" height="155" viewBox="0 0 204 155" fill="none" xmlns="http://www.w3.org/2000/svg">
<path d="M102.406 60C95.0082 60 87.776 62.1128 81.6246 66.0711C75.4731 70.0295 70.6786 75.6557 67.8474 82.2382C65.0162 88.8207 64.2754 96.064 65.7188 103.052C67.1621 110.04 70.7247 116.459 75.9561 121.497C81.1875 126.535 87.8527 129.966 95.1089 131.356C102.365 132.746 109.886 132.032 116.721 129.306C123.556 126.579 129.399 121.962 133.509 116.038C137.619 110.114 139.813 103.149 139.813 96.024C139.8 86.4737 135.855 77.3181 128.843 70.5649C121.83 63.8118 112.323 60.0125 102.406 60Z" fill="#77BD43"/>
<path d="M102.406 60C95.0082 60 87.776 62.1128 81.6246 66.0711C75.4731 70.0295 70.6786 75.6557 67.8474 82.2382C65.0162 88.8207 64.2754 96.064 65.7188 103.052C67.1621 110.04 70.7247 116.459 75.9561 121.497C81.1875 126.535 87.8527 129.966 95.1089 131.356C102.365 132.746 109.886 132.032 116.721 129.306C123.556 126.579 129.399 121.962 133.509 116.038C137.619 110.114 139.813 103.149 139.813 96.024C139.8 86.4737 135.855 77.3181 128.843 70.5649C121.83 63.8118 112.323 60.0125 102.406 60ZM69.7895 82.2244C69.8341 82.358 69.854 82.4983 69.8481 82.6386C69.8481 83.4104 70.1022 83.787 71.0992 83.8905C72.0962 83.994 72.4285 82.695 73.0541 82.6386C73.6797 82.5821 74.4421 82.6386 74.1097 83.1469C73.7774 83.6552 72.5849 85.1707 73.3082 85.3589C74.0315 85.5472 75.2631 84.7471 75.6345 85.7072C76.0059 86.6674 75.439 87.4957 75.83 87.7405C76.221 87.9852 76.5533 88.7477 76.8661 88.8606C77.1789 88.9736 77.5601 88.3241 77.7849 88.5406C78.0097 88.7571 78.4495 88.983 78.5864 88.9359C78.815 88.7942 79.0279 88.6301 79.2217 88.4465C79.2217 88.4465 80.7758 87.1004 81.5871 87.3828C82.5258 87.7175 83.5185 87.8895 84.5194 87.8911C85.9953 87.9476 86.2202 88.3053 87.178 89.1618C88.1359 90.0184 87.178 89.9431 89.1329 90.1596C91.0878 90.3761 90.0224 92.7953 92.0652 92.9836C93.4972 93.1265 94.8963 93.4887 96.2096 94.0567C97.3923 94.4803 99.3862 95.1203 99.1419 96.3252C98.8975 97.5301 97.187 98.8197 97.187 99.6763C97.187 100.533 97.402 103.159 96.5126 103.658C95.6231 104.157 93.4923 104.797 93.2675 105.654C93.0427 106.51 92.896 108.835 91.7134 109.701C90.7939 110.412 89.9668 111.228 89.2502 112.13C88.9081 112.553 87.7254 112.488 87.1292 113.335C86.5329 114.182 85.2818 116.761 85.6532 117.1C86.0247 117.439 87.2074 117.458 86.3961 118.239C85.5848 119.02 85.8781 120.235 86.0247 121.063C86.1713 121.891 88.4585 121.703 87.9795 122.484C87.5006 123.266 83.9134 125.12 83.0924 119.566C82.2713 114.012 82.2029 112.525 82.4179 110.031C82.633 107.536 83.1608 102.274 82.5743 101.851C81.9879 101.427 79.3195 102.274 77.5405 96.5135C75.7616 90.7527 77.7653 92.0234 78.1368 91.5999C78.4341 91.0104 78.61 90.3711 78.6548 89.7172C78.1756 89.8853 77.6543 89.9077 77.1614 89.7814C76.6685 89.6552 76.2277 89.3864 75.8984 89.0112C74.5691 87.6746 73.6797 86.6109 72.5751 86.2814C71.4706 85.952 71.8518 85.0577 70.6887 85.2742C70.033 85.3365 69.3709 85.2855 68.7338 85.1236C68.9684 84.1447 69.3594 83.1751 69.7895 82.2244ZM108.887 62.2874C108.995 62.3744 109.096 62.4688 109.19 62.5698C109.198 62.8904 109.258 63.2078 109.366 63.5111C109.561 64.0194 110.118 64.763 110.588 65.6761C111.057 66.5892 109.786 67.0598 108.633 67.1634C107.479 67.2669 108.633 65.6949 108.828 65.3749C109.024 65.0548 108.711 64.3112 108.633 64.0476C108.555 63.7841 107.802 63.4076 107.655 62.9275C107.648 62.7725 107.674 62.6178 107.733 62.4734C107.792 62.329 107.882 62.1983 107.997 62.0897L108.887 62.2874ZM136.069 84.7847L135.395 85.246C132.805 87.1286 131.739 86.7427 131.739 86.7427C131.739 84.5024 128.221 80.3323 126.745 79.5887C125.269 78.8451 129.442 85.0013 130.889 86.8462C132.336 88.6912 133.401 87.844 134.799 87.524C136.196 87.2039 133.821 90.5173 132.248 92.0423C130.674 93.5672 128.768 93.5766 129.736 97.1348C130.703 100.693 129.071 101.079 127.781 101.841C126.491 102.604 127.116 104.543 126.119 104.966C125.122 105.39 126.969 107.075 123.353 108.845C119.736 110.614 118.954 109.381 118.651 107.998C118.348 106.614 116.697 106.397 116.921 104.543C117.146 102.689 115.661 100.844 116.325 99.9869C116.99 99.1303 116.325 95.9299 115.142 94.6497C113.96 93.3695 115.142 92.0893 114.996 91.4492C114.849 90.8091 113.891 91.4492 113.373 90.7527C112.855 90.0561 116.032 88.7477 110.783 90.1691C105.534 91.5904 105.534 90.1691 103.687 88.5312C101.84 86.8933 102.582 86.6485 102.436 83.5516C102.289 80.4547 104.948 79.9182 106.052 78.2615C107.157 76.6047 108.349 75.7952 112.63 75.1551C116.912 74.515 115.367 76.2188 115.367 76.8495C115.367 77.4802 119.502 78.4968 119.502 78.2144C119.502 77.932 118.984 76.7177 119.951 76.8589C120.47 77.0001 125.494 77.8002 125.494 77.8002C127.136 77.5743 126.969 75.5975 126.803 75.2963C126.637 74.9951 126.178 74.901 124.731 75.2963C123.285 75.6917 122.444 74.355 122.366 73.4137C122.288 72.4724 124.829 72.2747 125.542 72.1335C126.233 72.1131 126.914 72.2935 127.497 72.6512C127.636 72.7031 127.786 72.72 127.933 72.7002C128.08 72.6804 128.219 72.6247 128.338 72.5383C131.779 76.0527 134.413 80.2253 136.069 84.7847ZM105.994 65.7514C106.324 65.1832 106.725 64.6554 107.186 64.1794C108.32 63.8876 107.792 65.4125 107.46 65.7514C107.128 66.0903 105.994 66.0432 105.994 65.7514ZM125.435 70.458C125.015 70.458 124.712 69.9403 124.457 69.5167C124.203 69.0931 123.685 70.0909 123.529 70.3921C123.325 70.8653 123.238 71.3776 123.275 71.8888C123.333 72.4159 122.942 72.5948 122.649 72.7736C122.356 72.9525 122.317 72.7077 122.053 72.5665C121.789 72.4253 121.164 72.6512 120.89 73.2066C120.616 73.762 120.988 75.0139 120.89 75.0328C120.448 74.9285 120.057 74.6788 119.785 74.3268C119.322 73.6426 118.991 72.8837 118.808 72.0865C118.376 71.3324 117.685 70.7466 116.853 70.4297C116.1 70.1756 116.765 71.2487 116.853 71.4464C116.941 71.644 117.977 72.3312 118.036 72.8113C118.094 73.2913 117.058 74.9857 117.312 74.3738C117.567 73.762 116.794 73.489 116.579 73.0278C116.364 72.5665 115.504 72.0864 114.771 71.2863C114.038 70.4862 113.735 71.2863 113.246 71.0322C112.758 70.778 112.367 71.3146 111.917 71.211C111.467 71.1075 111.624 71.7099 111.585 72.2747C111.546 72.8395 111.33 72.5665 110.607 73.216C109.884 73.8655 110.021 74.3927 109.63 74.6374C108.871 74.9979 108.032 75.1725 107.186 75.1457C105.974 75.1457 106.043 74.6092 106.082 74.0067C106.14 73.2527 106.342 72.5155 106.678 71.8323C107.04 71.0887 109.004 71.4369 109.405 71.3334C109.806 71.2299 109.561 70.618 109.561 69.8932C109.561 69.1684 108.584 68.7919 108.242 68.5377C107.9 68.2835 108.633 68.2553 109.522 68.0388C109.864 67.9836 110.189 67.8584 110.475 67.6716C110.762 67.4849 111.004 67.2409 111.184 66.9563C111.68 66.3066 112.284 65.7405 112.973 65.2808C113.471 64.9419 113.95 64.8195 114.302 64.5748C114.654 64.33 115.367 64.9984 115.367 64.9984L116.99 64.7442C120.205 66.1505 123.188 68.0026 125.845 70.2415C125.728 70.3262 125.64 70.458 125.435 70.458ZM90.4818 63.7182C90.764 63.9804 90.9783 64.3028 91.1073 64.6595C91.3321 65.4502 90.5502 66.6739 91.2735 67.0504C91.9968 67.427 92.7201 68.6507 92.163 68.6507C91.6058 68.6507 89.3382 68.3871 89.5532 68.1141C89.9321 67.6752 90.2267 67.1748 90.4231 66.6363C90.4231 66.288 90.3547 66.4292 89.5728 66.6363C88.7908 66.8433 86.9532 66.3821 86.5427 66.6363C86.1322 66.8904 86.4743 67.0881 86.7871 67.474C87.0999 67.86 86.7284 67.9917 86.875 68.3306C86.9384 68.4951 87.0401 68.6434 87.1723 68.7641C87.3044 68.8849 87.4636 68.9749 87.6374 69.0272C87.9698 69.0931 88.1164 68.5942 88.4292 68.8483C88.7419 69.1025 87.1194 70.0061 86.6698 70.345C86.2202 70.6839 85.6923 70.7592 85.839 70.345C85.9856 69.9308 85.7412 69.7332 85.5653 69.865C85.3893 69.9967 84.0698 70.2509 83.7961 71.051C83.5224 71.8511 82.457 71.9923 82.0172 72.6512C81.5773 73.3102 81.0397 75.0045 80.1307 75.7482C79.2217 76.4918 77.3059 76.6895 77.4135 77.8285C77.521 78.9674 77.1398 80.9254 77.0811 80.5018C77.0225 80.0782 77.2571 78.9015 76.1037 78.6192C75.2759 78.2967 74.3583 78.2568 73.5037 78.5062C72.9531 78.577 72.3965 78.5959 71.8421 78.5627C76.0727 71.6704 82.6632 66.4117 90.4818 63.6899V63.7182Z" fill="#237CA1"/>
<path d="M29.1906 56.1587L32.418 57.0728L29.6614 64.7516L26.4341 63.8375L29.1906 56.1587Z" fill="#388E3C"/>
<path d="M50.1648 62.0967L63.0743 65.7459L60.3253 73.432L47.4082 69.7755L50.1648 62.0967Z" fill="#388E3C"/>
<path d="M35.6452 57.9873L46.9372 61.1832L44.1807 68.862L32.8887 65.6661L35.6452 57.9873Z" fill="#388E3C"/>
<path d="M46.7248 112.433H46.7931L59.6646 76.5984L24.7331 66.7842L8.42154 87.0416L0 146.805L33.2913 152.041C33.1478 151.027 33.2571 149.994 33.6102 149.028L46.7248 112.433Z" fill="#388E3C"/>
<path d="M86.7063 137.416L45.1757 123.521L35.8277 149.043C35.6813 149.381 35.6083 149.743 35.613 150.109C35.6178 150.475 35.7002 150.835 35.8554 151.169C36.0105 151.503 36.2349 151.802 36.5149 152.049C36.7949 152.296 37.1244 152.485 37.4832 152.605C38.2511 152.884 39.0836 152.955 39.8904 152.81L82.6436 154.609L86.7063 137.416Z" fill="#388E3C"/>
<path d="M195.279 120.888L173.872 60.2256L142.791 69.7327L165.982 126.132C165.982 126.132 137.885 135.288 131.408 137.306C131.119 137.387 130.891 137.467 130.724 137.526C126.753 138.988 120.017 148.591 129.167 152.152C131.499 153.066 135.569 153.425 140.444 153.439C154.675 153.439 183.6 146.47 183.623 146.455C189.637 145.153 198.423 146.221 201.787 139.8C207.034 129.81 195.279 120.888 195.279 120.888ZM160.682 101.143L150.096 73.6818L151.683 73.1991L162.269 100.675L160.682 101.143ZM165.238 99.7606L154.652 72.2777L156.232 71.8023L166.833 99.2779L165.238 99.7606ZM170.273 98.2321L159.702 70.7566L161.282 70.2812L171.867 97.7568L170.273 98.2321ZM175.307 96.7037L164.722 69.2281L166.301 68.7454L176.887 96.2283L175.307 96.7037ZM180.342 95.1752L169.772 67.6777L171.351 67.195L181.937 94.6779L180.342 95.1752Z" fill="#388E3C"/>
<path d="M152.524 5.00952L144.975 13.895C144.057 11.84 135.863 0.358345 134.344 0.0950712L71.9457 0C71.847 0.219395 77.0943 2.23052 79.9648 3.35675C83.7486 4.96636 87.3774 6.89478 90.8088 9.11952C99.3746 14.3923 108.275 27.2196 113.788 35.2641C111.98 35.8784 105.434 37.4581 105.434 37.4581L108.1 51.5578L117.478 51.7846C117.478 51.7846 127.859 51.141 132.795 48.9763C133.553 48.6462 134.287 48.265 134.99 47.8354C132.089 45.3197 132.833 37.9554 134.792 35.4469C139.348 29.6403 147.018 32.3608 153.07 34.6717C153.791 34.4571 154.477 34.1443 155.106 33.743C158.508 31.6295 161.006 27.1611 162.305 23.8702C163.914 19.7894 166.534 13.4197 166.534 13.4197L152.524 5.00952Z" fill="#388E3C"/>
<path d="M91.9027 13.1635C86.7085 8.89265 69.1213 1.50635 69.1213 1.50635C63.5018 5.6456 41.252 30.759 41.252 30.759C41.252 30.759 57.0243 42.7746 61.9755 46.731C65.7724 49.7586 78.1807 56.6769 78.1807 56.6769C78.1807 56.6769 79.6615 52.8375 79.8285 52.289C80.9524 48.6324 96.8766 26.7368 100.962 21.8443C98.1076 18.795 95.0834 15.8971 91.9027 13.1635Z" fill="#388E3C"/>
</svg>
