<svg width="234" height="242" viewBox="0 0 234 242" fill="none" xmlns="http://www.w3.org/2000/svg">
<path d="M25.3542 212.455C24.8328 212.179 24.1888 211.949 23.4222 211.765C22.6862 211.581 21.9655 211.489 21.2602 211.489C19.8188 211.489 18.5002 211.826 17.3042 212.501C16.1388 213.145 15.2188 214.004 14.5442 215.077C13.8695 216.15 13.5322 217.316 13.5322 218.573V231.131H8.74816V206.981H13.5322V211.995C14.4522 210.37 15.6942 209.051 17.2582 208.039C18.8222 206.996 20.4628 206.475 22.1802 206.475C23.0388 206.475 23.8668 206.567 24.6642 206.751C25.4922 206.904 26.1362 207.134 26.5962 207.441L25.3542 212.455ZM59.1077 227.957H59.0617C58.2644 228.57 57.2524 229.168 56.0257 229.751C54.8297 230.303 53.4957 230.748 52.0237 231.085C50.5824 231.422 49.1104 231.591 47.6077 231.591C44.6637 231.591 42.0724 231.07 39.8337 230.027C37.6257 228.954 35.8931 227.497 34.6357 225.657C33.4091 223.786 32.7957 221.67 32.7957 219.309C32.7957 216.61 33.4551 214.31 34.7737 212.409C36.0924 210.477 37.8404 209.005 40.0177 207.993C42.1951 206.95 44.5871 206.429 47.1937 206.429C49.5857 206.429 51.7631 206.935 53.7257 207.947C55.6884 208.928 57.2524 210.293 58.4177 212.041C59.5831 213.789 60.1657 215.828 60.1657 218.159L60.1197 220.459H37.6257C37.9937 222.544 39.1437 224.2 41.0757 225.427C43.0077 226.623 45.4151 227.221 48.2977 227.221C50.4444 227.221 52.1924 226.899 53.5417 226.255C54.9217 225.611 56.0411 224.998 56.8997 224.415L59.1077 227.957ZM47.1937 210.799C44.8324 210.799 42.7777 211.244 41.0297 212.133C39.3124 213.022 38.2084 214.54 37.7177 216.687H55.3357V216.089C55.2131 215.046 54.7531 214.126 53.9557 213.329C53.1584 212.532 52.1617 211.918 50.9657 211.489C49.7697 211.029 48.5124 210.799 47.1937 210.799ZM99.991 198.931L86.145 231.131H80.671L66.687 198.931H72.345L80.533 218.297C80.993 219.432 81.499 220.643 82.051 221.931C82.6336 223.219 83.1703 224.461 83.661 225.657C84.0903 224.461 84.5656 223.234 85.087 221.977C85.6083 220.689 86.099 219.478 86.559 218.343L94.149 198.931H99.991ZM131.643 206.981V231.131H126.859V227.129C126.307 227.865 125.525 228.57 124.513 229.245C123.501 229.92 122.336 230.487 121.017 230.947C119.698 231.376 118.303 231.591 116.831 231.591C114.286 231.591 112.047 231.054 110.115 229.981C108.183 228.908 106.665 227.42 105.561 225.519C104.488 223.618 103.951 221.456 103.951 219.033C103.951 216.58 104.518 214.418 105.653 212.547C106.788 210.646 108.352 209.158 110.345 208.085C112.369 207.012 114.7 206.475 117.337 206.475C119.453 206.475 121.339 206.874 122.995 207.671C124.682 208.438 125.97 209.327 126.859 210.339V206.981H131.643ZM117.889 227.221C119.729 227.221 121.324 226.868 122.673 226.163C124.053 225.427 125.126 224.446 125.893 223.219C126.66 221.992 127.043 220.597 127.043 219.033C127.043 217.469 126.66 216.074 125.893 214.847C125.126 213.62 124.053 212.654 122.673 211.949C121.324 211.244 119.729 210.891 117.889 210.891C116.11 210.891 114.531 211.244 113.151 211.949C111.802 212.654 110.728 213.62 109.931 214.847C109.164 216.074 108.781 217.469 108.781 219.033C108.781 220.597 109.164 221.992 109.931 223.219C110.728 224.446 111.802 225.427 113.151 226.163C114.531 226.868 116.11 227.221 117.889 227.221ZM159.201 206.567C161.286 206.567 163.049 207.012 164.491 207.901C165.963 208.76 166.99 210.032 167.573 211.719C168.155 210.983 168.953 210.216 169.965 209.419C170.977 208.622 172.142 207.947 173.461 207.395C174.779 206.843 176.205 206.567 177.739 206.567C180.131 206.567 182.001 207.042 183.351 207.993C184.731 208.913 185.697 210.155 186.249 211.719C186.831 213.283 187.123 215.016 187.123 216.917V231.131H182.339V217.423C182.339 215.491 181.909 213.927 181.051 212.731C180.192 211.535 178.72 210.937 176.635 210.937C175.04 210.937 173.614 211.274 172.357 211.949C171.099 212.593 170.103 213.467 169.367 214.571C168.661 215.675 168.309 216.902 168.309 218.251V231.131H163.525V217.331C163.525 215.46 163.034 213.927 162.053 212.731C161.071 211.535 159.461 210.937 157.223 210.937C155.751 210.937 154.432 211.29 153.267 211.995C152.132 212.67 151.243 213.528 150.599 214.571C149.955 215.583 149.633 216.595 149.633 217.607V231.131H144.849V206.981H149.633V210.891C150.553 209.787 151.841 208.79 153.497 207.901C155.153 207.012 157.054 206.567 159.201 206.567ZM215.142 206.567C217.718 206.567 219.988 207.104 221.95 208.177C223.913 209.22 225.446 210.676 226.55 212.547C227.654 214.418 228.206 216.58 228.206 219.033C228.206 221.456 227.654 223.618 226.55 225.519C225.446 227.39 223.913 228.862 221.95 229.935C220.018 231.008 217.795 231.545 215.28 231.545C213.134 231.545 211.202 231.146 209.484 230.349C207.767 229.552 206.448 228.662 205.528 227.681V241.251H200.744V206.935H205.528V210.661C206.05 209.986 206.801 209.342 207.782 208.729C208.764 208.085 209.883 207.564 211.14 207.165C212.398 206.766 213.732 206.567 215.142 206.567ZM214.498 210.937C212.689 210.937 211.094 211.29 209.714 211.995C208.334 212.7 207.246 213.666 206.448 214.893C205.682 216.089 205.298 217.469 205.298 219.033C205.298 220.566 205.682 221.946 206.448 223.173C207.246 224.4 208.334 225.381 209.714 226.117C211.094 226.822 212.689 227.175 214.498 227.175C216.308 227.175 217.887 226.822 219.236 226.117C220.616 225.381 221.69 224.4 222.456 223.173C223.254 221.946 223.652 220.566 223.652 219.033C223.652 217.469 223.254 216.089 222.456 214.893C221.69 213.666 220.616 212.7 219.236 211.995C217.887 211.29 216.308 210.937 214.498 210.937Z" fill="#237CA1"/>
<path d="M117.406 60C110.008 60 102.776 62.1128 96.6246 66.0711C90.4731 70.0295 85.6786 75.6557 82.8474 82.2382C80.0162 88.8207 79.2754 96.064 80.7188 103.052C82.1621 110.04 85.7247 116.459 90.9561 121.497C96.1875 126.535 102.853 129.966 110.109 131.356C117.365 132.746 124.886 132.032 131.721 129.306C138.556 126.579 144.399 121.962 148.509 116.038C152.619 110.114 154.813 103.149 154.813 96.024C154.8 86.4737 150.855 77.3181 143.843 70.5649C136.83 63.8118 127.323 60.0125 117.406 60Z" fill="#77BD43"/>
<path d="M117.406 60C110.008 60 102.776 62.1128 96.6246 66.0711C90.4731 70.0295 85.6786 75.6557 82.8474 82.2382C80.0162 88.8207 79.2754 96.064 80.7188 103.052C82.1621 110.04 85.7247 116.459 90.9561 121.497C96.1875 126.535 102.853 129.966 110.109 131.356C117.365 132.746 124.886 132.032 131.721 129.306C138.556 126.579 144.399 121.962 148.509 116.038C152.619 110.114 154.813 103.149 154.813 96.024C154.8 86.4737 150.855 77.3181 143.843 70.5649C136.83 63.8118 127.323 60.0125 117.406 60ZM84.7895 82.2244C84.8341 82.358 84.854 82.4983 84.8481 82.6386C84.8481 83.4104 85.1022 83.787 86.0992 83.8905C87.0962 83.994 87.4285 82.695 88.0541 82.6386C88.6796 82.5821 89.4421 82.6386 89.1097 83.1469C88.7774 83.6552 87.5849 85.1707 88.3082 85.3589C89.0315 85.5472 90.2631 84.7471 90.6345 85.7072C91.0059 86.6674 90.439 87.4957 90.83 87.7405C91.221 87.9852 91.5533 88.7477 91.8661 88.8606C92.1789 88.9736 92.5601 88.3241 92.7849 88.5406C93.0097 88.7571 93.4495 88.983 93.5864 88.9359C93.815 88.7942 94.0279 88.6301 94.2217 88.4465C94.2217 88.4465 95.7758 87.1004 96.5871 87.3828C97.5258 87.7175 98.5185 87.8895 99.5194 87.8911C100.995 87.9476 101.22 88.3053 102.178 89.1618C103.136 90.0184 102.178 89.9431 104.133 90.1596C106.088 90.3761 105.022 92.7953 107.065 92.9836C108.497 93.1265 109.896 93.4887 111.21 94.0567C112.392 94.4803 114.386 95.1204 114.142 96.3252C113.898 97.5301 112.187 98.8197 112.187 99.6763C112.187 100.533 112.402 103.159 111.513 103.658C110.623 104.157 108.492 104.797 108.267 105.654C108.043 106.51 107.896 108.835 106.713 109.701C105.794 110.412 104.967 111.228 104.25 112.13C103.908 112.553 102.725 112.488 102.129 113.335C101.533 114.182 100.282 116.761 100.653 117.1C101.025 117.439 102.207 117.458 101.396 118.239C100.585 119.02 100.878 120.235 101.025 121.063C101.171 121.891 103.458 121.703 102.98 122.484C102.501 123.266 98.9134 125.12 98.0924 119.566C97.2713 114.012 97.2029 112.525 97.4179 110.031C97.633 107.536 98.1608 102.274 97.5743 101.851C96.9879 101.427 94.3195 102.274 92.5405 96.5135C90.7616 90.7527 92.7653 92.0234 93.1368 91.5999C93.4341 91.0104 93.61 90.3711 93.6548 89.7172C93.1756 89.8853 92.6543 89.9077 92.1614 89.7814C91.6685 89.6552 91.2277 89.3864 90.8984 89.0112C89.5691 87.6746 88.6797 86.6109 87.5751 86.2814C86.4706 85.952 86.8518 85.0577 85.6887 85.2742C85.033 85.3365 84.3709 85.2855 83.7338 85.1236C83.9684 84.1447 84.3594 83.1751 84.7895 82.2244ZM123.887 62.2874C123.995 62.3744 124.096 62.4688 124.19 62.5698C124.198 62.8904 124.258 63.2078 124.366 63.5111C124.561 64.0194 125.118 64.763 125.588 65.6761C126.057 66.5892 124.786 67.0598 123.633 67.1634C122.479 67.2669 123.633 65.6949 123.828 65.3749C124.024 65.0548 123.711 64.3112 123.633 64.0476C123.555 63.7841 122.802 63.4076 122.655 62.9275C122.648 62.7725 122.674 62.6178 122.733 62.4734C122.792 62.329 122.882 62.1983 122.997 62.0897L123.887 62.2874ZM151.069 84.7847L150.395 85.246C147.805 87.1286 146.739 86.7427 146.739 86.7427C146.739 84.5024 143.221 80.3323 141.745 79.5887C140.269 78.8451 144.442 85.0013 145.889 86.8462C147.336 88.6912 148.401 87.844 149.799 87.524C151.196 87.2039 148.821 90.5173 147.248 92.0423C145.674 93.5672 143.768 93.5766 144.736 97.1348C145.703 100.693 144.071 101.079 142.781 101.841C141.491 102.604 142.116 104.543 141.119 104.966C140.122 105.39 141.969 107.075 138.353 108.845C134.736 110.614 133.954 109.381 133.651 107.998C133.348 106.614 131.697 106.397 131.921 104.543C132.146 102.689 130.661 100.844 131.325 99.9869C131.99 99.1303 131.325 95.9299 130.142 94.6497C128.96 93.3695 130.142 92.0893 129.996 91.4492C129.849 90.8091 128.891 91.4492 128.373 90.7527C127.855 90.0561 131.032 88.7477 125.783 90.1691C120.534 91.5904 120.534 90.169 118.687 88.5312C116.84 86.8933 117.582 86.6485 117.436 83.5516C117.289 80.4547 119.948 79.9182 121.052 78.2615C122.157 76.6047 123.349 75.7952 127.63 75.1551C131.912 74.515 130.367 76.2188 130.367 76.8495C130.367 77.4802 134.502 78.4968 134.502 78.2144C134.502 77.932 133.984 76.7177 134.951 76.8589C135.47 77.0001 140.494 77.8002 140.494 77.8002C142.136 77.5743 141.969 75.5975 141.803 75.2963C141.637 74.9951 141.178 74.901 139.731 75.2963C138.285 75.6917 137.444 74.355 137.366 73.4137C137.288 72.4724 139.829 72.2747 140.542 72.1335C141.233 72.1131 141.914 72.2935 142.497 72.6512C142.636 72.7031 142.786 72.72 142.933 72.7002C143.08 72.6804 143.219 72.6247 143.338 72.5383C146.779 76.0527 149.413 80.2253 151.069 84.7847ZM120.994 65.7514C121.324 65.1832 121.725 64.6554 122.186 64.1794C123.32 63.8876 122.792 65.4125 122.46 65.7514C122.128 66.0903 120.994 66.0432 120.994 65.7514ZM140.435 70.458C140.015 70.458 139.712 69.9403 139.457 69.5167C139.203 69.0931 138.685 70.0909 138.529 70.3921C138.325 70.8653 138.238 71.3776 138.275 71.8888C138.333 72.4159 137.942 72.5948 137.649 72.7736C137.356 72.9525 137.317 72.7077 137.053 72.5665C136.789 72.4253 136.164 72.6512 135.89 73.2066C135.616 73.762 135.988 75.0139 135.89 75.0328C135.448 74.9285 135.057 74.6788 134.785 74.3268C134.322 73.6426 133.991 72.8837 133.808 72.0865C133.376 71.3324 132.685 70.7466 131.853 70.4297C131.1 70.1756 131.765 71.2487 131.853 71.4464C131.941 71.644 132.977 72.3312 133.036 72.8113C133.094 73.2913 132.058 74.9857 132.312 74.3738C132.567 73.762 131.794 73.489 131.579 73.0278C131.364 72.5665 130.504 72.0864 129.771 71.2863C129.038 70.4862 128.735 71.2863 128.246 71.0322C127.758 70.778 127.367 71.3146 126.917 71.211C126.467 71.1075 126.624 71.7099 126.585 72.2747C126.546 72.8395 126.33 72.5665 125.607 73.216C124.884 73.8655 125.021 74.3927 124.63 74.6374C123.871 74.9979 123.032 75.1725 122.186 75.1457C120.974 75.1457 121.043 74.6092 121.082 74.0067C121.14 73.2527 121.342 72.5155 121.678 71.8323C122.04 71.0887 124.004 71.4369 124.405 71.3334C124.806 71.2299 124.561 70.618 124.561 69.8932C124.561 69.1684 123.584 68.7919 123.242 68.5377C122.9 68.2835 123.633 68.2553 124.522 68.0388C124.864 67.9836 125.189 67.8584 125.475 67.6716C125.762 67.4849 126.004 67.2409 126.184 66.9563C126.68 66.3066 127.284 65.7405 127.973 65.2808C128.471 64.9419 128.95 64.8195 129.302 64.5748C129.654 64.33 130.367 64.9984 130.367 64.9984L131.99 64.7442C135.205 66.1505 138.188 68.0026 140.845 70.2415C140.728 70.3262 140.64 70.458 140.435 70.458ZM105.482 63.7182C105.764 63.9804 105.978 64.3028 106.107 64.6595C106.332 65.4502 105.55 66.6739 106.274 67.0504C106.997 67.427 107.72 68.6507 107.163 68.6507C106.606 68.6507 104.338 68.3871 104.553 68.1141C104.932 67.6752 105.227 67.1748 105.423 66.6363C105.423 66.288 105.355 66.4292 104.573 66.6363C103.791 66.8433 101.953 66.3821 101.543 66.6363C101.132 66.8904 101.474 67.0881 101.787 67.474C102.1 67.86 101.728 67.9917 101.875 68.3306C101.938 68.4951 102.04 68.6434 102.172 68.7641C102.304 68.8849 102.464 68.9749 102.637 69.0272C102.97 69.0931 103.116 68.5942 103.429 68.8483C103.742 69.1025 102.119 70.0061 101.67 70.345C101.22 70.6839 100.692 70.7592 100.839 70.345C100.986 69.9308 100.741 69.7332 100.565 69.865C100.389 69.9967 99.0698 70.2509 98.7961 71.051C98.5224 71.8511 97.457 71.9923 97.0172 72.6512C96.5773 73.3102 96.0397 75.0045 95.1307 75.7482C94.2217 76.4918 92.3059 76.6895 92.4135 77.8285C92.521 78.9674 92.1398 80.9254 92.0811 80.5018C92.0225 80.0782 92.2571 78.9015 91.1037 78.6192C90.2759 78.2967 89.3583 78.2568 88.5037 78.5062C87.9531 78.577 87.3965 78.5959 86.8421 78.5627C91.0727 71.6704 97.6632 66.4117 105.482 63.6899V63.7182Z" fill="#237CA1"/>
<path d="M44.1906 56.1587L47.418 57.0728L44.6614 64.7516L41.4341 63.8375L44.1906 56.1587Z" fill="#388E3C"/>
<path d="M65.1648 62.0967L78.0743 65.7459L75.3253 73.432L62.4082 69.7755L65.1648 62.0967Z" fill="#388E3C"/>
<path d="M50.6452 57.9873L61.9372 61.1832L59.1807 68.862L47.8887 65.6661L50.6452 57.9873Z" fill="#388E3C"/>
<path d="M61.7248 112.433H61.7931L74.6646 76.5984L39.7331 66.7842L23.4215 87.0416L15 146.805L48.2913 152.041C48.1478 151.027 48.2571 149.994 48.6102 149.028L61.7248 112.433Z" fill="#388E3C"/>
<path d="M101.706 137.416L60.1757 123.521L50.8277 149.043C50.6813 149.381 50.6083 149.743 50.613 150.109C50.6178 150.475 50.7002 150.835 50.8554 151.169C51.0105 151.503 51.2349 151.802 51.5149 152.049C51.7949 152.296 52.1244 152.485 52.4832 152.605C53.2511 152.884 54.0836 152.955 54.8904 152.81L97.6436 154.609L101.706 137.416Z" fill="#388E3C"/>
<path d="M210.279 120.888L188.872 60.2256L157.791 69.7327L180.982 126.132C180.982 126.132 152.885 135.288 146.408 137.306C146.119 137.387 145.891 137.467 145.724 137.526C141.753 138.988 135.017 148.591 144.167 152.152C146.499 153.066 150.569 153.425 155.444 153.439C169.675 153.439 198.6 146.47 198.623 146.455C204.637 145.153 213.423 146.221 216.787 139.8C222.034 129.81 210.279 120.888 210.279 120.888ZM175.682 101.143L165.096 73.6818L166.683 73.1991L177.269 100.675L175.682 101.143ZM180.238 99.7606L169.652 72.2777L171.232 71.8023L181.833 99.2779L180.238 99.7606ZM185.273 98.2321L174.702 70.7566L176.282 70.2812L186.867 97.7568L185.273 98.2321ZM190.307 96.7037L179.722 69.2281L181.301 68.7454L191.887 96.2283L190.307 96.7037ZM195.342 95.1752L184.772 67.6777L186.351 67.195L196.937 94.6779L195.342 95.1752Z" fill="#388E3C"/>
<path d="M167.524 5.00952L159.975 13.895C159.057 11.84 150.863 0.358345 149.344 0.0950712L86.9457 0C86.847 0.219395 92.0943 2.23052 94.9648 3.35675C98.7486 4.96636 102.377 6.89478 105.809 9.11952C114.375 14.3923 123.275 27.2196 128.788 35.2641C126.98 35.8784 120.434 37.4581 120.434 37.4581L123.1 51.5579L132.478 51.7846C132.478 51.7846 142.859 51.141 147.795 48.9763C148.553 48.6462 149.287 48.265 149.99 47.8355C147.089 45.3197 147.833 37.9554 149.792 35.4469C154.348 29.6403 162.018 32.3608 168.07 34.6717C168.791 34.4571 169.477 34.1443 170.106 33.743C173.508 31.6295 176.006 27.1611 177.305 23.8702C178.914 19.7894 181.534 13.4197 181.534 13.4197L167.524 5.00952Z" fill="#388E3C"/>
<path d="M106.903 13.1635C101.709 8.89265 84.1213 1.50635 84.1213 1.50635C78.5018 5.6456 56.252 30.759 56.252 30.759C56.252 30.759 72.0243 42.7746 76.9755 46.731C80.7724 49.7586 93.1807 56.6769 93.1807 56.6769C93.1807 56.6769 94.6615 52.8375 94.8285 52.289C95.9524 48.6324 111.877 26.7368 115.962 21.8443C113.108 18.795 110.083 15.8971 106.903 13.1635V13.1635Z" fill="#388E3C"/>
</svg>
