<svg width="234" height="220" viewBox="0 0 234 220" fill="none" xmlns="http://www.w3.org/2000/svg">
<path d="M25.3542 190.455C24.8328 190.179 24.1888 189.949 23.4222 189.765C22.6862 189.581 21.9655 189.489 21.2602 189.489C19.8188 189.489 18.5002 189.826 17.3042 190.501C16.1388 191.145 15.2188 192.004 14.5442 193.077C13.8695 194.15 13.5322 195.316 13.5322 196.573V209.131H8.74816V184.981H13.5322V189.995C14.4522 188.37 15.6942 187.051 17.2582 186.039C18.8222 184.996 20.4628 184.475 22.1802 184.475C23.0388 184.475 23.8668 184.567 24.6642 184.751C25.4922 184.904 26.1362 185.134 26.5962 185.441L25.3542 190.455ZM59.1077 205.957H59.0617C58.2644 206.57 57.2524 207.168 56.0257 207.751C54.8297 208.303 53.4957 208.748 52.0237 209.085C50.5824 209.422 49.1104 209.591 47.6077 209.591C44.6637 209.591 42.0724 209.07 39.8337 208.027C37.6257 206.954 35.8931 205.497 34.6357 203.657C33.4091 201.786 32.7957 199.67 32.7957 197.309C32.7957 194.61 33.4551 192.31 34.7737 190.409C36.0924 188.477 37.8404 187.005 40.0177 185.993C42.1951 184.95 44.5871 184.429 47.1937 184.429C49.5857 184.429 51.7631 184.935 53.7257 185.947C55.6884 186.928 57.2524 188.293 58.4177 190.041C59.5831 191.789 60.1657 193.828 60.1657 196.159L60.1197 198.459H37.6257C37.9937 200.544 39.1437 202.2 41.0757 203.427C43.0077 204.623 45.4151 205.221 48.2977 205.221C50.4444 205.221 52.1924 204.899 53.5417 204.255C54.9217 203.611 56.0411 202.998 56.8997 202.415L59.1077 205.957ZM47.1937 188.799C44.8324 188.799 42.7777 189.244 41.0297 190.133C39.3124 191.022 38.2084 192.54 37.7177 194.687H55.3357V194.089C55.2131 193.046 54.7531 192.126 53.9557 191.329C53.1584 190.532 52.1617 189.918 50.9657 189.489C49.7697 189.029 48.5124 188.799 47.1937 188.799ZM99.991 176.931L86.145 209.131H80.671L66.687 176.931H72.345L80.533 196.297C80.993 197.432 81.499 198.643 82.051 199.931C82.6336 201.219 83.1703 202.461 83.661 203.657C84.0903 202.461 84.5656 201.234 85.087 199.977C85.6083 198.689 86.099 197.478 86.559 196.343L94.149 176.931H99.991ZM131.643 184.981V209.131H126.859V205.129C126.307 205.865 125.525 206.57 124.513 207.245C123.501 207.92 122.336 208.487 121.017 208.947C119.698 209.376 118.303 209.591 116.831 209.591C114.286 209.591 112.047 209.054 110.115 207.981C108.183 206.908 106.665 205.42 105.561 203.519C104.488 201.618 103.951 199.456 103.951 197.033C103.951 194.58 104.518 192.418 105.653 190.547C106.788 188.646 108.352 187.158 110.345 186.085C112.369 185.012 114.7 184.475 117.337 184.475C119.453 184.475 121.339 184.874 122.995 185.671C124.682 186.438 125.97 187.327 126.859 188.339V184.981H131.643ZM117.889 205.221C119.729 205.221 121.324 204.868 122.673 204.163C124.053 203.427 125.126 202.446 125.893 201.219C126.66 199.992 127.043 198.597 127.043 197.033C127.043 195.469 126.66 194.074 125.893 192.847C125.126 191.62 124.053 190.654 122.673 189.949C121.324 189.244 119.729 188.891 117.889 188.891C116.11 188.891 114.531 189.244 113.151 189.949C111.802 190.654 110.728 191.62 109.931 192.847C109.164 194.074 108.781 195.469 108.781 197.033C108.781 198.597 109.164 199.992 109.931 201.219C110.728 202.446 111.802 203.427 113.151 204.163C114.531 204.868 116.11 205.221 117.889 205.221ZM159.201 184.567C161.286 184.567 163.049 185.012 164.491 185.901C165.963 186.76 166.99 188.032 167.573 189.719C168.155 188.983 168.953 188.216 169.965 187.419C170.977 186.622 172.142 185.947 173.461 185.395C174.779 184.843 176.205 184.567 177.739 184.567C180.131 184.567 182.001 185.042 183.351 185.993C184.731 186.913 185.697 188.155 186.249 189.719C186.831 191.283 187.123 193.016 187.123 194.917V209.131H182.339V195.423C182.339 193.491 181.909 191.927 181.051 190.731C180.192 189.535 178.72 188.937 176.635 188.937C175.04 188.937 173.614 189.274 172.357 189.949C171.099 190.593 170.103 191.467 169.367 192.571C168.661 193.675 168.309 194.902 168.309 196.251V209.131H163.525V195.331C163.525 193.46 163.034 191.927 162.053 190.731C161.071 189.535 159.461 188.937 157.223 188.937C155.751 188.937 154.432 189.29 153.267 189.995C152.132 190.67 151.243 191.528 150.599 192.571C149.955 193.583 149.633 194.595 149.633 195.607V209.131H144.849V184.981H149.633V188.891C150.553 187.787 151.841 186.79 153.497 185.901C155.153 185.012 157.054 184.567 159.201 184.567ZM215.142 184.567C217.718 184.567 219.988 185.104 221.95 186.177C223.913 187.22 225.446 188.676 226.55 190.547C227.654 192.418 228.206 194.58 228.206 197.033C228.206 199.456 227.654 201.618 226.55 203.519C225.446 205.39 223.913 206.862 221.95 207.935C220.018 209.008 217.795 209.545 215.28 209.545C213.134 209.545 211.202 209.146 209.484 208.349C207.767 207.552 206.448 206.662 205.528 205.681V219.251H200.744V184.935H205.528V188.661C206.05 187.986 206.801 187.342 207.782 186.729C208.764 186.085 209.883 185.564 211.14 185.165C212.398 184.766 213.732 184.567 215.142 184.567ZM214.498 188.937C212.689 188.937 211.094 189.29 209.714 189.995C208.334 190.7 207.246 191.666 206.448 192.893C205.682 194.089 205.298 195.469 205.298 197.033C205.298 198.566 205.682 199.946 206.448 201.173C207.246 202.4 208.334 203.381 209.714 204.117C211.094 204.822 212.689 205.175 214.498 205.175C216.308 205.175 217.887 204.822 219.236 204.117C220.616 203.381 221.69 202.4 222.456 201.173C223.254 199.946 223.652 198.566 223.652 197.033C223.652 195.469 223.254 194.089 222.456 192.893C221.69 191.666 220.616 190.7 219.236 189.995C217.887 189.29 216.308 188.937 214.498 188.937Z" fill="#237CA1"/>
<path d="M116.116 67.0918C109.686 67.0918 103.4 68.9281 98.0536 72.3685C92.7071 75.8089 88.54 80.6988 86.0793 86.42C83.6186 92.1411 82.9747 98.4365 84.2292 104.51C85.4837 110.584 88.5801 116.163 93.1269 120.541C97.6737 124.92 103.467 127.902 109.773 129.11C116.08 130.318 122.617 129.698 128.558 127.328C134.498 124.959 139.576 120.946 143.148 115.797C146.721 110.648 148.628 104.594 148.628 98.4018C148.616 90.1012 145.187 82.1436 139.093 76.2742C132.998 70.4048 124.735 67.1026 116.116 67.0918Z" fill="#77BD43"/>
<path d="M116.116 67.0918C109.686 67.0918 103.4 68.9281 98.0536 72.3685C92.7071 75.8089 88.54 80.6988 86.0793 86.42C83.6186 92.1411 82.9747 98.4365 84.2292 104.51C85.4837 110.584 88.5801 116.163 93.1269 120.541C97.6737 124.92 103.467 127.902 109.773 129.11C116.08 130.318 122.617 129.698 128.558 127.328C134.498 124.959 139.576 120.946 143.148 115.797C146.721 110.648 148.628 104.594 148.628 98.4018C148.616 90.1012 145.187 82.1436 139.093 76.2742C132.998 70.4048 124.735 67.1026 116.116 67.0918ZM87.7672 86.4079C87.806 86.5241 87.8233 86.646 87.8182 86.7679C87.8182 87.4388 88.0391 87.766 88.9056 87.856C89.7721 87.946 90.0609 86.817 90.6046 86.7679C91.1483 86.7188 91.811 86.7679 91.5221 87.2097C91.2333 87.6515 90.1969 88.9687 90.8255 89.1323C91.4542 89.296 92.5246 88.6005 92.8474 89.435C93.1702 90.2695 92.6775 90.9895 93.0173 91.2022C93.3571 91.4149 93.646 92.0776 93.9178 92.1758C94.1897 92.274 94.521 91.7095 94.7164 91.8976C94.9118 92.0858 95.2941 92.2821 95.413 92.2412C95.6117 92.118 95.7967 91.9755 95.9652 91.8158C95.9652 91.8158 97.3159 90.6459 98.021 90.8913C98.8369 91.1822 99.6997 91.3318 100.57 91.3331C101.852 91.3822 102.048 91.6931 102.88 92.4376C103.713 93.1821 102.88 93.1166 104.579 93.3048C106.278 93.493 105.353 95.5956 107.128 95.7592C108.373 95.8834 109.589 96.1983 110.73 96.6919C111.758 97.06 113.491 97.6164 113.279 98.6636C113.066 99.7108 111.58 100.832 111.58 101.576C111.58 102.321 111.766 104.603 110.993 105.037C110.22 105.47 108.368 106.027 108.173 106.771C107.978 107.516 107.85 109.537 106.822 110.289C106.023 110.907 105.304 111.616 104.681 112.4C104.384 112.768 103.356 112.711 102.838 113.447C102.32 114.184 101.232 116.425 101.555 116.72C101.878 117.014 102.906 117.031 102.201 117.71C101.496 118.389 101.75 119.444 101.878 120.164C102.005 120.884 103.993 120.72 103.577 121.4C103.161 122.079 100.043 123.69 99.3293 118.863C98.6157 114.036 98.5563 112.744 98.7431 110.576C98.93 108.408 99.3888 103.834 98.8791 103.466C98.3694 103.098 96.0501 103.834 94.504 98.8272C92.9578 93.8202 94.6994 94.9247 95.0222 94.5566C95.2806 94.0443 95.4335 93.4886 95.4725 92.9203C95.0559 93.0664 94.6029 93.0858 94.1745 92.9761C93.7461 92.8664 93.3629 92.6327 93.0768 92.3067C91.9214 91.1449 91.1483 90.2204 90.1884 89.9341C89.2284 89.6477 89.5597 88.8705 88.5488 89.0587C87.9788 89.1129 87.4035 89.0685 86.8497 88.9278C87.0536 88.0769 87.3934 87.2343 87.7672 86.4079ZM121.748 69.0799C121.842 69.1555 121.93 69.2375 122.012 69.3253C122.019 69.6039 122.071 69.8798 122.165 70.1434C122.335 70.5852 122.819 71.2316 123.227 72.0251C123.634 72.8187 122.53 73.2278 121.528 73.3178C120.525 73.4078 121.528 72.0415 121.697 71.7633C121.867 71.4852 121.596 70.8389 121.528 70.6098C121.46 70.3807 120.805 70.0534 120.678 69.6362C120.672 69.5015 120.695 69.367 120.746 69.2415C120.797 69.1161 120.875 69.0024 120.975 68.9081L121.748 69.0799ZM145.374 88.6333L144.788 89.0341C142.536 90.6704 141.61 90.335 141.61 90.335C141.61 88.3878 138.552 84.7635 137.269 84.1172C135.987 83.4708 139.614 88.8214 140.871 90.425C142.129 92.0285 143.055 91.2922 144.27 91.014C145.484 90.7359 143.42 93.6157 142.052 94.9411C140.684 96.2664 139.028 96.2746 139.869 99.3672C140.71 102.46 139.291 102.795 138.17 103.458C137.049 104.121 137.592 105.806 136.726 106.174C135.859 106.542 137.465 108.007 134.322 109.545C131.178 111.083 130.499 110.011 130.235 108.808C129.972 107.606 128.536 107.418 128.732 105.806C128.927 104.194 127.636 102.591 128.213 101.846C128.791 101.102 128.213 98.32 127.185 97.2073C126.158 96.0946 127.185 94.982 127.058 94.4257C126.931 93.8693 126.098 94.4257 125.648 93.8202C125.198 93.2148 127.959 92.0776 123.397 93.313C118.835 94.5484 118.835 93.313 117.229 91.8894C115.623 90.4659 116.269 90.2532 116.142 87.5615C116.014 84.8699 118.325 84.4035 119.285 82.9636C120.245 81.5237 121.281 80.8201 125.002 80.2638C128.723 79.7074 127.381 81.1882 127.381 81.7364C127.381 82.2845 130.974 83.1681 130.974 82.9227C130.974 82.6772 130.524 81.6219 131.365 81.7446C131.815 81.8673 136.182 82.5627 136.182 82.5627C137.609 82.3664 137.465 80.6483 137.32 80.3865C137.176 80.1247 136.777 80.0429 135.519 80.3865C134.262 80.7301 133.531 79.5683 133.463 78.7502C133.396 77.9321 135.604 77.7603 136.224 77.6375C136.825 77.6198 137.417 77.7766 137.924 78.0875C138.044 78.1326 138.174 78.1472 138.302 78.1301C138.43 78.1129 138.551 78.0644 138.654 77.9893C141.645 81.0438 143.934 84.6704 145.374 88.6333ZM119.234 72.0906C119.521 71.5967 119.869 71.138 120.27 70.7243C121.256 70.4707 120.797 71.7961 120.508 72.0906C120.219 72.3851 119.234 72.3442 119.234 72.0906ZM136.131 76.1813C135.766 76.1813 135.502 75.7313 135.281 75.3631C135.061 74.995 134.61 75.8622 134.474 76.124C134.297 76.5352 134.221 76.9806 134.254 77.4248C134.305 77.883 133.965 78.0384 133.71 78.1939C133.455 78.3493 133.421 78.1366 133.192 78.0139C132.962 77.8912 132.419 78.0875 132.181 78.5702C131.943 79.0529 132.266 80.141 132.181 80.1574C131.796 80.0668 131.457 79.8498 131.221 79.5438C130.818 78.9492 130.531 78.2896 130.371 77.5966C129.996 76.9412 129.395 76.4321 128.672 76.1567C128.018 75.9358 128.596 76.8685 128.672 77.0403C128.749 77.2121 129.649 77.8094 129.7 78.2266C129.751 78.6438 128.851 80.1165 129.071 79.5847C129.292 79.0529 128.621 78.8157 128.434 78.4148C128.247 78.0139 127.5 77.5966 126.863 76.9012C126.225 76.2058 125.962 76.9012 125.537 76.6803C125.113 76.4594 124.773 76.9258 124.382 76.8358C123.991 76.7458 124.127 77.2694 124.093 77.7603C124.059 78.2511 123.872 78.0139 123.244 78.5784C122.615 79.1429 122.734 79.6011 122.394 79.8138C121.735 80.1271 121.005 80.2788 120.27 80.2556C119.217 80.2556 119.276 79.7892 119.31 79.2656C119.361 78.6103 119.536 77.9696 119.828 77.3757C120.143 76.7294 121.85 77.0321 122.199 76.9421C122.547 76.8521 122.335 76.3203 122.335 75.6904C122.335 75.0604 121.485 74.7332 121.188 74.5123C120.89 74.2914 121.528 74.2668 122.301 74.0787C122.597 74.0307 122.88 73.9219 123.129 73.7595C123.378 73.5972 123.588 73.3852 123.745 73.1378C124.176 72.5732 124.701 72.0811 125.299 71.6815C125.733 71.387 126.149 71.2806 126.455 71.0679C126.761 70.8552 127.381 71.4361 127.381 71.4361L128.791 71.2152C131.585 72.4375 134.178 74.0472 136.488 75.9931C136.386 76.0667 136.309 76.1813 136.131 76.1813ZM105.752 70.3234C105.997 70.5513 106.183 70.8316 106.295 71.1416C106.491 71.8288 105.811 72.8924 106.44 73.2196C107.069 73.5469 107.697 74.6104 107.213 74.6104C106.729 74.6104 104.758 74.3814 104.945 74.1441C105.274 73.7626 105.53 73.3277 105.701 72.8596C105.701 72.5569 105.641 72.6797 104.962 72.8596C104.282 73.0396 102.685 72.6387 102.328 72.8596C101.971 73.0805 102.269 73.2523 102.541 73.5878C102.812 73.9232 102.49 74.0378 102.617 74.3323C102.672 74.4752 102.76 74.6041 102.875 74.7091C102.99 74.814 103.129 74.8922 103.28 74.9377C103.568 74.995 103.696 74.5614 103.968 74.7823C104.24 75.0032 102.829 75.7886 102.439 76.0831C102.048 76.3776 101.589 76.4431 101.717 76.0831C101.844 75.7231 101.632 75.5513 101.479 75.6658C101.326 75.7804 100.179 76.0013 99.941 76.6967C99.7031 77.3921 98.7771 77.5148 98.3948 78.0875C98.0125 78.6602 97.5453 80.1329 96.7552 80.7792C95.9652 81.4255 94.3001 81.5973 94.3935 82.5873C94.487 83.5772 94.1557 85.2789 94.1047 84.9108C94.0537 84.5426 94.2576 83.5199 93.2552 83.2745C92.5357 82.9942 91.7382 82.9595 90.9954 83.1763C90.5168 83.2379 90.0331 83.2543 89.5512 83.2254C93.2282 77.235 98.9563 72.6645 105.752 70.2989V70.3234Z" fill="#237CA1"/>
<path d="M40.6081 56.1587L43.8355 57.0728L41.0789 64.7516L37.8516 63.8375L40.6081 56.1587Z" fill="#388E3C"/>
<path d="M61.5822 62.0967L74.4917 65.7459L71.7428 73.432L58.8257 69.7755L61.5822 62.0967Z" fill="#388E3C"/>
<path d="M47.0627 57.9873L58.3547 61.1832L55.5982 68.862L44.3062 65.6661L47.0627 57.9873Z" fill="#388E3C"/>
<path d="M58.1422 112.433H58.2106L71.0821 76.5984L36.1505 66.7842L19.839 87.0416L11.4175 146.805L44.7088 152.041C44.5653 151.027 44.6746 149.994 45.0277 149.028L58.1422 112.433Z" fill="#388E3C"/>
<path d="M98.1238 137.416L56.5932 123.521L47.2452 149.043C47.0988 149.381 47.0257 149.743 47.0305 150.109C47.0352 150.475 47.1177 150.835 47.2728 151.169C47.428 151.503 47.6524 151.802 47.9324 152.049C48.2123 152.296 48.5419 152.485 48.9007 152.605C49.6685 152.884 50.5011 152.955 51.3079 152.81L94.0611 154.609L98.1238 137.416Z" fill="#388E3C"/>
<path d="M206.697 120.888L185.29 60.2256L154.208 69.7327L177.4 126.132C177.4 126.132 149.303 135.288 142.825 137.306C142.536 137.387 142.309 137.467 142.142 137.526C138.17 138.988 131.434 148.591 140.585 152.152C142.916 153.066 146.986 153.425 151.862 153.439C166.092 153.439 195.017 146.47 195.04 146.455C201.054 145.153 209.84 146.221 213.205 139.8C218.452 129.81 206.697 120.888 206.697 120.888ZM172.099 101.143L161.513 73.6818L163.101 73.1991L173.686 100.675L172.099 101.143ZM176.655 99.7606L166.07 72.2777L167.649 71.8023L178.25 99.2779L176.655 99.7606ZM181.69 98.2321L171.12 70.7566L172.699 70.2812L183.285 97.7568L181.69 98.2321ZM186.725 96.7037L176.139 69.2281L177.719 68.7454L188.304 96.2283L186.725 96.7037ZM191.76 95.1752L181.189 67.6777L182.769 67.195L193.354 94.6779L191.76 95.1752Z" fill="#388E3C"/>
<path d="M163.941 5.00952L156.393 13.895C155.474 11.84 147.28 0.358345 145.762 0.0950712L83.3632 0C83.2645 0.219395 88.5118 2.23052 91.3823 3.35675C95.1661 4.96636 98.7949 6.89478 102.226 9.11952C110.792 14.3923 119.692 27.2196 125.205 35.2641C123.398 35.8784 116.852 37.4581 116.852 37.4581L119.517 51.5578L128.896 51.7846C128.896 51.7846 139.276 51.141 144.212 48.9763C144.971 48.6462 145.704 48.265 146.407 47.8354C143.506 45.3197 144.25 37.9554 146.21 35.4469C150.766 29.6403 158.436 32.3608 164.488 34.6717C165.209 34.4571 165.894 34.1443 166.523 33.743C169.925 31.6295 172.423 27.1611 173.722 23.8702C175.332 19.7894 177.952 13.4197 177.952 13.4197L163.941 5.00952Z" fill="#388E3C"/>
<path d="M103.32 13.1635C98.126 8.89265 80.5387 1.50635 80.5387 1.50635C74.9193 5.6456 52.6694 30.759 52.6694 30.759C52.6694 30.759 68.4418 42.7746 73.393 46.731C77.1899 49.7586 89.5982 56.6769 89.5982 56.6769C89.5982 56.6769 91.079 52.8375 91.246 52.289C92.3699 48.6324 108.294 26.7368 112.38 21.8443C109.525 18.795 106.501 15.8971 103.32 13.1635Z" fill="#388E3C"/>
</svg>
