<svg width="140" height="145" viewBox="0 0 140 145" fill="none" xmlns="http://www.w3.org/2000/svg">
<path fill-rule="evenodd" clip-rule="evenodd" d="M92.0589 0C125.954 16.2808 117.793 11.3008 140 44.0765L117.65 65.7815L112.83 62.1131L112.972 145H27.0272L27.1699 62.1131L22.3494 65.7815L0 44.0765C22.2067 11.3008 14.0459 16.2808 47.9404 0C51.2077 2.50698 60.2663 22.462 69.4401 22.512C78.9871 22.564 88.6591 2.60894 92.0589 0Z" fill="#EE5D5D"/>
<path d="M65.5563 61.5463V64.9783H51.8023V62.2483L58.8223 55.6183C59.5676 54.9076 60.0703 54.3009 60.3303 53.7983C60.5903 53.2783 60.7203 52.7669 60.7203 52.2643C60.7203 51.5363 60.4689 50.9816 59.9663 50.6003C59.4809 50.2016 58.7616 50.0023 57.8083 50.0023C57.0109 50.0023 56.2916 50.1583 55.6503 50.4703C55.0089 50.7649 54.4716 51.2156 54.0383 51.8223L50.9703 49.8463C51.6809 48.7889 52.6603 47.9656 53.9083 47.3763C55.1563 46.7696 56.5863 46.4663 58.1983 46.4663C59.5503 46.4663 60.7289 46.6916 61.7343 47.1423C62.757 47.5756 63.5456 48.1996 64.1003 49.0143C64.6723 49.8116 64.9583 50.7563 64.9583 51.8483C64.9583 52.8363 64.7503 53.7636 64.3343 54.6303C63.9183 55.4969 63.1123 56.4849 61.9163 57.5943L57.7303 61.5463H65.5563ZM69.9401 65.1863C69.2295 65.1863 68.6315 64.9436 68.1461 64.4583C67.6608 63.9729 67.4181 63.3663 67.4181 62.6383C67.4181 61.8929 67.6608 61.2949 68.1461 60.8443C68.6315 60.3763 69.2295 60.1423 69.9401 60.1423C70.6508 60.1423 71.2488 60.3763 71.7341 60.8443C72.2195 61.2949 72.4621 61.8929 72.4621 62.6383C72.4621 63.3663 72.2195 63.9729 71.7341 64.4583C71.2488 64.9436 70.6508 65.1863 69.9401 65.1863ZM88.1946 46.7783V49.5083L81.4346 64.9783H76.8586L83.3846 50.2103H77.3526V53.1743H73.6086V46.7783H88.1946ZM34.2878 76.7783H38.4998V91.5463H47.6258V94.9783H34.2878V76.7783ZM49.6932 80.9903H53.7492V94.9783H49.6932V80.9903ZM51.7212 79.0403C50.9759 79.0403 50.3692 78.8236 49.9012 78.3903C49.4332 77.9569 49.1992 77.4196 49.1992 76.7783C49.1992 76.1369 49.4332 75.5996 49.9012 75.1663C50.3692 74.7329 50.9759 74.5163 51.7212 74.5163C52.4666 74.5163 53.0732 74.7243 53.5412 75.1403C54.0092 75.5563 54.2432 76.0763 54.2432 76.7003C54.2432 77.3763 54.0092 77.9396 53.5412 78.3903C53.0732 78.8236 52.4666 79.0403 51.7212 79.0403ZM66.5355 94.3023C66.1369 94.5969 65.6429 94.8223 65.0535 94.9783C64.4815 95.1169 63.8749 95.1863 63.2335 95.1863C61.5695 95.1863 60.2782 94.7616 59.3595 93.9123C58.4582 93.0629 58.0075 91.8149 58.0075 90.1683V84.4223H55.8495V81.3023H58.0075V77.8963H62.0635V81.3023H65.5475V84.4223H62.0635V90.1163C62.0635 90.7056 62.2109 91.1649 62.5055 91.4943C62.8175 91.8063 63.2509 91.9623 63.8055 91.9623C64.4469 91.9623 64.9929 91.7889 65.4435 91.4423L66.5355 94.3023ZM82.0827 88.0363C82.0827 88.0883 82.0567 88.4523 82.0047 89.1283H71.4227C71.6134 89.9949 72.0641 90.6796 72.7747 91.1823C73.4854 91.6849 74.3694 91.9363 75.4267 91.9363C76.1547 91.9363 76.7961 91.8323 77.3507 91.6243C77.9227 91.3989 78.4514 91.0523 78.9367 90.5843L81.0947 92.9243C79.7774 94.4323 77.8534 95.1863 75.3227 95.1863C73.7454 95.1863 72.3501 94.8829 71.1367 94.2763C69.9234 93.6523 68.9874 92.7943 68.3287 91.7023C67.6701 90.6103 67.3407 89.3709 67.3407 87.9843C67.3407 86.6149 67.6614 85.3843 68.3027 84.2923C68.9614 83.1829 69.8541 82.3249 70.9807 81.7183C72.1247 81.0943 73.3987 80.7823 74.8027 80.7823C76.1721 80.7823 77.4114 81.0769 78.5207 81.6663C79.6301 82.2556 80.4967 83.1049 81.1207 84.2143C81.7621 85.3063 82.0827 86.5803 82.0827 88.0363ZM74.8287 83.8503C73.9101 83.8503 73.1387 84.1103 72.5147 84.6303C71.8907 85.1503 71.5094 85.8609 71.3707 86.7623H78.2607C78.1221 85.8783 77.7407 85.1763 77.1167 84.6563C76.4927 84.1189 75.7301 83.8503 74.8287 83.8503ZM88.6571 82.8363C89.1424 82.1603 89.7924 81.6489 90.6071 81.3023C91.4391 80.9556 92.3924 80.7823 93.4671 80.7823V84.5263C93.0164 84.4916 92.7131 84.4743 92.5571 84.4743C91.3957 84.4743 90.4857 84.8036 89.8271 85.4623C89.1684 86.1036 88.8391 87.0743 88.8391 88.3743V94.9783H84.7831V80.9903H88.6571V82.8363ZM100.636 95.1863C99.4742 95.1863 98.3389 95.0476 97.2296 94.7703C96.1202 94.4756 95.2362 94.1116 94.5776 93.6783L95.9296 90.7663C96.5536 91.1649 97.3076 91.4943 98.1916 91.7543C99.0756 91.9969 99.9422 92.1183 100.792 92.1183C102.508 92.1183 103.366 91.6936 103.366 90.8443C103.366 90.4456 103.132 90.1596 102.664 89.9863C102.196 89.8129 101.476 89.6656 100.506 89.5443C99.3616 89.3709 98.4169 89.1716 97.6716 88.9463C96.9262 88.7209 96.2762 88.3223 95.7216 87.7503C95.1842 87.1783 94.9156 86.3636 94.9156 85.3063C94.9156 84.4223 95.1669 83.6423 95.6696 82.9663C96.1896 82.2729 96.9349 81.7356 97.9056 81.3543C98.8936 80.9729 100.055 80.7823 101.39 80.7823C102.378 80.7823 103.357 80.8949 104.328 81.1203C105.316 81.3283 106.13 81.6229 106.772 82.0043L105.42 84.8903C104.189 84.1969 102.846 83.8503 101.39 83.8503C100.523 83.8503 99.8729 83.9716 99.4396 84.2143C99.0062 84.4569 98.7896 84.7689 98.7896 85.1503C98.7896 85.5836 99.0236 85.8869 99.4916 86.0603C99.9596 86.2336 100.705 86.3983 101.728 86.5543C102.872 86.7449 103.808 86.9529 104.536 87.1783C105.264 87.3863 105.896 87.7763 106.434 88.3483C106.971 88.9203 107.24 89.7176 107.24 90.7403C107.24 91.6069 106.98 92.3783 106.46 93.0543C105.94 93.7303 105.177 94.2589 104.172 94.6403C103.184 95.0043 102.005 95.1863 100.636 95.1863Z" fill="white"/>
</svg>
