<svg width="140" height="145" viewBox="0 0 140 145" fill="none" xmlns="http://www.w3.org/2000/svg">
<path d="M20.9456 0H15.7092V12.9474H20.9456V0Z" fill="#102C37"/>
<path d="M70.6982 0H49.7525V12.9474H70.6982V0Z" fill="#102C37"/>
<path d="M44.5161 0H26.1865V12.9474H44.5161V0Z" fill="#102C37"/>
<path d="M81.171 0H75.9346V12.9474H81.171V0Z" fill="#102C37"/>
<path d="M81.171 78.611H81.3036V18.1255H14.6885L0 56.2381L15.0818 145H82.4039C81.598 143.55 81.174 141.922 81.171 140.268V78.611Z" fill="#102C37"/>
<path d="M128.723 58.991L86.5665 81.6217V85.4539H86.4074V140.268C86.4075 141.232 86.7067 142.173 87.2645 142.964C87.8223 143.755 88.612 144.358 89.5271 144.691C90.4422 145.025 91.4386 145.072 92.382 144.828C93.3255 144.584 94.1706 144.06 94.8033 143.326L140 76.6009L128.723 58.991Z" fill="#102C37"/>
<path d="M30.4001 66.7267V70.1587H16.6461V67.4287L23.6661 60.7987C24.4115 60.088 24.9141 59.4814 25.1741 58.9787C25.4341 58.4587 25.5641 57.9474 25.5641 57.4447C25.5641 56.7167 25.3128 56.162 24.8101 55.7807C24.3248 55.382 23.6055 55.1827 22.6521 55.1827C21.8548 55.1827 21.1355 55.3387 20.4941 55.6507C19.8528 55.9454 19.3155 56.396 18.8821 57.0027L15.8141 55.0267C16.5248 53.9694 17.5041 53.146 18.7521 52.5567C20.0001 51.95 21.4301 51.6467 23.0421 51.6467C24.3941 51.6467 25.5728 51.872 26.5781 52.3227C27.6008 52.756 28.3895 53.38 28.9441 54.1947C29.5161 54.992 29.8021 55.9367 29.8021 57.0287C29.8021 58.0167 29.5941 58.944 29.1781 59.8107C28.7621 60.6774 27.9561 61.6654 26.7601 62.7747L22.5741 66.7267H30.4001ZM38.9773 70.4707C37.4693 70.4707 36.126 70.098 34.9473 69.3527C33.7686 68.6074 32.8413 67.5327 32.1653 66.1287C31.5066 64.7074 31.1773 63.0174 31.1773 61.0587C31.1773 59.1 31.5066 57.4187 32.1653 56.0147C32.8413 54.5934 33.7686 53.51 34.9473 52.7647C36.126 52.0194 37.4693 51.6467 38.9773 51.6467C40.4853 51.6467 41.8286 52.0194 43.0073 52.7647C44.186 53.51 45.1046 54.5934 45.7633 56.0147C46.4393 57.4187 46.7773 59.1 46.7773 61.0587C46.7773 63.0174 46.4393 64.7074 45.7633 66.1287C45.1046 67.5327 44.186 68.6074 43.0073 69.3527C41.8286 70.098 40.4853 70.4707 38.9773 70.4707ZM38.9773 66.9087C40.0866 66.9087 40.9533 66.432 41.5773 65.4787C42.2186 64.5254 42.5393 63.052 42.5393 61.0587C42.5393 59.0654 42.2186 57.592 41.5773 56.6387C40.9533 55.6854 40.0866 55.2087 38.9773 55.2087C37.8853 55.2087 37.0186 55.6854 36.3773 56.6387C35.7533 57.592 35.4413 59.0654 35.4413 61.0587C35.4413 63.052 35.7533 64.5254 36.3773 65.4787C37.0186 66.432 37.8853 66.9087 38.9773 66.9087ZM55.6878 63.0087L53.2438 65.5567V70.1587H49.0578V51.9587H53.2438V60.4607L61.3038 51.9587H65.9838L58.4438 60.0707L66.4258 70.1587H61.5118L55.6878 63.0087ZM10.7565 83.9587H14.9685V98.7267H24.0945V102.159H10.7565V83.9587ZM25.2519 88.1707H29.3079V102.159H25.2519V88.1707ZM27.2799 86.2207C26.5346 86.2207 25.9279 86.004 25.4599 85.5707C24.9919 85.1374 24.7579 84.6 24.7579 83.9587C24.7579 83.3174 24.9919 82.78 25.4599 82.3467C25.9279 81.9134 26.5346 81.6967 27.2799 81.6967C28.0253 81.6967 28.6319 81.9047 29.0999 82.3207C29.5679 82.7367 29.8019 83.2567 29.8019 83.8807C29.8019 84.5567 29.5679 85.12 29.0999 85.5707C28.6319 86.004 28.0253 86.2207 27.2799 86.2207ZM41.1842 101.483C40.7856 101.777 40.2916 102.003 39.7022 102.159C39.1302 102.297 38.5236 102.367 37.8822 102.367C36.2182 102.367 34.9269 101.942 34.0082 101.093C33.1069 100.243 32.6562 98.9954 32.6562 97.3487V91.6027H30.4982V88.4827H32.6562V85.0767H36.7122V88.4827H40.1962V91.6027H36.7122V97.2967C36.7122 97.886 36.8596 98.3454 37.1542 98.6747C37.4662 98.9867 37.8996 99.1427 38.4542 99.1427C39.0956 99.1427 39.6416 98.9694 40.0922 98.6227L41.1842 101.483ZM55.8214 95.2167C55.8214 95.2687 55.7954 95.6327 55.7434 96.3087H45.1614C45.3521 97.1754 45.8028 97.86 46.5134 98.3627C47.2241 98.8654 48.1081 99.1167 49.1654 99.1167C49.8934 99.1167 50.5348 99.0127 51.0894 98.8047C51.6614 98.5794 52.1901 98.2327 52.6754 97.7647L54.8334 100.105C53.5161 101.613 51.5921 102.367 49.0614 102.367C47.4841 102.367 46.0888 102.063 44.8754 101.457C43.6621 100.833 42.7261 99.9747 42.0674 98.8827C41.4088 97.7907 41.0794 96.5514 41.0794 95.1647C41.0794 93.7954 41.4001 92.5647 42.0414 91.4727C42.7001 90.3634 43.5928 89.5054 44.7194 88.8987C45.8634 88.2747 47.1374 87.9627 48.5414 87.9627C49.9108 87.9627 51.1501 88.2574 52.2594 88.8467C53.3688 89.436 54.2354 90.2854 54.8594 91.3947C55.5008 92.4867 55.8214 93.7607 55.8214 95.2167ZM48.5674 91.0307C47.6488 91.0307 46.8774 91.2907 46.2534 91.8107C45.6294 92.3307 45.2481 93.0414 45.1094 93.9427H51.9994C51.8608 93.0587 51.4794 92.3567 50.8554 91.8367C50.2314 91.2994 49.4688 91.0307 48.5674 91.0307ZM61.4858 90.0167C61.9711 89.3407 62.6211 88.8294 63.4358 88.4827C64.2678 88.136 65.2211 87.9627 66.2958 87.9627V91.7067C65.8451 91.672 65.5418 91.6547 65.3858 91.6547C64.2244 91.6547 63.3144 91.984 62.6558 92.6427C61.9971 93.284 61.6678 94.2547 61.6678 95.5547V102.159H57.6118V88.1707H61.4858V90.0167ZM72.5543 102.367C71.3929 102.367 70.2576 102.228 69.1483 101.951C68.0389 101.656 67.1549 101.292 66.4963 100.859L67.8483 97.9467C68.4723 98.3454 69.2263 98.6747 70.1103 98.9347C70.9943 99.1774 71.8609 99.2987 72.7103 99.2987C74.4263 99.2987 75.2843 98.874 75.2843 98.0247C75.2843 97.626 75.0503 97.34 74.5823 97.1667C74.1143 96.9934 73.3949 96.846 72.4243 96.7247C71.2803 96.5514 70.3356 96.352 69.5903 96.1267C68.8449 95.9014 68.1949 95.5027 67.6403 94.9307C67.1029 94.3587 66.8343 93.544 66.8343 92.4867C66.8343 91.6027 67.0856 90.8227 67.5883 90.1467C68.1083 89.4534 68.8536 88.916 69.8243 88.5347C70.8123 88.1534 71.9736 87.9627 73.3083 87.9627C74.2963 87.9627 75.2756 88.0754 76.2463 88.3007C77.2343 88.5087 78.0489 88.8034 78.6903 89.1847L77.3383 92.0707C76.1076 91.3774 74.7643 91.0307 73.3083 91.0307C72.4416 91.0307 71.7916 91.152 71.3583 91.3947C70.9249 91.6374 70.7083 91.9494 70.7083 92.3307C70.7083 92.764 70.9423 93.0674 71.4103 93.2407C71.8783 93.414 72.6236 93.5787 73.6463 93.7347C74.7903 93.9254 75.7263 94.1334 76.4543 94.3587C77.1823 94.5667 77.8149 94.9567 78.3523 95.5287C78.8896 96.1007 79.1583 96.898 79.1583 97.9207C79.1583 98.7874 78.8983 99.5587 78.3783 100.235C77.8583 100.911 77.0956 101.439 76.0903 101.821C75.1023 102.185 73.9236 102.367 72.5543 102.367Z" fill="white"/>
</svg>
