<svg width="103" height="111" viewBox="0 0 103 111" fill="none" xmlns="http://www.w3.org/2000/svg">
<path d="M54.551 103.407C36.9909 105.436 19.0519 95.9611 13.7838 93.255H9.96191C15.2299 98.8363 27.8747 112.75 54.551 110.513C78.431 108.51 90.3772 96.2935 94.1819 88.6827H102.962L87.6742 78.5349L70.8231 88.6827H80.6674C78.5248 93.3957 72.111 101.377 54.551 103.407Z" fill="#388E3C"/>
<path d="M45.6122 7.84494C62.0695 5.61235 79.0976 14.7841 84.0968 17.4017L87.6869 17.3538C82.6341 11.885 70.4961 -1.75491 45.4794 0.797816C23.085 3.08297 12.0915 15.3478 8.6597 22.9429L0.412118 23.0529L14.9623 32.9247L30.602 22.6504L21.3546 22.7736C23.2792 18.073 29.155 10.0775 45.6122 7.84494Z" fill="#388E3C"/>
<path d="M34.2734 71.817C30.1204 73.3062 20.8177 75.774 16.8308 73.7316C15.5849 73.2734 16.2078 51.3938 16.2078 50.7556C16.2078 50.1174 15.5849 47.99 14.9619 46.9263L41.7488 39.2676C41.7488 40.7568 42.9947 42.4587 43.6177 43.7351C44.2863 45.1052 50.4701 57.3506 52.9619 64.1583C49.2242 66.7112 41.0013 71.434 38.0111 69.9023L32.9619 61.4185L34.2734 71.817Z" fill="#247BA0"/>
<path fill-rule="evenodd" clip-rule="evenodd" d="M71.1825 23.1577C83.0458 28.6972 80.1893 27.0028 87.9619 38.1547L80.1394 45.5398L78.4524 44.2916L78.5022 72.4938H48.4214L48.4714 44.2916L46.7842 45.5398L38.9619 38.1547C46.7342 27.0028 43.878 28.6972 55.7411 23.1577C56.8846 24.0107 60.0551 30.8004 63.266 30.8174C66.6074 30.8351 69.9926 24.0454 71.1825 23.1577Z" fill="#EE5D5D"/>
<path d="M52.8099 77.8785L56.355 79.4496L62.246 76.1115L58.9307 70.1801L52.4506 73.852L48.2762 71.9877C46.3714 71.1438 44.0519 71.7524 42.9927 73.5558C42.2082 74.8912 42.2728 76.4595 42.9526 77.6759C43.3677 78.4184 44.0168 79.0376 44.8514 79.4076L45.9078 79.8761C47.3283 77.6141 50.2606 76.7487 52.8099 77.8785V77.8785ZM64.6025 74.7763C65.0093 74.5457 65.4503 74.4457 65.8872 74.4398C65.8587 74.328 65.8397 74.2143 65.7807 74.1086L63.1283 69.3635C62.7622 68.7085 61.9377 68.4762 61.2871 68.8448L60.1089 69.5125L63.4242 75.4439L64.6025 74.7763ZM69.7591 81.2264L67.1068 76.4812C66.7407 75.8262 65.9161 75.5939 65.2655 75.9626L64.0873 76.6302L68.0658 83.7479L69.244 83.0803C69.8946 82.7116 70.1253 81.8814 69.7591 81.2264ZM56.429 80.9697L52.2654 79.1247C50.3607 78.2808 48.0412 78.8893 46.982 80.6928C46.1974 82.0282 46.2512 83.5773 46.9311 84.7936C47.3461 85.5361 47.9952 86.1553 48.8299 86.5253L54.3981 88.9934C55.1665 89.334 56.0031 89.4898 56.8416 89.4484C57.6802 89.407 58.4976 89.1696 59.2293 88.7551L66.8876 84.4155L62.9091 77.2978L56.429 80.9697Z" fill="#029C66"/>
</svg>
