<svg width="225" height="202" viewBox="0 0 225 202" fill="none" xmlns="http://www.w3.org/2000/svg">
<path d="M148.008 16.9917C141.514 5.74859 137.241 0 125.37 0H94.5908C106.021 0.203455 110.277 5.93522 116.67 16.9917L130.603 41.1337L114.363 50.5097L152.909 52.6281L170.347 18.1873L154.107 27.5639L148.008 16.9917Z" fill="#77BD43"/>
<path d="M63.8674 98.8737L77.8084 74.7363L94.0484 84.1126L76.6098 49.6716L38.064 51.7899L54.3045 61.1665L48.1982 71.7341C41.7086 82.9802 38.8669 89.5553 44.802 99.8355L60.1913 126.491C54.6527 116.491 57.4886 109.939 63.8674 98.8737Z" fill="#77BD43"/>
<path d="M161.181 103.663L133.307 103.658V84.9058L112.199 117.228L133.307 149.551V130.798L145.512 130.802C158.496 130.799 165.611 129.973 171.546 119.693L186.936 93.0372C181.044 102.834 173.952 103.654 161.181 103.663Z" fill="#77BD43"/>
<path d="M162.774 96.8665C181.473 97.2064 189.495 88.8749 183.021 77.637L170.697 56.2986L147.186 69.8724L162.774 96.8665Z" fill="#77BD43"/>
<path d="M83.2118 11.0902L70.9209 32.3867L94.4317 45.9609L109.988 19.0094C100.933 2.64515 89.7068 -0.136036 83.2118 11.0902Z" fill="#77BD43"/>
<path d="M75.4859 130.799L100.073 130.796V103.648L68.9553 103.65C59.311 119.675 62.5159 130.788 75.4859 130.799Z" fill="#77BD43"/>
<circle cx="112.043" cy="74.8932" r="45.5687" fill="#C9E41E"/>
<path d="M112.26 28.0347C86.54 28.0347 65.6152 48.9584 65.6152 74.6781C65.6152 100.397 86.54 121.322 112.26 121.322C137.979 121.322 158.902 100.397 158.902 74.677C158.901 48.9584 137.978 28.0347 112.26 28.0347ZM71.5868 56.8187C71.6388 56.9824 71.6752 57.1516 71.662 57.3506C71.5934 58.3525 71.9727 58.8369 73.2168 58.9751C74.4609 59.1133 74.8756 57.4203 75.6707 57.3506C76.4658 57.2809 77.398 57.282 76.9844 58.0075C76.5719 58.7329 75.0835 60.6339 75.9836 60.876C76.8816 61.1182 78.4375 60.0809 78.8865 61.325C79.3344 62.5691 78.6432 63.6407 79.1287 63.9514C79.613 64.2621 80.0266 65.2651 80.4247 65.4023C80.8228 65.5394 81.2884 64.7111 81.5648 64.9876C81.8413 65.264 82.3942 65.5582 82.5656 65.5062C82.7381 65.4542 83.3574 64.8726 83.3574 64.8726C83.3574 64.8726 85.2926 63.1209 86.3056 63.4903C87.3174 63.8596 88.1468 64.083 89.9925 64.156C91.8348 64.2279 92.1113 64.689 93.31 65.7948C94.5054 66.9007 93.31 66.8078 95.7053 67.0843C98.0994 67.3607 96.8111 70.4947 99.3922 70.7711C101.97 71.0476 103.079 71.6005 104.552 72.1534C106.027 72.7064 108.515 73.5346 108.146 75.1016C107.776 76.6686 105.751 78.3274 105.658 79.4332C105.564 80.5391 105.934 83.9495 104.828 84.5953C103.723 85.2389 101.051 86.0683 100.774 87.1741C100.498 88.28 100.311 91.2978 98.8392 92.4158C97.364 93.5327 96.2007 95.0079 95.7705 95.5609C95.3348 96.1138 93.8629 96.0209 93.1231 97.1267C92.3877 98.2326 90.8218 101.552 91.2819 102.012C91.7408 102.472 93.2171 102.472 92.2042 103.485C91.1879 104.501 91.5583 106.066 91.7408 107.079C91.9277 108.095 94.7819 107.911 94.1394 108.924C93.4936 109.937 89.0702 112.332 88.0573 105.144C87.041 97.9561 86.9514 96.0209 87.2279 92.7963C87.5043 89.5716 88.1501 82.7508 87.4114 82.1978C86.6749 81.6449 83.3574 82.753 81.1457 75.2863C78.934 67.8219 81.4222 69.4806 81.8822 68.9277C82.3411 68.3748 82.528 66.5313 82.528 66.5313C82.528 66.5313 80.7531 67.3375 79.0944 65.6091C77.4356 63.8806 76.3298 62.4994 74.9475 62.0836C73.5651 61.6678 74.0495 60.4934 72.5975 60.7699C72.0656 60.8727 71.1345 60.8119 70.1348 60.5797C70.5639 59.3013 71.0471 58.0451 71.5868 56.8187ZM120.341 30.9961C120.557 31.1841 120.722 31.3633 120.722 31.3633C120.722 31.3633 120.7 31.9847 120.942 32.6416C121.185 33.2985 121.876 34.2661 122.462 35.4405C123.049 36.6149 121.461 37.2375 120.043 37.3757C118.624 37.514 120.043 35.4748 120.285 35.0601C120.527 34.6454 120.147 33.6778 120.043 33.3328C119.939 32.9877 119.005 32.5034 118.868 31.8819C118.78 31.486 119.071 31.0647 119.292 30.8081C119.643 30.8645 119.992 30.932 120.341 30.9961ZM154.23 60.123C153.964 60.3099 153.688 60.5067 153.392 60.7268C150.167 63.1231 148.83 62.662 148.83 62.662C148.83 59.7591 144.454 54.3681 142.61 53.4005C140.767 52.4329 145.975 60.4038 147.772 62.8002C149.569 65.1966 150.903 64.0896 152.61 63.6749C154.314 63.2602 151.366 67.5454 149.431 69.5271C147.495 71.5087 145.098 71.5076 146.297 76.1157C147.495 80.7248 145.467 81.2324 143.901 82.2C142.335 83.1677 143.072 85.7011 141.828 86.2541C140.584 86.807 142.886 88.9733 138.372 91.2757C133.856 93.5803 132.888 91.9669 132.519 90.1699C132.152 88.3729 130.078 88.0964 130.355 85.7011C130.631 83.3037 128.787 80.9084 129.616 79.8026C130.445 78.6967 129.616 74.5498 128.143 72.891C126.668 71.2323 128.143 69.5735 127.957 68.7441C127.774 67.9147 126.575 68.7441 125.931 67.8418C125.286 66.9394 129.249 65.243 122.704 67.0854C116.162 68.9277 116.162 67.0854 113.858 64.9666C111.555 62.8478 112.475 62.4784 112.292 58.5162C112.108 54.5539 115.426 53.8163 116.808 51.6688C118.19 49.5212 119.663 48.4718 125.009 47.6424C130.355 46.813 128.419 49.0247 128.419 49.8386C128.419 50.6525 133.579 51.9729 133.579 51.6046C133.579 51.2364 132.934 49.6694 134.132 49.8541C134.778 50.0388 141.044 51.0517 141.044 51.0517C143.094 50.752 142.886 48.1953 142.679 47.8027C142.471 47.4102 141.897 47.2963 140.1 47.8027C138.303 48.3092 137.243 46.5587 137.15 45.4064C137.059 44.2541 140.214 43.9323 141.113 43.7476C142.013 43.5629 142.818 44.117 143.556 44.4155C143.937 44.5704 144.267 44.4786 144.61 44.2674C148.848 48.7748 152.156 54.1614 154.23 60.123ZM116.726 35.5113C116.726 35.1663 118.213 33.4721 118.213 33.4721C119.629 33.0917 118.973 35.0623 118.558 35.5113C118.141 35.9603 116.726 35.8563 116.726 35.5113ZM140.974 41.5359C140.444 41.5127 140.076 40.868 139.73 40.3383C139.385 39.8086 138.762 41.0759 138.579 41.4674C138.393 41.8588 138.186 42.7114 138.255 43.4026C138.323 44.0937 137.84 44.3249 137.473 44.5549C137.104 44.7849 137.058 44.4631 136.734 44.2784C136.413 44.0937 135.628 44.3934 135.283 45.1078C134.938 45.8222 135.4 47.4577 135.332 47.4809C135.264 47.5042 134.503 47.2509 133.95 46.5598C133.397 45.8686 132.751 44.1634 132.683 43.6569C132.614 43.1505 131.232 41.8367 130.288 41.5138C129.343 41.1909 130.172 42.5732 130.333 42.8276C130.494 43.0819 131.738 43.9798 131.809 44.6013C131.877 45.2228 130.587 47.4113 130.911 46.6283C131.233 45.8454 130.265 45.4761 129.989 44.8778C129.712 44.2795 128.652 43.6337 127.732 42.6197C126.809 41.6056 126.44 42.5732 125.842 42.2967C125.243 42.0203 124.736 42.6661 124.183 42.5279C123.63 42.3896 123.814 43.1726 123.768 43.9102C123.723 44.6478 123.446 44.2784 122.57 45.1542C121.695 46.0301 121.833 46.6748 121.325 46.9944C120.82 47.314 119.805 47.596 118.284 47.6424C116.764 47.6888 116.857 46.9512 116.902 46.1672C116.95 45.3832 117.179 44.3249 117.641 43.3573C118.101 42.3896 120.544 42.8497 121.049 42.7114C121.557 42.5732 121.235 41.7892 121.235 40.8448C121.235 39.9004 120.081 39.416 119.598 39.0931C119.115 38.7702 120.083 38.7249 121.188 38.4484C122.294 38.1719 122.985 37.619 123.262 37.0429C123.538 36.4667 124.875 35.3155 125.497 34.8765C126.118 34.4375 126.695 34.2783 127.155 33.9554C127.618 33.6325 128.479 34.5083 128.479 34.5083L130.507 34.181C134.544 36.0056 138.257 38.4141 141.544 41.3015C141.346 41.4021 141.232 41.5481 140.974 41.5359ZM97.3906 32.813C97.7533 33.2034 98.0663 33.6037 98.168 33.9742C98.4445 34.9926 97.4768 36.5817 98.3759 37.0661C99.2738 37.5505 100.173 39.1396 99.4817 39.1396C98.7906 39.1396 95.9563 38.7945 96.2328 38.4484C96.5092 38.1023 97.2711 36.9975 97.3165 36.5364C97.3618 36.0753 97.2236 36.2588 96.256 36.49C95.2884 36.7211 92.986 36.1682 92.4784 36.5364C91.9708 36.9046 92.3855 37.1125 92.777 37.619C93.1696 38.1255 92.7084 38.287 92.8931 38.7249C93.0767 39.1628 93.4228 39.531 93.8375 39.6228C94.2522 39.7146 94.4357 39.0688 94.8283 39.3917C95.2198 39.7146 93.1917 40.9001 92.6388 41.3324C92.0858 41.7648 91.377 41.8677 91.6015 41.3324C91.826 40.7972 91.481 40.5373 91.2565 40.711C91.032 40.8846 89.3898 41.2119 89.0448 42.2492C88.6998 43.2865 87.386 43.4236 86.8331 44.3227C86.2802 45.2217 85.589 47.3637 84.4832 48.3313C83.3773 49.299 80.9577 49.5057 81.0971 51.0274C81.2364 52.549 80.752 55.0361 80.6824 54.4832C80.6127 53.9302 80.8903 52.4097 79.4383 51.995C77.9863 51.5803 76.8816 51.5106 76.1893 51.8568C75.8587 52.0215 75.0127 51.8667 74.1136 51.9253C79.3797 43.1306 87.5983 36.302 97.3906 32.813Z" fill="#237CA1"/>
<path d="M5 144.815L65 183.731C65.5175 184.067 65.9375 184.502 66.2268 185.003C66.5161 185.503 66.6667 186.055 66.6667 186.614V201.191H108.333V168.512C108.328 166.851 107.882 165.214 107.032 163.726C106.181 162.237 104.948 160.937 103.427 159.924L50.7292 125.075C48.3193 123.492 45.3286 122.715 42.3084 122.888C39.2883 123.061 36.4424 124.173 34.2953 126.018L31.0938 128.784L61.0756 151.472C61.9073 152.101 62.4158 152.99 62.4894 153.944C62.5629 154.898 62.1954 155.837 61.4678 156.557C60.7401 157.276 59.7118 157.716 58.6091 157.779C57.5065 157.843 56.4198 157.525 55.5881 156.896L22.2547 131.672L22.2615 131.665C21.8366 131.346 21.4912 130.956 21.2461 130.517C21.0009 130.079 20.8612 129.603 20.8354 129.116L18.0802 74.2551L17.1948 60.2245C17.1144 58.3608 16.2014 56.5967 14.6478 55.3033C13.0942 54.0098 11.0211 53.2879 8.86459 53.2893H8.33334C6.124 53.2916 4.00591 54.0516 2.44367 55.4026C0.881434 56.7537 0.00261892 58.5854 0 60.4961V136.167C0.00402252 137.845 0.457603 139.498 1.32513 140.999C2.19266 142.499 3.45053 143.806 5 144.815Z" fill="#237CA1"/>
<path d="M166.667 157.787C165.819 157.787 164.991 157.564 164.294 157.147C163.596 156.729 163.063 156.138 162.765 155.452C162.466 154.765 162.417 154.017 162.624 153.305C162.83 152.594 163.283 151.955 163.921 151.472L193.906 128.785L190.706 126.018C188.559 124.172 185.712 123.061 182.692 122.888C179.671 122.715 176.68 123.492 174.27 125.076L121.572 159.924C120.051 160.937 118.818 162.238 117.968 163.726C117.117 165.214 116.672 166.851 116.667 168.512V200.481H158.333V186.614C158.333 186.055 158.484 185.503 158.773 185.003C159.062 184.502 159.482 184.067 160 183.731L220 144.815C221.549 143.806 222.807 142.499 223.675 140.999C224.542 139.498 224.996 137.845 225 136.167V60.4961C224.997 58.5854 224.118 56.7537 222.556 55.4026C220.994 54.0516 218.876 53.2916 216.667 53.2893H216.135C213.986 53.286 211.919 54.002 210.367 55.2874C208.814 56.5728 207.898 58.3278 207.808 60.1848L206.468 83.2343L204.163 129.116C204.137 129.603 203.997 130.079 203.752 130.517C203.507 130.956 203.162 131.346 202.737 131.665L202.744 131.672L169.41 156.896C168.651 157.471 167.676 157.788 166.667 157.787Z" fill="#237CA1"/>
</svg>
