<svg width="94" height="94" viewBox="0 0 94 94" fill="none" xmlns="http://www.w3.org/2000/svg">
<circle cx="47.0433" cy="46.8932" r="45.5687" fill="#C9E41E"/>
<path d="M47.2598 0.034668C21.54 0.034668 0.615234 20.9584 0.615234 46.6781C0.615234 72.3967 21.54 93.3215 47.2598 93.3215C72.9795 93.3215 93.9021 72.3967 93.9021 46.677C93.901 20.9584 72.9784 0.034668 47.2598 0.034668ZM6.58679 28.8187C6.63876 28.9824 6.67525 29.1516 6.66198 29.3506C6.59342 30.3525 6.97273 30.8369 8.2168 30.9751C9.46088 31.1133 9.87556 29.4203 10.6707 29.3506C11.4658 29.2809 12.398 29.282 11.9844 30.0075C11.5719 30.7329 10.0835 32.6339 10.9836 32.876C11.8816 33.1182 13.4375 32.0809 13.8865 33.325C14.3344 34.5691 13.6432 35.6407 14.1287 35.9514C14.613 36.2621 15.0266 37.2651 15.4247 37.4023C15.8228 37.5394 16.2884 36.7111 16.5648 36.9876C16.8413 37.264 17.3942 37.5582 17.5656 37.5062C17.7381 37.4542 18.3574 36.8726 18.3574 36.8726C18.3574 36.8726 20.2926 35.1209 21.3056 35.4903C22.3174 35.8596 23.1468 36.083 24.9925 36.156C26.8348 36.2279 27.1113 36.689 28.31 37.7948C29.5054 38.9007 28.31 38.8078 30.7053 39.0843C33.0994 39.3607 31.8111 42.4947 34.3922 42.7711C36.9699 43.0476 38.079 43.6005 39.552 44.1534C41.0272 44.7064 43.5154 45.5346 43.146 47.1016C42.7756 48.6686 40.7507 50.3274 40.6579 51.4332C40.5639 52.5391 40.9343 55.9495 39.8285 56.5953C38.7226 57.2389 36.0509 58.0683 35.7745 59.1741C35.498 60.28 35.3111 63.2978 33.8392 64.4158C32.364 65.5327 31.2007 67.0079 30.7705 67.5609C30.3348 68.1138 28.8629 68.0209 28.1231 69.1267C27.3877 70.2326 25.8218 73.5523 26.2819 74.0124C26.7408 74.4724 28.2171 74.4724 27.2042 75.4853C26.1879 76.5005 26.5583 78.0664 26.7408 79.0793C26.9277 80.0945 29.7819 79.9109 29.1394 80.9239C28.4936 81.9368 24.0702 84.3321 23.0573 77.1441C22.041 69.9561 21.9514 68.0209 22.2279 64.7962C22.5043 61.5716 23.1501 54.7508 22.4114 54.1978C21.6749 53.6449 18.3574 54.753 16.1457 47.2863C13.934 39.8218 16.4222 41.4806 16.8822 40.9277C17.3411 40.3748 17.528 38.5313 17.528 38.5313C17.528 38.5313 15.7531 39.3375 14.0944 37.6091C12.4356 35.8806 11.3298 34.4994 9.94745 34.0836C8.56515 33.6678 9.04951 32.4934 7.59753 32.7699C7.06562 32.8727 6.13451 32.8119 5.13483 32.5797C5.5639 31.3013 6.04714 30.0451 6.58679 28.8187ZM55.3413 2.99612C55.5569 3.18411 55.7217 3.36326 55.7217 3.36326C55.7217 3.36326 55.6996 3.98474 55.9418 4.64162C56.185 5.29849 56.8762 6.2661 57.4623 7.44051C58.0495 8.61492 56.4615 9.23751 55.0427 9.37574C53.6239 9.51397 55.0427 7.47479 55.2849 7.0601C55.5271 6.64541 55.1466 5.67779 55.0427 5.33277C54.9387 4.98775 54.0054 4.50339 53.8683 3.8819C53.7798 3.48601 54.0707 3.06468 54.2918 2.80813C54.6435 2.86452 54.9918 2.93198 55.3413 2.99612ZM89.2299 32.123C88.9645 32.3099 88.688 32.5067 88.3916 32.7268C85.167 35.1231 83.83 34.662 83.83 34.662C83.83 31.7591 79.4542 26.3681 77.6097 25.4005C75.7673 24.4329 80.9747 32.4038 82.7718 34.8002C84.5687 37.1966 85.9035 36.0896 87.6098 35.6749C89.3139 35.2602 86.3657 39.5454 84.4305 41.5271C82.4953 43.5087 80.0978 43.5076 81.2966 48.1157C82.4953 52.7248 80.4672 53.2324 78.9013 54.2C77.3354 55.1677 78.0719 57.7011 76.8278 58.2541C75.5838 58.807 77.8861 60.9733 73.3721 63.2757C68.8558 65.5803 67.8882 63.9669 67.5188 62.1699C67.1517 60.3729 65.0782 60.0964 65.3547 57.7011C65.6312 55.3037 63.7866 52.9084 64.616 51.8026C65.4454 50.6967 64.616 46.5498 63.143 44.891C61.6678 43.2323 63.143 41.5735 62.9572 40.7441C62.7737 39.9147 61.5749 40.7441 60.9313 39.8418C60.2855 38.9394 64.2489 37.243 57.7045 39.0854C51.1623 40.9277 51.1623 39.0854 48.8577 36.9666C46.5553 34.8478 47.4754 34.4784 47.2918 30.5162C47.1083 26.5539 50.4258 25.8163 51.8081 23.6688C53.1904 21.5212 54.6634 20.4718 60.0091 19.6424C65.3547 18.813 63.4195 21.0247 63.4195 21.8386C63.4195 22.6525 68.5794 23.9729 68.5794 23.6046C68.5794 23.2364 67.9335 21.6694 69.1323 21.8541C69.7781 22.0388 76.0438 23.0517 76.0438 23.0517C78.094 22.752 77.8861 20.1953 77.6793 19.8027C77.4714 19.4102 76.8975 19.2963 75.1005 19.8027C73.3035 20.3092 72.243 18.5587 72.1501 17.4064C72.0594 16.2541 75.2144 15.9323 76.1135 15.7476C77.0125 15.5629 77.8176 16.117 78.5563 16.4155C78.9367 16.5704 79.2673 16.4786 79.6101 16.2674C83.8477 20.7748 87.1564 26.1614 89.2299 32.123ZM51.7263 7.51128C51.7263 7.16626 53.2125 5.47211 53.2125 5.47211C54.6291 5.09169 53.9733 7.06231 53.5575 7.51128C53.1406 7.96026 51.7263 7.85631 51.7263 7.51128ZM75.9741 13.5359C75.4444 13.5127 75.0762 12.868 74.73 12.3383C74.385 11.8086 73.7624 13.0759 73.5789 13.4674C73.3931 13.8588 73.1863 14.7114 73.2549 15.4026C73.3234 16.0937 72.8402 16.3249 72.473 16.5549C72.1037 16.7849 72.0583 16.4631 71.7343 16.2784C71.4125 16.0937 70.6285 16.3934 70.2834 17.1078C69.9384 17.8222 70.3996 19.4577 70.3321 19.4809C70.2635 19.5042 69.5027 19.2509 68.9498 18.5598C68.3969 17.8686 67.7511 16.1634 67.6825 15.6569C67.6139 15.1505 66.2316 13.8367 65.2883 13.5138C64.3428 13.1909 65.1722 14.5732 65.3326 14.8276C65.494 15.0819 66.7381 15.9798 66.8089 16.6013C66.8774 17.2228 65.5869 19.4113 65.9109 18.6283C66.2327 17.8454 65.2651 17.476 64.9887 16.8778C64.7122 16.2795 63.6517 15.6337 62.7316 14.6197C61.8093 13.6056 61.44 14.5732 60.8418 14.2967C60.2435 14.0203 59.7359 14.6661 59.183 14.5279C58.6301 14.3896 58.8136 15.1726 58.7683 15.9102C58.7229 16.6478 58.4465 16.2784 57.5695 17.1542C56.6948 18.0301 56.833 18.6748 56.3255 18.9944C55.8201 19.314 54.8049 19.596 53.2844 19.6424C51.7639 19.6888 51.8567 18.9512 51.9021 18.1672C51.9496 17.3832 52.1785 16.3249 52.6408 15.3573C53.1008 14.3896 55.5436 14.8497 56.049 14.7114C56.5566 14.5732 56.2348 13.7892 56.2348 12.8448C56.2348 11.9004 55.0814 11.416 54.5982 11.0931C54.1149 10.7702 55.0825 10.7249 56.1883 10.4484C57.2942 10.1719 57.9853 9.61902 58.2618 9.04288C58.5383 8.46673 59.8752 7.31555 60.4967 6.87653C61.1182 6.43751 61.6954 6.27827 62.1555 5.95536C62.6177 5.63245 63.4792 6.50828 63.4792 6.50828L65.5073 6.18095C69.5436 8.0056 73.2571 10.4141 76.5436 13.3015C76.3457 13.4021 76.2318 13.5481 75.9741 13.5359ZM32.3906 4.81302C32.7533 5.20339 33.0663 5.6037 33.168 5.97416C33.4445 6.99264 32.4768 8.58174 33.3759 9.0661C34.2738 9.55046 35.1729 11.1396 34.4817 11.1396C33.7906 11.1396 30.9563 10.7945 31.2328 10.4484C31.5092 10.1023 32.2711 8.99754 32.3165 8.5364C32.3618 8.07526 32.2236 8.25883 31.256 8.48995C30.2884 8.72108 27.986 8.16816 27.4784 8.5364C26.9708 8.90465 27.3855 9.11255 27.777 9.61902C28.1696 10.1255 27.7084 10.287 27.8931 10.7249C28.0767 11.1628 28.4228 11.531 28.8375 11.6228C29.2522 11.7146 29.4357 11.0688 29.8283 11.3917C30.2198 11.7146 28.1917 12.9001 27.6388 13.3324C27.0858 13.7648 26.377 13.8677 26.6015 13.3324C26.826 12.7972 26.481 12.5373 26.2565 12.711C26.032 12.8846 24.3898 13.2119 24.0448 14.2492C23.6998 15.2865 22.386 15.4236 21.8331 16.3227C21.2802 17.2217 20.589 19.3637 19.4832 20.3313C18.3773 21.299 15.9577 21.5057 16.0971 23.0274C16.2364 24.549 15.752 27.0361 15.6824 26.4832C15.6127 25.9302 15.8903 24.4097 14.4383 23.995C12.9863 23.5803 11.8816 23.5106 11.1893 23.8568C10.8587 24.0215 10.0127 23.8667 9.11365 23.9253C14.3797 15.1306 22.5983 8.30196 32.3906 4.81302Z" fill="#237CA1"/>
</svg>
