<svg width="68" height="57" viewBox="0 0 68 57" fill="none" xmlns="http://www.w3.org/2000/svg">
<path d="M39.8066 49.8976L36.435 49.5038C28.6586 48.7163 21.5891 47.7599 20.1752 43.9909C19.3051 41.572 20.6103 39.7156 21.6435 38.1968C22.6767 36.6779 23.1661 35.8903 22.568 34.8778C21.9698 33.8652 21.0453 33.6964 19.9033 33.1902C17.7825 32.2338 14.8459 30.8837 14.6828 27.396H11.9637L0 56.3105H48.5075C47.8006 54.4542 45.7885 50.9664 39.8066 49.8976Z" fill="#CCE6F4"/>
<path d="M57.0454 30.4337L50.846 40.7282C50.731 40.9018 50.5768 41.0438 50.3968 41.1418C50.2167 41.2398 50.0163 41.291 49.8128 41.2907V41.2907C49.6093 41.291 49.4089 41.2398 49.2289 41.1418C49.0488 41.0438 48.8946 40.9018 48.7796 40.7282L41.1119 27.3397H17.0757C17.2388 29.1398 18.5983 29.9274 20.8823 30.8837C23.1663 31.84 23.8733 32.2901 24.6346 33.5839C26.0485 36.1153 24.6346 38.1405 23.6014 39.6593C22.5681 41.1782 22.0243 41.9658 22.4594 43.0908C23.3838 45.7348 32.3566 46.6348 36.6527 47.0286C38.121 47.1974 39.3717 47.3099 40.1874 47.4786C48.2902 48.885 50.4654 54.1729 50.9548 56.3105H67.7584L57.0454 30.4337Z" fill="#CCE6F4"/>
<path d="M50.0846 16.2015C50.6011 16.2159 51.1146 16.1182 51.5923 15.9147C52.07 15.7113 52.5012 15.4065 52.8581 15.0201C53.4076 14.4537 53.782 13.7311 53.9339 12.9441C54.0858 12.1571 54.0082 11.3412 53.7111 10.5999C53.414 9.85854 52.9106 9.22524 52.265 8.78033C51.6193 8.33541 50.8604 8.09894 50.0846 8.10091C49.3013 8.08174 48.5309 8.30957 47.8757 8.75411C47.2205 9.19866 46.7116 9.83889 46.4166 10.5898C46.1215 11.3406 46.0543 12.1666 46.2238 12.9579C46.3933 13.7493 46.7915 14.4685 47.3656 15.0201C48.0851 15.7706 49.0629 16.1954 50.0846 16.2015Z" fill="#CCE6F4"/>
<path d="M39.6439 19.9705L42.798 25.4271L49.5955 37.1842C49.6253 37.2306 49.6657 37.2687 49.7131 37.295C49.7606 37.3214 49.8136 37.3352 49.8674 37.3352C49.9213 37.3352 49.9743 37.3214 50.0217 37.295C50.0692 37.2687 50.1096 37.2306 50.1393 37.1842L60.5804 19.9705C60.5804 19.9142 60.6348 19.858 60.6892 19.7455C61.5653 18.3038 62.1565 16.6967 62.4284 15.0172C62.7003 13.3377 62.6477 11.6191 62.2734 9.96078C61.8992 8.30246 61.2109 6.73735 60.2482 5.35598C59.2855 3.9746 58.0676 2.80437 56.665 1.91297C54.7099 0.64634 52.4461 -0.0171593 50.1393 0.000337316V0.000337316C47.9074 -0.0118191 45.7133 0.596761 43.7867 1.7624C41.8601 2.92804 40.2717 4.60789 39.1877 6.62619C38.1038 8.64448 37.5642 10.927 37.6253 13.235C37.6864 15.543 38.346 17.7916 39.5351 19.7455L39.6439 19.9705ZM50.1393 5.62573C51.382 5.6373 52.5936 6.02828 53.6222 6.74958C54.6508 7.47089 55.4505 8.4904 55.921 9.68017C56.3916 10.8699 56.5119 12.177 56.2669 13.4372C56.022 14.6975 55.4227 15.8548 54.5442 16.764C53.9687 17.3683 53.2831 17.8485 52.527 18.1769C51.7709 18.5052 50.9593 18.675 50.1393 18.6767C48.4663 18.6767 46.8618 17.9891 45.6788 16.7654C44.4958 15.5416 43.8312 13.8819 43.8312 12.1512C43.8312 10.4205 44.4958 8.76076 45.6788 7.537C46.8618 6.31323 48.4663 5.62573 50.1393 5.62573V5.62573Z" fill="#CCE6F4"/>
</svg>
