<svg width="225" height="202" viewBox="0 0 225 202" fill="none" xmlns="http://www.w3.org/2000/svg">
<path d="M148.008 16.9917C141.514 5.74859 137.241 0 125.37 0H94.5908C106.021 0.203455 110.277 5.93521 116.67 16.9917L130.603 41.1337L114.363 50.5097L152.909 52.6281L170.347 18.1873L154.107 27.5639L148.008 16.9917Z" fill="#77BD43"/>
<path d="M63.8674 98.8737L77.8084 74.7363L94.0484 84.1126L76.6098 49.6716L38.064 51.7899L54.3045 61.1665L48.1982 71.7341C41.7086 82.9802 38.8669 89.5553 44.802 99.8355L60.1913 126.491C54.6527 116.491 57.4886 109.939 63.8674 98.8737Z" fill="#77BD43"/>
<path d="M161.181 103.663L133.307 103.658V84.9058L112.199 117.228L133.307 149.551V130.798L145.512 130.802C158.496 130.799 165.611 129.973 171.546 119.693L186.936 93.0372C181.044 102.834 173.952 103.654 161.181 103.663Z" fill="#77BD43"/>
<path d="M162.774 96.8665C181.473 97.2064 189.495 88.8749 183.021 77.637L170.697 56.2986L147.186 69.8724L162.774 96.8665Z" fill="#77BD43"/>
<path d="M83.2118 11.0902L70.9209 32.3867L94.4317 45.9609L109.988 19.0094C100.933 2.64515 89.7068 -0.136036 83.2118 11.0902Z" fill="#77BD43"/>
<path d="M75.4859 130.799L100.073 130.796V103.648L68.9553 103.65C59.311 119.675 62.5159 130.788 75.4859 130.799Z" fill="#77BD43"/>
<path d="M5 144.815L65 183.731C65.5175 184.067 65.9375 184.502 66.2268 185.003C66.5161 185.503 66.6667 186.055 66.6667 186.614V201.191H108.333V168.512C108.328 166.851 107.882 165.214 107.032 163.726C106.181 162.237 104.948 160.937 103.427 159.924L50.7292 125.075C48.3193 123.492 45.3286 122.715 42.3084 122.888C39.2883 123.061 36.4424 124.173 34.2953 126.018L31.0938 128.784L61.0756 151.472C61.9073 152.101 62.4158 152.99 62.4894 153.944C62.5629 154.898 62.1954 155.837 61.4678 156.557C60.7401 157.276 59.7118 157.716 58.6091 157.779C57.5065 157.843 56.4198 157.525 55.5881 156.896L22.2547 131.672L22.2615 131.665C21.8366 131.346 21.4912 130.956 21.2461 130.517C21.0009 130.079 20.8612 129.603 20.8354 129.116L18.0802 74.2551L17.1948 60.2245C17.1144 58.3608 16.2014 56.5967 14.6478 55.3033C13.0942 54.0098 11.0211 53.2879 8.86459 53.2893H8.33334C6.124 53.2916 4.00591 54.0516 2.44367 55.4026C0.881434 56.7537 0.00261892 58.5854 0 60.4961V136.167C0.00402252 137.845 0.457603 139.498 1.32513 140.999C2.19266 142.499 3.45053 143.806 5 144.815Z" fill="#237CA1"/>
<path d="M166.667 157.787C165.819 157.787 164.991 157.564 164.294 157.147C163.596 156.729 163.063 156.138 162.765 155.452C162.466 154.765 162.417 154.017 162.624 153.305C162.83 152.594 163.283 151.955 163.921 151.472L193.906 128.785L190.706 126.018C188.559 124.172 185.712 123.061 182.692 122.888C179.671 122.715 176.68 123.492 174.27 125.076L121.572 159.924C120.051 160.937 118.818 162.238 117.968 163.726C117.117 165.214 116.672 166.852 116.667 168.512V200.481H158.333V186.614C158.333 186.055 158.484 185.503 158.773 185.003C159.062 184.502 159.482 184.067 160 183.731L220 144.815C221.549 143.806 222.807 142.499 223.675 140.999C224.542 139.498 224.996 137.845 225 136.167V60.4961C224.997 58.5854 224.118 56.7537 222.556 55.4026C220.994 54.0516 218.876 53.2916 216.667 53.2893H216.135C213.986 53.286 211.919 54.002 210.367 55.2874C208.814 56.5728 207.898 58.3278 207.808 60.1848L206.468 83.2343L204.163 129.116C204.137 129.603 203.997 130.079 203.752 130.517C203.507 130.956 203.162 131.346 202.737 131.665L202.744 131.672L169.41 156.896C168.651 157.471 167.676 157.788 166.667 157.787Z" fill="#237CA1"/>
</svg>
