<svg width="68" height="112" viewBox="0 0 68 112" fill="none" xmlns="http://www.w3.org/2000/svg">
<path d="M39.9485 105.622L36.5649 105.231C28.7608 104.448 21.6661 103.497 20.2471 99.7483C19.3739 97.3427 20.6837 95.4966 21.7207 93.9861C22.7576 92.4756 23.2487 91.6924 22.6484 90.6854C22.0481 89.6784 21.1203 89.5106 19.9743 89.0071C17.8459 88.056 14.8988 86.7134 14.7351 83.2449H12.0064L0 112H48.6805C47.971 110.154 45.9517 106.685 39.9485 105.622Z" fill="#FFE066"/>
<path d="M57.249 86.2659L51.0275 96.5036C50.9121 96.6762 50.7573 96.8175 50.5766 96.9149C50.3959 97.0124 50.1948 97.0633 49.9906 97.063V97.063C49.7864 97.0633 49.5852 97.0124 49.4045 96.9149C49.2238 96.8175 49.0691 96.6762 48.9537 96.5036L41.2586 83.189H17.1367C17.3004 84.9792 18.6648 85.7624 20.9569 86.7134C23.2491 87.6645 23.9585 88.112 24.7226 89.3987C26.1415 91.9162 24.7226 93.9302 23.6857 95.4406C22.6487 96.9511 22.103 97.7343 22.5396 98.8532C23.4674 101.483 32.4722 102.378 36.7835 102.769C38.2571 102.937 39.5123 103.049 40.3309 103.217C48.4625 104.615 50.6455 109.874 51.1366 112H68.0002L57.249 86.2659Z" fill="#FFE066"/>
<path d="M50.2633 72.1122C50.7815 72.1265 51.297 72.0294 51.7763 71.827C52.2557 71.6247 52.6884 71.3216 53.0466 70.9374C53.5981 70.374 53.9739 69.6554 54.1263 68.8728C54.2787 68.0901 54.2009 67.2787 53.9027 66.5415C53.6045 65.8042 53.0993 65.1744 52.4514 64.732C51.8034 64.2895 51.0418 64.0543 50.2633 64.0563C49.4772 64.0372 48.704 64.2638 48.0465 64.7059C47.389 65.148 46.8782 65.7847 46.5821 66.5314C46.286 67.2781 46.2185 68.0995 46.3886 68.8865C46.5588 69.6735 46.9584 70.3888 47.5346 70.9374C48.2567 71.6837 49.2379 72.1061 50.2633 72.1122Z" fill="#FFE066"/>
<path d="M39.7854 75.8604L42.9507 81.2869L49.7725 92.9791C49.8024 93.0253 49.8429 93.0632 49.8905 93.0894C49.9381 93.1155 49.9913 93.1293 50.0454 93.1293C50.0994 93.1293 50.1526 93.1155 50.2002 93.0894C50.2478 93.0632 50.2884 93.0253 50.3182 92.9791L60.7965 75.8604C60.7965 75.8044 60.8511 75.7485 60.9057 75.6366C61.785 74.2029 62.3782 72.6046 62.6511 70.9344C62.924 69.2642 62.8712 67.555 62.4956 65.9058C62.12 64.2567 61.4292 62.7002 60.4631 61.3264C59.497 59.9527 58.2748 58.7889 56.8672 57.9024C54.9051 56.6428 52.6333 55.9829 50.3182 56.0003V56.0003C48.0784 55.9882 45.8765 56.5935 43.943 57.7527C42.0095 58.9119 40.4154 60.5825 39.3276 62.5896C38.2398 64.5968 37.6982 66.8668 37.7596 69.162C37.8209 71.4573 38.4829 73.6935 39.6762 75.6366L39.7854 75.8604ZM50.3182 61.5947C51.5653 61.6062 52.7813 61.995 53.8135 62.7124C54.8458 63.4297 55.6484 64.4436 56.1206 65.6268C56.5928 66.81 56.7135 68.1098 56.4677 69.3631C56.2219 70.6164 55.6204 71.7674 54.7388 72.6716C54.1613 73.2725 53.4732 73.7501 52.7144 74.0766C51.9556 74.4031 51.1412 74.5721 50.3182 74.5737C48.6393 74.5737 47.029 73.8899 45.8418 72.6729C44.6546 71.4559 43.9876 69.8053 43.9876 68.0842C43.9876 66.3631 44.6546 64.7124 45.8418 63.4954C47.029 62.2784 48.6393 61.5947 50.3182 61.5947V61.5947Z" fill="#FFE066"/>
<path d="M39.9485 49.6224L36.5649 49.2308C28.7608 48.4476 21.6661 47.4965 20.2471 43.7483C19.3739 41.3427 20.6837 39.4966 21.7207 37.9861C22.7576 36.4756 23.2487 35.6924 22.6484 34.6854C22.0481 33.6784 21.1203 33.5106 19.9743 33.0071C17.8459 32.056 14.8988 30.7134 14.7351 27.2449H12.0064L0 56H48.6805C47.971 54.1538 45.9517 50.6853 39.9485 49.6224Z" fill="#CCE6F4"/>
<path d="M57.249 30.2659L51.0275 40.5036C50.9121 40.6762 50.7573 40.8175 50.5766 40.9149C50.3959 41.0124 50.1948 41.0633 49.9906 41.063V41.063C49.7864 41.0633 49.5852 41.0124 49.4045 40.9149C49.2238 40.8175 49.0691 40.6762 48.9537 40.5036L41.2586 27.189H17.1367C17.3004 28.9792 18.6648 29.7624 20.9569 30.7134C23.2491 31.6645 23.9585 32.112 24.7226 33.3987C26.1415 35.9162 24.7226 37.9302 23.6857 39.4406C22.6487 40.9511 22.103 41.7343 22.5396 42.8532C23.4674 45.4826 32.4722 46.3777 36.7835 46.7693C38.2571 46.9371 39.5123 47.049 40.3309 47.2168C48.4625 48.6154 50.6455 53.8741 51.1366 56H68.0002L57.249 30.2659Z" fill="#CCE6F4"/>
<path d="M50.2633 16.1122C50.7815 16.1265 51.297 16.0294 51.7763 15.827C52.2557 15.6247 52.6884 15.3216 53.0466 14.9374C53.5981 14.374 53.9739 13.6554 54.1263 12.8728C54.2787 12.0901 54.2009 11.2787 53.9027 10.5415C53.6045 9.80422 53.0993 9.17442 52.4514 8.73196C51.8034 8.2895 51.0418 8.05432 50.2633 8.05629C49.4772 8.03723 48.704 8.26379 48.0465 8.70589C47.389 9.14798 46.8782 9.78468 46.5821 10.5314C46.286 11.2781 46.2185 12.0995 46.3886 12.8865C46.5588 13.6735 46.9584 14.3888 47.5346 14.9374C48.2567 15.6837 49.2379 16.1061 50.2633 16.1122Z" fill="#CCE6F4"/>
<path d="M39.7854 19.8604L42.9507 25.2869L49.7725 36.9791C49.8024 37.0253 49.8429 37.0632 49.8905 37.0894C49.9381 37.1155 49.9913 37.1293 50.0454 37.1293C50.0994 37.1293 50.1526 37.1155 50.2002 37.0894C50.2478 37.0632 50.2884 37.0253 50.3182 36.9791L60.7965 19.8604C60.7965 19.8044 60.8511 19.7485 60.9057 19.6366C61.785 18.2029 62.3782 16.6046 62.6511 14.9344C62.924 13.2642 62.8712 11.555 62.4956 9.90585C62.12 8.25667 61.4292 6.7002 60.4631 5.32644C59.497 3.95268 58.2748 2.7889 56.8672 1.90242C54.9051 0.642776 52.6333 -0.0170646 50.3182 0.000335455V0.000335455C48.0784 -0.0117539 45.8765 0.59347 43.943 1.75268C42.0095 2.91189 40.4154 4.58248 39.3276 6.58964C38.2398 8.59681 37.6982 10.8668 37.7596 13.162C37.8209 15.4573 38.4829 17.6935 39.6762 19.6366L39.7854 19.8604ZM50.3182 5.59471C51.5653 5.60621 52.7813 5.99503 53.8135 6.71236C54.8458 7.42969 55.6484 8.44358 56.1206 9.62679C56.5928 10.81 56.7135 12.1098 56.4677 13.3631C56.2219 14.6164 55.6204 15.7674 54.7388 16.6716C54.1613 17.2725 53.4732 17.7501 52.7144 18.0766C51.9556 18.4031 51.1412 18.5721 50.3182 18.5737C48.6393 18.5737 47.029 17.8899 45.8418 16.6729C44.6546 15.4559 43.9876 13.8053 43.9876 12.0842C43.9876 10.3631 44.6546 8.71244 45.8418 7.49543C47.029 6.27842 48.6393 5.59471 50.3182 5.59471V5.59471Z" fill="#CCE6F4"/>
</svg>
