<svg width="165" height="161" viewBox="0 0 165 161" fill="none" xmlns="http://www.w3.org/2000/svg">
<path d="M60.5299 114.224C60.5299 109.83 60.8219 105.597 61.3226 101.531H43.7848C42.6511 105.577 42 109.822 42 114.224C42 118.625 42.6511 122.869 43.7841 126.913H61.3226C60.8219 122.848 60.5299 118.617 60.5299 114.224Z" fill="#14455A"/>
<path d="M67.439 114.224C67.439 118.711 67.7505 122.934 68.2706 126.913H85.6883V101.531H68.2706C67.7505 105.512 67.439 109.735 67.439 114.224Z" fill="#14455A"/>
<path d="M92.5986 67.7852V94.621H108.849C105.706 80.1028 99.2709 70.3483 92.5986 67.7852Z" fill="#14455A"/>
<path d="M69.4397 94.621H85.6898V67.7852C79.0176 70.3483 72.582 80.1028 69.4397 94.621Z" fill="#14455A"/>
<path d="M85.6883 160.659V133.823H69.4368C72.5798 148.341 79.0161 158.096 85.6883 160.659Z" fill="#14455A"/>
<path d="M92.5986 133.823V160.659C99.2716 158.096 105.707 148.341 108.85 133.823H92.5986Z" fill="#14455A"/>
<path d="M110.848 114.224C110.848 109.735 110.537 105.512 110.016 101.531H92.5986V126.913H110.016C110.537 122.934 110.848 118.711 110.848 114.224Z" fill="#14455A"/>
<path d="M116.965 101.531C117.465 105.597 117.758 109.83 117.758 114.224C117.758 118.617 117.465 122.848 116.965 126.913H134.506C135.64 122.869 136.291 118.625 136.291 114.224C136.291 109.822 135.64 105.577 134.506 101.531H116.965Z" fill="#14455A"/>
<path d="M131.968 94.6213C126.83 83.4457 117.466 74.6337 105.916 70.2156C110.394 76.2548 113.861 84.686 115.853 94.6213H131.968Z" fill="#14455A"/>
<path d="M72.3718 70.2156C60.8229 74.6337 51.4594 83.4465 46.323 94.6213H62.435C64.427 84.686 67.8944 76.2555 72.3718 70.2156Z" fill="#14455A"/>
<path d="M46.3199 133.823C51.4556 144.999 60.8198 153.811 72.3688 158.229C67.8921 152.189 64.4232 143.758 62.4319 133.823H46.3199Z" fill="#14455A"/>
<path d="M105.916 158.23C117.466 153.812 126.831 144.999 131.968 133.823H115.853C113.861 143.758 110.393 152.19 105.916 158.23Z" fill="#14455A"/>
<path d="M164.205 19.0112C160.463 14.9744 156.367 13 151.711 13C146.26 13 141.133 15.77 136.183 18.422C131.704 20.8675 127.431 23.166 123.483 23.166C120.799 23.166 118.429 22.021 116.087 19.7349V17.5673C116.087 15.9466 114.791 14.6207 113.14 14.6207C111.52 14.6207 110.194 15.9466 110.194 17.5673V21.015V56.1975V65.5969C112.227 66.4811 114.201 67.4824 116.087 68.632V62.3007C118.4 63.5859 120.849 64.2416 123.483 64.2416C128.934 64.2121 134.061 61.4716 138.982 58.7901C143.49 56.3741 147.763 54.0756 151.711 54.0756C154.658 54.0756 157.28 55.3723 159.874 58.2009C160.698 59.085 161.995 59.3793 163.114 58.9376C164.234 58.4955 165 57.4053 165 56.1974V21.015C165 20.2784 164.706 19.5712 164.205 19.0112Z" fill="#14455A"/>
<g filter="url(#filter0_d)">
<path d="M40.0377 24.1324L57.4426 37.0837C56.4019 38.2544 56.2825 40.0321 57.1898 41.6037C58.2627 43.4619 60.738 44.1141 62.7427 42.9567C64.7501 41.7977 65.4237 39.3293 64.3501 37.4697C63.6922 36.3302 62.5423 35.6596 61.4974 35.5019L65.1765 16.0773C64.0517 15.7781 63.1232 15.1736 62.4653 14.0341C61.3123 12.0371 61.9863 9.55702 63.9883 8.40111C65.855 7.32337 68.3339 7.98321 69.4868 9.98018C70.6386 11.9752 69.971 14.4525 68.1043 15.5302C67.8177 15.6957 67.6803 15.775 67.3896 15.9429L78.7935 45.2809L35.8254 70.0886L15.9696 45.6311C15.8309 45.7112 15.6829 45.7966 15.3969 45.9618C13.3938 47.1174 10.9139 46.4573 9.76247 44.4629C8.60951 42.466 9.27815 39.9889 11.2816 38.8323C13.2896 37.6729 15.7691 38.3324 16.9221 40.3293C17.58 41.4689 17.6452 42.5718 17.1972 43.7791L36.0016 50.2228C35.4723 51.2876 35.6222 52.5372 36.2801 53.6768C37.353 55.535 39.8276 56.1876 41.831 55.0309C43.8398 53.8712 44.5113 51.4022 43.4384 49.5439C42.5303 47.9711 40.7902 47.2696 39.3989 47.5004L36.7412 26.0348C34.8978 26.146 33.0735 25.3003 32.0853 23.5887C30.7679 21.3071 31.6416 18.5232 33.9357 17.1987C36.2251 15.8769 39.0729 16.5122 40.3902 18.7939C41.3774 20.5052 41.0564 22.5913 40.0377 24.1324ZM37.3123 72.6625L80.2792 47.8556L83.4039 53.2678L40.4371 78.0748L37.3123 72.6625Z" fill="#FFDF66"/>
</g>
<defs>
<filter id="filter0_d" x="0" y="0" width="95.7102" height="90.9543" filterUnits="userSpaceOnUse" color-interpolation-filters="sRGB">
<feFlood flood-opacity="0" result="BackgroundImageFix"/>
<feColorMatrix in="SourceAlpha" type="matrix" values="0 0 0 0 0 0 0 0 0 0 0 0 0 0 0 0 0 0 127 0"/>
<feOffset dy="4"/>
<feGaussianBlur stdDeviation="2"/>
<feColorMatrix type="matrix" values="0 0 0 0 0 0 0 0 0 0 0 0 0 0 0 0 0 0 0.25 0"/>
<feBlend mode="normal" in2="BackgroundImageFix" result="effect1_dropShadow"/>
<feBlend mode="normal" in="SourceGraphic" in2="effect1_dropShadow" result="shape"/>
</filter>
</defs>
</svg>
