<svg width="65" height="78" viewBox="0 0 65 78" fill="none" xmlns="http://www.w3.org/2000/svg">
<path fill-rule="evenodd" clip-rule="evenodd" d="M65 19.2297V71.32C65 74.7204 62.2014 77.519 58.8009 77.519H6.19907C2.79861 77.519 0 74.7204 0 71.32V19.2297H65ZM31.8079 25.0375C43.9653 25.0375 53.8056 34.8778 53.8056 47.0352C53.8056 59.1926 43.9653 69.0329 31.8079 69.0329C19.6505 69.0329 9.81019 59.1926 9.81019 47.0352C9.78009 34.8778 19.6505 25.0375 31.8079 25.0375Z" fill="#237CA1"/>
<path fill-rule="evenodd" clip-rule="evenodd" d="M6.19907 0H58.8009C62.2014 0 65 2.79861 65 6.19907V16.4907H0V6.19907C0 2.79861 2.79861 0 6.19907 0ZM8.45602 5.65741H18.5972C20.3125 5.65741 21.6968 7.04167 21.6968 8.75694V9.20833C21.6968 10.9236 20.3125 12.3079 18.5972 12.3079H8.45602C6.74074 12.3079 5.35648 10.9236 5.35648 9.20833V8.75694C5.35648 7.04167 6.74074 5.65741 8.45602 5.65741ZM49.7731 6.40972H58.2894V11.9468H49.7731V6.40972ZM26.6319 6.40972H32.1991V11.9468H26.6319V6.40972ZM33.6134 6.40972H39.1505V11.9468H33.6134V6.40972Z" fill="#237CA1"/>
<path fill-rule="evenodd" clip-rule="evenodd" d="M31.8078 28.7089C36.8634 28.7089 41.4676 30.7552 44.7777 34.0653C48.0879 37.3755 50.1342 41.9797 50.1342 47.0353C50.1342 52.0908 48.0879 56.695 44.7777 60.0052C41.4676 63.3153 36.8634 65.3616 31.8078 65.3616C26.7523 65.3616 22.1481 63.3153 18.8379 60.0052C15.5277 56.695 13.4814 52.0908 13.4814 47.0353C13.4814 41.9797 15.5277 37.3755 18.8379 34.0653C22.1481 30.7552 26.7222 28.7089 31.8078 28.7089ZM15.0764 48.6302C19.9213 50.3454 25.6389 51.3385 31.7777 51.3385C37.9166 51.3385 43.6643 50.3454 48.4791 48.6302C48.5393 48.0885 48.5694 47.5769 48.5694 47.0353C48.5694 42.401 46.7037 38.188 43.6643 35.1788C40.625 32.1394 36.4421 30.2737 31.8078 30.2737C27.1736 30.2737 22.9606 32.1394 19.9514 35.1788C16.912 38.2181 15.0463 42.401 15.0463 47.0353C15.0162 47.5769 15.0463 48.1186 15.0764 48.6302Z" fill="#237CA1"/>
</svg>
