<svg width="93" height="94" viewBox="0 0 93 94" fill="none" xmlns="http://www.w3.org/2000/svg">
<path d="M34.3706 67.7714V81.6143C34.3706 88.077 39.8044 93.333 46.505 93.333C53.1951 93.333 58.6295 88.076 58.6295 81.6143V67.8535C67.916 63.3834 73.7249 54.271 73.7249 44.373C73.7249 37.2659 70.8216 30.6116 65.5455 25.6365C60.0541 20.4582 52.4914 17.7482 44.7943 18.2002C37.9688 18.5937 31.5355 21.5187 26.7518 26.4033C21.9505 31.3022 19.2985 37.651 19.2746 44.2803C19.2394 54.303 25.0841 63.4175 34.3706 67.7714ZM55.5971 73.389V78.5061H37.403V73.389H55.5971ZM46.4949 90.2186C41.4783 90.2186 37.3965 86.466 37.3933 81.5385H55.6064C55.603 86.466 51.5224 90.2186 46.4949 90.2186ZM28.9187 28.5255C33.1756 24.1793 38.9005 21.5769 44.9742 21.227C45.4704 21.1979 45.9657 21.1833 46.4601 21.1833C52.8049 21.1833 58.9342 23.5676 63.4674 27.8423C68.1296 32.2392 70.6973 38.1091 70.6973 44.3726C70.6973 53.3912 65.1232 61.6839 56.5043 65.499C56.2352 65.6176 56.0062 65.8118 55.8452 66.0579C55.6842 66.3041 55.598 66.5916 55.5971 66.8858V70.3567H48.0162V62.222L53.2622 52.0841C54.5168 52.4395 55.8383 52.4885 57.1157 52.2269C58.3932 51.9653 59.5891 51.4008 60.603 50.5809C61.6169 49.761 62.4191 48.7096 62.9422 47.5152C63.4652 46.3208 63.6938 45.0182 63.6088 43.7171L62.9163 32.9687C62.9163 32.9602 62.9134 32.952 62.9128 32.9437C62.9088 32.8967 62.9025 32.85 62.8939 32.8036C62.8914 32.7905 62.8899 32.7771 62.8873 32.764C62.8757 32.7074 62.861 32.6516 62.8431 32.5967C62.8391 32.5842 62.8338 32.5722 62.8295 32.5599C62.8143 32.5171 62.7974 32.475 62.7785 32.4337C62.7711 32.4176 62.7633 32.4016 62.7552 32.3857C62.7353 32.3455 62.7133 32.3067 62.6896 32.2684C62.6826 32.257 62.6761 32.2455 62.6689 32.2343C62.6364 32.1844 62.601 32.1364 62.5628 32.0906L62.5592 32.0869C62.5225 32.0438 62.4834 32.0028 62.4421 31.9642C62.4309 31.9536 62.4191 31.9438 62.4078 31.9335C62.3748 31.9042 62.3404 31.8763 62.3045 31.8498C62.2903 31.8393 62.2762 31.8287 62.2617 31.8185C62.2222 31.7916 62.1813 31.7663 62.1388 31.7427C62.1301 31.7378 62.1222 31.7317 62.1134 31.7269C62.1114 31.7258 62.1091 31.7252 62.1072 31.7241C62.1053 31.723 62.1023 31.7211 62.0996 31.7197C62.049 31.6937 61.9969 31.6705 61.9436 31.6504C61.9315 31.6458 61.9194 31.6422 61.9071 31.6381C61.8621 31.622 61.8166 31.6081 61.771 31.5966C61.7556 31.5928 61.7405 31.5894 61.7249 31.5859C61.6789 31.5759 61.6326 31.5679 61.5862 31.5624C61.5739 31.5609 61.5616 31.5588 61.5492 31.5577C61.4323 31.5463 61.3144 31.5486 61.1981 31.5645C61.1819 31.5668 61.166 31.5698 61.1499 31.5725C61.1077 31.5797 61.066 31.5886 61.0244 31.5992C61.0074 31.6036 60.9901 31.6077 60.9733 31.6129C60.9213 31.628 60.8702 31.6459 60.8201 31.6665C60.8165 31.668 60.8128 31.669 60.8092 31.6705C60.755 31.694 60.7021 31.7205 60.6509 31.7499C60.646 31.7527 60.6407 31.7546 60.6359 31.7575L51.3217 37.2113C49.741 38.1431 48.5208 39.5807 47.8582 41.2918C47.1956 43.0028 47.1293 44.8873 47.6702 46.6406L47.6724 46.648C48.1798 48.2736 49.1831 49.6997 50.5418 50.7263L45.1374 61.1546C45.1234 61.1819 45.1126 61.2103 45.0995 61.2384L44.3376 59.8202C45.3552 58.99 46.1566 57.9259 46.6735 56.7186C47.1905 55.5114 47.4074 54.197 47.3059 52.8877C47.2044 51.5784 46.7875 50.3131 46.0907 49.1999C45.3939 48.0868 44.438 47.1589 43.3047 46.4955L33.9992 41.0463C33.992 41.042 33.9842 41.0391 33.977 41.0351C33.9359 41.012 33.894 40.9909 33.8512 40.9718C33.8394 40.9667 33.8278 40.9605 33.8159 40.9555C33.7635 40.9336 33.7099 40.9146 33.6554 40.8987C33.6391 40.8939 33.6224 40.8905 33.6057 40.8864C33.5655 40.8761 33.5252 40.8674 33.4842 40.8604C33.4653 40.8572 33.4463 40.8543 33.4274 40.8519C33.3832 40.8462 33.3389 40.8426 33.2947 40.8407C33.2816 40.8407 33.2688 40.8388 33.2557 40.8386C33.197 40.8377 33.1382 40.8401 33.0798 40.846C33.0713 40.846 33.0629 40.8486 33.0546 40.8496C33.0051 40.8555 32.9559 40.864 32.9068 40.8748C32.8905 40.8784 32.8742 40.8826 32.8579 40.8867C32.8159 40.8975 32.7744 40.9101 32.7332 40.9246C32.7167 40.9305 32.7 40.9358 32.6835 40.9423C32.6347 40.9614 32.5869 40.983 32.5402 41.0069C32.5344 41.0099 32.5283 41.0118 32.5224 41.015L32.5198 41.0168L32.5164 41.0183C32.4649 41.0463 32.415 41.0772 32.367 41.1108C32.3547 41.1195 32.3429 41.1297 32.3308 41.138C32.294 41.1653 32.2588 41.1938 32.2251 41.2239C32.2124 41.2346 32.2005 41.2456 32.1892 41.2569C32.1544 41.29 32.1216 41.3243 32.0905 41.3602C32.0831 41.3687 32.0751 41.3768 32.0679 41.3856C32.0297 41.4314 31.9942 41.4795 31.9616 41.5296C31.959 41.5334 31.9569 41.5378 31.9544 41.5417C31.9263 41.5863 31.9006 41.6323 31.8773 41.6795C31.8695 41.6951 31.8625 41.7108 31.8553 41.7265C31.8377 41.7644 31.8219 41.8046 31.8075 41.8446C31.8019 41.8607 31.7958 41.8766 31.7905 41.8931C31.7726 41.9481 31.7579 42.0041 31.7463 42.0608C31.7463 42.0644 31.7463 42.0682 31.7448 42.0716C31.7346 42.1265 31.7274 42.182 31.7232 42.2377C31.7232 42.2441 31.7213 42.2502 31.7209 42.2566L31.0292 52.9995C30.9573 54.1115 31.114 55.2264 31.4895 56.2755C31.8651 57.3246 32.4516 58.2856 33.2129 59.0993C33.9742 59.913 34.8941 60.5622 35.9159 61.0067C36.9377 61.4512 38.0397 61.6817 39.154 61.6839C40.0149 61.6833 40.8704 61.5466 41.6887 61.2789L44.9839 67.3982V70.3567H37.403V66.7904C37.402 66.493 37.3138 66.2023 37.1492 65.9545C36.9847 65.7067 36.7511 65.5125 36.4774 65.3961C27.8371 61.7061 22.2727 53.4221 22.3055 44.2911C22.3263 38.4563 24.6734 32.8574 28.9187 28.5259V28.5255ZM50.5685 45.7463C50.2298 44.645 50.2718 43.4616 50.6878 42.3871C51.1039 41.3126 51.8696 40.4095 52.8617 39.8235L57.6439 37.0241L51.97 47.9722C51.3177 47.3645 50.8347 46.5976 50.5685 45.7467V45.7463ZM60.2404 38.6047L60.5815 43.9183C60.6301 44.6822 60.5068 45.4473 60.2206 46.1572C59.9344 46.8671 59.4927 47.5038 58.928 48.0205C58.3633 48.5372 57.6899 48.9206 56.9574 49.1427C56.2249 49.3647 55.4519 49.4197 54.6954 49.3036L60.2404 38.6047ZM44.0692 55.0319C43.8309 55.796 43.4172 56.4938 42.8612 57.0696L37.1223 46.3888L41.7656 49.1078C42.7597 49.6925 43.5277 50.5951 43.9457 51.67C44.3637 52.7449 44.4072 53.9293 44.0692 55.0319ZM34.0547 53.2007L34.4065 47.7406L40.2096 58.5417C39.3678 58.7205 38.4943 58.6814 37.6719 58.428L37.6643 58.4257C36.5574 58.0963 35.5962 57.3988 34.9397 56.4486C34.2833 55.4985 33.9711 54.3526 34.0547 53.2007Z" fill="#4E9B14"/>
<path d="M46.5 14.6017C46.9021 14.6017 47.2878 14.442 47.5721 14.1576C47.8564 13.8733 48.0162 13.4877 48.0162 13.0856V1.51618C48.0162 1.11406 47.8564 0.728416 47.5721 0.444078C47.2878 0.159739 46.9021 0 46.5 0C46.0979 0 45.7122 0.159739 45.4279 0.444078C45.1436 0.728416 44.9838 1.11406 44.9838 1.51618V13.0856C44.9838 13.4877 45.1436 13.8733 45.4279 14.1576C45.7122 14.442 46.0979 14.6017 46.5 14.6017Z" fill="#4E9B14"/>
<path d="M13.5569 43.2554H1.51618C1.11406 43.2554 0.728416 43.4151 0.444078 43.6995C0.159739 43.9838 0 44.3695 0 44.7716C0 45.1737 0.159739 45.5593 0.444078 45.8437C0.728416 46.128 1.11406 46.2878 1.51618 46.2878H13.5569C13.959 46.2878 14.3447 46.128 14.629 45.8437C14.9133 45.5593 15.0731 45.1737 15.0731 44.7716C15.0731 44.3695 14.9133 43.9838 14.629 43.6995C14.3447 43.4151 13.959 43.2554 13.5569 43.2554Z" fill="#4E9B14"/>
<path d="M91.4838 43.2554H79.4431C79.041 43.2554 78.6554 43.4151 78.371 43.6995C78.0867 43.9838 77.9269 44.3695 77.9269 44.7716C77.9269 45.1737 78.0867 45.5593 78.371 45.8437C78.6554 46.128 79.041 46.2878 79.4431 46.2878H91.4838C91.886 46.2878 92.2716 46.128 92.5559 45.8437C92.8403 45.5593 93 45.1737 93 44.7716C93 44.3695 92.8403 43.9838 92.5559 43.6995C92.2716 43.4151 91.886 43.2554 91.4838 43.2554Z" fill="#4E9B14"/>
<path d="M22.2411 23.4404C22.5327 23.7173 22.9223 23.8672 23.3243 23.8569C23.7263 23.8466 24.1077 23.677 24.3847 23.3855C24.6617 23.094 24.8115 22.7043 24.8012 22.3023C24.7909 21.9003 24.6214 21.5189 24.3298 21.2419L15.7572 13.0974C15.4657 12.8204 15.076 12.6706 14.674 12.6809C14.272 12.6911 13.8906 12.8607 13.6136 13.1522C13.3366 13.4438 13.1868 13.8334 13.1971 14.2354C13.2074 14.6374 13.3769 15.0188 13.6685 15.2958L22.2411 23.4404Z" fill="#4E9B14"/>
<path d="M69.7146 23.8575C70.1032 23.8579 70.4772 23.7086 70.7586 23.4405L79.3315 15.2958C79.623 15.0188 79.7926 14.6374 79.8029 14.2354C79.8132 13.8334 79.6633 13.4438 79.3863 13.1522C79.1094 12.8607 78.7279 12.6911 78.3259 12.6809C77.9239 12.6706 77.5343 12.8204 77.2428 13.0974L68.6699 21.2419C68.4501 21.4507 68.2979 21.7207 68.2331 22.0169C68.1682 22.3131 68.1937 22.6219 68.3062 22.9035C68.4186 23.1851 68.6129 23.4265 68.864 23.5965C69.1151 23.7665 69.4113 23.8574 69.7146 23.8573V23.8575Z" fill="#4E9B14"/>
</svg>
