<svg width="41" height="41" viewBox="0 0 41 41" fill="none" xmlns="http://www.w3.org/2000/svg">
<path d="M14.3501 39.6333C14.3501 39.9958 14.4941 40.3434 14.7504 40.5997C15.0067 40.856 15.3543 41 15.7168 41H25.2834C25.6459 41 25.9935 40.856 26.2498 40.5997C26.5061 40.3434 26.6501 39.9958 26.6501 39.6333V35.5333H14.3501V39.6333Z" fill="#FFE066"/>
<path d="M20.5002 4.1C20.6815 4.1 20.8553 4.02801 20.9834 3.89986C21.1116 3.77171 21.1836 3.5979 21.1836 3.41667V0.683333C21.1836 0.502102 21.1116 0.328294 20.9834 0.200144C20.8553 0.0719938 20.6815 0 20.5002 0C20.319 0 20.1452 0.0719938 20.017 0.200144C19.8889 0.328294 19.8169 0.502102 19.8169 0.683333V3.41667C19.8169 3.5979 19.8889 3.77171 20.017 3.89986C20.1452 4.02801 20.319 4.1 20.5002 4.1Z" fill="#FFE066"/>
<path d="M40.3166 19.8167H37.5832C37.402 19.8167 37.2282 19.8886 37.1 20.0168C36.9719 20.1449 36.8999 20.3188 36.8999 20.5C36.8999 20.6812 36.9719 20.855 37.1 20.9832C37.2282 21.1113 37.402 21.1833 37.5832 21.1833H40.3166C40.4978 21.1833 40.6716 21.1113 40.7998 20.9832C40.9279 20.855 40.9999 20.6812 40.9999 20.5C40.9999 20.3188 40.9279 20.1449 40.7998 20.0168C40.6716 19.8886 40.4978 19.8167 40.3166 19.8167Z" fill="#FFE066"/>
<path d="M0.683333 21.1833H3.41667C3.5979 21.1833 3.77171 21.1113 3.89986 20.9832C4.02801 20.855 4.1 20.6812 4.1 20.5C4.1 20.3188 4.02801 20.1449 3.89986 20.0168C3.77171 19.8886 3.5979 19.8167 3.41667 19.8167H0.683333C0.502102 19.8167 0.328294 19.8886 0.200144 20.0168C0.0719938 20.1449 0 20.3188 0 20.5C0 20.6812 0.0719938 20.855 0.200144 20.9832C0.328294 21.1113 0.502102 21.1833 0.683333 21.1833Z" fill="#FFE066"/>
<path d="M34.5126 9.90435C34.6938 9.90431 34.8676 9.83229 34.9957 9.70413L36.9288 7.77166C36.9923 7.70818 37.0427 7.6328 37.0771 7.54985C37.1114 7.4669 37.1291 7.37799 37.1291 7.28821C37.1291 7.19842 37.1114 7.10951 37.0771 7.02656C37.0427 6.94361 36.9923 6.86824 36.9288 6.80475C36.8654 6.74126 36.79 6.6909 36.707 6.65654C36.6241 6.62218 36.5352 6.60449 36.4454 6.60449C36.3556 6.60449 36.2667 6.62218 36.1837 6.65654C36.1008 6.6909 36.0254 6.74126 35.9619 6.80475L34.0301 8.7379C33.9346 8.83346 33.8696 8.95521 33.8432 9.08774C33.8168 9.22028 33.8304 9.35765 33.8821 9.48249C33.9338 9.60734 34.0214 9.71405 34.1337 9.78914C34.246 9.86423 34.3781 9.90432 34.5133 9.90435H34.5126Z" fill="#FFE066"/>
<path d="M6.00475 30.2668L4.0716 32.1999C3.94347 32.3281 3.87152 32.502 3.87158 32.6833C3.87165 32.8645 3.94372 33.0384 4.07194 33.1665C4.20016 33.2946 4.37403 33.3666 4.5553 33.3665C4.73656 33.3664 4.91038 33.2944 5.03851 33.1662L6.9703 31.233C7.09477 31.1041 7.16365 30.9315 7.16209 30.7523C7.16053 30.5732 7.08867 30.4018 6.96197 30.2751C6.83528 30.1484 6.66389 30.0765 6.48472 30.075C6.30555 30.0734 6.13294 30.1423 6.00406 30.2668H6.00475Z" fill="#FFE066"/>
<path d="M35.9617 33.1663C36.0252 33.2298 36.1005 33.2801 36.1834 33.3145C36.2663 33.3489 36.3552 33.3666 36.4449 33.3666C36.5347 33.3667 36.6236 33.349 36.7065 33.3147C36.7894 33.2804 36.8648 33.2301 36.9283 33.1666C36.9918 33.1032 37.0422 33.0279 37.0765 32.9449C37.1109 32.862 37.1286 32.7732 37.1286 32.6834C37.1287 32.5937 37.111 32.5048 37.0767 32.4218C37.0424 32.3389 36.9921 32.2635 36.9286 32.2001L34.9955 30.2669C34.866 30.1455 34.6944 30.0792 34.517 30.0821C34.3395 30.085 34.1701 30.1568 34.0447 30.2823C33.9193 30.4079 33.8476 30.5773 33.8448 30.7548C33.8421 30.9322 33.9084 31.1038 34.0299 31.2331L35.9617 33.1663Z" fill="#FFE066"/>
<path d="M6.0045 9.70345C6.13424 9.82286 6.30512 9.8875 6.48142 9.88385C6.65771 9.88019 6.82577 9.80853 6.95045 9.68385C7.07514 9.55916 7.1468 9.39111 7.15045 9.21481C7.1541 9.03852 7.08946 8.86764 6.97005 8.7379L5.03827 6.80475C4.91004 6.67653 4.73614 6.60449 4.55481 6.60449C4.37347 6.60449 4.19957 6.67653 4.07135 6.80475C3.94313 6.93297 3.87109 7.10687 3.87109 7.28821C3.87109 7.37799 3.88878 7.4669 3.92314 7.54985C3.9575 7.6328 4.00786 7.70818 4.07135 7.77166L6.0045 9.70345Z" fill="#FFE066"/>
<path d="M12.9578 31.6384C12.7035 31.7929 12.5067 32.0263 12.3975 32.3031C12.2883 32.5799 12.2726 32.8848 12.3529 33.1713C12.4332 33.4579 12.6051 33.7102 12.8422 33.89C13.0794 34.0697 13.3688 34.1669 13.6664 34.1667H27.333C27.6293 34.1642 27.9167 34.0656 28.152 33.8857C28.3873 33.7057 28.5578 33.4541 28.6378 33.1689C28.7177 32.8836 28.7028 32.5801 28.5953 32.3041C28.4878 32.028 28.2935 31.7944 28.0417 31.6384C28.1688 30.393 28.7297 29.232 29.6263 28.3584C31.4565 26.5494 32.7079 24.2373 33.2215 21.7157C33.7352 19.1941 33.4879 16.5768 32.5111 14.196C31.5342 11.8152 29.872 9.77846 27.7353 8.34428C25.5986 6.9101 23.084 6.14321 20.5106 6.141C17.9373 6.13878 15.4213 6.90134 13.2822 8.33185C11.143 9.76235 9.47726 11.7963 8.49634 14.1754C7.51543 16.5544 7.26363 19.1713 7.77292 21.6938C8.2822 24.2163 9.5296 26.5305 11.3567 28.3426C12.2588 29.2206 12.8252 30.3866 12.9578 31.6384ZM17.4247 18.45C18.9615 18.45 18.9615 17.0834 20.4997 17.0834C22.0379 17.0834 22.0379 18.45 23.5747 18.45C25.1115 18.45 25.1136 17.0834 26.6497 17.0834L22.0837 31.4334H18.9157L14.3497 17.0834C15.8858 17.0834 15.8858 18.45 17.4247 18.45Z" fill="#FFE066"/>
</svg>
