<svg width="49" height="40" viewBox="0 0 49 40" fill="none" xmlns="http://www.w3.org/2000/svg">
<path d="M28.2764 35.4447L25.8814 35.1649C20.3575 34.6055 15.3357 33.9262 14.3314 31.2489C13.7133 29.5306 14.6404 28.2119 15.3743 27.133C16.1083 26.0541 16.456 25.4947 16.031 24.7754C15.6061 24.0561 14.9494 23.9362 14.1382 23.5766C12.6317 22.8973 10.5457 21.9383 10.4298 19.4608H8.49838L0 40.0001H34.4571C33.9549 38.6814 32.5256 36.2039 28.2764 35.4447Z" fill="#FFE066"/>
<path d="M40.5221 21.6186L36.1184 28.9313C36.0367 29.0546 35.9272 29.1555 35.7993 29.2251C35.6714 29.2947 35.529 29.331 35.3845 29.3309V29.3309C35.24 29.331 35.0976 29.2947 34.9697 29.2251C34.8418 29.1555 34.7322 29.0546 34.6505 28.9313L29.2038 19.4208H12.1298C12.2457 20.6995 13.2114 21.259 14.8338 21.9383C16.4563 22.6176 16.9584 22.9373 17.4992 23.8564C18.5036 25.6546 17.4992 27.0931 16.7653 28.172C16.0313 29.2509 15.6451 29.8104 15.9541 30.6096C16.6108 32.4877 22.9846 33.127 26.0363 33.4067C27.0792 33.5266 27.9677 33.6065 28.5471 33.7264C34.3029 34.7254 35.848 38.4816 36.1957 40.0001H48.1321L40.5221 21.6186Z" fill="#FFE066"/>
<path d="M35.5777 11.5087C35.9445 11.5189 36.3093 11.4496 36.6486 11.305C36.988 11.1605 37.2942 10.944 37.5477 10.6696C37.9381 10.2672 38.2041 9.75388 38.312 9.19485C38.4198 8.63581 38.3648 8.05623 38.1537 7.52963C37.9426 7.00304 37.5851 6.55318 37.1264 6.23714C36.6678 5.92109 36.1287 5.75312 35.5777 5.75452C35.0212 5.7409 34.474 5.90274 34.0086 6.21852C33.5432 6.5343 33.1816 6.98908 32.972 7.52245C32.7624 8.05583 32.7147 8.64254 32.8351 9.20467C32.9555 9.76679 33.2384 10.2777 33.6462 10.6696C34.1573 11.2026 34.8519 11.5044 35.5777 11.5087Z" fill="#FFE066"/>
<path d="M28.1608 14.1859L30.4013 18.062L35.2299 26.4136C35.251 26.4466 35.2797 26.4736 35.3134 26.4923C35.3471 26.5111 35.3848 26.5209 35.423 26.5209C35.4613 26.5209 35.4989 26.5111 35.5326 26.4923C35.5663 26.4736 35.595 26.4466 35.6162 26.4136L43.033 14.1859C43.033 14.146 43.0716 14.106 43.1102 14.0261C43.7326 13.002 44.1525 11.8604 44.3457 10.6674C44.5388 9.47438 44.5014 8.25357 44.2356 7.07559C43.9698 5.89761 43.4808 4.78585 42.797 3.80459C42.1131 2.82334 41.248 1.99207 40.2517 1.35887C38.8629 0.459125 37.2548 -0.012189 35.6162 0.00023961V0.00023961C34.0307 -0.00839561 32.4722 0.423906 31.1036 1.25191C29.735 2.07992 28.6067 3.27319 27.8368 4.70688C27.0668 6.14057 26.6835 7.76197 26.7269 9.40144C26.7703 11.0409 27.2388 12.6382 28.0835 14.0261L28.1608 14.1859ZM35.6162 3.99621C36.4989 4.00443 37.3596 4.28216 38.0902 4.79453C38.8209 5.30691 39.389 6.03112 39.7232 6.87627C40.0574 7.72141 40.1429 8.64985 39.9689 9.54507C39.7949 10.4403 39.3692 11.2624 38.7451 11.9082C38.3364 12.3375 37.8493 12.6786 37.3122 12.9118C36.7752 13.1451 36.1987 13.2657 35.6162 13.2669C34.4278 13.2669 33.288 12.7785 32.4477 11.9092C31.6073 11.0399 31.1352 9.86091 31.1352 8.63154C31.1352 7.40218 31.6073 6.22316 32.4477 5.35387C33.288 4.48458 34.4278 3.99621 35.6162 3.99621V3.99621Z" fill="#FFE066"/>
</svg>
