<svg width="49" height="40" viewBox="0 0 49 40" fill="none" xmlns="http://www.w3.org/2000/svg">
<path d="M28.2764 35.4447L25.8814 35.165C20.3575 34.6056 15.3357 33.9262 14.3314 31.2489C13.7133 29.5307 14.6404 28.212 15.3743 27.1331C16.1083 26.0542 16.456 25.4947 16.031 24.7755C15.6061 24.0562 14.9494 23.9363 14.1382 23.5767C12.6317 22.8974 10.5457 21.9383 10.4298 19.4608H8.49838L0 40.0001H34.4571C33.9549 38.6815 32.5256 36.204 28.2764 35.4447Z" fill="#CBE5F3"/>
<path d="M40.5222 21.6186L36.1185 28.9312C36.0368 29.0545 35.9273 29.1554 35.7994 29.225C35.6715 29.2947 35.5291 29.331 35.3846 29.3308C35.24 29.331 35.0976 29.2947 34.9697 29.225C34.8418 29.1554 34.7323 29.0545 34.6506 28.9312L29.2039 19.4208H12.1299C12.2458 20.6995 13.2115 21.2589 14.8339 21.9382C16.4563 22.6176 16.9585 22.9372 17.4993 23.8563C18.5037 25.6545 17.4993 27.093 16.7654 28.172C16.0314 29.2509 15.6451 29.8103 15.9542 30.6095C16.6108 32.4876 22.9846 33.127 26.0363 33.4067C27.0793 33.5266 27.9678 33.6065 28.5472 33.7264C34.3029 34.7254 35.8481 38.4816 36.1958 40H48.1321L40.5222 21.6186Z" fill="#CBE5F3"/>
<path d="M35.5775 11.5088C35.9444 11.519 36.3092 11.4496 36.6485 11.3051C36.9878 11.1606 37.2941 10.9441 37.5476 10.6696C37.938 10.2672 38.204 9.75394 38.3118 9.19491C38.4197 8.63588 38.3646 8.05629 38.1536 7.5297C37.9425 7.0031 37.585 6.55324 37.1263 6.2372C36.6677 5.92116 36.1286 5.75318 35.5775 5.75458C35.0211 5.74096 34.4738 5.9028 34.0084 6.21858C33.543 6.53436 33.1815 6.98914 32.9719 7.52252C32.7623 8.05589 32.7146 8.64261 32.835 9.20473C32.9554 9.76685 33.2383 10.2778 33.6461 10.6696C34.1572 11.2027 34.8517 11.5044 35.5775 11.5088Z" fill="#CBE5F3"/>
<path d="M28.1609 14.1859L30.4013 18.062L35.23 26.4136C35.2511 26.4466 35.2798 26.4736 35.3135 26.4923C35.3472 26.5111 35.3849 26.5209 35.4231 26.5209C35.4614 26.5209 35.499 26.5111 35.5327 26.4923C35.5664 26.4736 35.5951 26.4466 35.6163 26.4136L43.033 14.1859C43.033 14.146 43.0717 14.106 43.1103 14.0261C43.7327 13.002 44.1526 11.8604 44.3457 10.6674C44.5389 9.47438 44.5015 8.25357 44.2357 7.07559C43.9698 5.89761 43.4809 4.78585 42.797 3.80459C42.1132 2.82334 41.2481 1.99207 40.2517 1.35887C38.8629 0.459125 37.2549 -0.012189 35.6163 0.00023961C34.0308 -0.00839561 32.4723 0.423906 31.1037 1.25191C29.7351 2.07992 28.6068 3.27319 27.8368 4.70688C27.0669 6.14057 26.6835 7.76197 26.7269 9.40143C26.7704 11.0409 27.2389 12.6382 28.0836 14.0261L28.1609 14.1859ZM35.6163 3.99621C36.4989 4.00443 37.3596 4.28216 38.0903 4.79453C38.8209 5.30691 39.389 6.03112 39.7233 6.87627C40.0575 7.72141 40.143 8.64985 39.969 9.54507C39.795 10.4403 39.3692 11.2624 38.7452 11.9082C38.3364 12.3375 37.8494 12.6786 37.3123 12.9118C36.7752 13.1451 36.1987 13.2657 35.6163 13.2669C34.4278 13.2669 33.2881 12.7785 32.4477 11.9092C31.6074 11.0399 31.1353 9.86091 31.1353 8.63154C31.1353 7.40218 31.6074 6.22316 32.4477 5.35387C33.2881 4.48458 34.4278 3.99621 35.6163 3.99621Z" fill="#CBE5F3"/>
</svg>
