<svg width="33" height="40" viewBox="0 0 33 40" fill="none" xmlns="http://www.w3.org/2000/svg">
<path d="M10.6765 0H2.91176C2.37581 0 1.94118 0.349766 1.94118 0.78125V19.2188H0.970588C0.434629 19.2188 0 19.5685 0 20V37.6562C0 38.9486 1.30622 40 2.91176 40H32.0294C32.5654 40 33 39.6502 33 39.2188V31.4062C33 30.9748 32.5654 30.625 32.0294 30.625H25.2353V20C25.2353 19.5685 24.8007 19.2188 24.2647 19.2188H23.2941V7.26562C23.2941 7.17586 23.2717 7.07891 23.2363 7.00008L20.3245 0.515703C20.1856 0.20625 19.8206 0 19.4118 0C19.003 0 18.6379 0.20625 18.499 0.515703L15.5873 7.00008C15.5522 7.07812 15.5294 7.17531 15.5294 7.26562V19.2188H11.6471V0.78125C11.6471 0.349766 11.2124 0 10.6765 0ZM3.88235 1.5625H9.70588V4.92188H6.79412C6.25816 4.92188 5.82353 5.27164 5.82353 5.70312C5.82353 6.13461 6.25816 6.48438 6.79412 6.48438H9.70588V9.60938H6.79412C6.25816 9.60938 5.82353 9.95914 5.82353 10.3906C5.82353 10.8221 6.25816 11.1719 6.79412 11.1719H9.70588V14.2969H6.79412C6.25816 14.2969 5.82353 14.6466 5.82353 15.0781C5.82353 15.5096 6.25816 15.8594 6.79412 15.8594H9.70588V19.2188H3.88235V1.5625ZM13.7552 38.4375H2.91176C2.37658 38.4375 1.94118 38.087 1.94118 37.6562V23.9062H23.2941V30.625H16.5C14.8945 30.625 13.5882 31.6764 13.5882 32.9688V37.6562C13.5882 37.9302 13.6474 38.193 13.7552 38.4375ZM19.4118 38.4375H16.5C15.9648 38.4375 15.5294 38.087 15.5294 37.6562V32.9688C15.5294 32.538 15.9648 32.1875 16.5 32.1875H19.4118V38.4375ZM31.0588 32.1875V38.4375H21.3529V32.1875H31.0588ZM17.4706 8.04688H21.3529V19.2188H17.4706V8.04688ZM23.2941 20.7812V22.3438H1.94118V20.7812H23.2941Z" fill="#50514F"/>
</svg>
