<svg width="322" height="285" viewBox="0 0 322 285" fill="none" xmlns="http://www.w3.org/2000/svg">
<path d="M54.2428 6.50395H56.6428V23.304H54.2428V6.50395ZM68.1285 10.464C69.7445 10.464 71.0245 10.936 71.9685 11.88C72.9285 12.808 73.4085 14.176 73.4085 15.984V23.304H71.1045V16.248C71.1045 15.016 70.8085 14.088 70.2165 13.464C69.6245 12.84 68.7765 12.528 67.6725 12.528C66.4245 12.528 65.4405 12.896 64.7205 13.632C64.0005 14.352 63.6405 15.392 63.6405 16.752V23.304H61.3365V10.584H63.5445V12.504C64.0085 11.848 64.6325 11.344 65.4165 10.992C66.2165 10.64 67.1205 10.464 68.1285 10.464ZM98.9017 6.50395V23.304H96.9337L86.8537 10.776V23.304H84.4537V6.50395H86.4217L96.5017 19.032V6.50395H98.9017ZM109.042 23.448C107.778 23.448 106.642 23.168 105.634 22.608C104.626 22.048 103.834 21.28 103.258 20.304C102.698 19.312 102.418 18.192 102.418 16.944C102.418 15.696 102.698 14.584 103.258 13.608C103.834 12.616 104.626 11.848 105.634 11.304C106.642 10.744 107.778 10.464 109.042 10.464C110.306 10.464 111.434 10.744 112.426 11.304C113.434 11.848 114.218 12.616 114.778 13.608C115.354 14.584 115.642 15.696 115.642 16.944C115.642 18.192 115.354 19.312 114.778 20.304C114.218 21.28 113.434 22.048 112.426 22.608C111.434 23.168 110.306 23.448 109.042 23.448ZM109.042 21.432C109.858 21.432 110.586 21.248 111.226 20.88C111.882 20.496 112.394 19.968 112.762 19.296C113.13 18.608 113.314 17.824 113.314 16.944C113.314 16.064 113.13 15.288 112.762 14.616C112.394 13.928 111.882 13.4 111.226 13.032C110.586 12.664 109.858 12.48 109.042 12.48C108.226 12.48 107.49 12.664 106.834 13.032C106.194 13.4 105.682 13.928 105.298 14.616C104.93 15.288 104.746 16.064 104.746 16.944C104.746 17.824 104.93 18.608 105.298 19.296C105.682 19.968 106.194 20.496 106.834 20.88C107.49 21.248 108.226 21.432 109.042 21.432ZM121.037 12.72C121.437 11.984 122.029 11.424 122.813 11.04C123.597 10.656 124.549 10.464 125.669 10.464V12.696C125.541 12.68 125.365 12.672 125.141 12.672C123.893 12.672 122.909 13.048 122.189 13.8C121.485 14.536 121.133 15.592 121.133 16.968V23.304H118.829V10.584H121.037V12.72ZM136.176 22.56C135.84 22.848 135.424 23.072 134.928 23.232C134.432 23.376 133.92 23.448 133.392 23.448C132.112 23.448 131.12 23.104 130.416 22.416C129.712 21.728 129.36 20.744 129.36 19.464V12.48H127.2V10.584H129.36V7.79995H131.664V10.584H135.312V12.48H131.664V19.368C131.664 20.056 131.832 20.584 132.168 20.952C132.52 21.32 133.016 21.504 133.656 21.504C134.36 21.504 134.96 21.304 135.456 20.904L136.176 22.56ZM145.753 10.464C147.369 10.464 148.649 10.936 149.593 11.88C150.553 12.808 151.033 14.176 151.033 15.984V23.304H148.729V16.248C148.729 15.016 148.433 14.088 147.841 13.464C147.249 12.84 146.401 12.528 145.297 12.528C144.049 12.528 143.065 12.896 142.345 13.632C141.625 14.352 141.265 15.392 141.265 16.752V23.304H138.961V5.49595H141.265V12.384C141.745 11.776 142.369 11.304 143.137 10.968C143.921 10.632 144.793 10.464 145.753 10.464ZM172.783 19.104H163.855L162.007 23.304H159.535L167.143 6.50395H169.519L177.151 23.304H174.631L172.783 19.104ZM171.943 17.184L168.319 8.95195L164.695 17.184H171.943ZM195.233 10.464C196.833 10.464 198.097 10.928 199.025 11.856C199.969 12.784 200.441 14.16 200.441 15.984V23.304H198.137V16.248C198.137 15.016 197.849 14.088 197.273 13.464C196.713 12.84 195.905 12.528 194.849 12.528C193.681 12.528 192.753 12.896 192.065 13.632C191.377 14.352 191.033 15.392 191.033 16.752V23.304H188.729V16.248C188.729 15.016 188.441 14.088 187.865 13.464C187.305 12.84 186.497 12.528 185.441 12.528C184.273 12.528 183.345 12.896 182.657 13.632C181.969 14.352 181.625 15.392 181.625 16.752V23.304H179.321V10.584H181.529V12.48C181.993 11.824 182.601 11.328 183.353 10.992C184.105 10.64 184.961 10.464 185.921 10.464C186.913 10.464 187.793 10.664 188.561 11.064C189.329 11.464 189.921 12.048 190.337 12.816C190.817 12.08 191.481 11.504 192.329 11.088C193.193 10.672 194.161 10.464 195.233 10.464ZM216.247 17.016C216.247 17.192 216.231 17.424 216.199 17.712H205.879C206.023 18.832 206.511 19.736 207.343 20.424C208.191 21.096 209.239 21.432 210.487 21.432C212.007 21.432 213.231 20.92 214.159 19.896L215.431 21.384C214.855 22.056 214.135 22.568 213.271 22.92C212.423 23.272 211.471 23.448 210.415 23.448C209.071 23.448 207.879 23.176 206.839 22.632C205.799 22.072 204.991 21.296 204.415 20.304C203.855 19.312 203.575 18.192 203.575 16.944C203.575 15.712 203.847 14.6 204.391 13.608C204.951 12.616 205.711 11.848 206.671 11.304C207.647 10.744 208.743 10.464 209.959 10.464C211.175 10.464 212.255 10.744 213.199 11.304C214.159 11.848 214.903 12.616 215.431 13.608C215.975 14.6 216.247 15.736 216.247 17.016ZM209.959 12.408C208.855 12.408 207.927 12.744 207.175 13.416C206.439 14.088 206.007 14.968 205.879 16.056H214.039C213.911 14.984 213.471 14.112 212.719 13.44C211.983 12.752 211.063 12.408 209.959 12.408ZM221.654 12.72C222.054 11.984 222.646 11.424 223.43 11.04C224.214 10.656 225.166 10.464 226.286 10.464V12.696C226.158 12.68 225.982 12.672 225.758 12.672C224.51 12.672 223.526 13.048 222.806 13.8C222.102 14.536 221.75 15.592 221.75 16.968V23.304H219.446V10.584H221.654V12.72ZM229.126 10.584H231.43V23.304H229.126V10.584ZM230.278 8.13595C229.83 8.13595 229.454 7.99195 229.15 7.70395C228.862 7.41595 228.718 7.06395 228.718 6.64795C228.718 6.23195 228.862 5.87995 229.15 5.59195C229.454 5.28795 229.83 5.13595 230.278 5.13595C230.726 5.13595 231.094 5.27995 231.382 5.56795C231.686 5.83995 231.838 6.18395 231.838 6.59995C231.838 7.03195 231.686 7.39995 231.382 7.70395C231.094 7.99195 230.726 8.13595 230.278 8.13595ZM241.373 23.448C240.077 23.448 238.917 23.168 237.893 22.608C236.885 22.048 236.093 21.28 235.517 20.304C234.941 19.312 234.653 18.192 234.653 16.944C234.653 15.696 234.941 14.584 235.517 13.608C236.093 12.616 236.885 11.848 237.893 11.304C238.917 10.744 240.077 10.464 241.373 10.464C242.525 10.464 243.549 10.696 244.445 11.16C245.357 11.624 246.061 12.296 246.557 13.176L244.805 14.304C244.405 13.696 243.909 13.24 243.317 12.936C242.725 12.632 242.069 12.48 241.349 12.48C240.517 12.48 239.765 12.664 239.093 13.032C238.437 13.4 237.917 13.928 237.533 14.616C237.165 15.288 236.981 16.064 236.981 16.944C236.981 17.84 237.165 18.632 237.533 19.32C237.917 19.992 238.437 20.512 239.093 20.88C239.765 21.248 240.517 21.432 241.349 21.432C242.069 21.432 242.725 21.28 243.317 20.976C243.909 20.672 244.405 20.216 244.805 19.608L246.557 20.712C246.061 21.592 245.357 22.272 244.445 22.752C243.549 23.216 242.525 23.448 241.373 23.448ZM254.172 10.464C255.932 10.464 257.276 10.896 258.204 11.76C259.148 12.624 259.62 13.912 259.62 15.624V23.304H257.436V21.624C257.052 22.216 256.5 22.672 255.78 22.992C255.076 23.296 254.236 23.448 253.26 23.448C251.836 23.448 250.692 23.104 249.828 22.416C248.98 21.728 248.556 20.824 248.556 19.704C248.556 18.584 248.964 17.688 249.78 17.016C250.596 16.328 251.892 15.984 253.668 15.984H257.316V15.528C257.316 14.536 257.028 13.776 256.452 13.248C255.876 12.72 255.028 12.456 253.908 12.456C253.156 12.456 252.42 12.584 251.7 12.84C250.98 13.08 250.372 13.408 249.876 13.824L248.916 12.096C249.572 11.568 250.356 11.168 251.268 10.896C252.18 10.608 253.148 10.464 254.172 10.464ZM253.644 21.672C254.524 21.672 255.284 21.48 255.924 21.096C256.564 20.696 257.028 20.136 257.316 19.416V17.64H253.764C251.812 17.64 250.836 18.296 250.836 19.608C250.836 20.248 251.084 20.752 251.58 21.12C252.076 21.488 252.764 21.672 253.644 21.672ZM264.459 20.16C264.907 20.16 265.275 20.32 265.563 20.64C265.867 20.944 266.019 21.328 266.019 21.792C266.019 22.032 265.987 22.264 265.923 22.488C265.875 22.712 265.771 23.056 265.611 23.52L264.483 26.856H262.971L263.859 23.28C263.555 23.168 263.307 22.984 263.115 22.728C262.939 22.456 262.851 22.144 262.851 21.792C262.851 21.312 263.003 20.92 263.307 20.616C263.611 20.312 263.995 20.16 264.459 20.16Z" fill="black"/>
<path d="M226.156 236.846C225.208 236.846 224.356 236.636 223.6 236.216C222.844 235.796 222.25 235.22 221.818 234.488C221.398 233.744 221.188 232.904 221.188 231.968C221.188 231.032 221.398 230.198 221.818 229.466C222.25 228.722 222.844 228.146 223.6 227.738C224.356 227.318 225.208 227.108 226.156 227.108C227.104 227.108 227.95 227.318 228.694 227.738C229.45 228.146 230.038 228.722 230.458 229.466C230.89 230.198 231.106 231.032 231.106 231.968C231.106 232.904 230.89 233.744 230.458 234.488C230.038 235.22 229.45 235.796 228.694 236.216C227.95 236.636 227.104 236.846 226.156 236.846ZM226.156 235.334C226.768 235.334 227.314 235.196 227.794 234.92C228.286 234.632 228.67 234.236 228.946 233.732C229.222 233.216 229.36 232.628 229.36 231.968C229.36 231.308 229.222 230.726 228.946 230.222C228.67 229.706 228.286 229.31 227.794 229.034C227.314 228.758 226.768 228.62 226.156 228.62C225.544 228.62 224.992 228.758 224.5 229.034C224.02 229.31 223.636 229.706 223.348 230.222C223.072 230.726 222.934 231.308 222.934 231.968C222.934 232.628 223.072 233.216 223.348 233.732C223.636 234.236 224.02 234.632 224.5 234.92C224.992 235.196 225.544 235.334 226.156 235.334ZM236.987 224.696C235.955 224.696 235.439 225.254 235.439 226.37V227.198H238.211V228.62H235.475V236.738H233.747V228.62H232.127V227.198H233.747V226.352C233.747 225.404 234.023 224.654 234.575 224.102C235.127 223.55 235.901 223.274 236.897 223.274C237.281 223.274 237.641 223.322 237.977 223.418C238.313 223.514 238.601 223.652 238.841 223.832L238.319 225.146C237.923 224.846 237.479 224.696 236.987 224.696ZM248.833 236.846C247.861 236.846 246.991 236.636 246.223 236.216C245.467 235.796 244.873 235.22 244.441 234.488C244.009 233.744 243.793 232.904 243.793 231.968C243.793 231.032 244.009 230.198 244.441 229.466C244.873 228.722 245.467 228.146 246.223 227.738C246.991 227.318 247.861 227.108 248.833 227.108C249.697 227.108 250.465 227.282 251.137 227.63C251.821 227.978 252.349 228.482 252.721 229.142L251.407 229.988C251.107 229.532 250.735 229.19 250.291 228.962C249.847 228.734 249.355 228.62 248.815 228.62C248.191 228.62 247.627 228.758 247.123 229.034C246.631 229.31 246.241 229.706 245.953 230.222C245.677 230.726 245.539 231.308 245.539 231.968C245.539 232.64 245.677 233.234 245.953 233.75C246.241 234.254 246.631 234.644 247.123 234.92C247.627 235.196 248.191 235.334 248.815 235.334C249.355 235.334 249.847 235.22 250.291 234.992C250.735 234.764 251.107 234.422 251.407 233.966L252.721 234.794C252.349 235.454 251.821 235.964 251.137 236.324C250.465 236.672 249.697 236.846 248.833 236.846ZM254.835 223.382H256.563V236.738H254.835V223.382ZM263.948 236.846C263 236.846 262.148 236.636 261.392 236.216C260.636 235.796 260.042 235.22 259.61 234.488C259.19 233.744 258.98 232.904 258.98 231.968C258.98 231.032 259.19 230.198 259.61 229.466C260.042 228.722 260.636 228.146 261.392 227.738C262.148 227.318 263 227.108 263.948 227.108C264.896 227.108 265.742 227.318 266.486 227.738C267.242 228.146 267.83 228.722 268.25 229.466C268.682 230.198 268.898 231.032 268.898 231.968C268.898 232.904 268.682 233.744 268.25 234.488C267.83 235.22 267.242 235.796 266.486 236.216C265.742 236.636 264.896 236.846 263.948 236.846ZM263.948 235.334C264.56 235.334 265.106 235.196 265.586 234.92C266.078 234.632 266.462 234.236 266.738 233.732C267.014 233.216 267.152 232.628 267.152 231.968C267.152 231.308 267.014 230.726 266.738 230.222C266.462 229.706 266.078 229.31 265.586 229.034C265.106 228.758 264.56 228.62 263.948 228.62C263.336 228.62 262.784 228.758 262.292 229.034C261.812 229.31 261.428 229.706 261.14 230.222C260.864 230.726 260.726 231.308 260.726 231.968C260.726 232.628 260.864 233.216 261.14 233.732C261.428 234.236 261.812 234.632 262.292 234.92C262.784 235.196 263.336 235.334 263.948 235.334ZM276.652 236.18C276.4 236.396 276.088 236.564 275.716 236.684C275.344 236.792 274.96 236.846 274.564 236.846C273.604 236.846 272.86 236.588 272.332 236.072C271.804 235.556 271.54 234.818 271.54 233.858V228.62H269.92V227.198H271.54V225.11H273.268V227.198H276.004V228.62H273.268V233.786C273.268 234.302 273.394 234.698 273.646 234.974C273.91 235.25 274.282 235.388 274.762 235.388C275.29 235.388 275.74 235.238 276.112 234.938L276.652 236.18ZM283.835 227.108C285.047 227.108 286.007 227.462 286.715 228.17C287.435 228.866 287.795 229.892 287.795 231.248V236.738H286.067V231.446C286.067 230.522 285.845 229.826 285.401 229.358C284.957 228.89 284.321 228.656 283.493 228.656C282.557 228.656 281.819 228.932 281.279 229.484C280.739 230.024 280.469 230.804 280.469 231.824V236.738H278.741V223.382H280.469V228.548C280.829 228.092 281.297 227.738 281.873 227.486C282.461 227.234 283.115 227.108 283.835 227.108ZM290.993 227.198H292.721V236.738H290.993V227.198ZM291.857 225.362C291.521 225.362 291.239 225.254 291.011 225.038C290.795 224.822 290.687 224.558 290.687 224.246C290.687 223.934 290.795 223.67 291.011 223.454C291.239 223.226 291.521 223.112 291.857 223.112C292.193 223.112 292.469 223.22 292.685 223.436C292.913 223.64 293.027 223.898 293.027 224.21C293.027 224.534 292.913 224.81 292.685 225.038C292.469 225.254 292.193 225.362 291.857 225.362ZM301.115 227.108C302.327 227.108 303.287 227.462 303.995 228.17C304.715 228.866 305.075 229.892 305.075 231.248V236.738H303.347V231.446C303.347 230.522 303.125 229.826 302.681 229.358C302.237 228.89 301.601 228.656 300.773 228.656C299.837 228.656 299.099 228.932 298.559 229.484C298.019 230.024 297.749 230.804 297.749 231.824V236.738H296.021V227.198H297.677V228.638C298.025 228.146 298.493 227.768 299.081 227.504C299.681 227.24 300.359 227.108 301.115 227.108ZM317.451 227.198V235.442C317.451 237.11 317.037 238.34 316.209 239.132C315.381 239.936 314.145 240.338 312.501 240.338C311.601 240.338 310.743 240.212 309.927 239.96C309.111 239.72 308.451 239.372 307.947 238.916L308.775 237.584C309.219 237.968 309.765 238.268 310.413 238.484C311.073 238.712 311.751 238.826 312.447 238.826C313.563 238.826 314.385 238.562 314.913 238.034C315.453 237.506 315.723 236.702 315.723 235.622V234.866C315.315 235.358 314.811 235.73 314.211 235.982C313.623 236.222 312.981 236.342 312.285 236.342C311.373 236.342 310.545 236.15 309.801 235.766C309.069 235.37 308.493 234.824 308.073 234.128C307.653 233.42 307.443 232.616 307.443 231.716C307.443 230.816 307.653 230.018 308.073 229.322C308.493 228.614 309.069 228.068 309.801 227.684C310.545 227.3 311.373 227.108 312.285 227.108C313.005 227.108 313.671 227.24 314.283 227.504C314.907 227.768 315.417 228.158 315.813 228.674V227.198H317.451ZM312.483 234.83C313.107 234.83 313.665 234.698 314.157 234.434C314.661 234.17 315.051 233.804 315.327 233.336C315.615 232.856 315.759 232.316 315.759 231.716C315.759 230.792 315.453 230.048 314.841 229.484C314.229 228.908 313.443 228.62 312.483 228.62C311.511 228.62 310.719 228.908 310.107 229.484C309.495 230.048 309.189 230.792 309.189 231.716C309.189 232.316 309.327 232.856 309.603 233.336C309.891 233.804 310.281 234.17 310.773 234.434C311.277 234.698 311.847 234.83 312.483 234.83ZM183.45 249.198H185.178V258.738H183.45V249.198ZM184.314 247.362C183.978 247.362 183.696 247.254 183.468 247.038C183.252 246.822 183.144 246.558 183.144 246.246C183.144 245.934 183.252 245.67 183.468 245.454C183.696 245.226 183.978 245.112 184.314 245.112C184.65 245.112 184.926 245.22 185.142 245.436C185.37 245.64 185.484 245.898 185.484 246.21C185.484 246.534 185.37 246.81 185.142 247.038C184.926 247.254 184.65 247.362 184.314 247.362ZM191.214 258.846C190.434 258.846 189.684 258.744 188.964 258.54C188.244 258.324 187.68 258.054 187.272 257.73L187.992 256.362C188.412 256.662 188.922 256.902 189.522 257.082C190.122 257.262 190.728 257.352 191.34 257.352C192.852 257.352 193.608 256.92 193.608 256.056C193.608 255.768 193.506 255.54 193.302 255.372C193.098 255.204 192.84 255.084 192.528 255.012C192.228 254.928 191.796 254.838 191.232 254.742C190.464 254.622 189.834 254.484 189.342 254.328C188.862 254.172 188.448 253.908 188.1 253.536C187.752 253.164 187.578 252.642 187.578 251.97C187.578 251.106 187.938 250.416 188.658 249.9C189.378 249.372 190.344 249.108 191.556 249.108C192.192 249.108 192.828 249.186 193.464 249.342C194.1 249.498 194.622 249.708 195.03 249.972L194.292 251.34C193.512 250.836 192.594 250.584 191.538 250.584C190.806 250.584 190.248 250.704 189.864 250.944C189.48 251.184 189.288 251.502 189.288 251.898C189.288 252.21 189.396 252.456 189.612 252.636C189.828 252.816 190.092 252.948 190.404 253.032C190.728 253.116 191.178 253.212 191.754 253.32C192.522 253.452 193.14 253.596 193.608 253.752C194.088 253.896 194.496 254.148 194.832 254.508C195.168 254.868 195.336 255.372 195.336 256.02C195.336 256.884 194.964 257.574 194.22 258.09C193.488 258.594 192.486 258.846 191.214 258.846ZM207.693 258.18C207.441 258.396 207.129 258.564 206.757 258.684C206.385 258.792 206.001 258.846 205.605 258.846C204.645 258.846 203.901 258.588 203.373 258.072C202.845 257.556 202.581 256.818 202.581 255.858V250.62H200.961V249.198H202.581V247.11H204.309V249.198H207.045V250.62H204.309V255.786C204.309 256.302 204.435 256.698 204.687 256.974C204.951 257.25 205.323 257.388 205.803 257.388C206.331 257.388 206.781 257.238 207.153 256.938L207.693 258.18ZM214.876 249.108C216.088 249.108 217.048 249.462 217.756 250.17C218.476 250.866 218.836 251.892 218.836 253.248V258.738H217.108V253.446C217.108 252.522 216.886 251.826 216.442 251.358C215.998 250.89 215.362 250.656 214.534 250.656C213.598 250.656 212.86 250.932 212.32 251.484C211.78 252.024 211.51 252.804 211.51 253.824V258.738H209.782V245.382H211.51V250.548C211.87 250.092 212.338 249.738 212.914 249.486C213.502 249.234 214.156 249.108 214.876 249.108ZM223.69 250.8C223.99 250.248 224.434 249.828 225.022 249.54C225.61 249.252 226.324 249.108 227.164 249.108V250.782C227.068 250.77 226.936 250.764 226.768 250.764C225.832 250.764 225.094 251.046 224.554 251.61C224.026 252.162 223.762 252.954 223.762 253.986V258.738H222.034V249.198H223.69V250.8ZM233.292 258.846C232.344 258.846 231.492 258.636 230.736 258.216C229.98 257.796 229.386 257.22 228.954 256.488C228.534 255.744 228.324 254.904 228.324 253.968C228.324 253.032 228.534 252.198 228.954 251.466C229.386 250.722 229.98 250.146 230.736 249.738C231.492 249.318 232.344 249.108 233.292 249.108C234.24 249.108 235.086 249.318 235.83 249.738C236.586 250.146 237.174 250.722 237.594 251.466C238.026 252.198 238.242 253.032 238.242 253.968C238.242 254.904 238.026 255.744 237.594 256.488C237.174 257.22 236.586 257.796 235.83 258.216C235.086 258.636 234.24 258.846 233.292 258.846ZM233.292 257.334C233.904 257.334 234.45 257.196 234.93 256.92C235.422 256.632 235.806 256.236 236.082 255.732C236.358 255.216 236.496 254.628 236.496 253.968C236.496 253.308 236.358 252.726 236.082 252.222C235.806 251.706 235.422 251.31 234.93 251.034C234.45 250.758 233.904 250.62 233.292 250.62C232.68 250.62 232.128 250.758 231.636 251.034C231.156 251.31 230.772 251.706 230.484 252.222C230.208 252.726 230.07 253.308 230.07 253.968C230.07 254.628 230.208 255.216 230.484 255.732C230.772 256.236 231.156 256.632 231.636 256.92C232.128 257.196 232.68 257.334 233.292 257.334ZM254.804 249.198L251.24 258.738H249.584L246.83 251.502L244.04 258.738H242.384L238.838 249.198H240.476L243.248 256.794L246.128 249.198H247.586L250.412 256.83L253.256 249.198H254.804ZM261.652 249.108C262.864 249.108 263.824 249.462 264.532 250.17C265.252 250.866 265.612 251.892 265.612 253.248V258.738H263.884V253.446C263.884 252.522 263.662 251.826 263.218 251.358C262.774 250.89 262.138 250.656 261.31 250.656C260.374 250.656 259.636 250.932 259.096 251.484C258.556 252.024 258.286 252.804 258.286 253.824V258.738H256.558V249.198H258.214V250.638C258.562 250.146 259.03 249.768 259.618 249.504C260.218 249.24 260.896 249.108 261.652 249.108ZM277.118 249.108C278.438 249.108 279.446 249.432 280.142 250.08C280.85 250.728 281.204 251.694 281.204 252.978V258.738H279.566V257.478C279.278 257.922 278.864 258.264 278.324 258.504C277.796 258.732 277.166 258.846 276.434 258.846C275.366 258.846 274.508 258.588 273.86 258.072C273.224 257.556 272.906 256.878 272.906 256.038C272.906 255.198 273.212 254.526 273.824 254.022C274.436 253.506 275.408 253.248 276.74 253.248H279.476V252.906C279.476 252.162 279.26 251.592 278.828 251.196C278.396 250.8 277.76 250.602 276.92 250.602C276.356 250.602 275.804 250.698 275.264 250.89C274.724 251.07 274.268 251.316 273.896 251.628L273.176 250.332C273.668 249.936 274.256 249.636 274.94 249.432C275.624 249.216 276.35 249.108 277.118 249.108ZM276.722 257.514C277.382 257.514 277.952 257.37 278.432 257.082C278.912 256.782 279.26 256.362 279.476 255.822V254.49H276.812C275.348 254.49 274.616 254.982 274.616 255.966C274.616 256.446 274.802 256.824 275.174 257.1C275.546 257.376 276.062 257.514 276.722 257.514ZM298.662 249.198L295.098 258.738H293.442L290.688 251.502L287.898 258.738H286.242L282.696 249.198H284.334L287.106 256.794L289.986 249.198H291.444L294.27 256.83L297.114 249.198H298.662ZM303.59 249.108C304.91 249.108 305.918 249.432 306.614 250.08C307.322 250.728 307.676 251.694 307.676 252.978V258.738H306.038V257.478C305.75 257.922 305.336 258.264 304.796 258.504C304.268 258.732 303.638 258.846 302.906 258.846C301.838 258.846 300.98 258.588 300.332 258.072C299.696 257.556 299.378 256.878 299.378 256.038C299.378 255.198 299.684 254.526 300.296 254.022C300.908 253.506 301.88 253.248 303.212 253.248H305.948V252.906C305.948 252.162 305.732 251.592 305.3 251.196C304.868 250.8 304.232 250.602 303.392 250.602C302.828 250.602 302.276 250.698 301.736 250.89C301.196 251.07 300.74 251.316 300.368 251.628L299.648 250.332C300.14 249.936 300.728 249.636 301.412 249.432C302.096 249.216 302.822 249.108 303.59 249.108ZM303.194 257.514C303.854 257.514 304.424 257.37 304.904 257.082C305.384 256.782 305.732 256.362 305.948 255.822V254.49H303.284C301.82 254.49 301.088 254.982 301.088 255.966C301.088 256.446 301.274 256.824 301.646 257.1C302.018 257.376 302.534 257.514 303.194 257.514ZM319.14 249.198L314.514 259.692C314.106 260.664 313.626 261.348 313.074 261.744C312.534 262.14 311.88 262.338 311.112 262.338C310.644 262.338 310.188 262.26 309.744 262.104C309.312 261.96 308.952 261.744 308.664 261.456L309.402 260.16C309.894 260.628 310.464 260.862 311.112 260.862C311.532 260.862 311.88 260.748 312.156 260.52C312.444 260.304 312.702 259.926 312.93 259.386L313.236 258.72L309.024 249.198H310.824L314.154 256.83L317.448 249.198H319.14ZM237.969 276.022C237.969 276.154 237.957 276.328 237.933 276.544H230.193C230.301 277.384 230.667 278.062 231.291 278.578C231.927 279.082 232.713 279.334 233.649 279.334C234.789 279.334 235.707 278.95 236.403 278.182L237.357 279.298C236.925 279.802 236.385 280.186 235.737 280.45C235.101 280.714 234.387 280.846 233.595 280.846C232.587 280.846 231.693 280.642 230.913 280.234C230.133 279.814 229.527 279.232 229.095 278.488C228.675 277.744 228.465 276.904 228.465 275.968C228.465 275.044 228.669 274.21 229.077 273.466C229.497 272.722 230.067 272.146 230.787 271.738C231.519 271.318 232.341 271.108 233.253 271.108C234.165 271.108 234.975 271.318 235.683 271.738C236.403 272.146 236.961 272.722 237.357 273.466C237.765 274.21 237.969 275.062 237.969 276.022ZM233.253 272.566C232.425 272.566 231.729 272.818 231.165 273.322C230.613 273.826 230.289 274.486 230.193 275.302H236.313C236.217 274.498 235.887 273.844 235.323 273.34C234.771 272.824 234.081 272.566 233.253 272.566ZM243.579 271.108C244.899 271.108 245.907 271.432 246.603 272.08C247.311 272.728 247.665 273.694 247.665 274.978V280.738H246.027V279.478C245.739 279.922 245.325 280.264 244.785 280.504C244.257 280.732 243.627 280.846 242.895 280.846C241.827 280.846 240.969 280.588 240.321 280.072C239.685 279.556 239.367 278.878 239.367 278.038C239.367 277.198 239.673 276.526 240.285 276.022C240.897 275.506 241.869 275.248 243.201 275.248H245.937V274.906C245.937 274.162 245.721 273.592 245.289 273.196C244.857 272.8 244.221 272.602 243.381 272.602C242.817 272.602 242.265 272.698 241.725 272.89C241.185 273.07 240.729 273.316 240.357 273.628L239.637 272.332C240.129 271.936 240.717 271.636 241.401 271.432C242.085 271.216 242.811 271.108 243.579 271.108ZM243.183 279.514C243.843 279.514 244.413 279.37 244.893 279.082C245.373 278.782 245.721 278.362 245.937 277.822V276.49H243.273C241.809 276.49 241.077 276.982 241.077 277.966C241.077 278.446 241.263 278.824 241.635 279.1C242.007 279.376 242.523 279.514 243.183 279.514ZM255.073 280.846C254.101 280.846 253.231 280.636 252.463 280.216C251.707 279.796 251.113 279.22 250.681 278.488C250.249 277.744 250.033 276.904 250.033 275.968C250.033 275.032 250.249 274.198 250.681 273.466C251.113 272.722 251.707 272.146 252.463 271.738C253.231 271.318 254.101 271.108 255.073 271.108C255.937 271.108 256.705 271.282 257.377 271.63C258.061 271.978 258.589 272.482 258.961 273.142L257.647 273.988C257.347 273.532 256.975 273.19 256.531 272.962C256.087 272.734 255.595 272.62 255.055 272.62C254.431 272.62 253.867 272.758 253.363 273.034C252.871 273.31 252.481 273.706 252.193 274.222C251.917 274.726 251.779 275.308 251.779 275.968C251.779 276.64 251.917 277.234 252.193 277.75C252.481 278.254 252.871 278.644 253.363 278.92C253.867 279.196 254.431 279.334 255.055 279.334C255.595 279.334 256.087 279.22 256.531 278.992C256.975 278.764 257.347 278.422 257.647 277.966L258.961 278.794C258.589 279.454 258.061 279.964 257.377 280.324C256.705 280.672 255.937 280.846 255.073 280.846ZM266.169 271.108C267.381 271.108 268.341 271.462 269.049 272.17C269.769 272.866 270.129 273.892 270.129 275.248V280.738H268.401V275.446C268.401 274.522 268.179 273.826 267.735 273.358C267.291 272.89 266.655 272.656 265.827 272.656C264.891 272.656 264.153 272.932 263.613 273.484C263.073 274.024 262.803 274.804 262.803 275.824V280.738H261.075V267.382H262.803V272.548C263.163 272.092 263.631 271.738 264.207 271.486C264.795 271.234 265.449 271.108 266.169 271.108ZM286.603 271.198L281.977 281.692C281.569 282.664 281.089 283.348 280.537 283.744C279.997 284.14 279.343 284.338 278.575 284.338C278.107 284.338 277.651 284.26 277.207 284.104C276.775 283.96 276.415 283.744 276.127 283.456L276.865 282.16C277.357 282.628 277.927 282.862 278.575 282.862C278.995 282.862 279.343 282.748 279.619 282.52C279.907 282.304 280.165 281.926 280.393 281.386L280.699 280.72L276.487 271.198H278.287L281.617 278.83L284.911 271.198H286.603ZM296.574 276.022C296.574 276.154 296.562 276.328 296.538 276.544H288.798C288.906 277.384 289.272 278.062 289.896 278.578C290.532 279.082 291.318 279.334 292.254 279.334C293.394 279.334 294.312 278.95 295.008 278.182L295.962 279.298C295.53 279.802 294.99 280.186 294.342 280.45C293.706 280.714 292.992 280.846 292.2 280.846C291.192 280.846 290.298 280.642 289.518 280.234C288.738 279.814 288.132 279.232 287.7 278.488C287.28 277.744 287.07 276.904 287.07 275.968C287.07 275.044 287.274 274.21 287.682 273.466C288.102 272.722 288.672 272.146 289.392 271.738C290.124 271.318 290.946 271.108 291.858 271.108C292.77 271.108 293.58 271.318 294.288 271.738C295.008 272.146 295.566 272.722 295.962 273.466C296.37 274.21 296.574 275.062 296.574 276.022ZM291.858 272.566C291.03 272.566 290.334 272.818 289.77 273.322C289.218 273.826 288.894 274.486 288.798 275.302H294.918C294.822 274.498 294.492 273.844 293.928 273.34C293.376 272.824 292.686 272.566 291.858 272.566ZM302.184 271.108C303.504 271.108 304.512 271.432 305.208 272.08C305.916 272.728 306.27 273.694 306.27 274.978V280.738H304.632V279.478C304.344 279.922 303.93 280.264 303.39 280.504C302.862 280.732 302.232 280.846 301.5 280.846C300.432 280.846 299.574 280.588 298.926 280.072C298.29 279.556 297.972 278.878 297.972 278.038C297.972 277.198 298.278 276.526 298.89 276.022C299.502 275.506 300.474 275.248 301.806 275.248H304.542V274.906C304.542 274.162 304.326 273.592 303.894 273.196C303.462 272.8 302.826 272.602 301.986 272.602C301.422 272.602 300.87 272.698 300.33 272.89C299.79 273.07 299.334 273.316 298.962 273.628L298.242 272.332C298.734 271.936 299.322 271.636 300.006 271.432C300.69 271.216 301.416 271.108 302.184 271.108ZM301.788 279.514C302.448 279.514 303.018 279.37 303.498 279.082C303.978 278.782 304.326 278.362 304.542 277.822V276.49H301.878C300.414 276.49 299.682 276.982 299.682 277.966C299.682 278.446 299.868 278.824 300.24 279.1C300.612 279.376 301.128 279.514 301.788 279.514ZM311.124 272.8C311.424 272.248 311.868 271.828 312.456 271.54C313.044 271.252 313.758 271.108 314.598 271.108V272.782C314.502 272.77 314.37 272.764 314.202 272.764C313.266 272.764 312.528 273.046 311.988 273.61C311.46 274.162 311.196 274.954 311.196 275.986V280.738H309.468V271.198H311.124V272.8ZM317.089 280.846C316.753 280.846 316.465 280.732 316.225 280.504C315.985 280.264 315.865 279.964 315.865 279.604C315.865 279.256 315.985 278.968 316.225 278.74C316.465 278.5 316.753 278.38 317.089 278.38C317.425 278.38 317.707 278.494 317.935 278.722C318.163 278.95 318.277 279.244 318.277 279.604C318.277 279.964 318.157 280.264 317.917 280.504C317.689 280.732 317.413 280.846 317.089 280.846Z" fill="black"/>
<path d="M0.6922 274.937V201.188C3.31254 200.728 9.47485 199.807 13.1614 199.807C17.7696 199.807 32.9495 201.188 35.9312 201.188C38.913 201.188 60.8696 198.15 63.0382 201.188C65.2068 204.227 79.3024 201.188 86.3502 199.807C93.398 198.426 97.7351 202.57 102.072 203.398C106.409 204.227 103.97 213.894 108.849 216.656C113.728 219.418 113.457 230.743 116.439 235.439C119.692 236.267 123.758 249.802 123.758 253.945C126.468 255.05 128.095 260.85 128.095 263.612C128.095 265.822 129.36 272.083 129.992 274.937H0.6922Z" fill="#595353"/>
<path d="M143.341 219.989L146.7 221.373L152.283 218.433L149.141 213.208L143 216.442L139.044 214.8C137.239 214.057 135.041 214.593 134.037 216.181C133.293 217.358 133.355 218.739 133.999 219.811C134.392 220.465 135.007 221.01 135.798 221.336L136.8 221.749C138.146 219.756 140.925 218.994 143.341 219.989ZM154.516 217.256C154.902 217.053 155.32 216.965 155.734 216.96C155.707 216.862 155.689 216.761 155.633 216.668L153.119 212.488C152.772 211.911 151.991 211.707 151.374 212.031L150.258 212.62L153.4 217.845L154.516 217.256ZM159.403 222.938L156.889 218.758C156.543 218.181 155.761 217.977 155.145 218.301L154.028 218.89L157.798 225.16L158.915 224.571C159.531 224.247 159.75 223.515 159.403 222.938ZM146.77 222.712L142.825 221.087C141.019 220.344 138.821 220.88 137.817 222.468C137.074 223.645 137.125 225.009 137.769 226.081C138.163 226.735 138.778 227.28 139.569 227.606L144.846 229.78C145.574 230.08 146.367 230.218 147.161 230.181C147.956 230.145 148.731 229.936 149.424 229.57L156.682 225.748L152.911 219.478L146.77 222.712Z" fill="black"/>
<path d="M139.101 255.036L142.461 256.42L148.044 253.48L144.902 248.255L138.76 251.489L134.804 249.847C132.999 249.104 130.801 249.64 129.797 251.229C129.054 252.405 129.115 253.786 129.759 254.858C130.153 255.512 130.768 256.057 131.559 256.383L132.56 256.796C133.906 254.803 136.685 254.041 139.101 255.036ZM150.277 252.304C150.662 252.101 151.08 252.012 151.494 252.007C151.467 251.909 151.449 251.809 151.393 251.716L148.88 247.536C148.533 246.958 147.751 246.754 147.135 247.079L146.018 247.667L149.16 252.892L150.277 252.304ZM155.164 257.986L152.65 253.806C152.303 253.229 151.522 253.024 150.905 253.349L149.788 253.937L153.559 260.207L154.675 259.619C155.292 259.294 155.511 258.563 155.164 257.986ZM142.531 257.759L138.585 256.134C136.78 255.391 134.582 255.927 133.578 257.516C132.834 258.692 132.885 260.056 133.53 261.128C133.923 261.782 134.538 262.328 135.329 262.653L140.606 264.828C141.334 265.128 142.127 265.265 142.922 265.228C143.716 265.192 144.491 264.983 145.185 264.618L152.442 260.795L148.672 254.525L142.531 257.759Z" fill="black"/>
<path fill-rule="evenodd" clip-rule="evenodd" d="M131.505 228.153C136.479 227.136 135.197 227.277 140.215 228.779L139.516 232.631L138.701 232.643L145.31 240.761L135.982 247.389L129.404 239.249L129.172 239.98L125.02 239.575C124.823 234.648 124.333 235.766 126.717 231.555C127.271 231.549 129.841 232.808 130.841 232.105C131.881 231.374 131.344 228.671 131.505 228.153Z" fill="black"/>
<path fill-rule="evenodd" clip-rule="evenodd" d="M130.598 258.998C132.961 254.777 132.252 255.787 136.706 253.153L139.411 256.129L138.897 256.721L149.79 257.196L149.225 268.143L138.334 267.632L138.784 268.268L135.785 270.986C131.624 267.963 132.224 269.032 130.308 264.617C130.659 264.216 133.341 263.181 133.408 262.013C133.477 260.797 130.919 259.446 130.598 258.998Z" fill="black"/>
<path fill-rule="evenodd" clip-rule="evenodd" d="M157.098 241.041C161.578 243.305 160.508 242.629 163.266 246.83L160.053 249.324L159.426 248.836L158.783 259.024L147.093 258.358L147.776 248.172L147.091 248.585L144.224 245.744C147.507 241.888 146.357 242.437 151.098 240.699C151.522 241.032 152.594 243.555 153.842 243.632C155.14 243.713 156.615 241.335 157.098 241.041Z" fill="black"/>
<path d="M137.458 205.456L137.995 204.692L136.005 203.482L135.468 204.247L137.458 205.456Z" fill="black"/>
<path d="M132.469 212.581L134.594 209.554L132.623 208.357L130.498 211.384L132.469 212.581Z" fill="black"/>
<path d="M135.086 208.831L136.948 206.18L134.975 204.982L133.113 207.634L135.086 208.831Z" fill="black"/>
<path d="M131.442 214.08L131.978 213.316L129.988 212.106L129.452 212.871L131.442 214.08Z" fill="black"/>
<path d="M119.198 206.735L119.184 206.754L128.454 212.383L135.259 202.691L130.918 197.007L115.774 190.942L108.897 200.736C109.202 200.754 109.494 200.844 109.748 200.997L119.198 206.735Z" fill="black"/>
<path d="M117.481 215.285L118.319 207.043L117.732 206.686L117.748 206.663L109.345 201.561C109.197 201.471 109.022 201.427 108.844 201.434C108.666 201.442 108.493 201.501 108.348 201.603C108.203 201.705 108.094 201.846 108.035 202.006C107.976 202.166 107.97 202.338 108.018 202.498L113.629 215.287L117.481 215.285Z" fill="black"/>
<path d="M145.046 263.963L144.987 264.871L147.368 264.979L147.428 264.071L145.046 263.963Z" fill="black"/>
<path d="M145.562 255.467L145.326 259.059L147.687 259.166L147.923 255.574L145.562 255.467Z" fill="black"/>
<path d="M145.298 259.938L145.091 263.083L147.455 263.19L147.663 260.045L145.298 259.938Z" fill="black"/>
<path d="M145.646 253.679L145.587 254.587L147.968 254.695L148.028 253.787L145.646 253.679Z" fill="black"/>
<path d="M160.202 254.354L160.204 254.332L149.099 253.829L148.341 265.32L155.171 268.17L171.639 266.306L172.405 254.693C172.129 254.82 171.826 254.88 171.522 254.866L160.202 254.354Z" fill="black"/>
<path d="M157.057 246.136L160.733 253.598L161.436 253.63L161.435 253.657L171.5 254.113C171.677 254.121 171.853 254.077 172.005 253.987C172.157 253.898 172.276 253.766 172.348 253.611C172.419 253.456 172.44 253.284 172.406 253.12C172.371 252.955 172.285 252.805 172.157 252.689L160.419 244.336L157.057 246.136Z" fill="black"/>
<path d="M19.8566 200.651C23.7327 200.651 26.875 197.696 26.875 194.051C26.875 190.406 23.7327 187.451 19.8566 187.451C15.9805 187.451 12.8383 190.406 12.8383 194.051C12.8383 197.696 15.9805 200.651 19.8566 200.651Z" fill="#1D1D1B"/>
<path d="M63.972 200.651C67.8481 200.651 70.9903 197.696 70.9903 194.051C70.9903 190.406 67.8481 187.451 63.972 187.451C60.0958 187.451 56.9536 190.406 56.9536 194.051C56.9536 197.696 60.0958 200.651 63.972 200.651Z" fill="#1D1D1B"/>
<path d="M83.0217 200.651C86.8979 200.651 90.0401 197.696 90.0401 194.051C90.0401 190.406 86.8979 187.451 83.0217 187.451C79.1456 187.451 76.0034 190.406 76.0034 194.051C76.0034 197.696 79.1456 200.651 83.0217 200.651Z" fill="#1D1D1B"/>
<path d="M97.239 185.938C97.109 185.752 96.9311 185.599 96.7216 185.494C96.5122 185.39 96.278 185.336 96.0408 185.339H35.1466C34.7477 185.339 34.3652 185.19 34.0831 184.925C33.8011 184.66 33.6426 184.3 33.6426 183.925V168.124C33.6426 167.749 33.4842 167.389 33.2021 167.124C32.9201 166.859 32.5376 166.71 32.1387 166.71H14.3421C14.1091 166.709 13.8791 166.759 13.6703 166.857C13.4615 166.954 13.2796 167.096 13.139 167.271L3.11277 179.767C2.91554 180.011 2.80977 180.31 2.81198 180.616V190.987C2.81198 191.362 2.97043 191.722 3.25248 191.987C3.53452 192.252 3.91705 192.401 4.31592 192.401H11.9509C12.3485 190.708 13.3489 189.193 14.7864 188.107C16.224 187.022 18.0127 186.43 19.8566 186.43C21.7005 186.43 23.4891 187.022 24.9267 188.107C26.3643 189.193 27.3646 190.708 27.7622 192.401H56.0663C56.4639 190.708 57.4643 189.193 58.9018 188.107C60.3394 187.022 62.1281 186.43 63.972 186.43C65.8159 186.43 67.6045 187.022 69.0421 188.107C70.4797 189.193 71.48 190.708 71.8776 192.401H75.1161C75.5137 190.708 76.5141 189.193 77.9517 188.107C79.3892 187.022 81.1779 186.43 83.0218 186.43C84.8657 186.43 86.6544 187.022 88.0919 188.107C89.5295 189.193 90.5298 190.708 90.9275 192.401H94.7976C94.9691 192.405 95.1397 192.376 95.2989 192.316C97.1086 191.623 99.6152 189.54 97.239 185.938ZM27.3762 179.673H8.82772L15.0941 171.188H27.3762V179.673Z" fill="#595353"/>
<path d="M116.409 182.874L107.681 164.909C107.783 164.405 107.707 163.884 107.465 163.425C107.224 162.966 106.83 162.593 106.343 162.363L51.9405 137.016C51.3448 136.738 50.6563 136.695 50.0264 136.894C49.3965 137.094 48.8769 137.521 48.5817 138.081L40.0193 154.354C39.7241 154.914 39.6777 155.562 39.8902 156.154C40.1026 156.746 40.5566 157.235 41.1522 157.512L49.6745 161.482L46.0952 169.967C45.5532 170.077 45.05 170.315 44.6334 170.659C44.2167 171.003 43.9002 171.442 43.7139 171.933L39.4077 183.298C39.1178 184.064 39.1634 184.907 39.5343 185.641C39.9051 186.375 40.571 186.941 41.3854 187.213C42.1997 187.486 43.0959 187.443 43.8766 187.094C44.6574 186.745 45.2589 186.119 45.5487 185.353L49.845 173.997C50.0267 173.519 50.0792 173.006 49.9979 172.504C49.9165 172.002 49.7037 171.527 49.3788 171.122L52.8178 162.957L95.5545 182.864C96.1502 183.142 96.8387 183.186 97.4686 182.986C98.0985 182.786 98.6181 182.359 98.9133 181.799L105.731 168.831L113.216 184.246C113.409 184.644 113.763 184.953 114.199 185.106C114.635 185.259 115.118 185.243 115.542 185.061C115.965 184.879 116.295 184.547 116.457 184.136C116.62 183.726 116.603 183.272 116.409 182.874Z" fill="#1D1D1B"/>
<path d="M230.945 137.09V158.09H226.085V140.99H221.885V137.09H230.945ZM243.593 158.45C241.853 158.45 240.303 158.02 238.943 157.16C237.583 156.3 236.513 155.06 235.733 153.44C234.973 151.8 234.593 149.85 234.593 147.59C234.593 145.33 234.973 143.39 235.733 141.77C236.513 140.13 237.583 138.88 238.943 138.02C240.303 137.16 241.853 136.73 243.593 136.73C245.333 136.73 246.883 137.16 248.243 138.02C249.603 138.88 250.663 140.13 251.423 141.77C252.203 143.39 252.593 145.33 252.593 147.59C252.593 149.85 252.203 151.8 251.423 153.44C250.663 155.06 249.603 156.3 248.243 157.16C246.883 158.02 245.333 158.45 243.593 158.45ZM243.593 154.34C244.873 154.34 245.873 153.79 246.593 152.69C247.333 151.59 247.703 149.89 247.703 147.59C247.703 145.29 247.333 143.59 246.593 142.49C245.873 141.39 244.873 140.84 243.593 140.84C242.333 140.84 241.333 141.39 240.593 142.49C239.873 143.59 239.513 145.29 239.513 147.59C239.513 149.89 239.873 151.59 240.593 152.69C241.333 153.79 242.333 154.34 243.593 154.34ZM257.363 152.51C258.203 152.51 258.893 152.78 259.433 153.32C259.973 153.84 260.243 154.53 260.243 155.39C260.243 155.79 260.193 156.19 260.093 156.59C259.993 156.99 259.773 157.59 259.433 158.39L257.723 162.71H254.753L256.073 157.94C255.573 157.74 255.173 157.42 254.873 156.98C254.593 156.52 254.453 155.99 254.453 155.39C254.453 154.53 254.723 153.84 255.263 153.32C255.823 152.78 256.523 152.51 257.363 152.51ZM271.044 158.45C269.304 158.45 267.754 158.02 266.394 157.16C265.034 156.3 263.964 155.06 263.184 153.44C262.424 151.8 262.044 149.85 262.044 147.59C262.044 145.33 262.424 143.39 263.184 141.77C263.964 140.13 265.034 138.88 266.394 138.02C267.754 137.16 269.304 136.73 271.044 136.73C272.784 136.73 274.334 137.16 275.694 138.02C277.054 138.88 278.114 140.13 278.874 141.77C279.654 143.39 280.044 145.33 280.044 147.59C280.044 149.85 279.654 151.8 278.874 153.44C278.114 155.06 277.054 156.3 275.694 157.16C274.334 158.02 272.784 158.45 271.044 158.45ZM271.044 154.34C272.324 154.34 273.324 153.79 274.044 152.69C274.784 151.59 275.154 149.89 275.154 147.59C275.154 145.29 274.784 143.59 274.044 142.49C273.324 141.39 272.324 140.84 271.044 140.84C269.784 140.84 268.784 141.39 268.044 142.49C267.324 143.59 266.964 145.29 266.964 147.59C266.964 149.89 267.324 151.59 268.044 152.69C268.784 153.79 269.784 154.34 271.044 154.34ZM291.405 158.45C289.665 158.45 288.115 158.02 286.755 157.16C285.395 156.3 284.325 155.06 283.545 153.44C282.785 151.8 282.405 149.85 282.405 147.59C282.405 145.33 282.785 143.39 283.545 141.77C284.325 140.13 285.395 138.88 286.755 138.02C288.115 137.16 289.665 136.73 291.405 136.73C293.145 136.73 294.695 137.16 296.055 138.02C297.415 138.88 298.475 140.13 299.235 141.77C300.015 143.39 300.405 145.33 300.405 147.59C300.405 149.85 300.015 151.8 299.235 153.44C298.475 155.06 297.415 156.3 296.055 157.16C294.695 158.02 293.145 158.45 291.405 158.45ZM291.405 154.34C292.685 154.34 293.685 153.79 294.405 152.69C295.145 151.59 295.515 149.89 295.515 147.59C295.515 145.29 295.145 143.59 294.405 142.49C293.685 141.39 292.685 140.84 291.405 140.84C290.145 140.84 289.145 141.39 288.405 142.49C287.685 143.59 287.325 145.29 287.325 147.59C287.325 149.89 287.685 151.59 288.405 152.69C289.145 153.79 290.145 154.34 291.405 154.34ZM311.767 158.45C310.027 158.45 308.477 158.02 307.117 157.16C305.757 156.3 304.687 155.06 303.907 153.44C303.147 151.8 302.767 149.85 302.767 147.59C302.767 145.33 303.147 143.39 303.907 141.77C304.687 140.13 305.757 138.88 307.117 138.02C308.477 137.16 310.027 136.73 311.767 136.73C313.507 136.73 315.057 137.16 316.417 138.02C317.777 138.88 318.837 140.13 319.597 141.77C320.377 143.39 320.767 145.33 320.767 147.59C320.767 149.85 320.377 151.8 319.597 153.44C318.837 155.06 317.777 156.3 316.417 157.16C315.057 158.02 313.507 158.45 311.767 158.45ZM311.767 154.34C313.047 154.34 314.047 153.79 314.767 152.69C315.507 151.59 315.877 149.89 315.877 147.59C315.877 145.29 315.507 143.59 314.767 142.49C314.047 141.39 313.047 140.84 311.767 140.84C310.507 140.84 309.507 141.39 308.767 142.49C308.047 143.59 307.687 145.29 307.687 147.59C307.687 149.89 308.047 151.59 308.767 152.69C309.507 153.79 310.507 154.34 311.767 154.34ZM188.226 178.71C190.246 178.71 191.846 179.31 193.026 180.51C194.226 181.69 194.826 183.47 194.826 185.85V195.09H190.146V186.57C190.146 185.29 189.876 184.34 189.336 183.72C188.816 183.08 188.066 182.76 187.086 182.76C185.986 182.76 185.116 183.12 184.476 183.84C183.836 184.54 183.516 185.59 183.516 186.99V195.09H178.836V186.57C178.836 184.03 177.816 182.76 175.776 182.76C174.696 182.76 173.836 183.12 173.196 183.84C172.556 184.54 172.236 185.59 172.236 186.99V195.09H167.556V178.95H172.026V180.81C172.626 180.13 173.356 179.61 174.216 179.25C175.096 178.89 176.056 178.71 177.096 178.71C178.236 178.71 179.266 178.94 180.186 179.4C181.106 179.84 181.846 180.49 182.406 181.35C183.066 180.51 183.896 179.86 184.896 179.4C185.916 178.94 187.026 178.71 188.226 178.71ZM199.02 178.95H203.7V195.09H199.02V178.95ZM201.36 176.7C200.5 176.7 199.8 176.45 199.26 175.95C198.72 175.45 198.45 174.83 198.45 174.09C198.45 173.35 198.72 172.73 199.26 172.23C199.8 171.73 200.5 171.48 201.36 171.48C202.22 171.48 202.92 171.72 203.46 172.2C204 172.68 204.27 173.28 204.27 174C204.27 174.78 204 175.43 203.46 175.95C202.92 176.45 202.22 176.7 201.36 176.7ZM208.044 172.83H212.724V195.09H208.044V172.83ZM217.067 172.83H221.747V195.09H217.067V172.83ZM226.091 178.95H230.771V195.09H226.091V178.95ZM228.431 176.7C227.571 176.7 226.871 176.45 226.331 175.95C225.791 175.45 225.521 174.83 225.521 174.09C225.521 173.35 225.791 172.73 226.331 172.23C226.871 171.73 227.571 171.48 228.431 171.48C229.291 171.48 229.991 171.72 230.531 172.2C231.071 172.68 231.341 173.28 231.341 174C231.341 174.78 231.071 175.43 230.531 175.95C229.991 176.45 229.291 176.7 228.431 176.7ZM242.794 195.33C241.094 195.33 239.564 194.98 238.204 194.28C236.864 193.56 235.814 192.57 235.054 191.31C234.294 190.05 233.914 188.62 233.914 187.02C233.914 185.42 234.294 183.99 235.054 182.73C235.814 181.47 236.864 180.49 238.204 179.79C239.564 179.07 241.094 178.71 242.794 178.71C244.494 178.71 246.014 179.07 247.354 179.79C248.694 180.49 249.744 181.47 250.504 182.73C251.264 183.99 251.644 185.42 251.644 187.02C251.644 188.62 251.264 190.05 250.504 191.31C249.744 192.57 248.694 193.56 247.354 194.28C246.014 194.98 244.494 195.33 242.794 195.33ZM242.794 191.49C243.994 191.49 244.974 191.09 245.734 190.29C246.514 189.47 246.904 188.38 246.904 187.02C246.904 185.66 246.514 184.58 245.734 183.78C244.974 182.96 243.994 182.55 242.794 182.55C241.594 182.55 240.604 182.96 239.824 183.78C239.044 184.58 238.654 185.66 238.654 187.02C238.654 188.38 239.044 189.47 239.824 190.29C240.604 191.09 241.594 191.49 242.794 191.49ZM264.582 178.71C266.582 178.71 268.192 179.31 269.412 180.51C270.652 181.71 271.272 183.49 271.272 185.85V195.09H266.592V186.57C266.592 185.29 266.312 184.34 265.752 183.72C265.192 183.08 264.382 182.76 263.322 182.76C262.142 182.76 261.202 183.13 260.502 183.87C259.802 184.59 259.452 185.67 259.452 187.11V195.09H254.772V178.95H259.242V180.84C259.862 180.16 260.632 179.64 261.552 179.28C262.472 178.9 263.482 178.71 264.582 178.71ZM290.941 188.76L288.691 190.98V195.09H284.011V172.83H288.691V185.43L295.531 178.95H301.111L294.391 185.79L301.711 195.09H296.041L290.941 188.76ZM319.762 178.95V192.39C319.762 195.35 318.992 197.55 317.452 198.99C315.912 200.43 313.662 201.15 310.702 201.15C309.142 201.15 307.662 200.96 306.262 200.58C304.862 200.2 303.702 199.65 302.782 198.93L304.642 195.57C305.322 196.13 306.182 196.57 307.222 196.89C308.262 197.23 309.302 197.4 310.342 197.4C311.962 197.4 313.152 197.03 313.912 196.29C314.692 195.57 315.082 194.47 315.082 192.99V192.3C313.862 193.64 312.162 194.31 309.982 194.31C308.502 194.31 307.142 193.99 305.902 193.35C304.682 192.69 303.712 191.77 302.992 190.59C302.272 189.41 301.912 188.05 301.912 186.51C301.912 184.97 302.272 183.61 302.992 182.43C303.712 181.25 304.682 180.34 305.902 179.7C307.142 179.04 308.502 178.71 309.982 178.71C312.322 178.71 314.102 179.48 315.322 181.02V178.95H319.762ZM310.912 190.47C312.152 190.47 313.162 190.11 313.942 189.39C314.742 188.65 315.142 187.69 315.142 186.51C315.142 185.33 314.742 184.38 313.942 183.66C313.162 182.92 312.152 182.55 310.912 182.55C309.672 182.55 308.652 182.92 307.852 183.66C307.052 184.38 306.652 185.33 306.652 186.51C306.652 187.69 307.052 188.65 307.852 189.39C308.652 190.11 309.672 190.47 310.912 190.47Z" fill="#50514F"/>
</svg>
