<svg width="68" height="100" viewBox="0 0 68 100" fill="none" xmlns="http://www.w3.org/2000/svg">
<path d="M65.7344 25.1244L59.2791 98.5147H40.0469L33.61 35.3264L27.1738 98.5147H7.94233L1.48633 25.1244L4.00785 14.4134L5.33613 8.76843H61.883L65.7344 25.1244Z" fill="#515A5E"/>
<path d="M45.0901 98.5152H40.0463L33.6094 35.3269C39.4131 35.3269 43.2781 67.0996 45.0901 98.5152Z" fill="#343C3F"/>
<path d="M13.6194 98.515H7.94234L1.48633 25.1246L4.00785 14.4137L13.4965 16.434C8.85329 21.0772 7.42735 54.9549 13.6194 98.515Z" fill="#343C3F"/>
<path d="M5.33955 8.7688H16.3358C16.3358 16.0526 8.32188 22.7352 1.48975 25.1255L5.33955 8.7688Z" fill="#343C3F"/>
<path d="M65.7338 25.1255C58.9002 22.7352 50.8862 16.0518 50.8862 8.7688H61.8825L65.7338 25.1255Z" fill="#343C3F"/>
<path d="M5.33301 1.4856H61.8822V8.76863H5.33301V1.4856Z" fill="#F0C398"/>
<path d="M5.33301 1.4856H18.5189V8.76863H5.33301V1.4856Z" fill="#D89D6C"/>
<path d="M67.1783 24.7841L63.3698 8.60901V1.48544C63.3698 0.665283 62.7052 0 61.8843 0H22.3923C21.5713 0 20.9068 0.665283 20.9068 1.48544C20.9068 2.3056 21.5713 2.97012 22.3923 2.97012H24.1325V7.28378H12.1078V2.97012H16.4513C17.2714 2.97012 17.9359 2.3056 17.9359 1.48544C17.9359 0.665283 17.2714 0 16.4513 0H5.33523C4.51507 0 3.84978 0.665283 3.84978 1.48544V8.59299L0.0396616 24.7841C0.00304046 24.9382 -0.00840364 25.0977 0.00609222 25.2548L6.46132 98.645C6.52846 99.4118 7.17086 100 7.94066 100H27.1721C27.9343 100 28.5728 99.4232 28.6499 98.6656L33.6082 49.9802L35.7902 71.3898C35.8734 72.2061 36.5997 72.7997 37.4184 72.7173C38.2339 72.6341 38.8283 71.9048 38.7451 71.0892L35.0853 35.1761C35.0082 34.4177 34.3704 33.8409 33.6082 33.8409C32.8461 33.8409 32.2082 34.4177 32.1304 35.1761L25.8308 97.0299H9.30099L3.06319 26.1131C6.49947 24.7238 9.89608 22.4762 12.5252 19.8273C15.5304 16.7984 17.3035 13.517 17.7193 10.2531H35.5324V23.6366H30.2032C29.3831 23.6366 28.7178 24.3011 28.7178 25.1213C28.7178 25.9415 29.3831 26.6068 30.2032 26.6068H37.0171C37.8372 26.6068 38.5025 25.9415 38.5025 25.1213V10.2539H49.4987C49.9146 13.5178 51.6876 16.7992 54.6936 19.828C57.3219 22.477 60.7193 24.7246 64.1556 26.1139L57.9178 97.0299H41.3872L39.3448 76.9844C39.2624 76.1681 38.533 75.573 37.7174 75.6569C36.9011 75.7401 36.3068 76.4694 36.3899 77.285L38.5681 98.6656C38.6459 99.4232 39.2837 100 40.0459 100H59.2773C60.0479 100 60.6895 99.4118 60.7567 98.645L67.2127 25.2548C67.2264 25.0969 67.215 24.9382 67.1783 24.7841ZM60.3996 7.28378H58.0818V2.97012H60.3996V7.28378ZM42.7147 7.28378V2.97012H55.1117V7.28378H42.7147ZM6.82067 2.97012H9.13772V7.28378H6.82067V2.97012ZM3.60106 22.6173L6.51092 10.2539H14.7095C13.8466 15.1878 8.8745 19.9982 3.60106 22.6173ZM27.1027 7.28378V2.97012H39.7446V7.28378H27.1027ZM52.5078 10.2539H60.7048L63.6162 22.6173C58.3435 19.9982 53.3707 15.1878 52.5078 10.2539Z" fill="black"/>
<path d="M16.7931 22.8516C16.7893 22.8516 16.7855 22.8516 16.7809 22.8516C15.9607 22.8584 15.3016 23.5283 15.3077 24.3485L15.8455 93.2512C15.8524 94.0675 16.5162 94.7244 17.331 94.7244H17.3424C18.1626 94.7183 18.8225 94.0477 18.8164 93.2275L18.2778 24.3256C18.2717 23.5092 17.6079 22.8516 16.7931 22.8516Z" fill="black"/>
<path d="M49.882 94.7244C50.6968 94.7244 51.3606 94.0675 51.3674 93.2512L51.9053 24.3485C51.9114 23.5283 51.2515 22.8584 50.4321 22.8516C50.4282 22.8516 50.4237 22.8516 50.4198 22.8516C49.605 22.8516 48.9413 23.5092 48.9352 24.3256L48.3965 93.2275C48.3904 94.0477 49.0504 94.7183 49.8705 94.7244H49.882Z" fill="black"/>
<path d="M37.5212 6.58173C37.6158 6.56418 37.7097 6.53443 37.7982 6.49857C37.8875 6.46119 37.9744 6.41541 38.0538 6.36201C38.1369 6.30631 38.2125 6.24528 38.2796 6.17737C38.5566 5.90043 38.7152 5.51819 38.7152 5.12604C38.7152 4.73618 38.5566 4.35166 38.2796 4.077C38.2125 4.00757 38.1369 3.94577 38.0538 3.89237C37.9744 3.83896 37.8875 3.79166 37.7982 3.7558C37.7097 3.71841 37.6158 3.69019 37.5212 3.67111C37.329 3.63144 37.1314 3.63144 36.9406 3.67111C36.846 3.69019 36.753 3.71841 36.6622 3.7558C36.5729 3.79166 36.4852 3.83896 36.4066 3.89237C36.325 3.94577 36.2479 4.00757 36.1808 4.077C36.1113 4.14414 36.0495 4.22119 35.9961 4.30206C35.9404 4.3837 35.8954 4.46915 35.8596 4.55765C35.8222 4.6492 35.7924 4.74228 35.7741 4.83689C35.755 4.93225 35.7451 5.02915 35.7451 5.12604C35.7451 5.51819 35.903 5.90043 36.1808 6.17737C36.2479 6.24528 36.325 6.30631 36.4066 6.36201C36.4852 6.41541 36.5729 6.46119 36.6622 6.49857C36.753 6.53443 36.846 6.56418 36.9406 6.58173C37.036 6.60157 37.1329 6.61149 37.2298 6.61149C37.3267 6.61149 37.4244 6.60157 37.5212 6.58173Z" fill="black"/>
</svg>
