<svg width="99" height="109" viewBox="0 0 99 109" fill="none" xmlns="http://www.w3.org/2000/svg">
<path d="M52.17 102.037C35.5285 103.96 18.5279 94.9805 13.5355 92.416H9.91351C14.9059 97.7053 26.8893 110.891 52.17 108.771C74.8008 106.873 86.122 95.2955 89.7277 88.0828H98.0484L83.5605 78.4659L67.5908 88.0828H76.9202C74.8897 92.5493 68.8114 100.113 52.17 102.037Z" fill="#4CAF50"/>
<path d="M43.663 7.6571C59.2593 5.54131 75.3967 14.2333 80.1343 16.7139L83.5366 16.6685C78.7481 11.4858 67.2451 -1.44056 43.5371 0.978632C22.3142 3.14425 11.8958 14.7675 8.64355 21.9653L0.827414 22.0695L14.6164 31.4249L29.438 21.688L20.6744 21.8048C22.4983 17.3501 28.0666 9.77289 43.663 7.6571Z" fill="#4CAF50"/>
<path d="M52.17 100.128C35.5285 102.052 18.5279 93.0722 13.5355 90.5077H9.91351C14.9059 95.797 26.8893 108.983 52.17 106.863C74.8008 104.965 86.122 93.3872 89.7277 86.1745H98.0484L83.5605 76.5576L67.5908 86.1745H76.9202C74.8897 90.641 68.8114 98.205 52.17 100.128Z" fill="#388E3C"/>
<path d="M43.6989 9.56549C59.2952 7.4497 75.4326 16.1417 80.1702 18.6223L83.5725 18.5769C78.784 13.3942 67.281 0.467832 43.573 2.88702C22.3501 5.05264 11.9317 16.6758 8.67945 23.8736L0.863318 23.9778L14.6523 33.3332L29.4739 23.5964L20.7103 23.7132C22.5342 19.2585 28.1025 11.6813 43.6989 9.56549Z" fill="#388E3C"/>
<path d="M32.9532 70.191C29.0175 71.6023 20.2014 73.941 16.4231 72.0055C15.2423 71.5713 15.8327 50.8362 15.8327 50.2314C15.8327 49.6266 15.2423 47.6105 14.652 46.6024L40.0376 39.3444C40.0376 40.7556 41.2183 42.3685 41.8087 43.5782C42.4423 44.8766 48.3026 56.4814 50.6641 62.933C47.1219 65.3523 39.3291 69.8281 36.4954 68.3765L31.7103 60.3365L32.9532 70.191Z" fill="#247BA0"/>
<path fill-rule="evenodd" clip-rule="evenodd" d="M67.9315 24.0773C79.1742 29.327 76.4671 27.7213 83.8331 38.2898L76.4198 45.2885L74.8211 44.1056L74.8682 70.8325H46.3611L46.4084 44.1056L44.8095 45.2885L37.3964 38.2898C44.7622 27.7213 42.0553 29.327 53.2978 24.0773C54.3815 24.8857 57.3862 31.3202 60.4291 31.3363C63.5957 31.3531 66.8038 24.9186 67.9315 24.0773Z" fill="#EE5D5D"/>
<path d="M50.5202 75.9354L53.8798 77.4244L59.4626 74.2609L56.3207 68.6398L50.1796 72.1196L46.2236 70.3529C44.4185 69.5531 42.2203 70.1298 41.2165 71.8389C40.473 73.1044 40.5342 74.5907 41.1785 75.7434C41.5718 76.4471 42.187 77.0339 42.978 77.3846L43.9791 77.8285C45.3253 75.6849 48.1041 74.8648 50.5202 75.9354ZM61.6958 72.9955C62.0813 72.777 62.4993 72.6822 62.9133 72.6766C62.8863 72.5707 62.8683 72.4629 62.8123 72.3628L60.2988 67.8659C59.9518 67.2451 59.1704 67.025 58.5538 67.3744L57.4373 68.0071L60.5792 73.6282L61.6958 72.9955ZM66.5827 79.1082L64.0691 74.6113C63.7221 73.9905 62.9407 73.7704 62.3242 74.1197L61.2076 74.7524L64.9779 81.4978L66.0945 80.8651C66.7111 80.5157 66.9297 79.729 66.5827 79.1082ZM53.9499 78.865L50.0041 77.1165C48.199 76.3167 46.0008 76.8934 44.9971 78.6025C44.2535 79.868 44.3045 81.3361 44.9488 82.4888C45.3422 83.1925 45.9573 83.7793 46.7483 84.13L52.0252 86.4689C52.7534 86.7917 53.5463 86.9393 54.3409 86.9001C55.1356 86.8609 55.9103 86.6359 56.6037 86.243L63.8614 82.1305L60.091 75.3851L53.9499 78.865Z" fill="#029C66"/>
</svg>
