<svg width="90" height="89" viewBox="0 0 90 89" fill="none" xmlns="http://www.w3.org/2000/svg">
<path d="M88.6631 71.2388C88.6631 71.2388 86.676 73.6248 82.9852 74.2916C81.5522 74.5484 79.8644 74.5463 77.9384 74.0471L66.9171 34.2141V81.7376C66.9171 81.7376 61.5976 87.355 45 87.355C37.8287 87.355 32.7619 86.3072 29.3205 85.1145C24.7975 83.5496 23.0809 81.7376 23.0809 81.7376V34.2141L12.0603 74.0471C8.89276 74.869 6.37277 74.3431 4.57513 73.5342C2.45615 72.5825 1.33691 71.2388 1.33691 71.2388C2.6127 43.1515 13.0813 18.8944 13.0813 18.8944C19.2103 12.7654 28.8089 9.35071 28.8089 9.35071H61.1911C61.1911 9.35071 70.7884 12.7654 76.9167 18.8944C76.9167 18.8944 87.3853 43.1515 88.6631 71.2388Z" fill="#247BA0"/>
<path d="M33.8812 9.35071L32.8951 14.1943C23.5726 17.4222 15.7345 20.9063 13.4699 32.7509C11.2061 44.5949 4.57513 73.5342 4.57513 73.5342C2.45615 72.5825 1.33691 71.2388 1.33691 71.2388C2.6127 43.1515 13.0813 18.8944 13.0813 18.8944C19.2103 12.7654 28.8089 9.35071 28.8089 9.35071H33.8812Z" fill="#14455A"/>
<path d="M29.3203 35.538V85.1145C24.7974 83.5496 23.0808 81.7376 23.0808 81.7376V34.2142C23.0808 29.9899 21.3662 26.041 21.3662 26.041C21.3662 26.041 29.3203 27.1314 29.3203 35.538Z" fill="#14455A"/>
<path d="M62.362 6.38165C62.362 10.2131 52.6597 18.3004 52.6597 18.3004L45.0022 10.7247L45.0001 10.7226L44.9981 10.7247L37.3385 18.3004C37.3385 18.3004 27.6362 10.2131 27.6362 6.38165C27.6362 2.80286 34.1024 1.50716 43.0768 1.35197H43.0844C43.7099 1.34167 44.3499 1.33618 45.0001 1.33618C54.9592 1.33618 62.362 2.55154 62.362 6.38165Z" fill="#247BA0"/>
<path d="M54.688 6.53279C52.7208 9.04454 49.1207 10.7248 45.0022 10.7248H44.9981L37.3385 18.3005C37.3385 18.3005 27.6362 10.2132 27.6362 6.38173C27.6362 2.80293 34.1024 1.50723 43.0768 1.35205H43.0844C51.0989 1.35205 54.688 6.53279 54.688 6.53279Z" fill="#14455A"/>
<path d="M44.9996 14.3454L48.4576 19.3875C48.8009 19.8873 49.4656 20.0459 49.997 19.7555L52.6591 18.2998L44.9976 10.7247L44.9996 14.3454Z" fill="#14455A"/>
<path d="M82.9911 74.2883L82.9842 74.2917C81.5512 74.5485 79.8634 74.5465 77.9374 74.0473L66.916 34.2143C66.916 29.99 68.6326 26.0411 68.6326 26.0411L82.9911 74.2883Z" fill="#14455A"/>
<path d="M81.958 28.8261C81.73 28.1236 80.9768 27.7391 80.2744 27.9664C79.5719 28.1937 79.1874 28.9476 79.4147 29.65C82.0802 37.8774 85.2821 49.8422 86.7075 63.1982C84.1134 65.3432 79.8555 65.5856 76.9915 65.6131L68.256 34.0398C68.302 30.222 69.8428 26.6089 69.8586 26.5739C70.1525 25.8968 69.8421 25.1093 69.1651 24.8154C68.4881 24.5208 67.7012 24.8318 67.4066 25.5089C67.3318 25.6805 65.5801 29.7626 65.5801 34.2149V34.2162V81.1402C64.2213 82.2368 58.8819 85.7689 46.3362 86.0051V13.9259L51.7195 19.2508C51.9791 19.5069 52.319 19.6367 52.6595 19.6367C52.963 19.6367 53.2665 19.5344 53.5151 19.327C53.6167 19.2426 56.0234 17.2307 58.4706 14.7079C59.8961 13.2385 60.9309 12.006 61.6855 10.9753C64.1739 11.9792 71.052 15.0197 75.7885 19.658C76.0405 20.2615 76.7546 22.0084 77.7036 24.6423C77.8999 25.1868 78.4135 25.526 78.9608 25.526C79.1112 25.526 79.2643 25.5006 79.414 25.4464C80.1082 25.1965 80.4687 24.4308 80.2187 23.736C79.0013 20.357 78.1787 18.444 78.1444 18.3643C78.0771 18.2098 77.9816 18.0684 77.8622 17.9489C72.9753 13.0627 66.0979 9.8925 63.1089 8.66341C63.6974 7.43088 63.6994 6.73256 63.6994 6.38237C63.6994 3.89465 61.6951 2.12654 57.7428 1.12747C54.7421 0.368729 50.5735 0 44.9993 0C39.4244 0 35.2565 0.368729 32.2559 1.12747C28.3035 2.12654 26.2992 3.89465 26.2992 6.38237C26.2992 6.73325 26.3013 7.43088 26.8897 8.66409C23.9001 9.89319 17.0219 13.0634 12.1358 17.9489C12.0163 18.0684 11.9209 18.2098 11.8536 18.3643C11.7458 18.6156 9.17153 24.6156 6.40366 34.1613C3.85002 42.9675 0.666734 56.5377 0.00137425 71.1777C-0.0137319 71.5114 0.0961313 71.8382 0.309678 72.0943C0.45868 72.2736 3.47305 75.8029 8.91197 75.8022C9.98039 75.8022 11.1436 75.6656 12.3953 75.3415C12.8574 75.2213 13.2207 74.8643 13.3484 74.4035L21.744 44.0572V68.4565C21.744 69.1946 22.3428 69.7934 23.0809 69.7934C23.819 69.7934 24.4171 69.1946 24.4171 68.4565V34.2286C24.4171 34.2238 24.4178 34.2197 24.4178 34.2149C24.4178 29.7633 22.6669 25.6805 22.592 25.5089C22.2981 24.8325 21.5119 24.5222 20.8349 24.8161C20.1579 25.1093 19.8468 25.8955 20.1393 26.5732C20.1558 26.6096 21.6959 30.2206 21.7426 34.0384L13.0064 65.6131C10.1445 65.5856 5.89005 65.3432 3.2959 63.2023C5.71976 40.6302 13.2584 21.9466 14.2101 19.6573C18.9459 15.0197 25.8241 11.9799 28.3131 10.9753C29.0678 12.0067 30.1025 13.2385 31.528 14.7079C33.9752 17.2307 36.3819 19.2426 36.4835 19.327C37.0123 19.7678 37.7895 19.7349 38.2791 19.2508L43.6631 13.9245V86.0051C31.2341 85.7655 25.7959 82.2169 24.4178 81.1313V73.8034C24.4178 73.0653 23.819 72.4665 23.0809 72.4665C22.3428 72.4665 21.744 73.0653 21.744 73.8034V81.7376C21.744 82.0795 21.8752 82.4084 22.1107 82.6563C22.3441 82.9028 28.0227 88.6913 45 88.6913C61.9773 88.6913 67.6545 82.9028 67.888 82.6563C68.1228 82.4084 68.2539 82.0795 68.2539 81.7376V44.0572L76.6496 74.4035C76.7773 74.8643 77.1405 75.2213 77.6026 75.3415C85.2299 77.319 89.5118 72.3086 89.6903 72.0943C89.9039 71.8382 90.0137 71.5114 89.9986 71.1777C89.2316 54.3219 85.2024 38.8428 81.958 28.8261ZM12.2697 68.2759L10.9843 72.9218C8.77258 73.3523 6.70235 73.1017 4.82025 72.1726C3.80676 71.6727 3.08785 71.0836 2.6992 70.7217C2.77474 69.2146 2.87842 67.7184 3.00408 66.2352C5.90653 67.8976 9.53751 68.2162 12.2697 68.2759ZM37.2773 16.4816C36.3675 15.6796 34.9022 14.3475 33.4472 12.8471C29.2957 8.56728 28.973 6.81702 28.973 6.38237C28.973 5.26726 30.5344 2.67311 44.9993 2.67311C50.2755 2.67311 54.3432 3.02536 57.0877 3.71887C58.8847 4.17343 61.0263 5.00427 61.0263 6.38237C61.0263 6.81633 60.7043 8.56247 56.5665 12.832C55.1088 14.3358 53.6353 15.6761 52.7213 16.4809L47.9745 11.7863C51.1777 11.1855 53.9648 9.62334 55.7405 7.35672C56.1958 6.77582 56.0941 5.93536 55.5132 5.4808C54.9323 5.02487 54.0919 5.12718 53.6366 5.70808C51.8596 7.97607 48.5541 9.38507 45.0089 9.38713C45.0027 9.38713 44.9973 9.38713 44.9911 9.38713C41.4466 9.38438 38.1404 7.97539 36.3606 5.7074C35.9047 5.1265 35.0649 5.02556 34.484 5.4808C33.9031 5.93674 33.8022 6.77719 34.2574 7.35741C36.0358 9.62334 38.8229 11.1848 42.0248 11.7856L37.2773 16.4816ZM79.0137 72.9211L77.7283 68.2759C80.4611 68.2162 84.0948 67.8976 86.9973 66.2338C87.123 67.7177 87.2253 69.2159 87.3008 70.7259C86.367 71.6013 83.5085 73.7904 79.0137 72.9211Z" fill="black"/>
<path d="M86.5426 69.0141C86.3071 67.8797 84.7662 67.5542 84.1208 68.5334C83.7884 69.0367 83.8338 69.7096 84.2334 70.1628C84.5898 70.5679 85.1755 70.7121 85.6815 70.5322C86.3016 70.3125 86.6634 69.6568 86.5426 69.0141Z" fill="black"/>
<path d="M3.45551 69.5365C3.56881 70.0659 3.98423 70.4855 4.51844 70.5871C5.07325 70.6929 5.65072 70.4251 5.92744 69.9341C6.51246 68.8973 5.49004 67.6249 4.34746 68.0067C3.71712 68.2168 3.3223 68.8808 3.45551 69.5365Z" fill="black"/>
<path d="M50.3123 21.8311C50.2093 21.2942 49.7671 20.8712 49.2315 20.7771C48.6925 20.6824 48.1384 20.9385 47.8569 21.4061C47.5596 21.9012 47.6214 22.5487 48.0038 22.9806C48.376 23.4015 48.994 23.5422 49.5137 23.328C50.0946 23.0884 50.4373 22.4477 50.3123 21.8311Z" fill="black"/>
<path d="M49.7445 78.4651C49.2233 78.1136 48.5016 78.1884 48.0581 78.6306C47.6935 78.9952 47.5712 79.5535 47.7491 80.0369C47.9434 80.5669 48.4694 80.9274 49.0359 80.913C49.5989 80.8986 50.1029 80.5203 50.2746 79.9847C50.4531 79.4305 50.2395 78.783 49.7445 78.4651Z" fill="black"/>
<path d="M50.3123 68.0966C50.2114 67.559 49.7671 67.1346 49.2315 67.0406C48.6925 66.9465 48.1384 67.2019 47.8569 67.6702C47.5596 68.1646 47.6214 68.8121 48.0038 69.244C48.376 69.6649 48.994 69.8057 49.5137 69.5915C50.0919 69.3532 50.44 68.7119 50.3123 68.0966Z" fill="black"/>
<path d="M49.9484 55.8455C49.0846 54.9563 47.5472 55.7219 47.675 56.929C47.734 57.4934 48.157 57.97 48.7118 58.0949C49.279 58.222 49.8791 57.9556 50.1654 57.4509C50.4573 56.9345 50.3707 56.265 49.9484 55.8455Z" fill="black"/>
<path d="M50.3121 44.9636C50.2133 44.4397 49.7848 44.0181 49.2643 43.9144C48.7033 43.8018 48.1162 44.0737 47.8375 44.5722C47.571 45.0474 47.626 45.6509 47.97 46.0725C48.3449 46.5326 49.0027 46.6871 49.5438 46.4454C50.1055 46.1948 50.4378 45.5713 50.3121 44.9636Z" fill="black"/>
<path d="M50.3134 33.3977C50.2125 32.8614 49.7668 32.4357 49.2326 32.3423C48.6957 32.2483 48.1367 32.5037 47.858 32.972C47.562 33.4691 47.6218 34.1125 48.0049 34.5465C48.3778 34.9681 48.9957 35.1075 49.5148 34.8925C50.0957 34.6522 50.4391 34.015 50.3134 33.3977Z" fill="black"/>
<path d="M43.0586 6.65907H46.9409C47.679 6.65907 48.2778 6.061 48.2778 5.32286C48.2778 4.58472 47.679 3.98596 46.9409 3.98596H43.0586C42.3204 3.98596 41.7217 4.58472 41.7217 5.32286C41.7217 6.061 42.3204 6.65907 43.0586 6.65907Z" fill="black"/>
</svg>
