<svg width="75" height="73" viewBox="0 0 75 73" fill="none" xmlns="http://www.w3.org/2000/svg">
<path d="M37.4065 0C30.0082 0 22.776 2.11277 16.6246 6.07114C10.4731 10.0295 5.67863 15.6557 2.84742 22.2382C0.0162111 28.8207 -0.724567 36.064 0.718771 43.052C2.16211 50.0399 5.72473 56.4588 10.9561 61.4968C16.1875 66.5349 22.8527 69.9658 30.1089 71.3558C37.365 72.7458 44.8862 72.0324 51.7213 69.3059C58.5565 66.5793 64.3986 61.962 68.5089 56.0379C72.6191 50.1138 74.813 43.1489 74.813 36.024C74.8001 26.4737 70.8549 17.3181 63.8426 10.5649C56.8303 3.81183 47.3233 0.0124532 37.4065 0Z" fill="#77BD43"/>
<path d="M37.4065 0C30.0082 0 22.776 2.11277 16.6246 6.07114C10.4731 10.0295 5.67863 15.6557 2.84742 22.2382C0.0162111 28.8207 -0.724567 36.064 0.718771 43.052C2.16211 50.0399 5.72473 56.4588 10.9561 61.4968C16.1875 66.5349 22.8527 69.9658 30.1089 71.3558C37.365 72.7458 44.8862 72.0324 51.7213 69.3059C58.5565 66.5793 64.3986 61.962 68.5089 56.0379C72.6191 50.1138 74.813 43.1489 74.813 36.024C74.8001 26.4737 70.8549 17.3181 63.8426 10.5649C56.8303 3.81183 47.3233 0.0124532 37.4065 0ZM4.78946 22.2244C4.83411 22.358 4.85396 22.4983 4.8481 22.6386C4.8481 23.4104 5.10223 23.787 6.09922 23.8905C7.0962 23.994 7.42853 22.695 8.05409 22.6386C8.67965 22.5821 9.44205 22.6386 9.10972 23.1469C8.7774 23.6552 7.58492 25.1707 8.30823 25.3589C9.03153 25.5472 10.2631 24.7471 10.6345 25.7072C11.0059 26.6674 10.439 27.4957 10.83 27.7405C11.221 27.9852 11.5533 28.7477 11.8661 28.8606C12.1789 28.9736 12.5601 28.3241 12.7849 28.5406C13.0097 28.7571 13.4495 28.983 13.5864 28.9359C13.815 28.7942 14.0279 28.6301 14.2217 28.4465C14.2217 28.4465 15.7758 27.1004 16.5871 27.3828C17.5258 27.7175 18.5185 27.8895 19.5194 27.8911C20.9953 27.9476 21.2202 28.3053 22.178 29.1618C23.1359 30.0184 22.178 29.9431 24.1329 30.1596C26.0878 30.3761 25.0224 32.7953 27.0652 32.9836C28.4972 33.1265 29.8963 33.4887 31.2096 34.0567C32.3923 34.4803 34.3862 35.1203 34.1419 36.3252C33.8975 37.5301 32.187 38.8197 32.187 39.6763C32.187 40.5329 32.402 43.1592 31.5126 43.6581C30.6231 44.157 28.4923 44.797 28.2675 45.6536C28.0427 46.5102 27.896 48.8353 26.7134 49.7013C25.7939 50.4125 24.9668 51.2279 24.2502 52.1299C23.9081 52.5535 22.7254 52.4876 22.1292 53.3347C21.5329 54.1819 20.2818 56.7611 20.6532 57.1C21.0247 57.4389 22.2074 57.4577 21.3961 58.239C20.5848 59.0203 20.8781 60.2346 21.0247 61.0629C21.1713 61.8913 23.4585 61.703 22.9795 62.4843C22.5006 63.2656 18.9134 65.12 18.0924 59.5662C17.2713 54.0125 17.2029 52.5252 17.4179 50.0307C17.633 47.5363 18.1608 42.2743 17.5743 41.8507C16.9879 41.4272 14.3195 42.2743 12.5405 36.5135C10.7616 30.7527 12.7653 32.0234 13.1368 31.5999C13.4341 31.0104 13.61 30.3711 13.6548 29.7172C13.1756 29.8853 12.6543 29.9077 12.1614 29.7814C11.6685 29.6552 11.2277 29.3864 10.8984 29.0112C9.56912 27.6746 8.67965 26.6109 7.57515 26.2814C6.47065 25.952 6.85185 25.0577 5.6887 25.2742C5.03296 25.3365 4.37094 25.2855 3.73382 25.1236C3.96841 24.1447 4.35939 23.1751 4.78946 22.2244ZM43.8869 2.28739C43.9948 2.3744 44.0961 2.46877 44.1899 2.56979C44.1984 2.89036 44.2577 3.2078 44.3658 3.5111C44.5613 4.01941 45.1185 4.76304 45.5876 5.67611C46.0568 6.58918 44.7861 7.05984 43.6328 7.16339C42.4794 7.26693 43.6328 5.69494 43.8283 5.37489C44.0237 5.05484 43.711 4.31121 43.6328 4.04764C43.5546 3.78408 42.8019 3.40755 42.6553 2.92748C42.6479 2.77251 42.6745 2.61777 42.7334 2.4734C42.7924 2.32903 42.8824 2.19828 42.9974 2.08971L43.8869 2.28739ZM71.0694 24.7847L70.395 25.246C67.8048 27.1286 66.7394 26.7427 66.7394 26.7427C66.7394 24.5024 63.2206 20.3323 61.7447 19.5887C60.2687 18.8451 64.4424 25.0013 65.889 26.8462C67.3356 28.6912 68.401 27.844 69.7987 27.524C71.1965 27.2039 68.8213 30.5173 67.2476 32.0423C65.674 33.5672 63.768 33.5766 64.7356 37.1348C65.7033 40.6929 64.071 41.0789 62.7808 41.8413C61.4905 42.6038 62.1161 44.5429 61.1191 44.9665C60.1221 45.3901 61.9695 47.075 58.353 48.8447C54.7365 50.6143 53.9545 49.3812 53.6515 47.9975C53.3485 46.6138 51.6966 46.3973 51.9214 44.5429C52.1462 42.6885 50.6605 40.8435 51.3252 39.9869C51.9899 39.1303 51.3252 35.9299 50.1425 34.6497C48.9598 33.3695 50.1425 32.0893 49.9959 31.4492C49.8493 30.8091 48.8914 31.4492 48.3733 30.7527C47.8553 30.0561 51.032 28.7477 45.7831 30.1691C40.5343 31.5904 40.5343 30.1691 38.6869 28.5312C36.8396 26.8933 37.5824 26.6485 37.4358 23.5516C37.2892 20.4547 39.9478 19.9182 41.0523 18.2615C42.1568 16.6047 43.3493 15.7952 47.6305 15.1551C51.9117 14.515 50.3673 16.2188 50.3673 16.8495C50.3673 17.4802 54.5019 18.4968 54.5019 18.2144C54.5019 17.932 53.9838 16.7177 54.9515 16.8589C55.4695 17.0001 60.4935 17.8002 60.4935 17.8002C62.1356 17.5743 61.9695 15.5975 61.8033 15.2963C61.6371 14.9951 61.1777 14.901 59.7311 15.2963C58.2845 15.6917 57.4439 14.355 57.3657 13.4137C57.2875 12.4724 59.8289 12.2747 60.5424 12.1335C61.2332 12.1131 61.9144 12.2935 62.4973 12.6512C62.6357 12.7031 62.7857 12.72 62.9329 12.7002C63.08 12.6804 63.2194 12.6247 63.3379 12.5383C66.7789 16.0527 69.4132 20.2253 71.0694 24.7847ZM40.9937 5.75142C41.3242 5.18318 41.7245 4.65538 42.1862 4.17943C43.32 3.88762 42.7922 5.41255 42.4598 5.75142C42.1275 6.09029 40.9937 6.04322 40.9937 5.75142ZM60.4349 10.458C60.0146 10.458 59.7116 9.94026 59.4575 9.51667C59.2033 9.09307 58.6853 10.0909 58.5289 10.3921C58.3248 10.8653 58.2378 11.3776 58.2748 11.8888C58.3334 12.4159 57.9424 12.5948 57.6492 12.7736C57.356 12.9525 57.3169 12.7077 57.053 12.5665C56.7891 12.4253 56.1635 12.6512 55.8898 13.2066C55.6161 13.762 55.9876 15.0139 55.8898 15.0328C55.4475 14.9285 55.0569 14.6788 54.7853 14.3268C54.3224 13.6426 53.9913 12.8837 53.8079 12.0865C53.3758 11.3324 52.6846 10.7466 51.853 10.4297C51.1004 10.1756 51.765 11.2487 51.853 11.4464C51.941 11.644 52.9771 12.3312 53.0357 12.8113C53.0944 13.2913 52.0583 14.9857 52.3124 14.3738C52.5665 13.762 51.7944 13.489 51.5793 13.0278C51.3643 12.5665 50.5042 12.0864 49.7711 11.2863C49.038 10.4862 48.735 11.2863 48.2463 11.0322C47.7575 10.778 47.3666 11.3146 46.9169 11.211C46.4673 11.1075 46.6237 11.7099 46.5846 12.2747C46.5455 12.8395 46.3305 12.5665 45.6072 13.216C44.8839 13.8655 45.0207 14.3927 44.6297 14.6374C43.8711 14.9979 43.0317 15.1725 42.1862 15.1457C40.9741 15.1457 41.0426 14.6092 41.0817 14.0067C41.1396 13.2527 41.3418 12.5155 41.6779 11.8323C42.0395 11.0887 44.0042 11.4369 44.4049 11.3334C44.8057 11.2299 44.5613 10.618 44.5613 9.89319C44.5613 9.16838 43.5839 8.79185 43.2418 8.5377C42.8997 8.28355 43.6328 8.25531 44.5222 8.03881C44.8636 7.98363 45.1886 7.8584 45.4753 7.67163C45.762 7.48486 46.0037 7.2409 46.1839 6.9563C46.6801 6.30663 47.2845 5.74048 47.9726 5.28076C48.4711 4.94189 48.95 4.81952 49.3019 4.57478C49.6538 4.33004 50.3673 4.99836 50.3673 4.99836L51.9898 4.74421C55.2045 6.1505 58.188 8.00257 60.8454 10.2415C60.7281 10.3262 60.6402 10.458 60.4349 10.458ZM25.4818 3.71818C25.764 3.98041 25.9783 4.30285 26.1073 4.65949C26.3321 5.45019 25.5502 6.6739 26.2735 7.05043C26.9968 7.42695 27.7201 8.65066 27.163 8.65066C26.6058 8.65066 24.3382 8.38709 24.5532 8.11411C24.9321 7.67521 25.2267 7.17476 25.4231 6.63625C25.4231 6.28797 25.3547 6.42916 24.5728 6.63625C23.7908 6.84334 21.9532 6.3821 21.5427 6.63625C21.1322 6.89041 21.4743 7.08808 21.7871 7.47402C22.0999 7.85996 21.7284 7.99174 21.875 8.33061C21.9384 8.49509 22.0401 8.6434 22.1723 8.76414C22.3044 8.88489 22.4636 8.97488 22.6374 9.02719C22.9698 9.09308 23.1164 8.59418 23.4292 8.84834C23.7419 9.10249 22.1194 10.0061 21.6698 10.345C21.2202 10.6839 20.6923 10.7592 20.839 10.345C20.9856 9.93084 20.7412 9.73317 20.5653 9.86495C20.3893 9.99674 19.0698 10.2509 18.7961 11.051C18.5224 11.8511 17.457 11.9923 17.0172 12.6512C16.5773 13.3102 16.0397 15.0045 15.1307 15.7482C14.2217 16.4918 12.3059 16.6895 12.4135 17.8285C12.521 18.9674 12.1398 20.9254 12.0811 20.5018C12.0225 20.0782 12.2571 18.9015 11.1037 18.6192C10.2759 18.2967 9.35833 18.2568 8.50371 18.5062C7.95305 18.577 7.39654 18.5959 6.84207 18.5627C11.0727 11.6704 17.6632 6.41173 25.4818 3.68994V3.71818Z" fill="#237CA1"/>
</svg>
