<svg width="90" height="91" viewBox="0 0 90 91" fill="none" xmlns="http://www.w3.org/2000/svg">
<path d="M64.9493 80.3447V81.3595C64.9493 85.7257 56.0166 89.2636 44.9975 89.2636C33.9772 89.2636 25.0444 85.7257 25.0444 81.3595V80.3447" fill="#64AC6B"/>
<path d="M2.48445 71.7694C2.15609 73.5342 1.6874 76.0871 1.38531 77.7352C1.1883 78.8108 1.71298 79.8878 2.68077 80.3959C4.01356 81.0955 6.15031 81.887 8.96313 81.8621C10.1701 81.8517 11.1946 80.9703 11.395 79.78L12.3269 74.2629" fill="#64AC6B"/>
<path d="M87.515 71.7695C87.8427 73.5344 88.3114 76.0873 88.6135 77.7353C88.8105 78.8109 88.2865 79.8879 87.318 80.396C85.9852 81.0956 83.8485 81.8871 81.0363 81.8622C79.8294 81.8519 78.8049 80.9705 78.6037 79.7801L77.6719 74.263" fill="#64AC6B"/>
<path d="M85.3667 73.4879C83.5653 74.1259 81.6352 74.4557 79.8144 74.6278C77.7979 74.8179 75.9342 73.5363 75.395 71.5841L67.043 41.3973V75.8175C67.043 78.0635 65.7807 80.1262 63.7684 81.1244C60.5491 82.7213 54.6836 84.6209 44.9994 84.6209C37.4133 84.6209 32.1693 83.4548 28.7067 82.1821C27.7492 81.8309 26.9287 81.4708 26.2312 81.1244C24.2189 80.1262 22.9566 78.0635 22.9566 75.8175V41.3973L14.6045 71.5841C14.0654 73.5363 12.2017 74.8179 10.1852 74.6278C9.15795 74.531 8.09546 74.3838 7.03987 74.1598L7.0378 74.1584C6.22623 73.9842 5.41744 73.7658 4.63283 73.4879C2.79403 72.8353 1.64512 71.002 1.8691 69.063C4.65634 45.0929 12.9005 25.9914 12.9005 25.9914C19.064 19.8273 28.717 16.3937 28.717 16.3937H61.2825C61.2825 16.3937 70.9356 19.8273 77.099 25.9914C77.099 25.9914 85.3432 45.0929 88.1305 69.063C88.3545 71.002 87.2056 72.8353 85.3667 73.4879Z" fill="#A6C48A"/>
<path d="M85.3672 73.4879C83.5657 74.1259 81.6357 74.4557 79.8149 74.6278C77.7984 74.8179 75.9347 73.5363 75.3955 71.5841L67.0435 41.3973C67.0435 38.0349 67.7513 35.0313 69.3627 32.4431L78.9812 69.3153C78.9812 69.3153 80.5407 73.4879 85.3672 73.4879Z" fill="#64AC6B"/>
<path d="M35.4342 16.3937L33.7122 19.8273C25.3781 22.3705 13.2317 27.45 7.16015 62.659C6.10941 67.5643 4.7545 71.8744 7.0378 74.1584C6.22623 73.9842 5.41744 73.7658 4.63283 73.4879C2.79403 72.8353 1.64512 71.002 1.8691 69.063C4.65634 45.0929 12.9005 25.9914 12.9005 25.9914C19.064 19.8273 28.717 16.3937 28.717 16.3937H35.4342Z" fill="#64AC6B"/>
<path d="M61.0328 7.69743V15.3167C61.0328 18.8257 53.8553 21.6703 44.9993 21.6703C43.67 21.6703 42.3773 21.6053 41.1426 21.4836C34.149 20.8006 28.9644 18.2989 28.9644 15.3167V7.69743C28.9644 4.18849 36.144 1.34387 44.9993 1.34387C53.8553 1.34387 61.0328 4.18849 61.0328 7.69743Z" fill="#A6C48A"/>
<path d="M41.1426 11.0743V21.4836C34.149 20.8006 28.9644 18.2989 28.9644 15.3167V7.69743C28.9644 4.18849 36.144 1.34387 44.9993 1.34387C41.1426 1.34387 36.2836 6.21532 41.1426 11.0743Z" fill="#64AC6B"/>
<path d="M44.9971 5.39062C41.0741 5.39062 37.6433 6.61281 35.7686 8.44055C37.6461 10.2676 41.0769 11.4898 44.9999 11.4898C48.9229 11.4898 52.3531 10.2676 54.2278 8.44055C52.3503 6.61281 48.9195 5.39062 44.9971 5.39062Z" fill="#64AC6B"/>
<path d="M28.7073 40.238V82.1821C27.7498 81.8309 26.9293 81.4708 26.2318 81.1244C24.2195 80.1262 22.9572 78.0634 22.9572 75.8175V41.3973C22.9572 38.5298 22.4415 35.9223 21.2905 33.61C21.2905 33.61 28.7073 33.9307 28.7073 40.238Z" fill="#64AC6B"/>
<path d="M53.2896 7.47761C51.6015 9.12355 48.425 10.1459 44.9997 10.1459C41.5751 10.1459 38.3973 9.12285 36.7057 7.47692C36.1742 6.95915 35.3232 6.9709 34.8054 7.50249C34.2876 8.03478 34.2987 8.88575 34.831 9.40351C37.0376 11.552 40.8389 12.8343 44.9997 12.8343C49.1612 12.8343 52.9619 11.5513 55.1664 9.40282C55.698 8.88505 55.709 8.0334 55.1906 7.5018C54.6721 6.97021 53.8212 6.95984 53.2896 7.47761Z" fill="black"/>
<path d="M89.9361 77.4932C89.6603 75.9897 89.2469 73.7347 88.9268 72.01C89.3907 71.0781 89.5932 70.0087 89.466 68.9075C86.6878 45.0182 78.4166 25.6513 78.3329 25.4585C78.2659 25.3022 78.1698 25.1605 78.0495 25.0409C72.5995 19.5909 64.685 16.2637 62.3761 15.3685C62.3761 15.3513 62.3775 15.334 62.3775 15.3167V7.69671C62.3775 2.69738 53.424 0 44.9994 0C36.5748 0 27.6213 2.69738 27.6213 7.69671V15.3167C27.6213 15.3347 27.6227 15.3513 27.6227 15.3692C25.3118 16.2651 17.3994 19.5916 11.95 25.0409C11.8297 25.1605 11.7336 25.3022 11.6666 25.4585C11.5822 25.6527 9.58376 30.3071 7.20783 37.9423C6.98731 38.6509 7.38341 39.4044 8.09197 39.6256C8.22539 39.6663 8.3595 39.6864 8.49223 39.6864C9.0653 39.6864 9.59551 39.3173 9.77524 38.7414C11.3839 33.5713 12.839 29.7403 13.5932 27.8468C19.0038 30.7841 21.5629 35.07 21.61 41.2238L13.3091 71.2261C12.9434 72.5512 11.6811 73.4188 10.3117 73.2895C8.28069 73.0974 6.56978 72.7483 5.08214 72.2208C3.82401 71.7749 3.05185 70.5389 3.20393 69.2179C4.15928 61.0013 5.86121 52.4695 8.26479 43.8597C8.46388 43.1442 8.04635 42.4031 7.33088 42.2033C6.61609 42.0036 5.87504 42.4218 5.67526 43.1366C3.23435 51.882 1.50477 60.5527 0.533518 68.9089C0.406323 70.0094 0.608868 71.0788 1.07272 72.01C0.753345 73.7354 0.339269 75.9897 0.0641393 77.4932C-0.240715 79.1557 0.560478 80.8003 2.05641 81.5856C3.47284 82.3287 5.79001 83.2066 8.83372 83.2066C8.88072 83.2066 8.92773 83.2066 8.97543 83.2059C10.8357 83.1893 12.4111 81.8427 12.7215 80.0039L13.5448 75.1283C14.6647 74.4156 15.5246 73.3034 15.9007 71.9429L21.6127 51.2964V75.8175C21.6127 77.7822 22.3814 79.5995 23.7025 80.933V81.3595C23.7025 86.6319 32.8585 90.6075 45.0001 90.6075C57.1404 90.6075 66.2957 86.6319 66.2957 81.3595V80.9344C67.6181 79.6009 68.3868 77.7828 68.3868 75.8182V71.4217C68.3868 70.6793 67.7854 70.0771 67.043 70.0771C66.3005 70.0771 65.6984 70.6793 65.6984 71.4217V75.8182C65.6984 77.5485 64.7064 79.1592 63.1711 79.9203C60.0845 81.4522 54.4264 83.2771 45.0001 83.2771C35.5731 83.2771 29.9157 81.4522 26.8284 79.9203C25.2931 79.1592 24.3011 77.5485 24.3011 75.8182V41.3973C24.3011 34.2764 21.3224 29.1153 15.2142 25.6728C20.0961 21.4283 26.4911 18.7081 28.5207 17.9069C30.9941 21.2417 38.1703 23.0141 44.9994 23.0141C51.8286 23.0141 59.0054 21.241 61.4781 17.9062C63.5057 18.7054 69.8966 21.42 74.7853 25.6728C68.6771 29.1153 65.6984 34.2764 65.6984 41.3973V66.0428C65.6984 66.7853 66.3005 67.3874 67.043 67.3874C67.7854 67.3874 68.3868 66.7853 68.3868 66.0428V51.2971L74.0988 71.9429C74.4749 73.3034 75.3349 74.4163 76.4547 75.129L77.278 80.0039C77.5891 81.8427 79.1646 83.1893 81.0241 83.2066H81.1658C84.2095 83.2066 86.5274 82.3287 87.9431 81.5863C89.4397 80.8003 90.2402 79.1557 89.9361 77.4932ZM10.0704 79.556C9.9771 80.1083 9.50633 80.5127 8.95124 80.5175C6.39212 80.5397 4.47105 79.8166 3.30624 79.2055C2.85691 78.9698 2.61704 78.4762 2.70829 77.9771C2.89009 76.9858 3.13204 75.6668 3.36708 74.3894C3.62561 74.5304 3.89798 74.6534 4.18417 74.755C5.88334 75.3565 7.80509 75.7526 10.0594 75.9655C10.2654 75.9848 10.47 75.9917 10.6732 75.9883L10.0704 79.556ZM62.9029 82.9937C62.0913 83.9601 60.6099 84.9079 58.6128 85.6987C54.9981 87.1303 50.164 87.9191 44.9994 87.9191C39.8349 87.9191 35.0001 87.1303 31.3853 85.6987C29.3876 84.9072 27.9048 83.9594 27.0939 82.993C30.6388 84.4724 36.3563 85.9655 44.9994 85.9655C53.6411 85.9655 59.358 84.4731 62.9029 82.9937ZM59.6891 15.3167C59.6891 17.4085 54.1008 20.3257 44.9994 20.3257C35.898 20.3257 30.3097 17.4085 30.3097 15.3167V7.69671C30.3097 5.60559 35.898 2.68839 44.9994 2.68839C54.1008 2.68839 59.6891 5.60559 59.6891 7.69671V15.3167ZM68.3896 41.2238C68.4373 35.0707 70.9957 30.7848 76.405 27.8475C78.2742 32.5565 84.477 49.28 86.7949 69.2172C86.9477 70.5396 86.1755 71.7749 84.9181 72.2208C83.4297 72.7483 81.7188 73.0974 79.6885 73.2895C78.3177 73.4188 77.0561 72.5512 76.6898 71.2261L68.3896 41.2238ZM86.6933 79.2055C85.5285 79.8166 83.6033 80.5424 81.0483 80.5175C80.4932 80.5127 80.0224 80.1083 79.9291 79.556L79.3263 75.9869C79.3567 75.9876 79.3858 75.9911 79.4162 75.9911C79.5897 75.9911 79.7646 75.9827 79.9409 75.9662C82.1944 75.7533 84.1162 75.3571 85.8167 74.755C86.1022 74.6534 86.3739 74.5304 86.6324 74.3894C86.8675 75.6675 87.1094 76.9858 87.2912 77.9771C87.3825 78.4762 87.1426 78.9698 86.6933 79.2055Z" fill="black"/>
</svg>
