<svg width="54" height="98" viewBox="0 0 54 98" fill="none" xmlns="http://www.w3.org/2000/svg">
<path d="M4.97849 25.266C8.23358 24.7106 11.3279 26.8999 11.8839 30.1578C12.0728 31.2638 12.2717 32.5495 12.4823 33.9105C12.7904 35.9018 13.3623 39.5977 14.0547 42.999C15.0267 40.3394 16.2102 36.6589 17.5945 31.5844C17.7911 30.8631 18.1165 30.2134 18.5317 29.6432C18.9107 29.0043 19.3629 28.3957 19.8938 27.8326C23.7807 23.7106 30.2737 23.52 34.3954 27.4066C46.7447 39.0517 52.8351 52.1447 53.5626 68.6125C53.7678 73.2508 50.8583 77.3035 46.6865 78.7539H50.8848C52.6051 78.7539 54 80.1488 54 81.8691V94.5888C54 96.3091 52.6051 97.704 50.8848 97.704H38.1651C36.4448 97.704 35.0499 96.3091 35.0499 94.5888V81.8691C35.0499 80.1488 36.4448 78.7539 38.1651 78.7539H39.2083C31.9296 76.5734 26.19 74.5217 21.9355 73.0009C20.4811 72.4814 18.9452 71.9323 17.5703 71.4658C17.5643 73.4044 17.6121 75.7447 17.6595 78.0466C17.727 81.3302 17.8111 85.4171 17.8111 90.1503C17.8111 94.4782 14.3026 97.9867 9.97467 97.9867C5.64672 97.9867 2.1383 94.4782 2.1383 90.1503C2.1383 85.5781 2.05965 81.7486 1.98984 78.3689C1.88896 73.4531 1.81601 69.9014 2.05396 67.0361C2.21268 65.1295 2.62501 60.1977 6.45828 57.0551C3.23881 52.4431 1.97103 44.2505 0.654518 35.7408C0.451344 34.4271 0.259285 33.1861 0.0863113 32.1722C-0.469929 28.914 1.72055 25.8222 4.97849 25.266ZM27.211 58.2426C28.5566 58.7236 30.0016 59.2396 31.5578 59.7839C30.2823 55.3403 28.189 51.3505 25.1428 47.5301C24.3737 49.5978 23.6214 51.3722 22.8805 52.8714C22.5257 53.5895 21.9167 54.8176 21.0257 56.1C22.7941 56.6642 24.7994 57.3806 27.211 58.2426Z" fill="#029C66"/>
<path d="M15.2461 24.4318C8.49947 24.4318 3.03021 18.9626 3.03021 12.2159C3.03021 5.46925 8.49947 0 15.2461 0C21.9928 0 27.462 5.46925 27.462 12.2159C27.462 18.9626 21.9928 24.4318 15.2461 24.4318Z" fill="#029C66"/>
</svg>
