<svg width="322" height="156" viewBox="0 0 322 156" fill="none" xmlns="http://www.w3.org/2000/svg">
<path d="M226.156 107.846C225.208 107.846 224.356 107.636 223.6 107.216C222.844 106.796 222.25 106.22 221.818 105.488C221.398 104.744 221.188 103.904 221.188 102.968C221.188 102.032 221.398 101.198 221.818 100.466C222.25 99.7218 222.844 99.1458 223.6 98.7378C224.356 98.3178 225.208 98.1078 226.156 98.1078C227.104 98.1078 227.95 98.3178 228.694 98.7378C229.45 99.1458 230.038 99.7218 230.458 100.466C230.89 101.198 231.106 102.032 231.106 102.968C231.106 103.904 230.89 104.744 230.458 105.488C230.038 106.22 229.45 106.796 228.694 107.216C227.95 107.636 227.104 107.846 226.156 107.846ZM226.156 106.334C226.768 106.334 227.314 106.196 227.794 105.92C228.286 105.632 228.67 105.236 228.946 104.732C229.222 104.216 229.36 103.628 229.36 102.968C229.36 102.308 229.222 101.726 228.946 101.222C228.67 100.706 228.286 100.31 227.794 100.034C227.314 99.7578 226.768 99.6198 226.156 99.6198C225.544 99.6198 224.992 99.7578 224.5 100.034C224.02 100.31 223.636 100.706 223.348 101.222C223.072 101.726 222.934 102.308 222.934 102.968C222.934 103.628 223.072 104.216 223.348 104.732C223.636 105.236 224.02 105.632 224.5 105.92C224.992 106.196 225.544 106.334 226.156 106.334ZM236.987 95.6958C235.955 95.6958 235.439 96.2538 235.439 97.3698V98.1978H238.211V99.6198H235.475V107.738H233.747V99.6198H232.127V98.1978H233.747V97.3518C233.747 96.4038 234.023 95.6538 234.575 95.1018C235.127 94.5498 235.901 94.2738 236.897 94.2738C237.281 94.2738 237.641 94.3218 237.977 94.4178C238.313 94.5138 238.601 94.6518 238.841 94.8318L238.319 96.1458C237.923 95.8458 237.479 95.6958 236.987 95.6958ZM248.833 107.846C247.861 107.846 246.991 107.636 246.223 107.216C245.467 106.796 244.873 106.22 244.441 105.488C244.009 104.744 243.793 103.904 243.793 102.968C243.793 102.032 244.009 101.198 244.441 100.466C244.873 99.7218 245.467 99.1458 246.223 98.7378C246.991 98.3178 247.861 98.1078 248.833 98.1078C249.697 98.1078 250.465 98.2818 251.137 98.6298C251.821 98.9778 252.349 99.4818 252.721 100.142L251.407 100.988C251.107 100.532 250.735 100.19 250.291 99.9618C249.847 99.7338 249.355 99.6198 248.815 99.6198C248.191 99.6198 247.627 99.7578 247.123 100.034C246.631 100.31 246.241 100.706 245.953 101.222C245.677 101.726 245.539 102.308 245.539 102.968C245.539 103.64 245.677 104.234 245.953 104.75C246.241 105.254 246.631 105.644 247.123 105.92C247.627 106.196 248.191 106.334 248.815 106.334C249.355 106.334 249.847 106.22 250.291 105.992C250.735 105.764 251.107 105.422 251.407 104.966L252.721 105.794C252.349 106.454 251.821 106.964 251.137 107.324C250.465 107.672 249.697 107.846 248.833 107.846ZM254.835 94.3818H256.563V107.738H254.835V94.3818ZM263.948 107.846C263 107.846 262.148 107.636 261.392 107.216C260.636 106.796 260.042 106.22 259.61 105.488C259.19 104.744 258.98 103.904 258.98 102.968C258.98 102.032 259.19 101.198 259.61 100.466C260.042 99.7218 260.636 99.1458 261.392 98.7378C262.148 98.3178 263 98.1078 263.948 98.1078C264.896 98.1078 265.742 98.3178 266.486 98.7378C267.242 99.1458 267.83 99.7218 268.25 100.466C268.682 101.198 268.898 102.032 268.898 102.968C268.898 103.904 268.682 104.744 268.25 105.488C267.83 106.22 267.242 106.796 266.486 107.216C265.742 107.636 264.896 107.846 263.948 107.846ZM263.948 106.334C264.56 106.334 265.106 106.196 265.586 105.92C266.078 105.632 266.462 105.236 266.738 104.732C267.014 104.216 267.152 103.628 267.152 102.968C267.152 102.308 267.014 101.726 266.738 101.222C266.462 100.706 266.078 100.31 265.586 100.034C265.106 99.7578 264.56 99.6198 263.948 99.6198C263.336 99.6198 262.784 99.7578 262.292 100.034C261.812 100.31 261.428 100.706 261.14 101.222C260.864 101.726 260.726 102.308 260.726 102.968C260.726 103.628 260.864 104.216 261.14 104.732C261.428 105.236 261.812 105.632 262.292 105.92C262.784 106.196 263.336 106.334 263.948 106.334ZM276.652 107.18C276.4 107.396 276.088 107.564 275.716 107.684C275.344 107.792 274.96 107.846 274.564 107.846C273.604 107.846 272.86 107.588 272.332 107.072C271.804 106.556 271.54 105.818 271.54 104.858V99.6198H269.92V98.1978H271.54V96.1098H273.268V98.1978H276.004V99.6198H273.268V104.786C273.268 105.302 273.394 105.698 273.646 105.974C273.91 106.25 274.282 106.388 274.762 106.388C275.29 106.388 275.74 106.238 276.112 105.938L276.652 107.18ZM283.835 98.1078C285.047 98.1078 286.007 98.4618 286.715 99.1698C287.435 99.8658 287.795 100.892 287.795 102.248V107.738H286.067V102.446C286.067 101.522 285.845 100.826 285.401 100.358C284.957 99.8898 284.321 99.6558 283.493 99.6558C282.557 99.6558 281.819 99.9318 281.279 100.484C280.739 101.024 280.469 101.804 280.469 102.824V107.738H278.741V94.3818H280.469V99.5478C280.829 99.0918 281.297 98.7378 281.873 98.4858C282.461 98.2338 283.115 98.1078 283.835 98.1078ZM290.993 98.1978H292.721V107.738H290.993V98.1978ZM291.857 96.3618C291.521 96.3618 291.239 96.2538 291.011 96.0378C290.795 95.8218 290.687 95.5578 290.687 95.2458C290.687 94.9338 290.795 94.6698 291.011 94.4538C291.239 94.2258 291.521 94.1118 291.857 94.1118C292.193 94.1118 292.469 94.2198 292.685 94.4358C292.913 94.6398 293.027 94.8978 293.027 95.2098C293.027 95.5338 292.913 95.8098 292.685 96.0378C292.469 96.2538 292.193 96.3618 291.857 96.3618ZM301.115 98.1078C302.327 98.1078 303.287 98.4618 303.995 99.1698C304.715 99.8658 305.075 100.892 305.075 102.248V107.738H303.347V102.446C303.347 101.522 303.125 100.826 302.681 100.358C302.237 99.8898 301.601 99.6558 300.773 99.6558C299.837 99.6558 299.099 99.9318 298.559 100.484C298.019 101.024 297.749 101.804 297.749 102.824V107.738H296.021V98.1978H297.677V99.6378C298.025 99.1458 298.493 98.7678 299.081 98.5038C299.681 98.2398 300.359 98.1078 301.115 98.1078ZM317.451 98.1978V106.442C317.451 108.11 317.037 109.34 316.209 110.132C315.381 110.936 314.145 111.338 312.501 111.338C311.601 111.338 310.743 111.212 309.927 110.96C309.111 110.72 308.451 110.372 307.947 109.916L308.775 108.584C309.219 108.968 309.765 109.268 310.413 109.484C311.073 109.712 311.751 109.826 312.447 109.826C313.563 109.826 314.385 109.562 314.913 109.034C315.453 108.506 315.723 107.702 315.723 106.622V105.866C315.315 106.358 314.811 106.73 314.211 106.982C313.623 107.222 312.981 107.342 312.285 107.342C311.373 107.342 310.545 107.15 309.801 106.766C309.069 106.37 308.493 105.824 308.073 105.128C307.653 104.42 307.443 103.616 307.443 102.716C307.443 101.816 307.653 101.018 308.073 100.322C308.493 99.6138 309.069 99.0678 309.801 98.6838C310.545 98.2998 311.373 98.1078 312.285 98.1078C313.005 98.1078 313.671 98.2398 314.283 98.5038C314.907 98.7678 315.417 99.1578 315.813 99.6738V98.1978H317.451ZM312.483 105.83C313.107 105.83 313.665 105.698 314.157 105.434C314.661 105.17 315.051 104.804 315.327 104.336C315.615 103.856 315.759 103.316 315.759 102.716C315.759 101.792 315.453 101.048 314.841 100.484C314.229 99.9078 313.443 99.6198 312.483 99.6198C311.511 99.6198 310.719 99.9078 310.107 100.484C309.495 101.048 309.189 101.792 309.189 102.716C309.189 103.316 309.327 103.856 309.603 104.336C309.891 104.804 310.281 105.17 310.773 105.434C311.277 105.698 311.847 105.83 312.483 105.83ZM183.45 120.198H185.178V129.738H183.45V120.198ZM184.314 118.362C183.978 118.362 183.696 118.254 183.468 118.038C183.252 117.822 183.144 117.558 183.144 117.246C183.144 116.934 183.252 116.67 183.468 116.454C183.696 116.226 183.978 116.112 184.314 116.112C184.65 116.112 184.926 116.22 185.142 116.436C185.37 116.64 185.484 116.898 185.484 117.21C185.484 117.534 185.37 117.81 185.142 118.038C184.926 118.254 184.65 118.362 184.314 118.362ZM191.214 129.846C190.434 129.846 189.684 129.744 188.964 129.54C188.244 129.324 187.68 129.054 187.272 128.73L187.992 127.362C188.412 127.662 188.922 127.902 189.522 128.082C190.122 128.262 190.728 128.352 191.34 128.352C192.852 128.352 193.608 127.92 193.608 127.056C193.608 126.768 193.506 126.54 193.302 126.372C193.098 126.204 192.84 126.084 192.528 126.012C192.228 125.928 191.796 125.838 191.232 125.742C190.464 125.622 189.834 125.484 189.342 125.328C188.862 125.172 188.448 124.908 188.1 124.536C187.752 124.164 187.578 123.642 187.578 122.97C187.578 122.106 187.938 121.416 188.658 120.9C189.378 120.372 190.344 120.108 191.556 120.108C192.192 120.108 192.828 120.186 193.464 120.342C194.1 120.498 194.622 120.708 195.03 120.972L194.292 122.34C193.512 121.836 192.594 121.584 191.538 121.584C190.806 121.584 190.248 121.704 189.864 121.944C189.48 122.184 189.288 122.502 189.288 122.898C189.288 123.21 189.396 123.456 189.612 123.636C189.828 123.816 190.092 123.948 190.404 124.032C190.728 124.116 191.178 124.212 191.754 124.32C192.522 124.452 193.14 124.596 193.608 124.752C194.088 124.896 194.496 125.148 194.832 125.508C195.168 125.868 195.336 126.372 195.336 127.02C195.336 127.884 194.964 128.574 194.22 129.09C193.488 129.594 192.486 129.846 191.214 129.846ZM207.693 129.18C207.441 129.396 207.129 129.564 206.757 129.684C206.385 129.792 206.001 129.846 205.605 129.846C204.645 129.846 203.901 129.588 203.373 129.072C202.845 128.556 202.581 127.818 202.581 126.858V121.62H200.961V120.198H202.581V118.11H204.309V120.198H207.045V121.62H204.309V126.786C204.309 127.302 204.435 127.698 204.687 127.974C204.951 128.25 205.323 128.388 205.803 128.388C206.331 128.388 206.781 128.238 207.153 127.938L207.693 129.18ZM214.876 120.108C216.088 120.108 217.048 120.462 217.756 121.17C218.476 121.866 218.836 122.892 218.836 124.248V129.738H217.108V124.446C217.108 123.522 216.886 122.826 216.442 122.358C215.998 121.89 215.362 121.656 214.534 121.656C213.598 121.656 212.86 121.932 212.32 122.484C211.78 123.024 211.51 123.804 211.51 124.824V129.738H209.782V116.382H211.51V121.548C211.87 121.092 212.338 120.738 212.914 120.486C213.502 120.234 214.156 120.108 214.876 120.108ZM223.69 121.8C223.99 121.248 224.434 120.828 225.022 120.54C225.61 120.252 226.324 120.108 227.164 120.108V121.782C227.068 121.77 226.936 121.764 226.768 121.764C225.832 121.764 225.094 122.046 224.554 122.61C224.026 123.162 223.762 123.954 223.762 124.986V129.738H222.034V120.198H223.69V121.8ZM233.292 129.846C232.344 129.846 231.492 129.636 230.736 129.216C229.98 128.796 229.386 128.22 228.954 127.488C228.534 126.744 228.324 125.904 228.324 124.968C228.324 124.032 228.534 123.198 228.954 122.466C229.386 121.722 229.98 121.146 230.736 120.738C231.492 120.318 232.344 120.108 233.292 120.108C234.24 120.108 235.086 120.318 235.83 120.738C236.586 121.146 237.174 121.722 237.594 122.466C238.026 123.198 238.242 124.032 238.242 124.968C238.242 125.904 238.026 126.744 237.594 127.488C237.174 128.22 236.586 128.796 235.83 129.216C235.086 129.636 234.24 129.846 233.292 129.846ZM233.292 128.334C233.904 128.334 234.45 128.196 234.93 127.92C235.422 127.632 235.806 127.236 236.082 126.732C236.358 126.216 236.496 125.628 236.496 124.968C236.496 124.308 236.358 123.726 236.082 123.222C235.806 122.706 235.422 122.31 234.93 122.034C234.45 121.758 233.904 121.62 233.292 121.62C232.68 121.62 232.128 121.758 231.636 122.034C231.156 122.31 230.772 122.706 230.484 123.222C230.208 123.726 230.07 124.308 230.07 124.968C230.07 125.628 230.208 126.216 230.484 126.732C230.772 127.236 231.156 127.632 231.636 127.92C232.128 128.196 232.68 128.334 233.292 128.334ZM254.804 120.198L251.24 129.738H249.584L246.83 122.502L244.04 129.738H242.384L238.838 120.198H240.476L243.248 127.794L246.128 120.198H247.586L250.412 127.83L253.256 120.198H254.804ZM261.652 120.108C262.864 120.108 263.824 120.462 264.532 121.17C265.252 121.866 265.612 122.892 265.612 124.248V129.738H263.884V124.446C263.884 123.522 263.662 122.826 263.218 122.358C262.774 121.89 262.138 121.656 261.31 121.656C260.374 121.656 259.636 121.932 259.096 122.484C258.556 123.024 258.286 123.804 258.286 124.824V129.738H256.558V120.198H258.214V121.638C258.562 121.146 259.03 120.768 259.618 120.504C260.218 120.24 260.896 120.108 261.652 120.108ZM277.118 120.108C278.438 120.108 279.446 120.432 280.142 121.08C280.85 121.728 281.204 122.694 281.204 123.978V129.738H279.566V128.478C279.278 128.922 278.864 129.264 278.324 129.504C277.796 129.732 277.166 129.846 276.434 129.846C275.366 129.846 274.508 129.588 273.86 129.072C273.224 128.556 272.906 127.878 272.906 127.038C272.906 126.198 273.212 125.526 273.824 125.022C274.436 124.506 275.408 124.248 276.74 124.248H279.476V123.906C279.476 123.162 279.26 122.592 278.828 122.196C278.396 121.8 277.76 121.602 276.92 121.602C276.356 121.602 275.804 121.698 275.264 121.89C274.724 122.07 274.268 122.316 273.896 122.628L273.176 121.332C273.668 120.936 274.256 120.636 274.94 120.432C275.624 120.216 276.35 120.108 277.118 120.108ZM276.722 128.514C277.382 128.514 277.952 128.37 278.432 128.082C278.912 127.782 279.26 127.362 279.476 126.822V125.49H276.812C275.348 125.49 274.616 125.982 274.616 126.966C274.616 127.446 274.802 127.824 275.174 128.1C275.546 128.376 276.062 128.514 276.722 128.514ZM298.662 120.198L295.098 129.738H293.442L290.688 122.502L287.898 129.738H286.242L282.696 120.198H284.334L287.106 127.794L289.986 120.198H291.444L294.27 127.83L297.114 120.198H298.662ZM303.59 120.108C304.91 120.108 305.918 120.432 306.614 121.08C307.322 121.728 307.676 122.694 307.676 123.978V129.738H306.038V128.478C305.75 128.922 305.336 129.264 304.796 129.504C304.268 129.732 303.638 129.846 302.906 129.846C301.838 129.846 300.98 129.588 300.332 129.072C299.696 128.556 299.378 127.878 299.378 127.038C299.378 126.198 299.684 125.526 300.296 125.022C300.908 124.506 301.88 124.248 303.212 124.248H305.948V123.906C305.948 123.162 305.732 122.592 305.3 122.196C304.868 121.8 304.232 121.602 303.392 121.602C302.828 121.602 302.276 121.698 301.736 121.89C301.196 122.07 300.74 122.316 300.368 122.628L299.648 121.332C300.14 120.936 300.728 120.636 301.412 120.432C302.096 120.216 302.822 120.108 303.59 120.108ZM303.194 128.514C303.854 128.514 304.424 128.37 304.904 128.082C305.384 127.782 305.732 127.362 305.948 126.822V125.49H303.284C301.82 125.49 301.088 125.982 301.088 126.966C301.088 127.446 301.274 127.824 301.646 128.1C302.018 128.376 302.534 128.514 303.194 128.514ZM319.14 120.198L314.514 130.692C314.106 131.664 313.626 132.348 313.074 132.744C312.534 133.14 311.88 133.338 311.112 133.338C310.644 133.338 310.188 133.26 309.744 133.104C309.312 132.96 308.952 132.744 308.664 132.456L309.402 131.16C309.894 131.628 310.464 131.862 311.112 131.862C311.532 131.862 311.88 131.748 312.156 131.52C312.444 131.304 312.702 130.926 312.93 130.386L313.236 129.72L309.024 120.198H310.824L314.154 127.83L317.448 120.198H319.14ZM237.969 147.022C237.969 147.154 237.957 147.328 237.933 147.544H230.193C230.301 148.384 230.667 149.062 231.291 149.578C231.927 150.082 232.713 150.334 233.649 150.334C234.789 150.334 235.707 149.95 236.403 149.182L237.357 150.298C236.925 150.802 236.385 151.186 235.737 151.45C235.101 151.714 234.387 151.846 233.595 151.846C232.587 151.846 231.693 151.642 230.913 151.234C230.133 150.814 229.527 150.232 229.095 149.488C228.675 148.744 228.465 147.904 228.465 146.968C228.465 146.044 228.669 145.21 229.077 144.466C229.497 143.722 230.067 143.146 230.787 142.738C231.519 142.318 232.341 142.108 233.253 142.108C234.165 142.108 234.975 142.318 235.683 142.738C236.403 143.146 236.961 143.722 237.357 144.466C237.765 145.21 237.969 146.062 237.969 147.022ZM233.253 143.566C232.425 143.566 231.729 143.818 231.165 144.322C230.613 144.826 230.289 145.486 230.193 146.302H236.313C236.217 145.498 235.887 144.844 235.323 144.34C234.771 143.824 234.081 143.566 233.253 143.566ZM243.579 142.108C244.899 142.108 245.907 142.432 246.603 143.08C247.311 143.728 247.665 144.694 247.665 145.978V151.738H246.027V150.478C245.739 150.922 245.325 151.264 244.785 151.504C244.257 151.732 243.627 151.846 242.895 151.846C241.827 151.846 240.969 151.588 240.321 151.072C239.685 150.556 239.367 149.878 239.367 149.038C239.367 148.198 239.673 147.526 240.285 147.022C240.897 146.506 241.869 146.248 243.201 146.248H245.937V145.906C245.937 145.162 245.721 144.592 245.289 144.196C244.857 143.8 244.221 143.602 243.381 143.602C242.817 143.602 242.265 143.698 241.725 143.89C241.185 144.07 240.729 144.316 240.357 144.628L239.637 143.332C240.129 142.936 240.717 142.636 241.401 142.432C242.085 142.216 242.811 142.108 243.579 142.108ZM243.183 150.514C243.843 150.514 244.413 150.37 244.893 150.082C245.373 149.782 245.721 149.362 245.937 148.822V147.49H243.273C241.809 147.49 241.077 147.982 241.077 148.966C241.077 149.446 241.263 149.824 241.635 150.1C242.007 150.376 242.523 150.514 243.183 150.514ZM255.073 151.846C254.101 151.846 253.231 151.636 252.463 151.216C251.707 150.796 251.113 150.22 250.681 149.488C250.249 148.744 250.033 147.904 250.033 146.968C250.033 146.032 250.249 145.198 250.681 144.466C251.113 143.722 251.707 143.146 252.463 142.738C253.231 142.318 254.101 142.108 255.073 142.108C255.937 142.108 256.705 142.282 257.377 142.63C258.061 142.978 258.589 143.482 258.961 144.142L257.647 144.988C257.347 144.532 256.975 144.19 256.531 143.962C256.087 143.734 255.595 143.62 255.055 143.62C254.431 143.62 253.867 143.758 253.363 144.034C252.871 144.31 252.481 144.706 252.193 145.222C251.917 145.726 251.779 146.308 251.779 146.968C251.779 147.64 251.917 148.234 252.193 148.75C252.481 149.254 252.871 149.644 253.363 149.92C253.867 150.196 254.431 150.334 255.055 150.334C255.595 150.334 256.087 150.22 256.531 149.992C256.975 149.764 257.347 149.422 257.647 148.966L258.961 149.794C258.589 150.454 258.061 150.964 257.377 151.324C256.705 151.672 255.937 151.846 255.073 151.846ZM266.169 142.108C267.381 142.108 268.341 142.462 269.049 143.17C269.769 143.866 270.129 144.892 270.129 146.248V151.738H268.401V146.446C268.401 145.522 268.179 144.826 267.735 144.358C267.291 143.89 266.655 143.656 265.827 143.656C264.891 143.656 264.153 143.932 263.613 144.484C263.073 145.024 262.803 145.804 262.803 146.824V151.738H261.075V138.382H262.803V143.548C263.163 143.092 263.631 142.738 264.207 142.486C264.795 142.234 265.449 142.108 266.169 142.108ZM286.603 142.198L281.977 152.692C281.569 153.664 281.089 154.348 280.537 154.744C279.997 155.14 279.343 155.338 278.575 155.338C278.107 155.338 277.651 155.26 277.207 155.104C276.775 154.96 276.415 154.744 276.127 154.456L276.865 153.16C277.357 153.628 277.927 153.862 278.575 153.862C278.995 153.862 279.343 153.748 279.619 153.52C279.907 153.304 280.165 152.926 280.393 152.386L280.699 151.72L276.487 142.198H278.287L281.617 149.83L284.911 142.198H286.603ZM296.574 147.022C296.574 147.154 296.562 147.328 296.538 147.544H288.798C288.906 148.384 289.272 149.062 289.896 149.578C290.532 150.082 291.318 150.334 292.254 150.334C293.394 150.334 294.312 149.95 295.008 149.182L295.962 150.298C295.53 150.802 294.99 151.186 294.342 151.45C293.706 151.714 292.992 151.846 292.2 151.846C291.192 151.846 290.298 151.642 289.518 151.234C288.738 150.814 288.132 150.232 287.7 149.488C287.28 148.744 287.07 147.904 287.07 146.968C287.07 146.044 287.274 145.21 287.682 144.466C288.102 143.722 288.672 143.146 289.392 142.738C290.124 142.318 290.946 142.108 291.858 142.108C292.77 142.108 293.58 142.318 294.288 142.738C295.008 143.146 295.566 143.722 295.962 144.466C296.37 145.21 296.574 146.062 296.574 147.022ZM291.858 143.566C291.03 143.566 290.334 143.818 289.77 144.322C289.218 144.826 288.894 145.486 288.798 146.302H294.918C294.822 145.498 294.492 144.844 293.928 144.34C293.376 143.824 292.686 143.566 291.858 143.566ZM302.184 142.108C303.504 142.108 304.512 142.432 305.208 143.08C305.916 143.728 306.27 144.694 306.27 145.978V151.738H304.632V150.478C304.344 150.922 303.93 151.264 303.39 151.504C302.862 151.732 302.232 151.846 301.5 151.846C300.432 151.846 299.574 151.588 298.926 151.072C298.29 150.556 297.972 149.878 297.972 149.038C297.972 148.198 298.278 147.526 298.89 147.022C299.502 146.506 300.474 146.248 301.806 146.248H304.542V145.906C304.542 145.162 304.326 144.592 303.894 144.196C303.462 143.8 302.826 143.602 301.986 143.602C301.422 143.602 300.87 143.698 300.33 143.89C299.79 144.07 299.334 144.316 298.962 144.628L298.242 143.332C298.734 142.936 299.322 142.636 300.006 142.432C300.69 142.216 301.416 142.108 302.184 142.108ZM301.788 150.514C302.448 150.514 303.018 150.37 303.498 150.082C303.978 149.782 304.326 149.362 304.542 148.822V147.49H301.878C300.414 147.49 299.682 147.982 299.682 148.966C299.682 149.446 299.868 149.824 300.24 150.1C300.612 150.376 301.128 150.514 301.788 150.514ZM311.124 143.8C311.424 143.248 311.868 142.828 312.456 142.54C313.044 142.252 313.758 142.108 314.598 142.108V143.782C314.502 143.77 314.37 143.764 314.202 143.764C313.266 143.764 312.528 144.046 311.988 144.61C311.46 145.162 311.196 145.954 311.196 146.986V151.738H309.468V142.198H311.124V143.8ZM317.089 151.846C316.753 151.846 316.465 151.732 316.225 151.504C315.985 151.264 315.865 150.964 315.865 150.604C315.865 150.256 315.985 149.968 316.225 149.74C316.465 149.5 316.753 149.38 317.089 149.38C317.425 149.38 317.707 149.494 317.935 149.722C318.163 149.95 318.277 150.244 318.277 150.604C318.277 150.964 318.157 151.264 317.917 151.504C317.689 151.732 317.413 151.846 317.089 151.846Z" fill="black"/>
<path d="M0.6922 145.937V72.1885C3.31254 71.7281 9.47485 70.8074 13.1614 70.8074C17.7696 70.8074 32.9495 72.1885 35.9312 72.1885C38.913 72.1885 60.8696 69.1501 63.0382 72.1885C65.2068 75.2268 79.3024 72.1885 86.3502 70.8074C93.398 69.4264 97.7351 73.5695 102.072 74.3982C106.409 75.2268 103.97 84.8942 108.849 87.6563C113.728 90.4184 113.457 101.743 116.439 106.439C119.692 107.267 123.758 120.802 123.758 124.945C126.468 126.05 128.095 131.85 128.095 134.612C128.095 136.822 129.36 143.083 129.992 145.937H0.6922Z" fill="#595353"/>
<path d="M143.341 90.9892L146.7 92.3732L152.283 89.4327L149.141 84.2076L143 87.4423L139.044 85.8C137.239 85.0566 135.041 85.5926 134.037 87.1813C133.293 88.3577 133.355 89.7392 133.999 90.8107C134.392 91.4648 135.007 92.0103 135.798 92.3362L136.8 92.7489C138.146 90.7563 140.925 89.994 143.341 90.9892ZM154.516 88.2564C154.902 88.0534 155.32 87.9652 155.734 87.96C155.707 87.8616 155.689 87.7614 155.633 87.6683L153.119 83.4883C152.772 82.9113 151.991 82.7067 151.374 83.0314L150.258 83.6195L153.4 88.8445L154.516 88.2564ZM159.403 93.9384L156.889 89.7583C156.543 89.1813 155.761 88.9767 155.145 89.3014L154.028 89.8896L157.798 96.1596L158.915 95.5715C159.531 95.2467 159.75 94.5154 159.403 93.9384ZM146.77 93.7123L142.825 92.087C141.019 91.3436 138.821 91.8797 137.817 93.4683C137.074 94.6447 137.125 96.0093 137.769 97.0807C138.163 97.7349 138.778 98.2803 139.569 98.6063L144.846 100.78C145.574 101.08 146.367 101.218 147.161 101.181C147.956 101.145 148.731 100.936 149.424 100.57L156.682 96.7477L152.911 90.4777L146.77 93.7123Z" fill="black"/>
<path d="M139.101 126.036L142.461 127.42L148.044 124.48L144.902 119.255L138.76 122.489L134.804 120.847C132.999 120.104 130.801 120.64 129.797 122.229C129.054 123.405 129.115 124.786 129.759 125.858C130.153 126.512 130.768 127.057 131.559 127.383L132.56 127.796C133.906 125.803 136.685 125.041 139.101 126.036ZM150.277 123.304C150.662 123.101 151.08 123.012 151.494 123.007C151.467 122.909 151.449 122.809 151.393 122.716L148.88 118.536C148.533 117.958 147.751 117.754 147.135 118.079L146.018 118.667L149.16 123.892L150.277 123.304ZM155.164 128.986L152.65 124.806C152.303 124.229 151.522 124.024 150.905 124.349L149.788 124.937L153.559 131.207L154.675 130.619C155.292 130.294 155.511 129.563 155.164 128.986ZM142.531 128.759L138.585 127.134C136.78 126.391 134.582 126.927 133.578 128.516C132.834 129.692 132.885 131.056 133.53 132.128C133.923 132.782 134.538 133.328 135.329 133.653L140.606 135.828C141.334 136.128 142.127 136.265 142.922 136.228C143.716 136.192 144.491 135.983 145.185 135.618L152.442 131.795L148.672 125.525L142.531 128.759Z" fill="black"/>
<path fill-rule="evenodd" clip-rule="evenodd" d="M131.505 99.1532C136.479 98.1362 135.197 98.2771 140.215 99.7792L139.516 103.631L138.701 103.643L145.31 111.761L135.982 118.389L129.404 110.249L129.172 110.98L125.02 110.575C124.823 105.648 124.333 106.766 126.717 102.555C127.271 102.549 129.841 103.808 130.841 103.105C131.881 102.374 131.344 99.6712 131.505 99.1532Z" fill="black"/>
<path fill-rule="evenodd" clip-rule="evenodd" d="M130.598 129.998C132.961 125.777 132.252 126.787 136.706 124.153L139.411 127.129L138.897 127.721L149.79 128.196L149.225 139.143L138.334 138.632L138.784 139.268L135.785 141.986C131.624 138.963 132.224 140.032 130.308 135.617C130.659 135.216 133.341 134.181 133.408 133.013C133.477 131.797 130.919 130.446 130.598 129.998Z" fill="black"/>
<path fill-rule="evenodd" clip-rule="evenodd" d="M157.098 112.041C161.578 114.305 160.508 113.629 163.266 117.83L160.053 120.324L159.426 119.836L158.783 130.024L147.093 129.358L147.776 119.172L147.091 119.585L144.224 116.744C147.507 112.888 146.357 113.437 151.098 111.699C151.522 112.032 152.594 114.555 153.842 114.632C155.14 114.713 156.615 112.335 157.098 112.041Z" fill="black"/>
<path d="M137.458 76.4565L137.995 75.6918L136.005 74.4824L135.468 75.2471L137.458 76.4565Z" fill="black"/>
<path d="M132.469 83.5806L134.594 80.5538L132.623 79.3572L130.498 82.3839L132.469 83.5806Z" fill="black"/>
<path d="M135.086 79.8313L136.948 77.1802L134.975 75.9824L133.113 78.6336L135.086 79.8313Z" fill="black"/>
<path d="M131.442 85.0802L131.978 84.3156L129.988 83.1062L129.452 83.8709L131.442 85.0802Z" fill="black"/>
<path d="M119.198 77.7349L119.184 77.7542L128.454 83.3828L135.259 73.6909L130.918 68.0072L115.774 61.9415L108.897 71.7364C109.202 71.7541 109.494 71.8438 109.748 71.9974L119.198 77.7349Z" fill="black"/>
<path d="M117.481 86.2852L118.319 78.0431L117.732 77.6864L117.748 77.6632L109.345 72.5607C109.197 72.471 109.022 72.4269 108.844 72.4345C108.666 72.442 108.493 72.5009 108.348 72.603C108.203 72.7051 108.094 72.8457 108.035 73.0057C107.976 73.1658 107.97 73.3376 108.018 73.498L113.629 86.2872L117.481 86.2852Z" fill="black"/>
<path d="M145.046 134.963L144.987 135.871L147.368 135.979L147.428 135.071L145.046 134.963Z" fill="black"/>
<path d="M145.562 126.467L145.326 130.059L147.687 130.166L147.923 126.574L145.562 126.467Z" fill="black"/>
<path d="M145.298 130.938L145.091 134.083L147.455 134.19L147.663 131.045L145.298 130.938Z" fill="black"/>
<path d="M145.646 124.679L145.587 125.587L147.968 125.695L148.028 124.787L145.646 124.679Z" fill="black"/>
<path d="M160.202 125.354L160.204 125.332L149.099 124.829L148.341 136.32L155.171 139.17L171.639 137.306L172.405 125.693C172.129 125.82 171.826 125.88 171.522 125.866L160.202 125.354Z" fill="black"/>
<path d="M157.057 117.136L160.733 124.598L161.436 124.63L161.435 124.657L171.5 125.113C171.677 125.121 171.853 125.077 172.005 124.987C172.157 124.898 172.276 124.766 172.348 124.611C172.419 124.456 172.44 124.284 172.406 124.12C172.371 123.955 172.285 123.805 172.157 123.689L160.419 115.336L157.057 117.136Z" fill="black"/>
<path d="M19.8566 71.6506C23.7327 71.6506 26.875 68.6958 26.875 65.0509C26.875 61.4061 23.7327 58.4513 19.8566 58.4513C15.9805 58.4513 12.8383 61.4061 12.8383 65.0509C12.8383 68.6958 15.9805 71.6506 19.8566 71.6506Z" fill="#1D1D1B"/>
<path d="M63.972 71.6506C67.8481 71.6506 70.9903 68.6958 70.9903 65.0509C70.9903 61.4061 67.8481 58.4513 63.972 58.4513C60.0958 58.4513 56.9536 61.4061 56.9536 65.0509C56.9536 68.6958 60.0958 71.6506 63.972 71.6506Z" fill="#1D1D1B"/>
<path d="M83.0217 71.6506C86.8979 71.6506 90.0401 68.6958 90.0401 65.0509C90.0401 61.4061 86.8979 58.4513 83.0217 58.4513C79.1456 58.4513 76.0034 61.4061 76.0034 65.0509C76.0034 68.6958 79.1456 71.6506 83.0217 71.6506Z" fill="#1D1D1B"/>
<path d="M97.239 56.9381C97.109 56.7515 96.9311 56.5988 96.7216 56.4942C96.5122 56.3895 96.278 56.3363 96.0408 56.3394H35.1466C34.7477 56.3394 34.3652 56.1904 34.0831 55.9252C33.8011 55.66 33.6426 55.3003 33.6426 54.9252V39.1238C33.6426 38.7487 33.4842 38.389 33.2021 38.1238C32.9201 37.8586 32.5376 37.7096 32.1387 37.7096H14.3421C14.1091 37.709 13.8791 37.7594 13.6703 37.8568C13.4615 37.9541 13.2796 38.0958 13.139 38.2706L3.11277 50.7674C2.91554 51.0112 2.80977 51.3096 2.81198 51.616V61.9868C2.81198 62.3619 2.97043 62.7216 3.25248 62.9868C3.53452 63.252 3.91705 63.401 4.31592 63.401H11.9509C12.3485 61.7079 13.3489 60.1932 14.7864 59.1073C16.224 58.0215 18.0127 57.4296 19.8566 57.4296C21.7005 57.4296 23.4891 58.0215 24.9267 59.1073C26.3643 60.1932 27.3646 61.7079 27.7622 63.401H56.0663C56.4639 61.7079 57.4643 60.1932 58.9018 59.1073C60.3394 58.0215 62.1281 57.4296 63.972 57.4296C65.8159 57.4296 67.6045 58.0215 69.0421 59.1073C70.4797 60.1932 71.48 61.7079 71.8776 63.401H75.1161C75.5137 61.7079 76.5141 60.1932 77.9517 59.1073C79.3892 58.0215 81.1779 57.4296 83.0218 57.4296C84.8657 57.4296 86.6544 58.0215 88.0919 59.1073C89.5295 60.1932 90.5298 61.7079 90.9275 63.401H94.7976C94.9691 63.4052 95.1397 63.3763 95.2989 63.3162C97.1086 62.6232 99.6152 60.5396 97.239 56.9381ZM27.3762 50.6732H8.82772L15.0941 42.1879H27.3762V50.6732Z" fill="#595353"/>
<path d="M116.409 53.8739L107.681 35.9087C107.783 35.4053 107.707 34.8844 107.465 34.4251C107.224 33.9658 106.83 33.593 106.343 33.3631L51.9405 8.01581C51.3448 7.73827 50.6563 7.69459 50.0264 7.89439C49.3965 8.09418 48.8769 8.52108 48.5817 9.08118L40.0193 25.354C39.7241 25.9141 39.6777 26.5615 39.8902 27.1538C40.1026 27.7461 40.5566 28.2348 41.1522 28.5124L49.6745 32.4816L46.0952 40.9669C45.5532 41.0769 45.05 41.3152 44.6334 41.6592C44.2167 42.0032 43.9002 42.4415 43.7139 42.9326L39.4077 54.2981C39.1178 55.0639 39.1634 55.9066 39.5343 56.6408C39.9051 57.375 40.571 57.9406 41.3854 58.2131C42.1997 58.4857 43.0959 58.4429 43.8766 58.0941C44.6574 57.7453 45.2589 57.1192 45.5487 56.3534L49.845 44.9973C50.0267 44.5192 50.0792 44.0062 49.9979 43.5042C49.9165 43.0023 49.7037 42.5273 49.3788 42.1218L52.8178 33.9571L95.5545 53.8644C96.1502 54.142 96.8387 54.1856 97.4686 53.9859C98.0985 53.7861 98.6181 53.3592 98.9133 52.7991L105.731 39.8308L113.216 55.2456C113.409 55.6438 113.763 55.9535 114.199 56.1064C114.635 56.2594 115.118 56.2431 115.542 56.0612C115.965 55.8793 116.295 55.5466 116.457 55.1364C116.62 54.7262 116.603 54.2721 116.409 53.8739Z" fill="#1D1D1B"/>
<path d="M230.945 8.09021V29.0902H226.085V11.9902H221.885V8.09021H230.945ZM243.593 29.4502C241.853 29.4502 240.303 29.0202 238.943 28.1602C237.583 27.3002 236.513 26.0602 235.733 24.4402C234.973 22.8002 234.593 20.8502 234.593 18.5902C234.593 16.3302 234.973 14.3902 235.733 12.7702C236.513 11.1302 237.583 9.88021 238.943 9.02021C240.303 8.16021 241.853 7.73021 243.593 7.73021C245.333 7.73021 246.883 8.16021 248.243 9.02021C249.603 9.88021 250.663 11.1302 251.423 12.7702C252.203 14.3902 252.593 16.3302 252.593 18.5902C252.593 20.8502 252.203 22.8002 251.423 24.4402C250.663 26.0602 249.603 27.3002 248.243 28.1602C246.883 29.0202 245.333 29.4502 243.593 29.4502ZM243.593 25.3402C244.873 25.3402 245.873 24.7902 246.593 23.6902C247.333 22.5902 247.703 20.8902 247.703 18.5902C247.703 16.2902 247.333 14.5902 246.593 13.4902C245.873 12.3902 244.873 11.8402 243.593 11.8402C242.333 11.8402 241.333 12.3902 240.593 13.4902C239.873 14.5902 239.513 16.2902 239.513 18.5902C239.513 20.8902 239.873 22.5902 240.593 23.6902C241.333 24.7902 242.333 25.3402 243.593 25.3402ZM257.363 23.5102C258.203 23.5102 258.893 23.7802 259.433 24.3202C259.973 24.8402 260.243 25.5302 260.243 26.3902C260.243 26.7902 260.193 27.1902 260.093 27.5902C259.993 27.9902 259.773 28.5902 259.433 29.3902L257.723 33.7102H254.753L256.073 28.9402C255.573 28.7402 255.173 28.4202 254.873 27.9802C254.593 27.5202 254.453 26.9902 254.453 26.3902C254.453 25.5302 254.723 24.8402 255.263 24.3202C255.823 23.7802 256.523 23.5102 257.363 23.5102ZM271.044 29.4502C269.304 29.4502 267.754 29.0202 266.394 28.1602C265.034 27.3002 263.964 26.0602 263.184 24.4402C262.424 22.8002 262.044 20.8502 262.044 18.5902C262.044 16.3302 262.424 14.3902 263.184 12.7702C263.964 11.1302 265.034 9.88021 266.394 9.02021C267.754 8.16021 269.304 7.73021 271.044 7.73021C272.784 7.73021 274.334 8.16021 275.694 9.02021C277.054 9.88021 278.114 11.1302 278.874 12.7702C279.654 14.3902 280.044 16.3302 280.044 18.5902C280.044 20.8502 279.654 22.8002 278.874 24.4402C278.114 26.0602 277.054 27.3002 275.694 28.1602C274.334 29.0202 272.784 29.4502 271.044 29.4502ZM271.044 25.3402C272.324 25.3402 273.324 24.7902 274.044 23.6902C274.784 22.5902 275.154 20.8902 275.154 18.5902C275.154 16.2902 274.784 14.5902 274.044 13.4902C273.324 12.3902 272.324 11.8402 271.044 11.8402C269.784 11.8402 268.784 12.3902 268.044 13.4902C267.324 14.5902 266.964 16.2902 266.964 18.5902C266.964 20.8902 267.324 22.5902 268.044 23.6902C268.784 24.7902 269.784 25.3402 271.044 25.3402ZM291.405 29.4502C289.665 29.4502 288.115 29.0202 286.755 28.1602C285.395 27.3002 284.325 26.0602 283.545 24.4402C282.785 22.8002 282.405 20.8502 282.405 18.5902C282.405 16.3302 282.785 14.3902 283.545 12.7702C284.325 11.1302 285.395 9.88021 286.755 9.02021C288.115 8.16021 289.665 7.73021 291.405 7.73021C293.145 7.73021 294.695 8.16021 296.055 9.02021C297.415 9.88021 298.475 11.1302 299.235 12.7702C300.015 14.3902 300.405 16.3302 300.405 18.5902C300.405 20.8502 300.015 22.8002 299.235 24.4402C298.475 26.0602 297.415 27.3002 296.055 28.1602C294.695 29.0202 293.145 29.4502 291.405 29.4502ZM291.405 25.3402C292.685 25.3402 293.685 24.7902 294.405 23.6902C295.145 22.5902 295.515 20.8902 295.515 18.5902C295.515 16.2902 295.145 14.5902 294.405 13.4902C293.685 12.3902 292.685 11.8402 291.405 11.8402C290.145 11.8402 289.145 12.3902 288.405 13.4902C287.685 14.5902 287.325 16.2902 287.325 18.5902C287.325 20.8902 287.685 22.5902 288.405 23.6902C289.145 24.7902 290.145 25.3402 291.405 25.3402ZM311.767 29.4502C310.027 29.4502 308.477 29.0202 307.117 28.1602C305.757 27.3002 304.687 26.0602 303.907 24.4402C303.147 22.8002 302.767 20.8502 302.767 18.5902C302.767 16.3302 303.147 14.3902 303.907 12.7702C304.687 11.1302 305.757 9.88021 307.117 9.02021C308.477 8.16021 310.027 7.73021 311.767 7.73021C313.507 7.73021 315.057 8.16021 316.417 9.02021C317.777 9.88021 318.837 11.1302 319.597 12.7702C320.377 14.3902 320.767 16.3302 320.767 18.5902C320.767 20.8502 320.377 22.8002 319.597 24.4402C318.837 26.0602 317.777 27.3002 316.417 28.1602C315.057 29.0202 313.507 29.4502 311.767 29.4502ZM311.767 25.3402C313.047 25.3402 314.047 24.7902 314.767 23.6902C315.507 22.5902 315.877 20.8902 315.877 18.5902C315.877 16.2902 315.507 14.5902 314.767 13.4902C314.047 12.3902 313.047 11.8402 311.767 11.8402C310.507 11.8402 309.507 12.3902 308.767 13.4902C308.047 14.5902 307.687 16.2902 307.687 18.5902C307.687 20.8902 308.047 22.5902 308.767 23.6902C309.507 24.7902 310.507 25.3402 311.767 25.3402ZM188.226 49.7102C190.246 49.7102 191.846 50.3102 193.026 51.5102C194.226 52.6902 194.826 54.4702 194.826 56.8502V66.0902H190.146V57.5702C190.146 56.2902 189.876 55.3402 189.336 54.7202C188.816 54.0802 188.066 53.7602 187.086 53.7602C185.986 53.7602 185.116 54.1202 184.476 54.8402C183.836 55.5402 183.516 56.5902 183.516 57.9902V66.0902H178.836V57.5702C178.836 55.0302 177.816 53.7602 175.776 53.7602C174.696 53.7602 173.836 54.1202 173.196 54.8402C172.556 55.5402 172.236 56.5902 172.236 57.9902V66.0902H167.556V49.9502H172.026V51.8102C172.626 51.1302 173.356 50.6102 174.216 50.2502C175.096 49.8902 176.056 49.7102 177.096 49.7102C178.236 49.7102 179.266 49.9402 180.186 50.4002C181.106 50.8402 181.846 51.4902 182.406 52.3502C183.066 51.5102 183.896 50.8602 184.896 50.4002C185.916 49.9402 187.026 49.7102 188.226 49.7102ZM199.02 49.9502H203.7V66.0902H199.02V49.9502ZM201.36 47.7002C200.5 47.7002 199.8 47.4502 199.26 46.9502C198.72 46.4502 198.45 45.8302 198.45 45.0902C198.45 44.3502 198.72 43.7302 199.26 43.2302C199.8 42.7302 200.5 42.4802 201.36 42.4802C202.22 42.4802 202.92 42.7202 203.46 43.2002C204 43.6802 204.27 44.2802 204.27 45.0002C204.27 45.7802 204 46.4302 203.46 46.9502C202.92 47.4502 202.22 47.7002 201.36 47.7002ZM208.044 43.8302H212.724V66.0902H208.044V43.8302ZM217.067 43.8302H221.747V66.0902H217.067V43.8302ZM226.091 49.9502H230.771V66.0902H226.091V49.9502ZM228.431 47.7002C227.571 47.7002 226.871 47.4502 226.331 46.9502C225.791 46.4502 225.521 45.8302 225.521 45.0902C225.521 44.3502 225.791 43.7302 226.331 43.2302C226.871 42.7302 227.571 42.4802 228.431 42.4802C229.291 42.4802 229.991 42.7202 230.531 43.2002C231.071 43.6802 231.341 44.2802 231.341 45.0002C231.341 45.7802 231.071 46.4302 230.531 46.9502C229.991 47.4502 229.291 47.7002 228.431 47.7002ZM242.794 66.3302C241.094 66.3302 239.564 65.9802 238.204 65.2802C236.864 64.5602 235.814 63.5702 235.054 62.3102C234.294 61.0502 233.914 59.6202 233.914 58.0202C233.914 56.4202 234.294 54.9902 235.054 53.7302C235.814 52.4702 236.864 51.4902 238.204 50.7902C239.564 50.0702 241.094 49.7102 242.794 49.7102C244.494 49.7102 246.014 50.0702 247.354 50.7902C248.694 51.4902 249.744 52.4702 250.504 53.7302C251.264 54.9902 251.644 56.4202 251.644 58.0202C251.644 59.6202 251.264 61.0502 250.504 62.3102C249.744 63.5702 248.694 64.5602 247.354 65.2802C246.014 65.9802 244.494 66.3302 242.794 66.3302ZM242.794 62.4902C243.994 62.4902 244.974 62.0902 245.734 61.2902C246.514 60.4702 246.904 59.3802 246.904 58.0202C246.904 56.6602 246.514 55.5802 245.734 54.7802C244.974 53.9602 243.994 53.5502 242.794 53.5502C241.594 53.5502 240.604 53.9602 239.824 54.7802C239.044 55.5802 238.654 56.6602 238.654 58.0202C238.654 59.3802 239.044 60.4702 239.824 61.2902C240.604 62.0902 241.594 62.4902 242.794 62.4902ZM264.582 49.7102C266.582 49.7102 268.192 50.3102 269.412 51.5102C270.652 52.7102 271.272 54.4902 271.272 56.8502V66.0902H266.592V57.5702C266.592 56.2902 266.312 55.3402 265.752 54.7202C265.192 54.0802 264.382 53.7602 263.322 53.7602C262.142 53.7602 261.202 54.1302 260.502 54.8702C259.802 55.5902 259.452 56.6702 259.452 58.1102V66.0902H254.772V49.9502H259.242V51.8402C259.862 51.1602 260.632 50.6402 261.552 50.2802C262.472 49.9002 263.482 49.7102 264.582 49.7102ZM290.941 59.7602L288.691 61.9802V66.0902H284.011V43.8302H288.691V56.4302L295.531 49.9502H301.111L294.391 56.7902L301.711 66.0902H296.041L290.941 59.7602ZM319.762 49.9502V63.3902C319.762 66.3502 318.992 68.5502 317.452 69.9902C315.912 71.4302 313.662 72.1502 310.702 72.1502C309.142 72.1502 307.662 71.9602 306.262 71.5802C304.862 71.2002 303.702 70.6502 302.782 69.9302L304.642 66.5702C305.322 67.1302 306.182 67.5702 307.222 67.8902C308.262 68.2302 309.302 68.4002 310.342 68.4002C311.962 68.4002 313.152 68.0302 313.912 67.2902C314.692 66.5702 315.082 65.4702 315.082 63.9902V63.3002C313.862 64.6402 312.162 65.3102 309.982 65.3102C308.502 65.3102 307.142 64.9902 305.902 64.3502C304.682 63.6902 303.712 62.7702 302.992 61.5902C302.272 60.4102 301.912 59.0502 301.912 57.5102C301.912 55.9702 302.272 54.6102 302.992 53.4302C303.712 52.2502 304.682 51.3402 305.902 50.7002C307.142 50.0402 308.502 49.7102 309.982 49.7102C312.322 49.7102 314.102 50.4802 315.322 52.0202V49.9502H319.762ZM310.912 61.4702C312.152 61.4702 313.162 61.1102 313.942 60.3902C314.742 59.6502 315.142 58.6902 315.142 57.5102C315.142 56.3302 314.742 55.3802 313.942 54.6602C313.162 53.9202 312.152 53.5502 310.912 53.5502C309.672 53.5502 308.652 53.9202 307.852 54.6602C307.052 55.3802 306.652 56.3302 306.652 57.5102C306.652 58.6902 307.052 59.6502 307.852 60.3902C308.652 61.1102 309.672 61.4702 310.912 61.4702Z" fill="#50514F"/>
</svg>
