<svg width="40" height="40" viewBox="0 0 40 40" fill="none" xmlns="http://www.w3.org/2000/svg">
<path d="M24.0406 36.5528C23.7108 36.6356 23.3745 36.7091 23.0407 36.7711C22.1681 36.9345 21.5913 37.7798 21.7527 38.6596C21.8324 39.0924 22.0764 39.4529 22.4077 39.6882C22.7491 39.9303 23.1837 40.0396 23.6265 39.9566C24.024 39.8823 24.4246 39.7949 24.8178 39.6961C25.6794 39.48 26.2043 38.6008 25.9894 37.7332C25.7749 36.8649 24.9028 36.3366 24.0406 36.5528Z" fill="#50514F"/>
<path d="M35.9315 14.8419C36.0442 15.1839 36.2592 15.463 36.5308 15.6559C36.9336 15.9416 37.4606 16.0378 37.9635 15.8703C38.8067 15.5883 39.2635 14.6724 38.9846 13.8235C38.8575 13.4365 38.7165 13.0483 38.5663 12.6704C38.2364 11.8397 37.3011 11.4354 36.4761 11.7676C35.6519 12.0997 35.2503 13.0421 35.5804 13.873C35.7066 14.1907 35.8248 14.5168 35.9315 14.8419Z" fill="#50514F"/>
<path d="M29.2655 34.2403C28.9818 34.429 28.6891 34.6115 28.3941 34.7826C27.6246 35.2297 27.3611 36.2205 27.8048 36.9952C27.9252 37.206 28.0857 37.3782 28.2705 37.5099C28.7665 37.8614 29.4402 37.9141 30.0011 37.5886C30.3517 37.3849 30.7004 37.1682 31.0382 36.9432C31.7789 36.4503 31.9828 35.4453 31.4932 34.6989C31.0037 33.9522 30.0064 33.7471 29.2655 34.2403Z" fill="#50514F"/>
<path d="M39.9848 19.3658C39.9498 18.4718 39.2022 17.7759 38.3144 17.8108C37.4278 17.8461 36.7365 18.5994 36.7713 19.493C36.7846 19.8347 36.788 20.1815 36.7802 20.5228C36.7678 21.0835 37.04 21.5833 37.463 21.8836C37.715 22.0624 38.0209 22.1706 38.3525 22.1782C39.2401 22.198 39.9756 21.4889 39.9953 20.5945C40.0041 20.1866 40.0008 19.7734 39.9848 19.3658Z" fill="#50514F"/>
<path d="M35.6697 29.9794C34.958 29.4415 33.9511 29.5875 33.4181 30.3031C33.214 30.5772 32.999 30.8478 32.7789 31.1085C32.2037 31.7892 32.2849 32.8118 32.9608 33.3917C32.9993 33.4246 33.0382 33.4548 33.0787 33.4832C33.7505 33.9604 34.6843 33.8507 35.2276 33.2086C35.4904 32.8976 35.7467 32.5743 35.9906 32.247C36.5237 31.5314 36.3794 30.5165 35.6697 29.9794Z" fill="#50514F"/>
<path d="M38.033 24.1239C37.1857 23.8563 36.2833 24.3314 36.0177 25.185C35.9161 25.5111 35.8035 25.8388 35.6819 26.1597C35.4149 26.8661 35.6707 27.6434 36.2571 28.0599C36.3647 28.136 36.4832 28.2005 36.6119 28.2496C37.4416 28.5685 38.3706 28.1492 38.6869 27.3131C38.8312 26.9316 38.9652 26.5417 39.0864 26.154C39.3516 25.3003 38.8803 24.3916 38.033 24.1239Z" fill="#50514F"/>
<path d="M17.0248 36.7857C15.5872 36.5257 14.2081 36.083 12.9003 35.4654C12.8848 35.4573 12.871 35.448 12.8548 35.4405C12.5466 35.2944 12.2389 35.1379 11.9407 34.9744C11.9397 34.9732 11.9378 34.9724 11.9362 34.9717C11.3891 34.6682 10.8551 34.3324 10.3364 33.9646C2.77211 28.5972 0.953364 18.0314 6.28218 10.412C7.4409 8.75581 8.84314 7.37408 10.4064 6.27894C10.4257 6.26543 10.4449 6.25201 10.464 6.23841C15.9728 2.41497 23.4529 2.1573 29.3023 6.08623L28.046 7.91471C27.6967 8.42365 27.9116 8.79453 28.523 8.73909L33.9802 8.24696C34.5924 8.19153 34.9586 7.65808 34.7939 7.06253L33.3285 1.74398C33.1644 1.14774 32.7444 1.07637 32.3948 1.58522L31.1355 3.41803C26.8428 0.515376 21.6941 -0.59145 16.5838 0.301182C16.0691 0.390913 15.5616 0.500738 15.0611 0.628579C15.0573 0.629272 15.0542 0.629705 15.0511 0.630398C15.0317 0.635162 15.0121 0.641484 14.9933 0.646768C10.5866 1.78668 6.74176 4.37563 3.99825 8.06949C3.97512 8.09712 3.95131 8.12414 3.92947 8.1542C3.83824 8.27797 3.74769 8.4046 3.65904 8.53122C3.51407 8.73875 3.37117 8.95147 3.23445 9.16419C3.21734 9.18983 3.20427 9.2159 3.18931 9.2418C0.925334 12.7757 -0.166671 16.8612 0.0206037 21.0205C0.0210336 21.0342 0.0202598 21.048 0.0206037 21.062C0.0387465 21.4683 0.0707327 21.8803 0.114155 22.2858C0.116477 22.3119 0.122238 22.3367 0.126623 22.3629C0.171507 22.7706 0.227827 23.1794 0.29842 23.588C1.01588 27.7574 2.96841 31.5092 5.89421 34.4285C5.90101 34.4353 5.90806 34.4428 5.91494 34.4499C5.91734 34.4525 5.92001 34.4539 5.92233 34.4564C6.7084 35.2374 7.56343 35.9598 8.48407 36.6129C10.8934 38.323 13.5762 39.4534 16.4573 39.9742C17.3315 40.1324 18.1666 39.5463 18.3235 38.6661C18.4802 37.7853 17.8988 36.9435 17.0248 36.7857Z" fill="#50514F"/>
<path d="M19.0135 7.06006C18.2944 7.06006 17.7119 7.64729 17.7119 8.3706V21.4272L29.5666 27.6002C29.7574 27.6997 29.9617 27.7466 30.1627 27.7466C30.6336 27.7466 31.0884 27.4883 31.3196 27.0377C31.6493 26.3945 31.3998 25.6043 30.7613 25.2721L20.3136 19.8313V8.3706C20.3135 7.64729 19.7317 7.06006 19.0135 7.06006Z" fill="#50514F"/>
</svg>
