<svg width="38" height="76" viewBox="0 0 38 76" fill="none" xmlns="http://www.w3.org/2000/svg">
<path d="M18.8066 0C8.42074 0 0 8.42074 0 18.8066C0 29.1924 8.42074 37.6132 18.8066 37.6132C29.1924 37.6132 37.6132 29.1924 37.6132 18.8066C37.6132 8.42074 29.1924 0 18.8066 0ZM23.6579 25.7535L20.3802 29.0312L13.4333 22.0843L10.1556 18.8066L13.4333 15.5289L20.3802 8.58194L23.6579 11.8597L16.7187 18.8066L23.6579 25.7535Z" fill="#CCE6F4"/>
<path d="M18.8066 38C8.42074 38 0 46.4207 0 56.8066C0 67.1924 8.42074 75.6132 18.8066 75.6132C29.1924 75.6132 37.6132 67.1924 37.6132 56.8066C37.6132 46.4207 29.1924 38 18.8066 38ZM23.6579 63.7535L20.3802 67.0312L13.4333 60.0843L10.1556 56.8066L13.4333 53.5289L20.3802 46.5819L23.6579 49.8597L16.7187 56.8066L23.6579 63.7535Z" fill="#FFE066"/>
</svg>
