<svg width="48" height="76" viewBox="0 0 48 76" fill="none" xmlns="http://www.w3.org/2000/svg">
<path d="M47.665 20.0083L25.291 0.448658C24.6049 -0.149553 23.3955 -0.149553 22.7094 0.448658L0.335356 20.0083C-0.420523 20.67 0.18418 21.7214 1.32381 21.7214H6.40564V36.1147C6.40564 37.1571 7.48713 37.9909 8.81282 37.9909H18.1276V28.4105C18.1276 27.6763 18.8951 27.0781 19.837 27.0781H28.1517C29.0936 27.0781 29.8611 27.6763 29.8611 28.4105V38H39.1759C40.5132 38 41.5831 37.1571 41.5831 36.1238V21.7214H46.6649C47.8162 21.7214 48.4209 20.6791 47.665 20.0083Z" fill="#CCE6F4"/>
<path d="M47.665 58.0083L25.291 38.4487C24.6049 37.8504 23.3955 37.8504 22.7094 38.4487L0.335356 58.0083C-0.420523 58.67 0.18418 59.7214 1.32381 59.7214H6.40564V74.1147C6.40564 75.1571 7.48713 75.9909 8.81282 75.9909H18.1276V66.4105C18.1276 65.6763 18.8951 65.0781 19.837 65.0781H28.1517C29.0936 65.0781 29.8611 65.6763 29.8611 66.4105V76H39.1759C40.5132 76 41.5831 75.1571 41.5831 74.1238V59.7214H46.6649C47.8162 59.7214 48.4209 58.6791 47.665 58.0083Z" fill="#FFE066"/>
</svg>
