<svg width="37" height="74" viewBox="0 0 37 74" fill="none" xmlns="http://www.w3.org/2000/svg">
<path d="M-8.08661e-07 18.5C-3.62082e-07 28.7165 8.28347 37 18.5 37C28.7165 37 37 28.7165 37 18.5C37 8.28347 28.7165 -1.13603e-06 18.5 -6.89451e-07C8.28347 -2.42873e-07 -1.25524e-06 8.28347 -8.08661e-07 18.5ZM21.7243 13.2143L28.558 20.048L25.3337 23.2722L18.5 16.4386L11.6663 23.2722L8.44204 20.048L15.2757 13.2143L18.5 9.99L21.7243 13.2143Z" fill="#CCE6F4"/>
<path d="M-8.08661e-07 55.5C-3.62082e-07 65.7165 8.28347 74 18.5 74C28.7165 74 37 65.7165 37 55.5C37 45.2835 28.7165 37 18.5 37C8.28347 37 -1.25524e-06 45.2835 -8.08661e-07 55.5ZM21.7243 50.2143L28.558 57.048L25.3337 60.2722L18.5 53.4386L11.6663 60.2722L8.44204 57.048L15.2757 50.2143L18.5 46.99L21.7243 50.2143Z" fill="#FFE066"/>
</svg>
